M48
; DRILL file {KiCad 8.0.9-8.0.9-0~ubuntu24.04.1} date 2026-07-05T23:25:52+0000
; FORMAT={2:4/ absolute / inch / suppress leading zeros}
; #@! TF.CreationDate,2026-07-05T23:25:52+00:00
; #@! TF.GenerationSoftware,Kicad,Pcbnew,8.0.9-8.0.9-0~ubuntu24.04.1
; #@! TF.FileFunction,MixedPlating,1,2
FMAT,2
INCH,TZ
; #@! TA.AperFunction,Plated,PTH,ComponentDrill
T1C0.0118
; #@! TA.AperFunction,Plated,PTH,ComponentDrill
T2C0.0426
; #@! TA.AperFunction,Plated,PTH,ComponentDrill
T3C0.0472
; #@! TA.AperFunction,NonPlated,NPTH,ComponentDrill
T4C0.0925
; #@! TA.AperFunction,NonPlated,NPTH,ComponentDrill
T5C0.1634
%
G90
G05
T1
X9803Y19803
X11329Y18553
X11408Y19685
X11413Y18209
X11413Y18937
X11443Y17874
X11620Y17234
X12136Y18770
X12136Y17746
X12136Y16978
T2
X32736Y5504
T3
X23878Y5504
X23878Y4520
X23878Y3536
X23878Y2552
X24862Y5504
X24862Y4520
X24862Y3536
X24862Y2552
X25846Y5504
X25846Y4520
X25846Y3536
X25846Y2552
X26831Y5504
X26831Y4520
X26831Y3536
X26831Y2552
X27815Y5504
X27815Y4520
X27815Y3536
X27815Y2552
X28799Y5504
X28799Y4520
X28799Y3536
X28799Y2552
X29783Y5504
X29783Y4520
X29783Y3536
X29783Y2552
X30768Y5504
X30768Y4520
X30768Y3536
X30768Y2552
X31752Y5504
X31752Y4520
X31752Y3536
X31752Y2552
X32736Y4520
X32736Y3536
X32736Y2552
X34114Y5504
X34114Y4520
X34114Y3536
X34114Y2552
X35571Y5504
X35571Y4520
X35571Y3536
X35571Y2552
T4
X21339Y5898
X38110Y5898
T5
X19724Y4382
X39724Y4382
M30
