M48
; DRILL file {KiCad 8.0.9-8.0.9-0~ubuntu24.04.1} date 2026-07-05T21:41:08+0000
; FORMAT={2:4/ absolute / inch / suppress leading zeros}
; #@! TF.CreationDate,2026-07-05T21:41:08+00:00
; #@! TF.GenerationSoftware,Kicad,Pcbnew,8.0.9-8.0.9-0~ubuntu24.04.1
; #@! TF.FileFunction,MixedPlating,1,2
FMAT,2
INCH,TZ
; #@! TA.AperFunction,Plated,PTH,ComponentDrill
T1C0.0118
; #@! TA.AperFunction,Plated,PTH,ComponentDrill
T2C0.0426
; #@! TA.AperFunction,Plated,PTH,ComponentDrill
T3C0.0472
; #@! TA.AperFunction,NonPlated,NPTH,ComponentDrill
T4C0.0925
; #@! TA.AperFunction,NonPlated,NPTH,ComponentDrill
T5C0.1634
%
G90
G05
T1
X9803Y19803
X11329Y18553
X11408Y19685
X11413Y18209
X11413Y18937
X11443Y17874
X11620Y17234
X12136Y18770
X12136Y17746
X12136Y16978
T2
X30413Y8405
T3
X21555Y8405
X21555Y7421
X21555Y6437
X21555Y5453
X22539Y8405
X22539Y7421
X22539Y6437
X22539Y5453
X23524Y8405
X23524Y7421
X23524Y6437
X23524Y5453
X24508Y8405
X24508Y7421
X24508Y6437
X24508Y5453
X25492Y8405
X25492Y7421
X25492Y6437
X25492Y5453
X26476Y8405
X26476Y7421
X26476Y6437
X26476Y5453
X27461Y8405
X27461Y7421
X27461Y6437
X27461Y5453
X28445Y8405
X28445Y7421
X28445Y6437
X28445Y5453
X29429Y8405
X29429Y7421
X29429Y6437
X29429Y5453
X30413Y7421
X30413Y6437
X30413Y5453
X31791Y8405
X31791Y7421
X31791Y6437
X31791Y5453
X33248Y8405
X33248Y7421
X33248Y6437
X33248Y5453
T4
X19016Y8799
X35787Y8799
T5
X17402Y7283
X37402Y7283
M30
