M48
; DRILL file {KiCad 8.0.9-8.0.9-0~ubuntu24.04.1} date 2026-07-06T02:55:58+0000
; FORMAT={2:4/ absolute / inch / suppress leading zeros}
; #@! TF.CreationDate,2026-07-06T02:55:58+00:00
; #@! TF.GenerationSoftware,Kicad,Pcbnew,8.0.9-8.0.9-0~ubuntu24.04.1
; #@! TF.FileFunction,MixedPlating,1,2
FMAT,2
INCH,TZ
; #@! TA.AperFunction,Plated,PTH,ComponentDrill
T1C0.0118
; #@! TA.AperFunction,Plated,PTH,ComponentDrill
T2C0.0426
; #@! TA.AperFunction,Plated,PTH,ComponentDrill
T3C0.0472
; #@! TA.AperFunction,NonPlated,NPTH,ComponentDrill
T4C0.0925
; #@! TA.AperFunction,NonPlated,NPTH,ComponentDrill
T5C0.1634
%
G90
G05
T1
X10120Y15064
X11646Y13814
X11724Y14946
X11730Y13470
X11730Y14198
X11760Y13135
X11937Y12495
X12453Y14031
X12453Y13007
X12453Y12239
T2
X28012Y5906
T3
X19153Y5906
X19153Y4921
X19153Y3937
X19153Y2953
X20138Y5906
X20138Y4921
X20138Y3937
X20138Y2953
X21122Y5906
X21122Y4921
X21122Y3937
X21122Y2953
X22106Y5906
X22106Y4921
X22106Y3937
X22106Y2953
X23090Y5906
X23090Y4921
X23090Y3937
X23090Y2953
X24075Y5906
X24075Y4921
X24075Y3937
X24075Y2953
X25059Y5906
X25059Y4921
X25059Y3937
X25059Y2953
X26043Y5906
X26043Y4921
X26043Y3937
X26043Y2953
X27028Y5906
X27028Y4921
X27028Y3937
X27028Y2953
X28012Y4921
X28012Y3937
X28012Y2953
X29390Y5906
X29390Y4921
X29390Y3937
X29390Y2953
X30846Y5906
X30846Y4921
X30846Y3937
X30846Y2953
T4
X16614Y6299
X33386Y6299
T5
X15000Y4784
X35000Y4784
M30
