M48
; DRILL file {KiCad 8.0.9-8.0.9-0~ubuntu24.04.1} date 2026-07-06T02:30:04+0000
; FORMAT={2:4/ absolute / inch / suppress leading zeros}
; #@! TF.CreationDate,2026-07-06T02:30:04+00:00
; #@! TF.GenerationSoftware,Kicad,Pcbnew,8.0.9-8.0.9-0~ubuntu24.04.1
; #@! TF.FileFunction,MixedPlating,1,2
FMAT,2
INCH,TZ
; #@! TA.AperFunction,Plated,PTH,ComponentDrill
T1C0.0118
; #@! TA.AperFunction,Plated,PTH,ComponentDrill
T2C0.0426
; #@! TA.AperFunction,Plated,PTH,ComponentDrill
T3C0.0472
; #@! TA.AperFunction,NonPlated,NPTH,ComponentDrill
T4C0.0925
; #@! TA.AperFunction,NonPlated,NPTH,ComponentDrill
T5C0.1634
%
G90
G05
T1
X10120Y15064
X11646Y13814
X11724Y14946
X11730Y13470
X11730Y14198
X11760Y13135
X11937Y12495
X12453Y14031
X12453Y13007
X12453Y12239
T2
X32736Y5701
T3
X23878Y5701
X23878Y4717
X23878Y3733
X23878Y2748
X24862Y5701
X24862Y4717
X24862Y3733
X24862Y2748
X25846Y5701
X25846Y4717
X25846Y3733
X25846Y2748
X26831Y5701
X26831Y4717
X26831Y3733
X26831Y2748
X27815Y5701
X27815Y4717
X27815Y3733
X27815Y2748
X28799Y5701
X28799Y4717
X28799Y3733
X28799Y2748
X29783Y5701
X29783Y4717
X29783Y3733
X29783Y2748
X30768Y5701
X30768Y4717
X30768Y3733
X30768Y2748
X31752Y5701
X31752Y4717
X31752Y3733
X31752Y2748
X32736Y4717
X32736Y3733
X32736Y2748
X34114Y5701
X34114Y4717
X34114Y3733
X34114Y2748
X35571Y5701
X35571Y4717
X35571Y3733
X35571Y2748
T4
X21339Y6095
X38110Y6095
T5
X19724Y4579
X39724Y4579
M30
