G04 #@! TF.GenerationSoftware,KiCad,Pcbnew,8.0.9-8.0.9-0~ubuntu24.04.1*
G04 #@! TF.CreationDate,2026-07-05T21:41:08+00:00*
G04 #@! TF.ProjectId,luis48,6c756973-3438-42e6-9b69-6361645f7063,rev?*
G04 #@! TF.SameCoordinates,Original*
G04 #@! TF.FileFunction,Legend,Top*
G04 #@! TF.FilePolarity,Positive*
%FSLAX46Y46*%
G04 Gerber Fmt 4.6, Leading zero omitted, Abs format (unit mm)*
G04 Created by KiCad (PCBNEW 8.0.9-8.0.9-0~ubuntu24.04.1) date 2026-07-05 21:41:08*
%MOMM*%
%LPD*%
G01*
G04 APERTURE LIST*
%ADD10C,0.150000*%
%ADD11C,0.254000*%
%ADD12C,0.200000*%
G04 APERTURE END LIST*
D10*
X37334871Y53635511D02*
X37334871Y52825988D01*
X37334871Y52825988D02*
X37382490Y52730750D01*
X37382490Y52730750D02*
X37430109Y52683130D01*
X37430109Y52683130D02*
X37525347Y52635511D01*
X37525347Y52635511D02*
X37715823Y52635511D01*
X37715823Y52635511D02*
X37811061Y52683130D01*
X37811061Y52683130D02*
X37858680Y52730750D01*
X37858680Y52730750D02*
X37906299Y52825988D01*
X37906299Y52825988D02*
X37906299Y53635511D01*
X38906299Y52635511D02*
X38334871Y52635511D01*
X38620585Y52635511D02*
X38620585Y53635511D01*
X38620585Y53635511D02*
X38525347Y53492654D01*
X38525347Y53492654D02*
X38430109Y53397416D01*
X38430109Y53397416D02*
X38334871Y53349797D01*
X68837790Y25885084D02*
X68837790Y25075561D01*
X68837790Y25075561D02*
X68885409Y24980323D01*
X68885409Y24980323D02*
X68933028Y24932703D01*
X68933028Y24932703D02*
X69028266Y24885084D01*
X69028266Y24885084D02*
X69218742Y24885084D01*
X69218742Y24885084D02*
X69313980Y24932703D01*
X69313980Y24932703D02*
X69361599Y24980323D01*
X69361599Y24980323D02*
X69409218Y25075561D01*
X69409218Y25075561D02*
X69409218Y25885084D01*
X69837790Y25789846D02*
X69885409Y25837465D01*
X69885409Y25837465D02*
X69980647Y25885084D01*
X69980647Y25885084D02*
X70218742Y25885084D01*
X70218742Y25885084D02*
X70313980Y25837465D01*
X70313980Y25837465D02*
X70361599Y25789846D01*
X70361599Y25789846D02*
X70409218Y25694608D01*
X70409218Y25694608D02*
X70409218Y25599370D01*
X70409218Y25599370D02*
X70361599Y25456513D01*
X70361599Y25456513D02*
X69790171Y24885084D01*
X69790171Y24885084D02*
X70409218Y24885084D01*
X85939777Y14250159D02*
X86558824Y14250159D01*
X86558824Y14250159D02*
X86225491Y13869207D01*
X86225491Y13869207D02*
X86368348Y13869207D01*
X86368348Y13869207D02*
X86463586Y13821588D01*
X86463586Y13821588D02*
X86511205Y13773969D01*
X86511205Y13773969D02*
X86558824Y13678731D01*
X86558824Y13678731D02*
X86558824Y13440636D01*
X86558824Y13440636D02*
X86511205Y13345398D01*
X86511205Y13345398D02*
X86463586Y13297778D01*
X86463586Y13297778D02*
X86368348Y13250159D01*
X86368348Y13250159D02*
X86082634Y13250159D01*
X86082634Y13250159D02*
X85987396Y13297778D01*
X85987396Y13297778D02*
X85939777Y13345398D01*
X86892158Y14250159D02*
X87558824Y14250159D01*
X87558824Y14250159D02*
X87130253Y13250159D01*
X50144248Y16779496D02*
X50763295Y16779496D01*
X50763295Y16779496D02*
X50429962Y16398544D01*
X50429962Y16398544D02*
X50572819Y16398544D01*
X50572819Y16398544D02*
X50668057Y16350925D01*
X50668057Y16350925D02*
X50715676Y16303306D01*
X50715676Y16303306D02*
X50763295Y16208068D01*
X50763295Y16208068D02*
X50763295Y15969973D01*
X50763295Y15969973D02*
X50715676Y15874735D01*
X50715676Y15874735D02*
X50668057Y15827115D01*
X50668057Y15827115D02*
X50572819Y15779496D01*
X50572819Y15779496D02*
X50287105Y15779496D01*
X50287105Y15779496D02*
X50191867Y15827115D01*
X50191867Y15827115D02*
X50144248Y15874735D01*
X51620438Y16779496D02*
X51429962Y16779496D01*
X51429962Y16779496D02*
X51334724Y16731877D01*
X51334724Y16731877D02*
X51287105Y16684258D01*
X51287105Y16684258D02*
X51191867Y16541401D01*
X51191867Y16541401D02*
X51144248Y16350925D01*
X51144248Y16350925D02*
X51144248Y15969973D01*
X51144248Y15969973D02*
X51191867Y15874735D01*
X51191867Y15874735D02*
X51239486Y15827115D01*
X51239486Y15827115D02*
X51334724Y15779496D01*
X51334724Y15779496D02*
X51525200Y15779496D01*
X51525200Y15779496D02*
X51620438Y15827115D01*
X51620438Y15827115D02*
X51668057Y15874735D01*
X51668057Y15874735D02*
X51715676Y15969973D01*
X51715676Y15969973D02*
X51715676Y16208068D01*
X51715676Y16208068D02*
X51668057Y16303306D01*
X51668057Y16303306D02*
X51620438Y16350925D01*
X51620438Y16350925D02*
X51525200Y16398544D01*
X51525200Y16398544D02*
X51334724Y16398544D01*
X51334724Y16398544D02*
X51239486Y16350925D01*
X51239486Y16350925D02*
X51191867Y16303306D01*
X51191867Y16303306D02*
X51144248Y16208068D01*
X87436082Y20849600D02*
X86864654Y20849600D01*
X87150368Y20849600D02*
X87150368Y21849600D01*
X87150368Y21849600D02*
X87055130Y21706743D01*
X87055130Y21706743D02*
X86959892Y21611505D01*
X86959892Y21611505D02*
X86864654Y21563886D01*
X50667803Y13847484D02*
X50667803Y13180817D01*
X50429708Y14228436D02*
X50191613Y13514151D01*
X50191613Y13514151D02*
X50810660Y13514151D01*
X51334470Y13752246D02*
X51239232Y13799865D01*
X51239232Y13799865D02*
X51191613Y13847484D01*
X51191613Y13847484D02*
X51143994Y13942722D01*
X51143994Y13942722D02*
X51143994Y13990341D01*
X51143994Y13990341D02*
X51191613Y14085579D01*
X51191613Y14085579D02*
X51239232Y14133198D01*
X51239232Y14133198D02*
X51334470Y14180817D01*
X51334470Y14180817D02*
X51524946Y14180817D01*
X51524946Y14180817D02*
X51620184Y14133198D01*
X51620184Y14133198D02*
X51667803Y14085579D01*
X51667803Y14085579D02*
X51715422Y13990341D01*
X51715422Y13990341D02*
X51715422Y13942722D01*
X51715422Y13942722D02*
X51667803Y13847484D01*
X51667803Y13847484D02*
X51620184Y13799865D01*
X51620184Y13799865D02*
X51524946Y13752246D01*
X51524946Y13752246D02*
X51334470Y13752246D01*
X51334470Y13752246D02*
X51239232Y13704627D01*
X51239232Y13704627D02*
X51191613Y13657008D01*
X51191613Y13657008D02*
X51143994Y13561770D01*
X51143994Y13561770D02*
X51143994Y13371294D01*
X51143994Y13371294D02*
X51191613Y13276056D01*
X51191613Y13276056D02*
X51239232Y13228436D01*
X51239232Y13228436D02*
X51334470Y13180817D01*
X51334470Y13180817D02*
X51524946Y13180817D01*
X51524946Y13180817D02*
X51620184Y13228436D01*
X51620184Y13228436D02*
X51667803Y13276056D01*
X51667803Y13276056D02*
X51715422Y13371294D01*
X51715422Y13371294D02*
X51715422Y13561770D01*
X51715422Y13561770D02*
X51667803Y13657008D01*
X51667803Y13657008D02*
X51620184Y13704627D01*
X51620184Y13704627D02*
X51524946Y13752246D01*
X50959637Y20848838D02*
X50388209Y20848838D01*
X50673923Y20848838D02*
X50673923Y21848838D01*
X50673923Y21848838D02*
X50578685Y21705981D01*
X50578685Y21705981D02*
X50483447Y21610743D01*
X50483447Y21610743D02*
X50388209Y21563124D01*
X51340590Y21753600D02*
X51388209Y21801219D01*
X51388209Y21801219D02*
X51483447Y21848838D01*
X51483447Y21848838D02*
X51721542Y21848838D01*
X51721542Y21848838D02*
X51816780Y21801219D01*
X51816780Y21801219D02*
X51864399Y21753600D01*
X51864399Y21753600D02*
X51912018Y21658362D01*
X51912018Y21658362D02*
X51912018Y21563124D01*
X51912018Y21563124D02*
X51864399Y21420267D01*
X51864399Y21420267D02*
X51292971Y20848838D01*
X51292971Y20848838D02*
X51912018Y20848838D01*
X86660425Y18350235D02*
X86088997Y18350235D01*
X86374711Y18350235D02*
X86374711Y19350235D01*
X86374711Y19350235D02*
X86279473Y19207378D01*
X86279473Y19207378D02*
X86184235Y19112140D01*
X86184235Y19112140D02*
X86088997Y19064521D01*
X86993759Y19350235D02*
X87612806Y19350235D01*
X87612806Y19350235D02*
X87279473Y18969283D01*
X87279473Y18969283D02*
X87422330Y18969283D01*
X87422330Y18969283D02*
X87517568Y18921664D01*
X87517568Y18921664D02*
X87565187Y18874045D01*
X87565187Y18874045D02*
X87612806Y18778807D01*
X87612806Y18778807D02*
X87612806Y18540712D01*
X87612806Y18540712D02*
X87565187Y18445474D01*
X87565187Y18445474D02*
X87517568Y18397854D01*
X87517568Y18397854D02*
X87422330Y18350235D01*
X87422330Y18350235D02*
X87136616Y18350235D01*
X87136616Y18350235D02*
X87041378Y18397854D01*
X87041378Y18397854D02*
X86993759Y18445474D01*
X50293213Y19185655D02*
X50340832Y19233274D01*
X50340832Y19233274D02*
X50436070Y19280893D01*
X50436070Y19280893D02*
X50674165Y19280893D01*
X50674165Y19280893D02*
X50769403Y19233274D01*
X50769403Y19233274D02*
X50817022Y19185655D01*
X50817022Y19185655D02*
X50864641Y19090417D01*
X50864641Y19090417D02*
X50864641Y18995179D01*
X50864641Y18995179D02*
X50817022Y18852322D01*
X50817022Y18852322D02*
X50245594Y18280893D01*
X50245594Y18280893D02*
X50864641Y18280893D01*
X51721784Y18947560D02*
X51721784Y18280893D01*
X51483689Y19328512D02*
X51245594Y18614227D01*
X51245594Y18614227D02*
X51864641Y18614227D01*
X85987904Y16753600D02*
X86035523Y16801219D01*
X86035523Y16801219D02*
X86130761Y16848838D01*
X86130761Y16848838D02*
X86368856Y16848838D01*
X86368856Y16848838D02*
X86464094Y16801219D01*
X86464094Y16801219D02*
X86511713Y16753600D01*
X86511713Y16753600D02*
X86559332Y16658362D01*
X86559332Y16658362D02*
X86559332Y16563124D01*
X86559332Y16563124D02*
X86511713Y16420267D01*
X86511713Y16420267D02*
X85940285Y15848838D01*
X85940285Y15848838D02*
X86559332Y15848838D01*
X87464094Y16848838D02*
X86987904Y16848838D01*
X86987904Y16848838D02*
X86940285Y16372648D01*
X86940285Y16372648D02*
X86987904Y16420267D01*
X86987904Y16420267D02*
X87083142Y16467886D01*
X87083142Y16467886D02*
X87321237Y16467886D01*
X87321237Y16467886D02*
X87416475Y16420267D01*
X87416475Y16420267D02*
X87464094Y16372648D01*
X87464094Y16372648D02*
X87511713Y16277410D01*
X87511713Y16277410D02*
X87511713Y16039315D01*
X87511713Y16039315D02*
X87464094Y15944077D01*
X87464094Y15944077D02*
X87416475Y15896457D01*
X87416475Y15896457D02*
X87321237Y15848838D01*
X87321237Y15848838D02*
X87083142Y15848838D01*
X87083142Y15848838D02*
X86987904Y15896457D01*
X86987904Y15896457D02*
X86940285Y15944077D01*
D11*
G04 #@! TO.C,U1*
X35946331Y51090330D02*
X42143944Y51090330D01*
X35946331Y44537116D02*
X35946331Y51090330D01*
X42143944Y44537116D02*
X35946331Y44537116D01*
X34058244Y51344330D02*
G75*
G02*
X33804244Y51344330I-127000J0D01*
G01*
X33804244Y51344330D02*
G75*
G02*
X34058244Y51344330I127000J0D01*
G01*
G04 #@! TO.C,U2*
X34643840Y140182D02*
X34643840Y15690144D01*
X34643942Y15689890D02*
X42059919Y15689916D01*
X34643942Y139928D02*
X104555956Y139827D01*
X41389941Y-1810110D02*
X41389941Y-3310110D01*
X41389941Y-3310110D02*
X47849962Y-3310110D01*
X41699949Y19789890D02*
X42334950Y19789890D01*
X41699949Y17189916D02*
X41699949Y19789890D01*
X42059919Y17189916D02*
X41699949Y17189916D01*
X42059919Y15689916D02*
X42059919Y17189916D01*
X46064872Y19789890D02*
X49679959Y19789890D01*
X46249860Y139903D02*
X46249860Y-1810110D01*
X46249860Y-1810110D02*
X41389941Y-1810110D01*
X46999949Y23339903D02*
X47356972Y23339903D01*
X46999949Y22770205D02*
X46999949Y23339903D01*
X46999949Y20339903D02*
X46999949Y21929565D01*
X47849962Y-3310110D02*
X47849962Y-25660097D01*
X47849962Y-25660097D02*
X91349962Y-25660097D01*
X49242977Y23339903D02*
X89956921Y23339903D01*
X49679959Y20339903D02*
X46999949Y20339903D01*
X49679959Y19789890D02*
X49679959Y20339903D01*
X89504800Y20339801D02*
X92184887Y20339801D01*
X89504800Y19789713D02*
X89504800Y20339801D01*
X91349962Y-3310110D02*
X97809957Y-3310110D01*
X91349962Y-25660097D02*
X91349962Y-3310110D01*
X91842926Y23339903D02*
X92069952Y23339903D01*
X92184887Y22770180D02*
X92184887Y23339878D01*
X92184887Y20339801D02*
X92184887Y21929692D01*
X92949962Y-1810110D02*
X92949962Y139852D01*
X93120015Y19789713D02*
X89504800Y19789713D01*
X97140183Y17189865D02*
X97500101Y17189865D01*
X97140183Y15689789D02*
X97140183Y17189865D01*
X97500101Y19789662D02*
X96865100Y19789662D01*
X97500101Y17189865D02*
X97500101Y19789662D01*
X97809957Y-1810110D02*
X92949962Y-1810110D01*
X97809957Y-3310110D02*
X97809957Y-1810110D01*
X98749987Y21149936D02*
X99749987Y21449936D01*
X98749987Y21149936D02*
X99749987Y20849936D01*
X102949987Y21149936D02*
X98749987Y21149936D01*
X102949987Y21149936D02*
X102949987Y18449936D01*
X102949987Y18449936D02*
X102649987Y19349936D01*
X102949987Y18449936D02*
X103249987Y19349936D01*
X104556185Y139827D02*
X104556185Y15689789D01*
X104556210Y15689789D02*
X97140183Y15689789D01*
D12*
G04 #@! TO.C,M1*
X23250053Y51136682D02*
X23609344Y51495973D01*
X23250053Y38075001D02*
X23250053Y51136682D01*
X23250053Y38075001D02*
X23500053Y37825002D01*
X23500053Y37825002D02*
X30850432Y37825002D01*
X23609344Y51495973D02*
X29350051Y51495973D01*
X29350051Y50899621D02*
X29350051Y51495973D01*
X29350051Y50899621D02*
X30100052Y50149620D01*
X30100052Y50149620D02*
X31100053Y50149620D01*
X30850432Y37825002D02*
X31100053Y38074623D01*
X31100053Y48274623D02*
X31100053Y50149620D01*
X31100053Y38074623D02*
X31100053Y48274623D01*
G04 #@! TD*
M02*
