G04 #@! TF.GenerationSoftware,KiCad,Pcbnew,8.0.9-8.0.9-0~ubuntu24.04.1*
G04 #@! TF.CreationDate,2026-07-06T02:30:03+00:00*
G04 #@! TF.ProjectId,luis48,6c756973-3438-42e6-9b69-6361645f7063,rev?*
G04 #@! TF.SameCoordinates,Original*
G04 #@! TF.FileFunction,Legend,Top*
G04 #@! TF.FilePolarity,Positive*
%FSLAX46Y46*%
G04 Gerber Fmt 4.6, Leading zero omitted, Abs format (unit mm)*
G04 Created by KiCad (PCBNEW 8.0.9-8.0.9-0~ubuntu24.04.1) date 2026-07-06 02:30:03*
%MOMM*%
%LPD*%
G01*
G04 APERTURE LIST*
%ADD10C,0.150000*%
%ADD11C,0.254000*%
%ADD12C,0.200000*%
G04 APERTURE END LIST*
D10*
X37334871Y53635511D02*
X37334871Y52825988D01*
X37334871Y52825988D02*
X37382490Y52730750D01*
X37382490Y52730750D02*
X37430109Y52683130D01*
X37430109Y52683130D02*
X37525347Y52635511D01*
X37525347Y52635511D02*
X37715823Y52635511D01*
X37715823Y52635511D02*
X37811061Y52683130D01*
X37811061Y52683130D02*
X37858680Y52730750D01*
X37858680Y52730750D02*
X37906299Y52825988D01*
X37906299Y52825988D02*
X37906299Y53635511D01*
X38906299Y52635511D02*
X38334871Y52635511D01*
X38620585Y52635511D02*
X38620585Y53635511D01*
X38620585Y53635511D02*
X38525347Y53492654D01*
X38525347Y53492654D02*
X38430109Y53397416D01*
X38430109Y53397416D02*
X38334871Y53349797D01*
X74737765Y19016186D02*
X74737765Y18206663D01*
X74737765Y18206663D02*
X74785384Y18111425D01*
X74785384Y18111425D02*
X74833003Y18063805D01*
X74833003Y18063805D02*
X74928241Y18016186D01*
X74928241Y18016186D02*
X75118717Y18016186D01*
X75118717Y18016186D02*
X75213955Y18063805D01*
X75213955Y18063805D02*
X75261574Y18111425D01*
X75261574Y18111425D02*
X75309193Y18206663D01*
X75309193Y18206663D02*
X75309193Y19016186D01*
X75737765Y18920948D02*
X75785384Y18968567D01*
X75785384Y18968567D02*
X75880622Y19016186D01*
X75880622Y19016186D02*
X76118717Y19016186D01*
X76118717Y19016186D02*
X76213955Y18968567D01*
X76213955Y18968567D02*
X76261574Y18920948D01*
X76261574Y18920948D02*
X76309193Y18825710D01*
X76309193Y18825710D02*
X76309193Y18730472D01*
X76309193Y18730472D02*
X76261574Y18587615D01*
X76261574Y18587615D02*
X75690146Y18016186D01*
X75690146Y18016186D02*
X76309193Y18016186D01*
X91839752Y7381261D02*
X92458799Y7381261D01*
X92458799Y7381261D02*
X92125466Y7000309D01*
X92125466Y7000309D02*
X92268323Y7000309D01*
X92268323Y7000309D02*
X92363561Y6952690D01*
X92363561Y6952690D02*
X92411180Y6905071D01*
X92411180Y6905071D02*
X92458799Y6809833D01*
X92458799Y6809833D02*
X92458799Y6571738D01*
X92458799Y6571738D02*
X92411180Y6476500D01*
X92411180Y6476500D02*
X92363561Y6428880D01*
X92363561Y6428880D02*
X92268323Y6381261D01*
X92268323Y6381261D02*
X91982609Y6381261D01*
X91982609Y6381261D02*
X91887371Y6428880D01*
X91887371Y6428880D02*
X91839752Y6476500D01*
X92792133Y7381261D02*
X93458799Y7381261D01*
X93458799Y7381261D02*
X93030228Y6381261D01*
X56044223Y9910598D02*
X56663270Y9910598D01*
X56663270Y9910598D02*
X56329937Y9529646D01*
X56329937Y9529646D02*
X56472794Y9529646D01*
X56472794Y9529646D02*
X56568032Y9482027D01*
X56568032Y9482027D02*
X56615651Y9434408D01*
X56615651Y9434408D02*
X56663270Y9339170D01*
X56663270Y9339170D02*
X56663270Y9101075D01*
X56663270Y9101075D02*
X56615651Y9005837D01*
X56615651Y9005837D02*
X56568032Y8958217D01*
X56568032Y8958217D02*
X56472794Y8910598D01*
X56472794Y8910598D02*
X56187080Y8910598D01*
X56187080Y8910598D02*
X56091842Y8958217D01*
X56091842Y8958217D02*
X56044223Y9005837D01*
X57520413Y9910598D02*
X57329937Y9910598D01*
X57329937Y9910598D02*
X57234699Y9862979D01*
X57234699Y9862979D02*
X57187080Y9815360D01*
X57187080Y9815360D02*
X57091842Y9672503D01*
X57091842Y9672503D02*
X57044223Y9482027D01*
X57044223Y9482027D02*
X57044223Y9101075D01*
X57044223Y9101075D02*
X57091842Y9005837D01*
X57091842Y9005837D02*
X57139461Y8958217D01*
X57139461Y8958217D02*
X57234699Y8910598D01*
X57234699Y8910598D02*
X57425175Y8910598D01*
X57425175Y8910598D02*
X57520413Y8958217D01*
X57520413Y8958217D02*
X57568032Y9005837D01*
X57568032Y9005837D02*
X57615651Y9101075D01*
X57615651Y9101075D02*
X57615651Y9339170D01*
X57615651Y9339170D02*
X57568032Y9434408D01*
X57568032Y9434408D02*
X57520413Y9482027D01*
X57520413Y9482027D02*
X57425175Y9529646D01*
X57425175Y9529646D02*
X57234699Y9529646D01*
X57234699Y9529646D02*
X57139461Y9482027D01*
X57139461Y9482027D02*
X57091842Y9434408D01*
X57091842Y9434408D02*
X57044223Y9339170D01*
X93336057Y13980702D02*
X92764629Y13980702D01*
X93050343Y13980702D02*
X93050343Y14980702D01*
X93050343Y14980702D02*
X92955105Y14837845D01*
X92955105Y14837845D02*
X92859867Y14742607D01*
X92859867Y14742607D02*
X92764629Y14694988D01*
X56567778Y6978586D02*
X56567778Y6311919D01*
X56329683Y7359538D02*
X56091588Y6645253D01*
X56091588Y6645253D02*
X56710635Y6645253D01*
X57234445Y6883348D02*
X57139207Y6930967D01*
X57139207Y6930967D02*
X57091588Y6978586D01*
X57091588Y6978586D02*
X57043969Y7073824D01*
X57043969Y7073824D02*
X57043969Y7121443D01*
X57043969Y7121443D02*
X57091588Y7216681D01*
X57091588Y7216681D02*
X57139207Y7264300D01*
X57139207Y7264300D02*
X57234445Y7311919D01*
X57234445Y7311919D02*
X57424921Y7311919D01*
X57424921Y7311919D02*
X57520159Y7264300D01*
X57520159Y7264300D02*
X57567778Y7216681D01*
X57567778Y7216681D02*
X57615397Y7121443D01*
X57615397Y7121443D02*
X57615397Y7073824D01*
X57615397Y7073824D02*
X57567778Y6978586D01*
X57567778Y6978586D02*
X57520159Y6930967D01*
X57520159Y6930967D02*
X57424921Y6883348D01*
X57424921Y6883348D02*
X57234445Y6883348D01*
X57234445Y6883348D02*
X57139207Y6835729D01*
X57139207Y6835729D02*
X57091588Y6788110D01*
X57091588Y6788110D02*
X57043969Y6692872D01*
X57043969Y6692872D02*
X57043969Y6502396D01*
X57043969Y6502396D02*
X57091588Y6407158D01*
X57091588Y6407158D02*
X57139207Y6359538D01*
X57139207Y6359538D02*
X57234445Y6311919D01*
X57234445Y6311919D02*
X57424921Y6311919D01*
X57424921Y6311919D02*
X57520159Y6359538D01*
X57520159Y6359538D02*
X57567778Y6407158D01*
X57567778Y6407158D02*
X57615397Y6502396D01*
X57615397Y6502396D02*
X57615397Y6692872D01*
X57615397Y6692872D02*
X57567778Y6788110D01*
X57567778Y6788110D02*
X57520159Y6835729D01*
X57520159Y6835729D02*
X57424921Y6883348D01*
X56859612Y13979940D02*
X56288184Y13979940D01*
X56573898Y13979940D02*
X56573898Y14979940D01*
X56573898Y14979940D02*
X56478660Y14837083D01*
X56478660Y14837083D02*
X56383422Y14741845D01*
X56383422Y14741845D02*
X56288184Y14694226D01*
X57240565Y14884702D02*
X57288184Y14932321D01*
X57288184Y14932321D02*
X57383422Y14979940D01*
X57383422Y14979940D02*
X57621517Y14979940D01*
X57621517Y14979940D02*
X57716755Y14932321D01*
X57716755Y14932321D02*
X57764374Y14884702D01*
X57764374Y14884702D02*
X57811993Y14789464D01*
X57811993Y14789464D02*
X57811993Y14694226D01*
X57811993Y14694226D02*
X57764374Y14551369D01*
X57764374Y14551369D02*
X57192946Y13979940D01*
X57192946Y13979940D02*
X57811993Y13979940D01*
X92560400Y11481337D02*
X91988972Y11481337D01*
X92274686Y11481337D02*
X92274686Y12481337D01*
X92274686Y12481337D02*
X92179448Y12338480D01*
X92179448Y12338480D02*
X92084210Y12243242D01*
X92084210Y12243242D02*
X91988972Y12195623D01*
X92893734Y12481337D02*
X93512781Y12481337D01*
X93512781Y12481337D02*
X93179448Y12100385D01*
X93179448Y12100385D02*
X93322305Y12100385D01*
X93322305Y12100385D02*
X93417543Y12052766D01*
X93417543Y12052766D02*
X93465162Y12005147D01*
X93465162Y12005147D02*
X93512781Y11909909D01*
X93512781Y11909909D02*
X93512781Y11671814D01*
X93512781Y11671814D02*
X93465162Y11576576D01*
X93465162Y11576576D02*
X93417543Y11528956D01*
X93417543Y11528956D02*
X93322305Y11481337D01*
X93322305Y11481337D02*
X93036591Y11481337D01*
X93036591Y11481337D02*
X92941353Y11528956D01*
X92941353Y11528956D02*
X92893734Y11576576D01*
X56193188Y12316757D02*
X56240807Y12364376D01*
X56240807Y12364376D02*
X56336045Y12411995D01*
X56336045Y12411995D02*
X56574140Y12411995D01*
X56574140Y12411995D02*
X56669378Y12364376D01*
X56669378Y12364376D02*
X56716997Y12316757D01*
X56716997Y12316757D02*
X56764616Y12221519D01*
X56764616Y12221519D02*
X56764616Y12126281D01*
X56764616Y12126281D02*
X56716997Y11983424D01*
X56716997Y11983424D02*
X56145569Y11411995D01*
X56145569Y11411995D02*
X56764616Y11411995D01*
X57621759Y12078662D02*
X57621759Y11411995D01*
X57383664Y12459614D02*
X57145569Y11745329D01*
X57145569Y11745329D02*
X57764616Y11745329D01*
X91887879Y9884702D02*
X91935498Y9932321D01*
X91935498Y9932321D02*
X92030736Y9979940D01*
X92030736Y9979940D02*
X92268831Y9979940D01*
X92268831Y9979940D02*
X92364069Y9932321D01*
X92364069Y9932321D02*
X92411688Y9884702D01*
X92411688Y9884702D02*
X92459307Y9789464D01*
X92459307Y9789464D02*
X92459307Y9694226D01*
X92459307Y9694226D02*
X92411688Y9551369D01*
X92411688Y9551369D02*
X91840260Y8979940D01*
X91840260Y8979940D02*
X92459307Y8979940D01*
X93364069Y9979940D02*
X92887879Y9979940D01*
X92887879Y9979940D02*
X92840260Y9503750D01*
X92840260Y9503750D02*
X92887879Y9551369D01*
X92887879Y9551369D02*
X92983117Y9598988D01*
X92983117Y9598988D02*
X93221212Y9598988D01*
X93221212Y9598988D02*
X93316450Y9551369D01*
X93316450Y9551369D02*
X93364069Y9503750D01*
X93364069Y9503750D02*
X93411688Y9408512D01*
X93411688Y9408512D02*
X93411688Y9170417D01*
X93411688Y9170417D02*
X93364069Y9075179D01*
X93364069Y9075179D02*
X93316450Y9027559D01*
X93316450Y9027559D02*
X93221212Y8979940D01*
X93221212Y8979940D02*
X92983117Y8979940D01*
X92983117Y8979940D02*
X92887879Y9027559D01*
X92887879Y9027559D02*
X92840260Y9075179D01*
D11*
G04 #@! TO.C,U1*
X35946331Y51090330D02*
X42143944Y51090330D01*
X35946331Y44537116D02*
X35946331Y51090330D01*
X42143944Y44537116D02*
X35946331Y44537116D01*
X34058244Y51344330D02*
G75*
G02*
X33804244Y51344330I-127000J0D01*
G01*
X33804244Y51344330D02*
G75*
G02*
X34058244Y51344330I127000J0D01*
G01*
G04 #@! TO.C,U2*
X40543815Y-6728716D02*
X40543815Y8821246D01*
X40543917Y8820992D02*
X47959894Y8821018D01*
X40543917Y-6728970D02*
X110455931Y-6729071D01*
X47289916Y-8679008D02*
X47289916Y-10179008D01*
X47289916Y-10179008D02*
X53749937Y-10179008D01*
X47599924Y12920992D02*
X48234925Y12920992D01*
X47599924Y10321018D02*
X47599924Y12920992D01*
X47959894Y10321018D02*
X47599924Y10321018D01*
X47959894Y8821018D02*
X47959894Y10321018D01*
X51964847Y12920992D02*
X55579934Y12920992D01*
X52149835Y-6728995D02*
X52149835Y-8679008D01*
X52149835Y-8679008D02*
X47289916Y-8679008D01*
X52899924Y16471005D02*
X53256947Y16471005D01*
X52899924Y15901307D02*
X52899924Y16471005D01*
X52899924Y13471005D02*
X52899924Y15060667D01*
X53749937Y-10179008D02*
X53749937Y-32528995D01*
X53749937Y-32528995D02*
X97249937Y-32528995D01*
X55142952Y16471005D02*
X95856896Y16471005D01*
X55579934Y13471005D02*
X52899924Y13471005D01*
X55579934Y12920992D02*
X55579934Y13471005D01*
X95404775Y13470903D02*
X98084862Y13470903D01*
X95404775Y12920815D02*
X95404775Y13470903D01*
X97249937Y-10179008D02*
X103709932Y-10179008D01*
X97249937Y-32528995D02*
X97249937Y-10179008D01*
X97742901Y16471005D02*
X97969927Y16471005D01*
X98084862Y15901282D02*
X98084862Y16470980D01*
X98084862Y13470903D02*
X98084862Y15060794D01*
X98849937Y-8679008D02*
X98849937Y-6729046D01*
X99019990Y12920815D02*
X95404775Y12920815D01*
X103040158Y10320967D02*
X103400076Y10320967D01*
X103040158Y8820891D02*
X103040158Y10320967D01*
X103400076Y12920764D02*
X102765075Y12920764D01*
X103400076Y10320967D02*
X103400076Y12920764D01*
X103709932Y-8679008D02*
X98849937Y-8679008D01*
X103709932Y-10179008D02*
X103709932Y-8679008D01*
X104649962Y14281038D02*
X105649962Y14581038D01*
X104649962Y14281038D02*
X105649962Y13981038D01*
X108849962Y14281038D02*
X104649962Y14281038D01*
X108849962Y14281038D02*
X108849962Y11581038D01*
X108849962Y11581038D02*
X108549962Y12481038D01*
X108849962Y11581038D02*
X109149962Y12481038D01*
X110456160Y-6729071D02*
X110456160Y8820891D01*
X110456185Y8820891D02*
X103040158Y8820891D01*
D12*
G04 #@! TO.C,M1*
X24054890Y39100206D02*
X24414181Y39459497D01*
X24054890Y26038525D02*
X24054890Y39100206D01*
X24054890Y26038525D02*
X24304890Y25788526D01*
X24304890Y25788526D02*
X31655269Y25788526D01*
X24414181Y39459497D02*
X30154888Y39459497D01*
X30154888Y38863145D02*
X30154888Y39459497D01*
X30154888Y38863145D02*
X30904889Y38113144D01*
X30904889Y38113144D02*
X31904890Y38113144D01*
X31655269Y25788526D02*
X31904890Y26038147D01*
X31904890Y36238147D02*
X31904890Y38113144D01*
X31904890Y26038147D02*
X31904890Y36238147D01*
G04 #@! TD*
M02*
