G04 #@! TF.GenerationSoftware,KiCad,Pcbnew,8.0.9-8.0.9-0~ubuntu24.04.1*
G04 #@! TF.CreationDate,2026-07-05T23:25:51+00:00*
G04 #@! TF.ProjectId,luis48,6c756973-3438-42e6-9b69-6361645f7063,rev?*
G04 #@! TF.SameCoordinates,Original*
G04 #@! TF.FileFunction,Legend,Top*
G04 #@! TF.FilePolarity,Positive*
%FSLAX46Y46*%
G04 Gerber Fmt 4.6, Leading zero omitted, Abs format (unit mm)*
G04 Created by KiCad (PCBNEW 8.0.9-8.0.9-0~ubuntu24.04.1) date 2026-07-05 23:25:51*
%MOMM*%
%LPD*%
G01*
G04 APERTURE LIST*
%ADD10C,0.150000*%
%ADD11C,0.254000*%
%ADD12C,0.200000*%
G04 APERTURE END LIST*
D10*
X37334871Y53635511D02*
X37334871Y52825988D01*
X37334871Y52825988D02*
X37382490Y52730750D01*
X37382490Y52730750D02*
X37430109Y52683130D01*
X37430109Y52683130D02*
X37525347Y52635511D01*
X37525347Y52635511D02*
X37715823Y52635511D01*
X37715823Y52635511D02*
X37811061Y52683130D01*
X37811061Y52683130D02*
X37858680Y52730750D01*
X37858680Y52730750D02*
X37906299Y52825988D01*
X37906299Y52825988D02*
X37906299Y53635511D01*
X38906299Y52635511D02*
X38334871Y52635511D01*
X38620585Y52635511D02*
X38620585Y53635511D01*
X38620585Y53635511D02*
X38525347Y53492654D01*
X38525347Y53492654D02*
X38430109Y53397416D01*
X38430109Y53397416D02*
X38334871Y53349797D01*
X74737765Y18516186D02*
X74737765Y17706663D01*
X74737765Y17706663D02*
X74785384Y17611425D01*
X74785384Y17611425D02*
X74833003Y17563805D01*
X74833003Y17563805D02*
X74928241Y17516186D01*
X74928241Y17516186D02*
X75118717Y17516186D01*
X75118717Y17516186D02*
X75213955Y17563805D01*
X75213955Y17563805D02*
X75261574Y17611425D01*
X75261574Y17611425D02*
X75309193Y17706663D01*
X75309193Y17706663D02*
X75309193Y18516186D01*
X75737765Y18420948D02*
X75785384Y18468567D01*
X75785384Y18468567D02*
X75880622Y18516186D01*
X75880622Y18516186D02*
X76118717Y18516186D01*
X76118717Y18516186D02*
X76213955Y18468567D01*
X76213955Y18468567D02*
X76261574Y18420948D01*
X76261574Y18420948D02*
X76309193Y18325710D01*
X76309193Y18325710D02*
X76309193Y18230472D01*
X76309193Y18230472D02*
X76261574Y18087615D01*
X76261574Y18087615D02*
X75690146Y17516186D01*
X75690146Y17516186D02*
X76309193Y17516186D01*
X91839752Y6881261D02*
X92458799Y6881261D01*
X92458799Y6881261D02*
X92125466Y6500309D01*
X92125466Y6500309D02*
X92268323Y6500309D01*
X92268323Y6500309D02*
X92363561Y6452690D01*
X92363561Y6452690D02*
X92411180Y6405071D01*
X92411180Y6405071D02*
X92458799Y6309833D01*
X92458799Y6309833D02*
X92458799Y6071738D01*
X92458799Y6071738D02*
X92411180Y5976500D01*
X92411180Y5976500D02*
X92363561Y5928880D01*
X92363561Y5928880D02*
X92268323Y5881261D01*
X92268323Y5881261D02*
X91982609Y5881261D01*
X91982609Y5881261D02*
X91887371Y5928880D01*
X91887371Y5928880D02*
X91839752Y5976500D01*
X92792133Y6881261D02*
X93458799Y6881261D01*
X93458799Y6881261D02*
X93030228Y5881261D01*
X56044223Y9410598D02*
X56663270Y9410598D01*
X56663270Y9410598D02*
X56329937Y9029646D01*
X56329937Y9029646D02*
X56472794Y9029646D01*
X56472794Y9029646D02*
X56568032Y8982027D01*
X56568032Y8982027D02*
X56615651Y8934408D01*
X56615651Y8934408D02*
X56663270Y8839170D01*
X56663270Y8839170D02*
X56663270Y8601075D01*
X56663270Y8601075D02*
X56615651Y8505837D01*
X56615651Y8505837D02*
X56568032Y8458217D01*
X56568032Y8458217D02*
X56472794Y8410598D01*
X56472794Y8410598D02*
X56187080Y8410598D01*
X56187080Y8410598D02*
X56091842Y8458217D01*
X56091842Y8458217D02*
X56044223Y8505837D01*
X57520413Y9410598D02*
X57329937Y9410598D01*
X57329937Y9410598D02*
X57234699Y9362979D01*
X57234699Y9362979D02*
X57187080Y9315360D01*
X57187080Y9315360D02*
X57091842Y9172503D01*
X57091842Y9172503D02*
X57044223Y8982027D01*
X57044223Y8982027D02*
X57044223Y8601075D01*
X57044223Y8601075D02*
X57091842Y8505837D01*
X57091842Y8505837D02*
X57139461Y8458217D01*
X57139461Y8458217D02*
X57234699Y8410598D01*
X57234699Y8410598D02*
X57425175Y8410598D01*
X57425175Y8410598D02*
X57520413Y8458217D01*
X57520413Y8458217D02*
X57568032Y8505837D01*
X57568032Y8505837D02*
X57615651Y8601075D01*
X57615651Y8601075D02*
X57615651Y8839170D01*
X57615651Y8839170D02*
X57568032Y8934408D01*
X57568032Y8934408D02*
X57520413Y8982027D01*
X57520413Y8982027D02*
X57425175Y9029646D01*
X57425175Y9029646D02*
X57234699Y9029646D01*
X57234699Y9029646D02*
X57139461Y8982027D01*
X57139461Y8982027D02*
X57091842Y8934408D01*
X57091842Y8934408D02*
X57044223Y8839170D01*
X93336057Y13480702D02*
X92764629Y13480702D01*
X93050343Y13480702D02*
X93050343Y14480702D01*
X93050343Y14480702D02*
X92955105Y14337845D01*
X92955105Y14337845D02*
X92859867Y14242607D01*
X92859867Y14242607D02*
X92764629Y14194988D01*
X56567778Y6478586D02*
X56567778Y5811919D01*
X56329683Y6859538D02*
X56091588Y6145253D01*
X56091588Y6145253D02*
X56710635Y6145253D01*
X57234445Y6383348D02*
X57139207Y6430967D01*
X57139207Y6430967D02*
X57091588Y6478586D01*
X57091588Y6478586D02*
X57043969Y6573824D01*
X57043969Y6573824D02*
X57043969Y6621443D01*
X57043969Y6621443D02*
X57091588Y6716681D01*
X57091588Y6716681D02*
X57139207Y6764300D01*
X57139207Y6764300D02*
X57234445Y6811919D01*
X57234445Y6811919D02*
X57424921Y6811919D01*
X57424921Y6811919D02*
X57520159Y6764300D01*
X57520159Y6764300D02*
X57567778Y6716681D01*
X57567778Y6716681D02*
X57615397Y6621443D01*
X57615397Y6621443D02*
X57615397Y6573824D01*
X57615397Y6573824D02*
X57567778Y6478586D01*
X57567778Y6478586D02*
X57520159Y6430967D01*
X57520159Y6430967D02*
X57424921Y6383348D01*
X57424921Y6383348D02*
X57234445Y6383348D01*
X57234445Y6383348D02*
X57139207Y6335729D01*
X57139207Y6335729D02*
X57091588Y6288110D01*
X57091588Y6288110D02*
X57043969Y6192872D01*
X57043969Y6192872D02*
X57043969Y6002396D01*
X57043969Y6002396D02*
X57091588Y5907158D01*
X57091588Y5907158D02*
X57139207Y5859538D01*
X57139207Y5859538D02*
X57234445Y5811919D01*
X57234445Y5811919D02*
X57424921Y5811919D01*
X57424921Y5811919D02*
X57520159Y5859538D01*
X57520159Y5859538D02*
X57567778Y5907158D01*
X57567778Y5907158D02*
X57615397Y6002396D01*
X57615397Y6002396D02*
X57615397Y6192872D01*
X57615397Y6192872D02*
X57567778Y6288110D01*
X57567778Y6288110D02*
X57520159Y6335729D01*
X57520159Y6335729D02*
X57424921Y6383348D01*
X56859612Y13479940D02*
X56288184Y13479940D01*
X56573898Y13479940D02*
X56573898Y14479940D01*
X56573898Y14479940D02*
X56478660Y14337083D01*
X56478660Y14337083D02*
X56383422Y14241845D01*
X56383422Y14241845D02*
X56288184Y14194226D01*
X57240565Y14384702D02*
X57288184Y14432321D01*
X57288184Y14432321D02*
X57383422Y14479940D01*
X57383422Y14479940D02*
X57621517Y14479940D01*
X57621517Y14479940D02*
X57716755Y14432321D01*
X57716755Y14432321D02*
X57764374Y14384702D01*
X57764374Y14384702D02*
X57811993Y14289464D01*
X57811993Y14289464D02*
X57811993Y14194226D01*
X57811993Y14194226D02*
X57764374Y14051369D01*
X57764374Y14051369D02*
X57192946Y13479940D01*
X57192946Y13479940D02*
X57811993Y13479940D01*
X92560400Y10981337D02*
X91988972Y10981337D01*
X92274686Y10981337D02*
X92274686Y11981337D01*
X92274686Y11981337D02*
X92179448Y11838480D01*
X92179448Y11838480D02*
X92084210Y11743242D01*
X92084210Y11743242D02*
X91988972Y11695623D01*
X92893734Y11981337D02*
X93512781Y11981337D01*
X93512781Y11981337D02*
X93179448Y11600385D01*
X93179448Y11600385D02*
X93322305Y11600385D01*
X93322305Y11600385D02*
X93417543Y11552766D01*
X93417543Y11552766D02*
X93465162Y11505147D01*
X93465162Y11505147D02*
X93512781Y11409909D01*
X93512781Y11409909D02*
X93512781Y11171814D01*
X93512781Y11171814D02*
X93465162Y11076576D01*
X93465162Y11076576D02*
X93417543Y11028956D01*
X93417543Y11028956D02*
X93322305Y10981337D01*
X93322305Y10981337D02*
X93036591Y10981337D01*
X93036591Y10981337D02*
X92941353Y11028956D01*
X92941353Y11028956D02*
X92893734Y11076576D01*
X56193188Y11816757D02*
X56240807Y11864376D01*
X56240807Y11864376D02*
X56336045Y11911995D01*
X56336045Y11911995D02*
X56574140Y11911995D01*
X56574140Y11911995D02*
X56669378Y11864376D01*
X56669378Y11864376D02*
X56716997Y11816757D01*
X56716997Y11816757D02*
X56764616Y11721519D01*
X56764616Y11721519D02*
X56764616Y11626281D01*
X56764616Y11626281D02*
X56716997Y11483424D01*
X56716997Y11483424D02*
X56145569Y10911995D01*
X56145569Y10911995D02*
X56764616Y10911995D01*
X57621759Y11578662D02*
X57621759Y10911995D01*
X57383664Y11959614D02*
X57145569Y11245329D01*
X57145569Y11245329D02*
X57764616Y11245329D01*
X91887879Y9384702D02*
X91935498Y9432321D01*
X91935498Y9432321D02*
X92030736Y9479940D01*
X92030736Y9479940D02*
X92268831Y9479940D01*
X92268831Y9479940D02*
X92364069Y9432321D01*
X92364069Y9432321D02*
X92411688Y9384702D01*
X92411688Y9384702D02*
X92459307Y9289464D01*
X92459307Y9289464D02*
X92459307Y9194226D01*
X92459307Y9194226D02*
X92411688Y9051369D01*
X92411688Y9051369D02*
X91840260Y8479940D01*
X91840260Y8479940D02*
X92459307Y8479940D01*
X93364069Y9479940D02*
X92887879Y9479940D01*
X92887879Y9479940D02*
X92840260Y9003750D01*
X92840260Y9003750D02*
X92887879Y9051369D01*
X92887879Y9051369D02*
X92983117Y9098988D01*
X92983117Y9098988D02*
X93221212Y9098988D01*
X93221212Y9098988D02*
X93316450Y9051369D01*
X93316450Y9051369D02*
X93364069Y9003750D01*
X93364069Y9003750D02*
X93411688Y8908512D01*
X93411688Y8908512D02*
X93411688Y8670417D01*
X93411688Y8670417D02*
X93364069Y8575179D01*
X93364069Y8575179D02*
X93316450Y8527559D01*
X93316450Y8527559D02*
X93221212Y8479940D01*
X93221212Y8479940D02*
X92983117Y8479940D01*
X92983117Y8479940D02*
X92887879Y8527559D01*
X92887879Y8527559D02*
X92840260Y8575179D01*
D11*
G04 #@! TO.C,U1*
X35946331Y51090330D02*
X42143944Y51090330D01*
X35946331Y44537116D02*
X35946331Y51090330D01*
X42143944Y44537116D02*
X35946331Y44537116D01*
X34058244Y51344330D02*
G75*
G02*
X33804244Y51344330I-127000J0D01*
G01*
X33804244Y51344330D02*
G75*
G02*
X34058244Y51344330I127000J0D01*
G01*
G04 #@! TO.C,U2*
X40543815Y-7228716D02*
X40543815Y8321246D01*
X40543917Y8320992D02*
X47959894Y8321018D01*
X40543917Y-7228970D02*
X110455931Y-7229071D01*
X47289916Y-9179008D02*
X47289916Y-10679008D01*
X47289916Y-10679008D02*
X53749937Y-10679008D01*
X47599924Y12420992D02*
X48234925Y12420992D01*
X47599924Y9821018D02*
X47599924Y12420992D01*
X47959894Y9821018D02*
X47599924Y9821018D01*
X47959894Y8321018D02*
X47959894Y9821018D01*
X51964847Y12420992D02*
X55579934Y12420992D01*
X52149835Y-7228995D02*
X52149835Y-9179008D01*
X52149835Y-9179008D02*
X47289916Y-9179008D01*
X52899924Y15971005D02*
X53256947Y15971005D01*
X52899924Y15401307D02*
X52899924Y15971005D01*
X52899924Y12971005D02*
X52899924Y14560667D01*
X53749937Y-10679008D02*
X53749937Y-33028995D01*
X53749937Y-33028995D02*
X97249937Y-33028995D01*
X55142952Y15971005D02*
X95856896Y15971005D01*
X55579934Y12971005D02*
X52899924Y12971005D01*
X55579934Y12420992D02*
X55579934Y12971005D01*
X95404775Y12970903D02*
X98084862Y12970903D01*
X95404775Y12420815D02*
X95404775Y12970903D01*
X97249937Y-10679008D02*
X103709932Y-10679008D01*
X97249937Y-33028995D02*
X97249937Y-10679008D01*
X97742901Y15971005D02*
X97969927Y15971005D01*
X98084862Y15401282D02*
X98084862Y15970980D01*
X98084862Y12970903D02*
X98084862Y14560794D01*
X98849937Y-9179008D02*
X98849937Y-7229046D01*
X99019990Y12420815D02*
X95404775Y12420815D01*
X103040158Y9820967D02*
X103400076Y9820967D01*
X103040158Y8320891D02*
X103040158Y9820967D01*
X103400076Y12420764D02*
X102765075Y12420764D01*
X103400076Y9820967D02*
X103400076Y12420764D01*
X103709932Y-9179008D02*
X98849937Y-9179008D01*
X103709932Y-10679008D02*
X103709932Y-9179008D01*
X104649962Y13781038D02*
X105649962Y14081038D01*
X104649962Y13781038D02*
X105649962Y13481038D01*
X108849962Y13781038D02*
X104649962Y13781038D01*
X108849962Y13781038D02*
X108849962Y11081038D01*
X108849962Y11081038D02*
X108549962Y11981038D01*
X108849962Y11081038D02*
X109149962Y11981038D01*
X110456160Y-7229071D02*
X110456160Y8320891D01*
X110456185Y8320891D02*
X103040158Y8320891D01*
D12*
G04 #@! TO.C,M1*
X23250053Y51136682D02*
X23609344Y51495973D01*
X23250053Y38075001D02*
X23250053Y51136682D01*
X23250053Y38075001D02*
X23500053Y37825002D01*
X23500053Y37825002D02*
X30850432Y37825002D01*
X23609344Y51495973D02*
X29350051Y51495973D01*
X29350051Y50899621D02*
X29350051Y51495973D01*
X29350051Y50899621D02*
X30100052Y50149620D01*
X30100052Y50149620D02*
X31100053Y50149620D01*
X30850432Y37825002D02*
X31100053Y38074623D01*
X31100053Y48274623D02*
X31100053Y50149620D01*
X31100053Y38074623D02*
X31100053Y48274623D01*
G04 #@! TD*
M02*
