M48
; DRILL file {KiCad 8.0.9-8.0.9-0~ubuntu24.04.1} date 2026-07-06T14:45:12+0000
; FORMAT={2:4/ absolute / inch / suppress leading zeros}
; #@! TF.CreationDate,2026-07-06T14:45:12+00:00
; #@! TF.GenerationSoftware,Kicad,Pcbnew,8.0.9-8.0.9-0~ubuntu24.04.1
; #@! TF.FileFunction,MixedPlating,1,2
FMAT,2
INCH,TZ
; #@! TA.AperFunction,Plated,PTH,ComponentDrill
T1C0.0118
; #@! TA.AperFunction,Plated,PTH,ViaDrill
T2C0.0118
; #@! TA.AperFunction,Plated,PTH,ComponentDrill
T3C0.0118
; #@! TA.AperFunction,Plated,PTH,ViaDrill
T4C0.0197
; #@! TA.AperFunction,Plated,PTH,ViaDrill
T5C0.0276
; #@! TA.AperFunction,Plated,PTH,ComponentDrill
T6C0.0276
; #@! TA.AperFunction,Plated,PTH,ComponentDrill
T7C0.0320
; #@! TA.AperFunction,Plated,PTH,ViaDrill
T8C0.0394
; #@! TA.AperFunction,Plated,PTH,ComponentDrill
T9C0.0394
; #@! TA.AperFunction,Plated,PTH,ComponentDrill
T10C0.0453
; #@! TA.AperFunction,Plated,PTH,ViaDrill
T11C0.1969
; #@! TA.AperFunction,NonPlated,NPTH,ComponentDrill
T12C0.0866
; #@! TA.AperFunction,NonPlated,NPTH,ComponentDrill
T13C0.1575
%
G90
G05
T1
X1425Y31718
X2823Y31747
X3118Y31285
X3325Y31629
X30106Y28539
X31632Y27289
X31711Y28420
X31717Y26944
X31717Y27672
X31746Y26609
X31923Y25970
X32439Y27505
X32439Y26481
X32439Y25714
T2
X807Y1103
X1306Y1159
X1530Y16213
X1759Y10607
X2194Y19347
X2194Y18847
X2194Y18347
X2433Y16761
X2433Y16141
X3425Y15391
X3606Y16022
X4143Y18347
X4143Y17847
X4210Y32448
X4223Y31188
X4557Y15990
X5464Y31279
X5766Y18130
X6000Y2737
X6735Y33843
X7054Y19604
X8093Y28077
X8742Y3054
X8813Y29881
X10293Y37631
X10316Y18719
X10786Y8978
X11832Y39958
X13874Y19325
X14884Y10062
X18549Y10076
X19107Y39852
X19306Y16068
X19580Y11346
X20727Y22008
X24251Y19388
X25407Y40050
X25467Y40650
X26961Y11789
X27423Y39024
X27704Y35612
X27833Y37250
X27922Y28778
X29362Y38235
X29401Y37705
X30334Y38566
X30657Y34024
X31247Y32503
X31537Y22735
X32308Y37937
X32835Y37997
X33389Y37997
X34096Y37984
X35024Y37997
X35149Y31458
X35593Y32100
X35631Y37997
X36458Y37024
X36785Y36198
X36908Y31205
X37379Y35572
X37705Y40725
X37735Y38414
X37950Y36661
X38671Y40503
X38857Y39013
X38865Y31916
X39057Y32706
X39290Y25542
X39319Y41536
X39338Y13391
X39373Y31466
X39421Y19315
X39431Y35074
X39438Y40343
X39647Y35868
X40105Y36402
X40158Y41545
X40600Y37771
X40928Y41532
X41352Y30770
X41404Y34647
X41477Y37254
X41758Y41505
X42021Y35639
X42543Y41563
X42608Y35100
X42959Y31824
X43241Y34589
X43417Y13430
X43420Y19557
X43452Y31505
X47549Y31366
X47566Y25542
X47613Y13391
X47697Y19315
T3
X2570Y4412
X2964Y4412
X3358Y4412
X3752Y4412
X4678Y14881
X5078Y14881
X5976Y14881
X6370Y14881
X6763Y14881
X8634Y14988
X9106Y14988
X9578Y14988
X10051Y14988
X10675Y25360
X10675Y24967
X10675Y35754
X10675Y35360
X10675Y34967
X10675Y34573
X10675Y34179
X10675Y33785
X10675Y30242
X10675Y39533
X10675Y33392
X10675Y32998
X10675Y32604
X10675Y32211
X10675Y31817
X10675Y31423
X10675Y31030
X10675Y30636
X10675Y27880
X10833Y23982
X11177Y9309
X11571Y9309
X11778Y23982
X12250Y23982
X12722Y23982
X13037Y39533
X13126Y12819
X13126Y9394
X13195Y23982
X13352Y39533
X13480Y9394
X13500Y12819
X13667Y39533
X13667Y23982
X13874Y12819
X14140Y23982
X14612Y23982
X15085Y23982
X15557Y23982
X16030Y23982
X16502Y23982
X16738Y39533
X16974Y23982
X17053Y39533
X17368Y39533
X17447Y23982
X17683Y39533
X17919Y23982
X17998Y39533
X18392Y23982
X18864Y23982
X19337Y23982
X19809Y23982
X20094Y16534
X20094Y16141
X20163Y39533
X20281Y23982
X20478Y39533
X20754Y23982
X20793Y39533
X21108Y39533
X21226Y23982
X21423Y39533
X21699Y23982
X21738Y39533
X22053Y39533
X22171Y23982
X22368Y39533
X22644Y23982
X22683Y39533
X22998Y39533
X23116Y23982
X23313Y39533
X23589Y23982
X23628Y39533
X23943Y39533
X24061Y23982
X24258Y39533
X24533Y23982
X24573Y39533
X24888Y39533
X24967Y23982
X25203Y39533
X25439Y23982
X25518Y39533
X25833Y39533
X25911Y23982
X26148Y39533
X26384Y23982
X26463Y39533
X26778Y39533
X26856Y23982
X27093Y36935
X27093Y36620
X27093Y35045
X27093Y34730
X27093Y34415
X27093Y33156
X27093Y32841
X27093Y29376
X27093Y25163
X27093Y39533
X27093Y38510
X27093Y38195
X27093Y37880
X27093Y37565
X27093Y37250
X27093Y36305
X27093Y35990
X27093Y35675
X27093Y35360
X27093Y34100
X27093Y33785
X27093Y33470
X27093Y32526
X27093Y32211
X27093Y31896
X27093Y31581
X27093Y31266
X27093Y30951
X27093Y30636
X27093Y30321
X27093Y30006
X27093Y29691
X27093Y29061
X27093Y28746
X27093Y28431
X27093Y28116
X27093Y27801
X27093Y24848
X31140Y35021
X31258Y36626
X32006Y36631
X32174Y37354
X32390Y36547
X32735Y36631
X33069Y36661
X33197Y37354
X33709Y36838
X33965Y37354
T4
X23053Y1765
X34869Y18725
X35131Y15211
X35131Y11985
T5
X33961Y28811
X33976Y29661
X33976Y28079
X34720Y28780
X34724Y29650
X34756Y28091
X35453Y29654
X35453Y28803
X35453Y28098
X38102Y22895
X38117Y23745
X38117Y22163
X38150Y10744
X38165Y11594
X38165Y10012
X38185Y28819
X38201Y29669
X38201Y28087
X38233Y16668
X38249Y17519
X38249Y15936
X38862Y22863
X38865Y23733
X38897Y22174
X38909Y10713
X38913Y11583
X38945Y28787
X38945Y10024
X38949Y29657
X38980Y28098
X38993Y16637
X38997Y17507
X39028Y15948
X39594Y23737
X39594Y22887
X39633Y22174
X39642Y11587
X39642Y10736
X39677Y29661
X39677Y28811
X39681Y10024
X39717Y28098
X39725Y17511
X39725Y16660
X39764Y15948
X42228Y10783
X42244Y11634
X42244Y10051
X42264Y28858
X42280Y29709
X42280Y28126
X42312Y16707
X42327Y17558
X42327Y15975
X42988Y10752
X42992Y11622
X43024Y28827
X43024Y10063
X43028Y29697
X43059Y28138
X43072Y16676
X43075Y17546
X43107Y15987
X43720Y11626
X43720Y10776
X43756Y29701
X43756Y28850
X43760Y10063
X43795Y28138
X43804Y17550
X43804Y16700
X43843Y15987
X46393Y23745
X46393Y22163
X46413Y22895
X46425Y10744
X46441Y11594
X46441Y10012
X46461Y28819
X46476Y29669
X46476Y28087
X46509Y16668
X46524Y17519
X46524Y15936
X47137Y22863
X47141Y23733
X47173Y22174
X47185Y10713
X47189Y11583
X47220Y28787
X47220Y10024
X47224Y29657
X47256Y28098
X47268Y16637
X47272Y17507
X47304Y15948
X47816Y10024
X47869Y23737
X47869Y22887
X47909Y22174
X47917Y11587
X47917Y10736
X47953Y29661
X47953Y28811
X47992Y28098
X48001Y17511
X48001Y16660
X48040Y15948
T6
X32308Y40115
X32623Y39426
X32938Y40115
X33253Y39426
X33568Y40115
T7
X28248Y11811
X28248Y9882
T8
X2306Y34847
X3168Y22885
X4252Y2459
X8757Y6703
X11052Y3721
X11487Y21581
X19100Y18826
X25630Y1583
X26515Y1685
X27421Y1659
X28351Y1701
X29402Y1953
X32201Y2583
X32389Y17828
X32651Y14313
X32651Y11087
X33760Y33320
X33934Y2570
X35328Y7833
X36276Y2528
X36959Y32383
X36961Y3474
X37827Y3571
X38693Y3563
X38740Y14630
X38753Y20685
X39331Y4598
X42095Y8224
X43200Y21291
X43211Y26051
X43362Y14731
X47813Y14497
X47940Y20566
X48490Y7943
X49062Y39165
X49257Y32727
T9
X20272Y17656
X20272Y15196
X20272Y13503
X20272Y12755
X20272Y10235
X26374Y17479
X26374Y12735
X26374Y10786
X26374Y10058
T10
X19363Y5773
X19363Y4789
X19363Y3805
X19363Y2821
X20347Y5773
X20347Y4789
X20347Y3805
X20347Y2821
X21332Y5773
X21332Y4789
X21332Y3805
X21332Y2821
X22316Y5773
X22316Y4789
X22316Y3805
X22316Y2821
X23300Y5773
X23300Y4789
X23300Y3805
X23300Y2821
X24284Y5773
X24284Y4789
X24284Y3805
X24284Y2821
X25269Y5773
X25269Y4789
X25269Y3805
X25269Y2821
X26253Y5773
X26253Y4789
X26253Y3805
X26253Y2821
X27237Y5773
X27237Y4789
X27237Y3805
X27237Y2821
X28221Y5773
X28221Y4789
X28221Y3805
X28221Y2821
X29599Y5773
X29599Y4789
X29599Y3805
X29599Y2821
X31056Y5773
X31056Y4789
X31056Y3805
X31056Y2821
T11
X4384Y39468
X45809Y40001
T12
X16824Y6207
X33595Y6207
T13
X15210Y4691
X35210Y4691
T6
X31501Y39515G85X31501Y40026
G05
X34375Y39515G85X34375Y40026
G05
M30
