G04 #@! TF.GenerationSoftware,KiCad,Pcbnew,8.0.9-8.0.9-0~ubuntu24.04.1*
G04 #@! TF.CreationDate,2026-07-06T14:45:12+00:00*
G04 #@! TF.ProjectId,luis48,6c756973-3438-42e6-9b69-6361645f7063,rev?*
G04 #@! TF.SameCoordinates,Original*
G04 #@! TF.FileFunction,Paste,Top*
G04 #@! TF.FilePolarity,Positive*
%FSLAX46Y46*%
G04 Gerber Fmt 4.6, Leading zero omitted, Abs format (unit mm)*
G04 Created by KiCad (PCBNEW 8.0.9-8.0.9-0~ubuntu24.04.1) date 2026-07-06 14:45:12*
%MOMM*%
%LPD*%
G01*
G04 APERTURE LIST*
%ADD10O,0.000001X0.000001*%
G04 APERTURE END LIST*
G04 #@! TO.C,U2*
G36*
G01*
X11497000Y45481000D02*
X11497000Y45181000D01*
G75*
G02*
X11347000Y45031000I-150000J0D01*
G01*
X9697000Y45031000D01*
G75*
G02*
X9547000Y45181000I0J150000D01*
G01*
X9547000Y45481000D01*
G75*
G02*
X9697000Y45631000I150000J0D01*
G01*
X11347000Y45631000D01*
G75*
G02*
X11497000Y45481000I0J-150000D01*
G01*
G37*
G36*
G01*
X11497000Y46751000D02*
X11497000Y46451000D01*
G75*
G02*
X11347000Y46301000I-150000J0D01*
G01*
X9697000Y46301000D01*
G75*
G02*
X9547000Y46451000I0J150000D01*
G01*
X9547000Y46751000D01*
G75*
G02*
X9697000Y46901000I150000J0D01*
G01*
X11347000Y46901000D01*
G75*
G02*
X11497000Y46751000I0J-150000D01*
G01*
G37*
G36*
G01*
X11497000Y48021000D02*
X11497000Y47721000D01*
G75*
G02*
X11347000Y47571000I-150000J0D01*
G01*
X9697000Y47571000D01*
G75*
G02*
X9547000Y47721000I0J150000D01*
G01*
X9547000Y48021000D01*
G75*
G02*
X9697000Y48171000I150000J0D01*
G01*
X11347000Y48171000D01*
G75*
G02*
X11497000Y48021000I0J-150000D01*
G01*
G37*
G36*
G01*
X11497000Y49291000D02*
X11497000Y48991000D01*
G75*
G02*
X11347000Y48841000I-150000J0D01*
G01*
X9697000Y48841000D01*
G75*
G02*
X9547000Y48991000I0J150000D01*
G01*
X9547000Y49291000D01*
G75*
G02*
X9697000Y49441000I150000J0D01*
G01*
X11347000Y49441000D01*
G75*
G02*
X11497000Y49291000I0J-150000D01*
G01*
G37*
G36*
G01*
X6547000Y49291000D02*
X6547000Y48991000D01*
G75*
G02*
X6397000Y48841000I-150000J0D01*
G01*
X4747000Y48841000D01*
G75*
G02*
X4597000Y48991000I0J150000D01*
G01*
X4597000Y49291000D01*
G75*
G02*
X4747000Y49441000I150000J0D01*
G01*
X6397000Y49441000D01*
G75*
G02*
X6547000Y49291000I0J-150000D01*
G01*
G37*
G36*
G01*
X6547000Y48021000D02*
X6547000Y47721000D01*
G75*
G02*
X6397000Y47571000I-150000J0D01*
G01*
X4747000Y47571000D01*
G75*
G02*
X4597000Y47721000I0J150000D01*
G01*
X4597000Y48021000D01*
G75*
G02*
X4747000Y48171000I150000J0D01*
G01*
X6397000Y48171000D01*
G75*
G02*
X6547000Y48021000I0J-150000D01*
G01*
G37*
G36*
G01*
X6547000Y46751000D02*
X6547000Y46451000D01*
G75*
G02*
X6397000Y46301000I-150000J0D01*
G01*
X4747000Y46301000D01*
G75*
G02*
X4597000Y46451000I0J150000D01*
G01*
X4597000Y46751000D01*
G75*
G02*
X4747000Y46901000I150000J0D01*
G01*
X6397000Y46901000D01*
G75*
G02*
X6547000Y46751000I0J-150000D01*
G01*
G37*
G36*
G01*
X6547000Y45481000D02*
X6547000Y45181000D01*
G75*
G02*
X6397000Y45031000I-150000J0D01*
G01*
X4747000Y45031000D01*
G75*
G02*
X4597000Y45181000I0J150000D01*
G01*
X4597000Y45481000D01*
G75*
G02*
X4747000Y45631000I150000J0D01*
G01*
X6397000Y45631000D01*
G75*
G02*
X6547000Y45481000I0J-150000D01*
G01*
G37*
G04 #@! TD*
G04 #@! TO.C,D3*
G36*
G01*
X72579000Y44471000D02*
X72579000Y45491000D01*
G75*
G02*
X72669000Y45581000I90000J0D01*
G01*
X73389000Y45581000D01*
G75*
G02*
X73479000Y45491000I0J-90000D01*
G01*
X73479000Y44471000D01*
G75*
G02*
X73389000Y44381000I-90000J0D01*
G01*
X72669000Y44381000D01*
G75*
G02*
X72579000Y44471000I0J90000D01*
G01*
G37*
G36*
G01*
X75879000Y44471000D02*
X75879000Y45491000D01*
G75*
G02*
X75969000Y45581000I90000J0D01*
G01*
X76689000Y45581000D01*
G75*
G02*
X76779000Y45491000I0J-90000D01*
G01*
X76779000Y44471000D01*
G75*
G02*
X76689000Y44381000I-90000J0D01*
G01*
X75969000Y44381000D01*
G75*
G02*
X75879000Y44471000I0J90000D01*
G01*
G37*
G04 #@! TD*
G04 #@! TO.C,R13*
G36*
G01*
X59647000Y48854452D02*
X59647000Y49634452D01*
G75*
G02*
X59717000Y49704452I70000J0D01*
G01*
X60277000Y49704452D01*
G75*
G02*
X60347000Y49634452I0J-70000D01*
G01*
X60347000Y48854452D01*
G75*
G02*
X60277000Y48784452I-70000J0D01*
G01*
X59717000Y48784452D01*
G75*
G02*
X59647000Y48854452I0J70000D01*
G01*
G37*
G36*
G01*
X61247000Y48854452D02*
X61247000Y49634452D01*
G75*
G02*
X61317000Y49704452I70000J0D01*
G01*
X61877000Y49704452D01*
G75*
G02*
X61947000Y49634452I0J-70000D01*
G01*
X61947000Y48854452D01*
G75*
G02*
X61877000Y48784452I-70000J0D01*
G01*
X61317000Y48784452D01*
G75*
G02*
X61247000Y48854452I0J70000D01*
G01*
G37*
G04 #@! TD*
G04 #@! TO.C,D5*
G36*
G01*
X73323000Y34239000D02*
X73323000Y35259000D01*
G75*
G02*
X73413000Y35349000I90000J0D01*
G01*
X74133000Y35349000D01*
G75*
G02*
X74223000Y35259000I0J-90000D01*
G01*
X74223000Y34239000D01*
G75*
G02*
X74133000Y34149000I-90000J0D01*
G01*
X73413000Y34149000D01*
G75*
G02*
X73323000Y34239000I0J90000D01*
G01*
G37*
G36*
G01*
X76623000Y34239000D02*
X76623000Y35259000D01*
G75*
G02*
X76713000Y35349000I90000J0D01*
G01*
X77433000Y35349000D01*
G75*
G02*
X77523000Y35259000I0J-90000D01*
G01*
X77523000Y34239000D01*
G75*
G02*
X77433000Y34149000I-90000J0D01*
G01*
X76713000Y34149000D01*
G75*
G02*
X76623000Y34239000I0J90000D01*
G01*
G37*
G04 #@! TD*
G04 #@! TO.C,R14*
G36*
G01*
X58524000Y58289524D02*
X58524000Y57509524D01*
G75*
G02*
X58454000Y57439524I-70000J0D01*
G01*
X57894000Y57439524D01*
G75*
G02*
X57824000Y57509524I0J70000D01*
G01*
X57824000Y58289524D01*
G75*
G02*
X57894000Y58359524I70000J0D01*
G01*
X58454000Y58359524D01*
G75*
G02*
X58524000Y58289524I0J-70000D01*
G01*
G37*
G36*
G01*
X56924000Y58289524D02*
X56924000Y57509524D01*
G75*
G02*
X56854000Y57439524I-70000J0D01*
G01*
X56294000Y57439524D01*
G75*
G02*
X56224000Y57509524I0J70000D01*
G01*
X56224000Y58289524D01*
G75*
G02*
X56294000Y58359524I70000J0D01*
G01*
X56854000Y58359524D01*
G75*
G02*
X56924000Y58289524I0J-70000D01*
G01*
G37*
G04 #@! TD*
G04 #@! TO.C,D14*
G36*
G01*
X18694116Y74181000D02*
X18694116Y75421000D01*
G75*
G02*
X18824116Y75551000I130000J0D01*
G01*
X19864116Y75551000D01*
G75*
G02*
X19994116Y75421000I0J-130000D01*
G01*
X19994116Y74181000D01*
G75*
G02*
X19864116Y74051000I-130000J0D01*
G01*
X18824116Y74051000D01*
G75*
G02*
X18694116Y74181000I0J130000D01*
G01*
G37*
G36*
G01*
X16794095Y74181000D02*
X16794095Y75421000D01*
G75*
G02*
X16924095Y75551000I130000J0D01*
G01*
X17964095Y75551000D01*
G75*
G02*
X18094095Y75421000I0J-130000D01*
G01*
X18094095Y74181000D01*
G75*
G02*
X17964095Y74051000I-130000J0D01*
G01*
X16924095Y74051000D01*
G75*
G02*
X16794095Y74181000I0J130000D01*
G01*
G37*
G04 #@! TD*
G04 #@! TO.C,D12*
G36*
G01*
X57859116Y55074452D02*
X57859116Y56314452D01*
G75*
G02*
X57989116Y56444452I130000J0D01*
G01*
X59029116Y56444452D01*
G75*
G02*
X59159116Y56314452I0J-130000D01*
G01*
X59159116Y55074452D01*
G75*
G02*
X59029116Y54944452I-130000J0D01*
G01*
X57989116Y54944452D01*
G75*
G02*
X57859116Y55074452I0J130000D01*
G01*
G37*
G36*
G01*
X55959095Y55074452D02*
X55959095Y56314452D01*
G75*
G02*
X56089095Y56444452I130000J0D01*
G01*
X57129095Y56444452D01*
G75*
G02*
X57259095Y56314452I0J-130000D01*
G01*
X57259095Y55074452D01*
G75*
G02*
X57129095Y54944452I-130000J0D01*
G01*
X56089095Y54944452D01*
G75*
G02*
X55959095Y55074452I0J130000D01*
G01*
G37*
G04 #@! TD*
G04 #@! TO.C,Q14*
G36*
G01*
X90334000Y34426000D02*
X90334000Y33726000D01*
G75*
G02*
X90084000Y33476000I-250000J0D01*
G01*
X88384000Y33476000D01*
G75*
G02*
X88134000Y33726000I0J250000D01*
G01*
X88134000Y34426000D01*
G75*
G02*
X88384000Y34676000I250000J0D01*
G01*
X90084000Y34676000D01*
G75*
G02*
X90334000Y34426000I0J-250000D01*
G01*
G37*
G36*
G01*
X86134000Y35956000D02*
X86134000Y33706000D01*
G75*
G02*
X85884000Y33456000I-250000J0D01*
G01*
X83334000Y33456000D01*
G75*
G02*
X83084000Y33706000I0J250000D01*
G01*
X83084000Y35956000D01*
G75*
G02*
X83334000Y36206000I250000J0D01*
G01*
X85884000Y36206000D01*
G75*
G02*
X86134000Y35956000I0J-250000D01*
G01*
G37*
G36*
G01*
X86134000Y39006000D02*
X86134000Y36756000D01*
G75*
G02*
X85884000Y36506000I-250000J0D01*
G01*
X83334000Y36506000D01*
G75*
G02*
X83084000Y36756000I0J250000D01*
G01*
X83084000Y39006000D01*
G75*
G02*
X83334000Y39256000I250000J0D01*
G01*
X85884000Y39256000D01*
G75*
G02*
X86134000Y39006000I0J-250000D01*
G01*
G37*
G36*
G01*
X82784000Y35956000D02*
X82784000Y33706000D01*
G75*
G02*
X82534000Y33456000I-250000J0D01*
G01*
X79984000Y33456000D01*
G75*
G02*
X79734000Y33706000I0J250000D01*
G01*
X79734000Y35956000D01*
G75*
G02*
X79984000Y36206000I250000J0D01*
G01*
X82534000Y36206000D01*
G75*
G02*
X82784000Y35956000I0J-250000D01*
G01*
G37*
G36*
G01*
X82784000Y39006000D02*
X82784000Y36756000D01*
G75*
G02*
X82534000Y36506000I-250000J0D01*
G01*
X79984000Y36506000D01*
G75*
G02*
X79734000Y36756000I0J250000D01*
G01*
X79734000Y39006000D01*
G75*
G02*
X79984000Y39256000I250000J0D01*
G01*
X82534000Y39256000D01*
G75*
G02*
X82784000Y39006000I0J-250000D01*
G01*
G37*
G36*
G01*
X90334000Y38986000D02*
X90334000Y38286000D01*
G75*
G02*
X90084000Y38036000I-250000J0D01*
G01*
X88384000Y38036000D01*
G75*
G02*
X88134000Y38286000I0J250000D01*
G01*
X88134000Y38986000D01*
G75*
G02*
X88384000Y39236000I250000J0D01*
G01*
X90084000Y39236000D01*
G75*
G02*
X90334000Y38986000I0J-250000D01*
G01*
G37*
G04 #@! TD*
G04 #@! TO.C,Q904*
G36*
G01*
X121678279Y65513000D02*
X122378279Y65513000D01*
G75*
G02*
X122628279Y65263000I0J-250000D01*
G01*
X122628279Y63563000D01*
G75*
G02*
X122378279Y63313000I-250000J0D01*
G01*
X121678279Y63313000D01*
G75*
G02*
X121428279Y63563000I0J250000D01*
G01*
X121428279Y65263000D01*
G75*
G02*
X121678279Y65513000I250000J0D01*
G01*
G37*
G36*
G01*
X120148279Y61313000D02*
X122398279Y61313000D01*
G75*
G02*
X122648279Y61063000I0J-250000D01*
G01*
X122648279Y58513000D01*
G75*
G02*
X122398279Y58263000I-250000J0D01*
G01*
X120148279Y58263000D01*
G75*
G02*
X119898279Y58513000I0J250000D01*
G01*
X119898279Y61063000D01*
G75*
G02*
X120148279Y61313000I250000J0D01*
G01*
G37*
G36*
G01*
X117098279Y61313000D02*
X119348279Y61313000D01*
G75*
G02*
X119598279Y61063000I0J-250000D01*
G01*
X119598279Y58513000D01*
G75*
G02*
X119348279Y58263000I-250000J0D01*
G01*
X117098279Y58263000D01*
G75*
G02*
X116848279Y58513000I0J250000D01*
G01*
X116848279Y61063000D01*
G75*
G02*
X117098279Y61313000I250000J0D01*
G01*
G37*
G36*
G01*
X120148279Y57963000D02*
X122398279Y57963000D01*
G75*
G02*
X122648279Y57713000I0J-250000D01*
G01*
X122648279Y55163000D01*
G75*
G02*
X122398279Y54913000I-250000J0D01*
G01*
X120148279Y54913000D01*
G75*
G02*
X119898279Y55163000I0J250000D01*
G01*
X119898279Y57713000D01*
G75*
G02*
X120148279Y57963000I250000J0D01*
G01*
G37*
G36*
G01*
X117098279Y57963000D02*
X119348279Y57963000D01*
G75*
G02*
X119598279Y57713000I0J-250000D01*
G01*
X119598279Y55163000D01*
G75*
G02*
X119348279Y54913000I-250000J0D01*
G01*
X117098279Y54913000D01*
G75*
G02*
X116848279Y55163000I0J250000D01*
G01*
X116848279Y57713000D01*
G75*
G02*
X117098279Y57963000I250000J0D01*
G01*
G37*
G36*
G01*
X117118279Y65513000D02*
X117818279Y65513000D01*
G75*
G02*
X118068279Y65263000I0J-250000D01*
G01*
X118068279Y63563000D01*
G75*
G02*
X117818279Y63313000I-250000J0D01*
G01*
X117118279Y63313000D01*
G75*
G02*
X116868279Y63563000I0J250000D01*
G01*
X116868279Y65263000D01*
G75*
G02*
X117118279Y65513000I250000J0D01*
G01*
G37*
G04 #@! TD*
G04 #@! TO.C,C1*
G36*
G01*
X4227000Y40757000D02*
X3547000Y40757000D01*
G75*
G02*
X3462000Y40842000I0J85000D01*
G01*
X3462000Y41522000D01*
G75*
G02*
X3547000Y41607000I85000J0D01*
G01*
X4227000Y41607000D01*
G75*
G02*
X4312000Y41522000I0J-85000D01*
G01*
X4312000Y40842000D01*
G75*
G02*
X4227000Y40757000I-85000J0D01*
G01*
G37*
G36*
G01*
X4227000Y42337002D02*
X3547000Y42337002D01*
G75*
G02*
X3462000Y42422002I0J85000D01*
G01*
X3462000Y43102002D01*
G75*
G02*
X3547000Y43187002I85000J0D01*
G01*
X4227000Y43187002D01*
G75*
G02*
X4312000Y43102002I0J-85000D01*
G01*
X4312000Y42422002D01*
G75*
G02*
X4227000Y42337002I-85000J0D01*
G01*
G37*
G04 #@! TD*
G04 #@! TO.C,Q905*
G36*
G01*
X100658279Y65513000D02*
X101358279Y65513000D01*
G75*
G02*
X101608279Y65263000I0J-250000D01*
G01*
X101608279Y63563000D01*
G75*
G02*
X101358279Y63313000I-250000J0D01*
G01*
X100658279Y63313000D01*
G75*
G02*
X100408279Y63563000I0J250000D01*
G01*
X100408279Y65263000D01*
G75*
G02*
X100658279Y65513000I250000J0D01*
G01*
G37*
G36*
G01*
X99128279Y61313000D02*
X101378279Y61313000D01*
G75*
G02*
X101628279Y61063000I0J-250000D01*
G01*
X101628279Y58513000D01*
G75*
G02*
X101378279Y58263000I-250000J0D01*
G01*
X99128279Y58263000D01*
G75*
G02*
X98878279Y58513000I0J250000D01*
G01*
X98878279Y61063000D01*
G75*
G02*
X99128279Y61313000I250000J0D01*
G01*
G37*
G36*
G01*
X96078279Y61313000D02*
X98328279Y61313000D01*
G75*
G02*
X98578279Y61063000I0J-250000D01*
G01*
X98578279Y58513000D01*
G75*
G02*
X98328279Y58263000I-250000J0D01*
G01*
X96078279Y58263000D01*
G75*
G02*
X95828279Y58513000I0J250000D01*
G01*
X95828279Y61063000D01*
G75*
G02*
X96078279Y61313000I250000J0D01*
G01*
G37*
G36*
G01*
X99128279Y57963000D02*
X101378279Y57963000D01*
G75*
G02*
X101628279Y57713000I0J-250000D01*
G01*
X101628279Y55163000D01*
G75*
G02*
X101378279Y54913000I-250000J0D01*
G01*
X99128279Y54913000D01*
G75*
G02*
X98878279Y55163000I0J250000D01*
G01*
X98878279Y57713000D01*
G75*
G02*
X99128279Y57963000I250000J0D01*
G01*
G37*
G36*
G01*
X96078279Y57963000D02*
X98328279Y57963000D01*
G75*
G02*
X98578279Y57713000I0J-250000D01*
G01*
X98578279Y55163000D01*
G75*
G02*
X98328279Y54913000I-250000J0D01*
G01*
X96078279Y54913000D01*
G75*
G02*
X95828279Y55163000I0J250000D01*
G01*
X95828279Y57713000D01*
G75*
G02*
X96078279Y57963000I250000J0D01*
G01*
G37*
G36*
G01*
X96098279Y65513000D02*
X96798279Y65513000D01*
G75*
G02*
X97048279Y65263000I0J-250000D01*
G01*
X97048279Y63563000D01*
G75*
G02*
X96798279Y63313000I-250000J0D01*
G01*
X96098279Y63313000D01*
G75*
G02*
X95848279Y63563000I0J250000D01*
G01*
X95848279Y65263000D01*
G75*
G02*
X96098279Y65513000I250000J0D01*
G01*
G37*
G04 #@! TD*
G04 #@! TO.C,R16*
G36*
G01*
X15258000Y75491000D02*
X15258000Y74711000D01*
G75*
G02*
X15188000Y74641000I-70000J0D01*
G01*
X14628000Y74641000D01*
G75*
G02*
X14558000Y74711000I0J70000D01*
G01*
X14558000Y75491000D01*
G75*
G02*
X14628000Y75561000I70000J0D01*
G01*
X15188000Y75561000D01*
G75*
G02*
X15258000Y75491000I0J-70000D01*
G01*
G37*
G36*
G01*
X13658000Y75491000D02*
X13658000Y74711000D01*
G75*
G02*
X13588000Y74641000I-70000J0D01*
G01*
X13028000Y74641000D01*
G75*
G02*
X12958000Y74711000I0J70000D01*
G01*
X12958000Y75491000D01*
G75*
G02*
X13028000Y75561000I70000J0D01*
G01*
X13588000Y75561000D01*
G75*
G02*
X13658000Y75491000I0J-70000D01*
G01*
G37*
G04 #@! TD*
G04 #@! TO.C,Q915*
G36*
G01*
X100991721Y49697000D02*
X101691721Y49697000D01*
G75*
G02*
X101941721Y49447000I0J-250000D01*
G01*
X101941721Y47747000D01*
G75*
G02*
X101691721Y47497000I-250000J0D01*
G01*
X100991721Y47497000D01*
G75*
G02*
X100741721Y47747000I0J250000D01*
G01*
X100741721Y49447000D01*
G75*
G02*
X100991721Y49697000I250000J0D01*
G01*
G37*
G36*
G01*
X99461721Y45497000D02*
X101711721Y45497000D01*
G75*
G02*
X101961721Y45247000I0J-250000D01*
G01*
X101961721Y42697000D01*
G75*
G02*
X101711721Y42447000I-250000J0D01*
G01*
X99461721Y42447000D01*
G75*
G02*
X99211721Y42697000I0J250000D01*
G01*
X99211721Y45247000D01*
G75*
G02*
X99461721Y45497000I250000J0D01*
G01*
G37*
G36*
G01*
X96411721Y45497000D02*
X98661721Y45497000D01*
G75*
G02*
X98911721Y45247000I0J-250000D01*
G01*
X98911721Y42697000D01*
G75*
G02*
X98661721Y42447000I-250000J0D01*
G01*
X96411721Y42447000D01*
G75*
G02*
X96161721Y42697000I0J250000D01*
G01*
X96161721Y45247000D01*
G75*
G02*
X96411721Y45497000I250000J0D01*
G01*
G37*
G36*
G01*
X99461721Y42147000D02*
X101711721Y42147000D01*
G75*
G02*
X101961721Y41897000I0J-250000D01*
G01*
X101961721Y39347000D01*
G75*
G02*
X101711721Y39097000I-250000J0D01*
G01*
X99461721Y39097000D01*
G75*
G02*
X99211721Y39347000I0J250000D01*
G01*
X99211721Y41897000D01*
G75*
G02*
X99461721Y42147000I250000J0D01*
G01*
G37*
G36*
G01*
X96411721Y42147000D02*
X98661721Y42147000D01*
G75*
G02*
X98911721Y41897000I0J-250000D01*
G01*
X98911721Y39347000D01*
G75*
G02*
X98661721Y39097000I-250000J0D01*
G01*
X96411721Y39097000D01*
G75*
G02*
X96161721Y39347000I0J250000D01*
G01*
X96161721Y41897000D01*
G75*
G02*
X96411721Y42147000I250000J0D01*
G01*
G37*
G36*
G01*
X96431721Y49697000D02*
X97131721Y49697000D01*
G75*
G02*
X97381721Y49447000I0J-250000D01*
G01*
X97381721Y47747000D01*
G75*
G02*
X97131721Y47497000I-250000J0D01*
G01*
X96431721Y47497000D01*
G75*
G02*
X96181721Y47747000I0J250000D01*
G01*
X96181721Y49447000D01*
G75*
G02*
X96431721Y49697000I250000J0D01*
G01*
G37*
G04 #@! TD*
G04 #@! TO.C,C5*
G36*
G01*
X14692001Y49577994D02*
X14692001Y48897994D01*
G75*
G02*
X14607001Y48812994I-85000J0D01*
G01*
X13927001Y48812994D01*
G75*
G02*
X13842001Y48897994I0J85000D01*
G01*
X13842001Y49577994D01*
G75*
G02*
X13927001Y49662994I85000J0D01*
G01*
X14607001Y49662994D01*
G75*
G02*
X14692001Y49577994I0J-85000D01*
G01*
G37*
G36*
G01*
X13111999Y49577994D02*
X13111999Y48897994D01*
G75*
G02*
X13026999Y48812994I-85000J0D01*
G01*
X12346999Y48812994D01*
G75*
G02*
X12261999Y48897994I0J85000D01*
G01*
X12261999Y49577994D01*
G75*
G02*
X12346999Y49662994I85000J0D01*
G01*
X13026999Y49662994D01*
G75*
G02*
X13111999Y49577994I0J-85000D01*
G01*
G37*
G04 #@! TD*
G04 #@! TO.C,Q906*
G36*
G01*
X122011721Y49697000D02*
X122711721Y49697000D01*
G75*
G02*
X122961721Y49447000I0J-250000D01*
G01*
X122961721Y47747000D01*
G75*
G02*
X122711721Y47497000I-250000J0D01*
G01*
X122011721Y47497000D01*
G75*
G02*
X121761721Y47747000I0J250000D01*
G01*
X121761721Y49447000D01*
G75*
G02*
X122011721Y49697000I250000J0D01*
G01*
G37*
G36*
G01*
X120481721Y45497000D02*
X122731721Y45497000D01*
G75*
G02*
X122981721Y45247000I0J-250000D01*
G01*
X122981721Y42697000D01*
G75*
G02*
X122731721Y42447000I-250000J0D01*
G01*
X120481721Y42447000D01*
G75*
G02*
X120231721Y42697000I0J250000D01*
G01*
X120231721Y45247000D01*
G75*
G02*
X120481721Y45497000I250000J0D01*
G01*
G37*
G36*
G01*
X117431721Y45497000D02*
X119681721Y45497000D01*
G75*
G02*
X119931721Y45247000I0J-250000D01*
G01*
X119931721Y42697000D01*
G75*
G02*
X119681721Y42447000I-250000J0D01*
G01*
X117431721Y42447000D01*
G75*
G02*
X117181721Y42697000I0J250000D01*
G01*
X117181721Y45247000D01*
G75*
G02*
X117431721Y45497000I250000J0D01*
G01*
G37*
G36*
G01*
X120481721Y42147000D02*
X122731721Y42147000D01*
G75*
G02*
X122981721Y41897000I0J-250000D01*
G01*
X122981721Y39347000D01*
G75*
G02*
X122731721Y39097000I-250000J0D01*
G01*
X120481721Y39097000D01*
G75*
G02*
X120231721Y39347000I0J250000D01*
G01*
X120231721Y41897000D01*
G75*
G02*
X120481721Y42147000I250000J0D01*
G01*
G37*
G36*
G01*
X117431721Y42147000D02*
X119681721Y42147000D01*
G75*
G02*
X119931721Y41897000I0J-250000D01*
G01*
X119931721Y39347000D01*
G75*
G02*
X119681721Y39097000I-250000J0D01*
G01*
X117431721Y39097000D01*
G75*
G02*
X117181721Y39347000I0J250000D01*
G01*
X117181721Y41897000D01*
G75*
G02*
X117431721Y42147000I250000J0D01*
G01*
G37*
G36*
G01*
X117451721Y49697000D02*
X118151721Y49697000D01*
G75*
G02*
X118401721Y49447000I0J-250000D01*
G01*
X118401721Y47747000D01*
G75*
G02*
X118151721Y47497000I-250000J0D01*
G01*
X117451721Y47497000D01*
G75*
G02*
X117201721Y47747000I0J250000D01*
G01*
X117201721Y49447000D01*
G75*
G02*
X117451721Y49697000I250000J0D01*
G01*
G37*
G04 #@! TD*
G04 #@! TO.C,Q901*
G36*
G01*
X121890000Y80560000D02*
X122590000Y80560000D01*
G75*
G02*
X122840000Y80310000I0J-250000D01*
G01*
X122840000Y78610000D01*
G75*
G02*
X122590000Y78360000I-250000J0D01*
G01*
X121890000Y78360000D01*
G75*
G02*
X121640000Y78610000I0J250000D01*
G01*
X121640000Y80310000D01*
G75*
G02*
X121890000Y80560000I250000J0D01*
G01*
G37*
G36*
G01*
X120360000Y76360000D02*
X122610000Y76360000D01*
G75*
G02*
X122860000Y76110000I0J-250000D01*
G01*
X122860000Y73560000D01*
G75*
G02*
X122610000Y73310000I-250000J0D01*
G01*
X120360000Y73310000D01*
G75*
G02*
X120110000Y73560000I0J250000D01*
G01*
X120110000Y76110000D01*
G75*
G02*
X120360000Y76360000I250000J0D01*
G01*
G37*
G36*
G01*
X117310000Y76360000D02*
X119560000Y76360000D01*
G75*
G02*
X119810000Y76110000I0J-250000D01*
G01*
X119810000Y73560000D01*
G75*
G02*
X119560000Y73310000I-250000J0D01*
G01*
X117310000Y73310000D01*
G75*
G02*
X117060000Y73560000I0J250000D01*
G01*
X117060000Y76110000D01*
G75*
G02*
X117310000Y76360000I250000J0D01*
G01*
G37*
G36*
G01*
X120360000Y73010000D02*
X122610000Y73010000D01*
G75*
G02*
X122860000Y72760000I0J-250000D01*
G01*
X122860000Y70210000D01*
G75*
G02*
X122610000Y69960000I-250000J0D01*
G01*
X120360000Y69960000D01*
G75*
G02*
X120110000Y70210000I0J250000D01*
G01*
X120110000Y72760000D01*
G75*
G02*
X120360000Y73010000I250000J0D01*
G01*
G37*
G36*
G01*
X117310000Y73010000D02*
X119560000Y73010000D01*
G75*
G02*
X119810000Y72760000I0J-250000D01*
G01*
X119810000Y70210000D01*
G75*
G02*
X119560000Y69960000I-250000J0D01*
G01*
X117310000Y69960000D01*
G75*
G02*
X117060000Y70210000I0J250000D01*
G01*
X117060000Y72760000D01*
G75*
G02*
X117310000Y73010000I250000J0D01*
G01*
G37*
G36*
G01*
X117330000Y80560000D02*
X118030000Y80560000D01*
G75*
G02*
X118280000Y80310000I0J-250000D01*
G01*
X118280000Y78610000D01*
G75*
G02*
X118030000Y78360000I-250000J0D01*
G01*
X117330000Y78360000D01*
G75*
G02*
X117080000Y78610000I0J250000D01*
G01*
X117080000Y80310000D01*
G75*
G02*
X117330000Y80560000I250000J0D01*
G01*
G37*
G04 #@! TD*
G04 #@! TO.C,Q913*
G36*
G01*
X100780000Y34650000D02*
X101480000Y34650000D01*
G75*
G02*
X101730000Y34400000I0J-250000D01*
G01*
X101730000Y32700000D01*
G75*
G02*
X101480000Y32450000I-250000J0D01*
G01*
X100780000Y32450000D01*
G75*
G02*
X100530000Y32700000I0J250000D01*
G01*
X100530000Y34400000D01*
G75*
G02*
X100780000Y34650000I250000J0D01*
G01*
G37*
G36*
G01*
X99250000Y30450000D02*
X101500000Y30450000D01*
G75*
G02*
X101750000Y30200000I0J-250000D01*
G01*
X101750000Y27650000D01*
G75*
G02*
X101500000Y27400000I-250000J0D01*
G01*
X99250000Y27400000D01*
G75*
G02*
X99000000Y27650000I0J250000D01*
G01*
X99000000Y30200000D01*
G75*
G02*
X99250000Y30450000I250000J0D01*
G01*
G37*
G36*
G01*
X96200000Y30450000D02*
X98450000Y30450000D01*
G75*
G02*
X98700000Y30200000I0J-250000D01*
G01*
X98700000Y27650000D01*
G75*
G02*
X98450000Y27400000I-250000J0D01*
G01*
X96200000Y27400000D01*
G75*
G02*
X95950000Y27650000I0J250000D01*
G01*
X95950000Y30200000D01*
G75*
G02*
X96200000Y30450000I250000J0D01*
G01*
G37*
G36*
G01*
X99250000Y27100000D02*
X101500000Y27100000D01*
G75*
G02*
X101750000Y26850000I0J-250000D01*
G01*
X101750000Y24300000D01*
G75*
G02*
X101500000Y24050000I-250000J0D01*
G01*
X99250000Y24050000D01*
G75*
G02*
X99000000Y24300000I0J250000D01*
G01*
X99000000Y26850000D01*
G75*
G02*
X99250000Y27100000I250000J0D01*
G01*
G37*
G36*
G01*
X96200000Y27100000D02*
X98450000Y27100000D01*
G75*
G02*
X98700000Y26850000I0J-250000D01*
G01*
X98700000Y24300000D01*
G75*
G02*
X98450000Y24050000I-250000J0D01*
G01*
X96200000Y24050000D01*
G75*
G02*
X95950000Y24300000I0J250000D01*
G01*
X95950000Y26850000D01*
G75*
G02*
X96200000Y27100000I250000J0D01*
G01*
G37*
G36*
G01*
X96220000Y34650000D02*
X96920000Y34650000D01*
G75*
G02*
X97170000Y34400000I0J-250000D01*
G01*
X97170000Y32700000D01*
G75*
G02*
X96920000Y32450000I-250000J0D01*
G01*
X96220000Y32450000D01*
G75*
G02*
X95970000Y32700000I0J250000D01*
G01*
X95970000Y34400000D01*
G75*
G02*
X96220000Y34650000I250000J0D01*
G01*
G37*
G04 #@! TD*
G04 #@! TO.C,F10*
G36*
G01*
X72649000Y26444000D02*
X72649000Y25754000D01*
G75*
G02*
X72419000Y25524000I-230000J0D01*
G01*
X71079000Y25524000D01*
G75*
G02*
X70849000Y25754000I0J230000D01*
G01*
X70849000Y26444000D01*
G75*
G02*
X71079000Y26674000I230000J0D01*
G01*
X72419000Y26674000D01*
G75*
G02*
X72649000Y26444000I0J-230000D01*
G01*
G37*
G36*
G01*
X72649000Y29344020D02*
X72649000Y28654020D01*
G75*
G02*
X72419000Y28424020I-230000J0D01*
G01*
X71079000Y28424020D01*
G75*
G02*
X70849000Y28654020I0J230000D01*
G01*
X70849000Y29344020D01*
G75*
G02*
X71079000Y29574020I230000J0D01*
G01*
X72419000Y29574020D01*
G75*
G02*
X72649000Y29344020I0J-230000D01*
G01*
G37*
G04 #@! TD*
G04 #@! TO.C,D10*
G36*
G01*
X64035000Y55394452D02*
X63555000Y55394452D01*
G75*
G02*
X63495000Y55454452I0J60000D01*
G01*
X63495000Y55934452D01*
G75*
G02*
X63555000Y55994452I60000J0D01*
G01*
X64035000Y55994452D01*
G75*
G02*
X64095000Y55934452I0J-60000D01*
G01*
X64095000Y55454452D01*
G75*
G02*
X64035000Y55394452I-60000J0D01*
G01*
G37*
G36*
G01*
X61835000Y55394452D02*
X61355000Y55394452D01*
G75*
G02*
X61295000Y55454452I0J60000D01*
G01*
X61295000Y55934452D01*
G75*
G02*
X61355000Y55994452I60000J0D01*
G01*
X61835000Y55994452D01*
G75*
G02*
X61895000Y55934452I0J-60000D01*
G01*
X61895000Y55454452D01*
G75*
G02*
X61835000Y55394452I-60000J0D01*
G01*
G37*
G04 #@! TD*
G04 #@! TO.C,R17*
G36*
G01*
X89220000Y100385000D02*
X89220000Y101165000D01*
G75*
G02*
X89290000Y101235000I70000J0D01*
G01*
X89850000Y101235000D01*
G75*
G02*
X89920000Y101165000I0J-70000D01*
G01*
X89920000Y100385000D01*
G75*
G02*
X89850000Y100315000I-70000J0D01*
G01*
X89290000Y100315000D01*
G75*
G02*
X89220000Y100385000I0J70000D01*
G01*
G37*
G36*
G01*
X90820000Y100385000D02*
X90820000Y101165000D01*
G75*
G02*
X90890000Y101235000I70000J0D01*
G01*
X91450000Y101235000D01*
G75*
G02*
X91520000Y101165000I0J-70000D01*
G01*
X91520000Y100385000D01*
G75*
G02*
X91450000Y100315000I-70000J0D01*
G01*
X90890000Y100315000D01*
G75*
G02*
X90820000Y100385000I0J70000D01*
G01*
G37*
G04 #@! TD*
G04 #@! TO.C,D1*
G36*
G01*
X13845000Y43436500D02*
X13545000Y43436500D01*
G75*
G02*
X13395000Y43586500I0J150000D01*
G01*
X13395000Y44761500D01*
G75*
G02*
X13545000Y44911500I150000J0D01*
G01*
X13845000Y44911500D01*
G75*
G02*
X13995000Y44761500I0J-150000D01*
G01*
X13995000Y43586500D01*
G75*
G02*
X13845000Y43436500I-150000J0D01*
G01*
G37*
G36*
G01*
X15745000Y43436500D02*
X15445000Y43436500D01*
G75*
G02*
X15295000Y43586500I0J150000D01*
G01*
X15295000Y44761500D01*
G75*
G02*
X15445000Y44911500I150000J0D01*
G01*
X15745000Y44911500D01*
G75*
G02*
X15895000Y44761500I0J-150000D01*
G01*
X15895000Y43586500D01*
G75*
G02*
X15745000Y43436500I-150000J0D01*
G01*
G37*
G36*
G01*
X14795000Y45311500D02*
X14495000Y45311500D01*
G75*
G02*
X14345000Y45461500I0J150000D01*
G01*
X14345000Y46636500D01*
G75*
G02*
X14495000Y46786500I150000J0D01*
G01*
X14795000Y46786500D01*
G75*
G02*
X14945000Y46636500I0J-150000D01*
G01*
X14945000Y45461500D01*
G75*
G02*
X14795000Y45311500I-150000J0D01*
G01*
G37*
G04 #@! TD*
G04 #@! TO.C,R15*
G36*
G01*
X15308000Y73334072D02*
X15308000Y72554072D01*
G75*
G02*
X15238000Y72484072I-70000J0D01*
G01*
X14678000Y72484072D01*
G75*
G02*
X14608000Y72554072I0J70000D01*
G01*
X14608000Y73334072D01*
G75*
G02*
X14678000Y73404072I70000J0D01*
G01*
X15238000Y73404072D01*
G75*
G02*
X15308000Y73334072I0J-70000D01*
G01*
G37*
G36*
G01*
X13708000Y73334072D02*
X13708000Y72554072D01*
G75*
G02*
X13638000Y72484072I-70000J0D01*
G01*
X13078000Y72484072D01*
G75*
G02*
X13008000Y72554072I0J70000D01*
G01*
X13008000Y73334072D01*
G75*
G02*
X13078000Y73404072I70000J0D01*
G01*
X13638000Y73404072D01*
G75*
G02*
X13708000Y73334072I0J-70000D01*
G01*
G37*
G04 #@! TD*
G04 #@! TO.C,R11*
G36*
G01*
X89829072Y35198000D02*
X89049072Y35198000D01*
G75*
G02*
X88979072Y35268000I0J70000D01*
G01*
X88979072Y35828000D01*
G75*
G02*
X89049072Y35898000I70000J0D01*
G01*
X89829072Y35898000D01*
G75*
G02*
X89899072Y35828000I0J-70000D01*
G01*
X89899072Y35268000D01*
G75*
G02*
X89829072Y35198000I-70000J0D01*
G01*
G37*
G36*
G01*
X89829072Y36798000D02*
X89049072Y36798000D01*
G75*
G02*
X88979072Y36868000I0J70000D01*
G01*
X88979072Y37428000D01*
G75*
G02*
X89049072Y37498000I70000J0D01*
G01*
X89829072Y37498000D01*
G75*
G02*
X89899072Y37428000I0J-70000D01*
G01*
X89899072Y36868000D01*
G75*
G02*
X89829072Y36798000I-70000J0D01*
G01*
G37*
G04 #@! TD*
G04 #@! TO.C,D2*
G36*
G01*
X37295000Y26007000D02*
X38315000Y26007000D01*
G75*
G02*
X38405000Y25917000I0J-90000D01*
G01*
X38405000Y25197000D01*
G75*
G02*
X38315000Y25107000I-90000J0D01*
G01*
X37295000Y25107000D01*
G75*
G02*
X37205000Y25197000I0J90000D01*
G01*
X37205000Y25917000D01*
G75*
G02*
X37295000Y26007000I90000J0D01*
G01*
G37*
G36*
G01*
X37295000Y22707000D02*
X38315000Y22707000D01*
G75*
G02*
X38405000Y22617000I0J-90000D01*
G01*
X38405000Y21897000D01*
G75*
G02*
X38315000Y21807000I-90000J0D01*
G01*
X37295000Y21807000D01*
G75*
G02*
X37205000Y21897000I0J90000D01*
G01*
X37205000Y22617000D01*
G75*
G02*
X37295000Y22707000I90000J0D01*
G01*
G37*
G04 #@! TD*
D10*
G04 #@! TO.C,M6*
X9544334Y79013501D03*
G04 #@! TD*
G04 #@! TO.C,Q12*
G36*
G01*
X22640000Y5023000D02*
X22640000Y4323000D01*
G75*
G02*
X22390000Y4073000I-250000J0D01*
G01*
X20690000Y4073000D01*
G75*
G02*
X20440000Y4323000I0J250000D01*
G01*
X20440000Y5023000D01*
G75*
G02*
X20690000Y5273000I250000J0D01*
G01*
X22390000Y5273000D01*
G75*
G02*
X22640000Y5023000I0J-250000D01*
G01*
G37*
G36*
G01*
X18440000Y6553000D02*
X18440000Y4303000D01*
G75*
G02*
X18190000Y4053000I-250000J0D01*
G01*
X15640000Y4053000D01*
G75*
G02*
X15390000Y4303000I0J250000D01*
G01*
X15390000Y6553000D01*
G75*
G02*
X15640000Y6803000I250000J0D01*
G01*
X18190000Y6803000D01*
G75*
G02*
X18440000Y6553000I0J-250000D01*
G01*
G37*
G36*
G01*
X18440000Y9603000D02*
X18440000Y7353000D01*
G75*
G02*
X18190000Y7103000I-250000J0D01*
G01*
X15640000Y7103000D01*
G75*
G02*
X15390000Y7353000I0J250000D01*
G01*
X15390000Y9603000D01*
G75*
G02*
X15640000Y9853000I250000J0D01*
G01*
X18190000Y9853000D01*
G75*
G02*
X18440000Y9603000I0J-250000D01*
G01*
G37*
G36*
G01*
X15090000Y6553000D02*
X15090000Y4303000D01*
G75*
G02*
X14840000Y4053000I-250000J0D01*
G01*
X12290000Y4053000D01*
G75*
G02*
X12040000Y4303000I0J250000D01*
G01*
X12040000Y6553000D01*
G75*
G02*
X12290000Y6803000I250000J0D01*
G01*
X14840000Y6803000D01*
G75*
G02*
X15090000Y6553000I0J-250000D01*
G01*
G37*
G36*
G01*
X15090000Y9603000D02*
X15090000Y7353000D01*
G75*
G02*
X14840000Y7103000I-250000J0D01*
G01*
X12290000Y7103000D01*
G75*
G02*
X12040000Y7353000I0J250000D01*
G01*
X12040000Y9603000D01*
G75*
G02*
X12290000Y9853000I250000J0D01*
G01*
X14840000Y9853000D01*
G75*
G02*
X15090000Y9603000I0J-250000D01*
G01*
G37*
G36*
G01*
X22640000Y9583000D02*
X22640000Y8883000D01*
G75*
G02*
X22390000Y8633000I-250000J0D01*
G01*
X20690000Y8633000D01*
G75*
G02*
X20440000Y8883000I0J250000D01*
G01*
X20440000Y9583000D01*
G75*
G02*
X20690000Y9833000I250000J0D01*
G01*
X22390000Y9833000D01*
G75*
G02*
X22640000Y9583000I0J-250000D01*
G01*
G37*
G04 #@! TD*
G04 #@! TO.C,R19*
G36*
G01*
X89010072Y44099000D02*
X88230072Y44099000D01*
G75*
G02*
X88160072Y44169000I0J70000D01*
G01*
X88160072Y44729000D01*
G75*
G02*
X88230072Y44799000I70000J0D01*
G01*
X89010072Y44799000D01*
G75*
G02*
X89080072Y44729000I0J-70000D01*
G01*
X89080072Y44169000D01*
G75*
G02*
X89010072Y44099000I-70000J0D01*
G01*
G37*
G36*
G01*
X89010072Y45699000D02*
X88230072Y45699000D01*
G75*
G02*
X88160072Y45769000I0J70000D01*
G01*
X88160072Y46329000D01*
G75*
G02*
X88230072Y46399000I70000J0D01*
G01*
X89010072Y46399000D01*
G75*
G02*
X89080072Y46329000I0J-70000D01*
G01*
X89080072Y45769000D01*
G75*
G02*
X89010072Y45699000I-70000J0D01*
G01*
G37*
G04 #@! TD*
G04 #@! TO.C,D9*
G36*
G01*
X64173000Y53311452D02*
X63693000Y53311452D01*
G75*
G02*
X63633000Y53371452I0J60000D01*
G01*
X63633000Y53851452D01*
G75*
G02*
X63693000Y53911452I60000J0D01*
G01*
X64173000Y53911452D01*
G75*
G02*
X64233000Y53851452I0J-60000D01*
G01*
X64233000Y53371452D01*
G75*
G02*
X64173000Y53311452I-60000J0D01*
G01*
G37*
G36*
G01*
X61973000Y53311452D02*
X61493000Y53311452D01*
G75*
G02*
X61433000Y53371452I0J60000D01*
G01*
X61433000Y53851452D01*
G75*
G02*
X61493000Y53911452I60000J0D01*
G01*
X61973000Y53911452D01*
G75*
G02*
X62033000Y53851452I0J-60000D01*
G01*
X62033000Y53371452D01*
G75*
G02*
X61973000Y53311452I-60000J0D01*
G01*
G37*
G04 #@! TD*
G04 #@! TO.C,Q916*
G36*
G01*
X90140000Y80540000D02*
X90840000Y80540000D01*
G75*
G02*
X91090000Y80290000I0J-250000D01*
G01*
X91090000Y78590000D01*
G75*
G02*
X90840000Y78340000I-250000J0D01*
G01*
X90140000Y78340000D01*
G75*
G02*
X89890000Y78590000I0J250000D01*
G01*
X89890000Y80290000D01*
G75*
G02*
X90140000Y80540000I250000J0D01*
G01*
G37*
G36*
G01*
X88610000Y76340000D02*
X90860000Y76340000D01*
G75*
G02*
X91110000Y76090000I0J-250000D01*
G01*
X91110000Y73540000D01*
G75*
G02*
X90860000Y73290000I-250000J0D01*
G01*
X88610000Y73290000D01*
G75*
G02*
X88360000Y73540000I0J250000D01*
G01*
X88360000Y76090000D01*
G75*
G02*
X88610000Y76340000I250000J0D01*
G01*
G37*
G36*
G01*
X85560000Y76340000D02*
X87810000Y76340000D01*
G75*
G02*
X88060000Y76090000I0J-250000D01*
G01*
X88060000Y73540000D01*
G75*
G02*
X87810000Y73290000I-250000J0D01*
G01*
X85560000Y73290000D01*
G75*
G02*
X85310000Y73540000I0J250000D01*
G01*
X85310000Y76090000D01*
G75*
G02*
X85560000Y76340000I250000J0D01*
G01*
G37*
G36*
G01*
X88610000Y72990000D02*
X90860000Y72990000D01*
G75*
G02*
X91110000Y72740000I0J-250000D01*
G01*
X91110000Y70190000D01*
G75*
G02*
X90860000Y69940000I-250000J0D01*
G01*
X88610000Y69940000D01*
G75*
G02*
X88360000Y70190000I0J250000D01*
G01*
X88360000Y72740000D01*
G75*
G02*
X88610000Y72990000I250000J0D01*
G01*
G37*
G36*
G01*
X85560000Y72990000D02*
X87810000Y72990000D01*
G75*
G02*
X88060000Y72740000I0J-250000D01*
G01*
X88060000Y70190000D01*
G75*
G02*
X87810000Y69940000I-250000J0D01*
G01*
X85560000Y69940000D01*
G75*
G02*
X85310000Y70190000I0J250000D01*
G01*
X85310000Y72740000D01*
G75*
G02*
X85560000Y72990000I250000J0D01*
G01*
G37*
G36*
G01*
X85580000Y80540000D02*
X86280000Y80540000D01*
G75*
G02*
X86530000Y80290000I0J-250000D01*
G01*
X86530000Y78590000D01*
G75*
G02*
X86280000Y78340000I-250000J0D01*
G01*
X85580000Y78340000D01*
G75*
G02*
X85330000Y78590000I0J250000D01*
G01*
X85330000Y80290000D01*
G75*
G02*
X85580000Y80540000I250000J0D01*
G01*
G37*
G04 #@! TD*
G04 #@! TO.C,Q11*
G36*
G01*
X89667000Y43352000D02*
X89667000Y42652000D01*
G75*
G02*
X89417000Y42402000I-250000J0D01*
G01*
X87717000Y42402000D01*
G75*
G02*
X87467000Y42652000I0J250000D01*
G01*
X87467000Y43352000D01*
G75*
G02*
X87717000Y43602000I250000J0D01*
G01*
X89417000Y43602000D01*
G75*
G02*
X89667000Y43352000I0J-250000D01*
G01*
G37*
G36*
G01*
X85467000Y44882000D02*
X85467000Y42632000D01*
G75*
G02*
X85217000Y42382000I-250000J0D01*
G01*
X82667000Y42382000D01*
G75*
G02*
X82417000Y42632000I0J250000D01*
G01*
X82417000Y44882000D01*
G75*
G02*
X82667000Y45132000I250000J0D01*
G01*
X85217000Y45132000D01*
G75*
G02*
X85467000Y44882000I0J-250000D01*
G01*
G37*
G36*
G01*
X85467000Y47932000D02*
X85467000Y45682000D01*
G75*
G02*
X85217000Y45432000I-250000J0D01*
G01*
X82667000Y45432000D01*
G75*
G02*
X82417000Y45682000I0J250000D01*
G01*
X82417000Y47932000D01*
G75*
G02*
X82667000Y48182000I250000J0D01*
G01*
X85217000Y48182000D01*
G75*
G02*
X85467000Y47932000I0J-250000D01*
G01*
G37*
G36*
G01*
X82117000Y44882000D02*
X82117000Y42632000D01*
G75*
G02*
X81867000Y42382000I-250000J0D01*
G01*
X79317000Y42382000D01*
G75*
G02*
X79067000Y42632000I0J250000D01*
G01*
X79067000Y44882000D01*
G75*
G02*
X79317000Y45132000I250000J0D01*
G01*
X81867000Y45132000D01*
G75*
G02*
X82117000Y44882000I0J-250000D01*
G01*
G37*
G36*
G01*
X82117000Y47932000D02*
X82117000Y45682000D01*
G75*
G02*
X81867000Y45432000I-250000J0D01*
G01*
X79317000Y45432000D01*
G75*
G02*
X79067000Y45682000I0J250000D01*
G01*
X79067000Y47932000D01*
G75*
G02*
X79317000Y48182000I250000J0D01*
G01*
X81867000Y48182000D01*
G75*
G02*
X82117000Y47932000I0J-250000D01*
G01*
G37*
G36*
G01*
X89667000Y47912000D02*
X89667000Y47212000D01*
G75*
G02*
X89417000Y46962000I-250000J0D01*
G01*
X87717000Y46962000D01*
G75*
G02*
X87467000Y47212000I0J250000D01*
G01*
X87467000Y47912000D01*
G75*
G02*
X87717000Y48162000I250000J0D01*
G01*
X89417000Y48162000D01*
G75*
G02*
X89667000Y47912000I0J-250000D01*
G01*
G37*
G04 #@! TD*
G04 #@! TO.C,Q912*
G36*
G01*
X111230000Y80660000D02*
X111930000Y80660000D01*
G75*
G02*
X112180000Y80410000I0J-250000D01*
G01*
X112180000Y78710000D01*
G75*
G02*
X111930000Y78460000I-250000J0D01*
G01*
X111230000Y78460000D01*
G75*
G02*
X110980000Y78710000I0J250000D01*
G01*
X110980000Y80410000D01*
G75*
G02*
X111230000Y80660000I250000J0D01*
G01*
G37*
G36*
G01*
X109700000Y76460000D02*
X111950000Y76460000D01*
G75*
G02*
X112200000Y76210000I0J-250000D01*
G01*
X112200000Y73660000D01*
G75*
G02*
X111950000Y73410000I-250000J0D01*
G01*
X109700000Y73410000D01*
G75*
G02*
X109450000Y73660000I0J250000D01*
G01*
X109450000Y76210000D01*
G75*
G02*
X109700000Y76460000I250000J0D01*
G01*
G37*
G36*
G01*
X106650000Y76460000D02*
X108900000Y76460000D01*
G75*
G02*
X109150000Y76210000I0J-250000D01*
G01*
X109150000Y73660000D01*
G75*
G02*
X108900000Y73410000I-250000J0D01*
G01*
X106650000Y73410000D01*
G75*
G02*
X106400000Y73660000I0J250000D01*
G01*
X106400000Y76210000D01*
G75*
G02*
X106650000Y76460000I250000J0D01*
G01*
G37*
G36*
G01*
X109700000Y73110000D02*
X111950000Y73110000D01*
G75*
G02*
X112200000Y72860000I0J-250000D01*
G01*
X112200000Y70310000D01*
G75*
G02*
X111950000Y70060000I-250000J0D01*
G01*
X109700000Y70060000D01*
G75*
G02*
X109450000Y70310000I0J250000D01*
G01*
X109450000Y72860000D01*
G75*
G02*
X109700000Y73110000I250000J0D01*
G01*
G37*
G36*
G01*
X106650000Y73110000D02*
X108900000Y73110000D01*
G75*
G02*
X109150000Y72860000I0J-250000D01*
G01*
X109150000Y70310000D01*
G75*
G02*
X108900000Y70060000I-250000J0D01*
G01*
X106650000Y70060000D01*
G75*
G02*
X106400000Y70310000I0J250000D01*
G01*
X106400000Y72860000D01*
G75*
G02*
X106650000Y73110000I250000J0D01*
G01*
G37*
G36*
G01*
X106670000Y80660000D02*
X107370000Y80660000D01*
G75*
G02*
X107620000Y80410000I0J-250000D01*
G01*
X107620000Y78710000D01*
G75*
G02*
X107370000Y78460000I-250000J0D01*
G01*
X106670000Y78460000D01*
G75*
G02*
X106420000Y78710000I0J250000D01*
G01*
X106420000Y80410000D01*
G75*
G02*
X106670000Y80660000I250000J0D01*
G01*
G37*
G04 #@! TD*
G04 #@! TO.C,R12*
G36*
G01*
X89886072Y27017000D02*
X89106072Y27017000D01*
G75*
G02*
X89036072Y27087000I0J70000D01*
G01*
X89036072Y27647000D01*
G75*
G02*
X89106072Y27717000I70000J0D01*
G01*
X89886072Y27717000D01*
G75*
G02*
X89956072Y27647000I0J-70000D01*
G01*
X89956072Y27087000D01*
G75*
G02*
X89886072Y27017000I-70000J0D01*
G01*
G37*
G36*
G01*
X89886072Y28617000D02*
X89106072Y28617000D01*
G75*
G02*
X89036072Y28687000I0J70000D01*
G01*
X89036072Y29247000D01*
G75*
G02*
X89106072Y29317000I70000J0D01*
G01*
X89886072Y29317000D01*
G75*
G02*
X89956072Y29247000I0J-70000D01*
G01*
X89956072Y28687000D01*
G75*
G02*
X89886072Y28617000I-70000J0D01*
G01*
G37*
G04 #@! TD*
G04 #@! TO.C,C3*
G36*
G01*
X11915000Y40188999D02*
X11235000Y40188999D01*
G75*
G02*
X11150000Y40273999I0J85000D01*
G01*
X11150000Y40953999D01*
G75*
G02*
X11235000Y41038999I85000J0D01*
G01*
X11915000Y41038999D01*
G75*
G02*
X12000000Y40953999I0J-85000D01*
G01*
X12000000Y40273999D01*
G75*
G02*
X11915000Y40188999I-85000J0D01*
G01*
G37*
G36*
G01*
X11915000Y41769001D02*
X11235000Y41769001D01*
G75*
G02*
X11150000Y41854001I0J85000D01*
G01*
X11150000Y42534001D01*
G75*
G02*
X11235000Y42619001I85000J0D01*
G01*
X11915000Y42619001D01*
G75*
G02*
X12000000Y42534001I0J-85000D01*
G01*
X12000000Y41854001D01*
G75*
G02*
X11915000Y41769001I-85000J0D01*
G01*
G37*
G04 #@! TD*
G04 #@! TO.C,Q903*
G36*
G01*
X111140000Y34750000D02*
X111840000Y34750000D01*
G75*
G02*
X112090000Y34500000I0J-250000D01*
G01*
X112090000Y32800000D01*
G75*
G02*
X111840000Y32550000I-250000J0D01*
G01*
X111140000Y32550000D01*
G75*
G02*
X110890000Y32800000I0J250000D01*
G01*
X110890000Y34500000D01*
G75*
G02*
X111140000Y34750000I250000J0D01*
G01*
G37*
G36*
G01*
X109610000Y30550000D02*
X111860000Y30550000D01*
G75*
G02*
X112110000Y30300000I0J-250000D01*
G01*
X112110000Y27750000D01*
G75*
G02*
X111860000Y27500000I-250000J0D01*
G01*
X109610000Y27500000D01*
G75*
G02*
X109360000Y27750000I0J250000D01*
G01*
X109360000Y30300000D01*
G75*
G02*
X109610000Y30550000I250000J0D01*
G01*
G37*
G36*
G01*
X106560000Y30550000D02*
X108810000Y30550000D01*
G75*
G02*
X109060000Y30300000I0J-250000D01*
G01*
X109060000Y27750000D01*
G75*
G02*
X108810000Y27500000I-250000J0D01*
G01*
X106560000Y27500000D01*
G75*
G02*
X106310000Y27750000I0J250000D01*
G01*
X106310000Y30300000D01*
G75*
G02*
X106560000Y30550000I250000J0D01*
G01*
G37*
G36*
G01*
X109610000Y27200000D02*
X111860000Y27200000D01*
G75*
G02*
X112110000Y26950000I0J-250000D01*
G01*
X112110000Y24400000D01*
G75*
G02*
X111860000Y24150000I-250000J0D01*
G01*
X109610000Y24150000D01*
G75*
G02*
X109360000Y24400000I0J250000D01*
G01*
X109360000Y26950000D01*
G75*
G02*
X109610000Y27200000I250000J0D01*
G01*
G37*
G36*
G01*
X106560000Y27200000D02*
X108810000Y27200000D01*
G75*
G02*
X109060000Y26950000I0J-250000D01*
G01*
X109060000Y24400000D01*
G75*
G02*
X108810000Y24150000I-250000J0D01*
G01*
X106560000Y24150000D01*
G75*
G02*
X106310000Y24400000I0J250000D01*
G01*
X106310000Y26950000D01*
G75*
G02*
X106560000Y27200000I250000J0D01*
G01*
G37*
G36*
G01*
X106580000Y34750000D02*
X107280000Y34750000D01*
G75*
G02*
X107530000Y34500000I0J-250000D01*
G01*
X107530000Y32800000D01*
G75*
G02*
X107280000Y32550000I-250000J0D01*
G01*
X106580000Y32550000D01*
G75*
G02*
X106330000Y32800000I0J250000D01*
G01*
X106330000Y34500000D01*
G75*
G02*
X106580000Y34750000I250000J0D01*
G01*
G37*
G04 #@! TD*
G04 #@! TO.C,Q911*
G36*
G01*
X111351721Y49797000D02*
X112051721Y49797000D01*
G75*
G02*
X112301721Y49547000I0J-250000D01*
G01*
X112301721Y47847000D01*
G75*
G02*
X112051721Y47597000I-250000J0D01*
G01*
X111351721Y47597000D01*
G75*
G02*
X111101721Y47847000I0J250000D01*
G01*
X111101721Y49547000D01*
G75*
G02*
X111351721Y49797000I250000J0D01*
G01*
G37*
G36*
G01*
X109821721Y45597000D02*
X112071721Y45597000D01*
G75*
G02*
X112321721Y45347000I0J-250000D01*
G01*
X112321721Y42797000D01*
G75*
G02*
X112071721Y42547000I-250000J0D01*
G01*
X109821721Y42547000D01*
G75*
G02*
X109571721Y42797000I0J250000D01*
G01*
X109571721Y45347000D01*
G75*
G02*
X109821721Y45597000I250000J0D01*
G01*
G37*
G36*
G01*
X106771721Y45597000D02*
X109021721Y45597000D01*
G75*
G02*
X109271721Y45347000I0J-250000D01*
G01*
X109271721Y42797000D01*
G75*
G02*
X109021721Y42547000I-250000J0D01*
G01*
X106771721Y42547000D01*
G75*
G02*
X106521721Y42797000I0J250000D01*
G01*
X106521721Y45347000D01*
G75*
G02*
X106771721Y45597000I250000J0D01*
G01*
G37*
G36*
G01*
X109821721Y42247000D02*
X112071721Y42247000D01*
G75*
G02*
X112321721Y41997000I0J-250000D01*
G01*
X112321721Y39447000D01*
G75*
G02*
X112071721Y39197000I-250000J0D01*
G01*
X109821721Y39197000D01*
G75*
G02*
X109571721Y39447000I0J250000D01*
G01*
X109571721Y41997000D01*
G75*
G02*
X109821721Y42247000I250000J0D01*
G01*
G37*
G36*
G01*
X106771721Y42247000D02*
X109021721Y42247000D01*
G75*
G02*
X109271721Y41997000I0J-250000D01*
G01*
X109271721Y39447000D01*
G75*
G02*
X109021721Y39197000I-250000J0D01*
G01*
X106771721Y39197000D01*
G75*
G02*
X106521721Y39447000I0J250000D01*
G01*
X106521721Y41997000D01*
G75*
G02*
X106771721Y42247000I250000J0D01*
G01*
G37*
G36*
G01*
X106791721Y49797000D02*
X107491721Y49797000D01*
G75*
G02*
X107741721Y49547000I0J-250000D01*
G01*
X107741721Y47847000D01*
G75*
G02*
X107491721Y47597000I-250000J0D01*
G01*
X106791721Y47597000D01*
G75*
G02*
X106541721Y47847000I0J250000D01*
G01*
X106541721Y49547000D01*
G75*
G02*
X106791721Y49797000I250000J0D01*
G01*
G37*
G04 #@! TD*
G04 #@! TO.C,Q902*
G36*
G01*
X121800000Y34650000D02*
X122500000Y34650000D01*
G75*
G02*
X122750000Y34400000I0J-250000D01*
G01*
X122750000Y32700000D01*
G75*
G02*
X122500000Y32450000I-250000J0D01*
G01*
X121800000Y32450000D01*
G75*
G02*
X121550000Y32700000I0J250000D01*
G01*
X121550000Y34400000D01*
G75*
G02*
X121800000Y34650000I250000J0D01*
G01*
G37*
G36*
G01*
X120270000Y30450000D02*
X122520000Y30450000D01*
G75*
G02*
X122770000Y30200000I0J-250000D01*
G01*
X122770000Y27650000D01*
G75*
G02*
X122520000Y27400000I-250000J0D01*
G01*
X120270000Y27400000D01*
G75*
G02*
X120020000Y27650000I0J250000D01*
G01*
X120020000Y30200000D01*
G75*
G02*
X120270000Y30450000I250000J0D01*
G01*
G37*
G36*
G01*
X117220000Y30450000D02*
X119470000Y30450000D01*
G75*
G02*
X119720000Y30200000I0J-250000D01*
G01*
X119720000Y27650000D01*
G75*
G02*
X119470000Y27400000I-250000J0D01*
G01*
X117220000Y27400000D01*
G75*
G02*
X116970000Y27650000I0J250000D01*
G01*
X116970000Y30200000D01*
G75*
G02*
X117220000Y30450000I250000J0D01*
G01*
G37*
G36*
G01*
X120270000Y27100000D02*
X122520000Y27100000D01*
G75*
G02*
X122770000Y26850000I0J-250000D01*
G01*
X122770000Y24300000D01*
G75*
G02*
X122520000Y24050000I-250000J0D01*
G01*
X120270000Y24050000D01*
G75*
G02*
X120020000Y24300000I0J250000D01*
G01*
X120020000Y26850000D01*
G75*
G02*
X120270000Y27100000I250000J0D01*
G01*
G37*
G36*
G01*
X117220000Y27100000D02*
X119470000Y27100000D01*
G75*
G02*
X119720000Y26850000I0J-250000D01*
G01*
X119720000Y24300000D01*
G75*
G02*
X119470000Y24050000I-250000J0D01*
G01*
X117220000Y24050000D01*
G75*
G02*
X116970000Y24300000I0J250000D01*
G01*
X116970000Y26850000D01*
G75*
G02*
X117220000Y27100000I250000J0D01*
G01*
G37*
G36*
G01*
X117240000Y34650000D02*
X117940000Y34650000D01*
G75*
G02*
X118190000Y34400000I0J-250000D01*
G01*
X118190000Y32700000D01*
G75*
G02*
X117940000Y32450000I-250000J0D01*
G01*
X117240000Y32450000D01*
G75*
G02*
X116990000Y32700000I0J250000D01*
G01*
X116990000Y34400000D01*
G75*
G02*
X117240000Y34650000I250000J0D01*
G01*
G37*
G04 #@! TD*
G04 #@! TO.C,Q9*
G36*
G01*
X90334000Y26231000D02*
X90334000Y25531000D01*
G75*
G02*
X90084000Y25281000I-250000J0D01*
G01*
X88384000Y25281000D01*
G75*
G02*
X88134000Y25531000I0J250000D01*
G01*
X88134000Y26231000D01*
G75*
G02*
X88384000Y26481000I250000J0D01*
G01*
X90084000Y26481000D01*
G75*
G02*
X90334000Y26231000I0J-250000D01*
G01*
G37*
G36*
G01*
X86134000Y27761000D02*
X86134000Y25511000D01*
G75*
G02*
X85884000Y25261000I-250000J0D01*
G01*
X83334000Y25261000D01*
G75*
G02*
X83084000Y25511000I0J250000D01*
G01*
X83084000Y27761000D01*
G75*
G02*
X83334000Y28011000I250000J0D01*
G01*
X85884000Y28011000D01*
G75*
G02*
X86134000Y27761000I0J-250000D01*
G01*
G37*
G36*
G01*
X86134000Y30811000D02*
X86134000Y28561000D01*
G75*
G02*
X85884000Y28311000I-250000J0D01*
G01*
X83334000Y28311000D01*
G75*
G02*
X83084000Y28561000I0J250000D01*
G01*
X83084000Y30811000D01*
G75*
G02*
X83334000Y31061000I250000J0D01*
G01*
X85884000Y31061000D01*
G75*
G02*
X86134000Y30811000I0J-250000D01*
G01*
G37*
G36*
G01*
X82784000Y27761000D02*
X82784000Y25511000D01*
G75*
G02*
X82534000Y25261000I-250000J0D01*
G01*
X79984000Y25261000D01*
G75*
G02*
X79734000Y25511000I0J250000D01*
G01*
X79734000Y27761000D01*
G75*
G02*
X79984000Y28011000I250000J0D01*
G01*
X82534000Y28011000D01*
G75*
G02*
X82784000Y27761000I0J-250000D01*
G01*
G37*
G36*
G01*
X82784000Y30811000D02*
X82784000Y28561000D01*
G75*
G02*
X82534000Y28311000I-250000J0D01*
G01*
X79984000Y28311000D01*
G75*
G02*
X79734000Y28561000I0J250000D01*
G01*
X79734000Y30811000D01*
G75*
G02*
X79984000Y31061000I250000J0D01*
G01*
X82534000Y31061000D01*
G75*
G02*
X82784000Y30811000I0J-250000D01*
G01*
G37*
G36*
G01*
X90334000Y30791000D02*
X90334000Y30091000D01*
G75*
G02*
X90084000Y29841000I-250000J0D01*
G01*
X88384000Y29841000D01*
G75*
G02*
X88134000Y30091000I0J250000D01*
G01*
X88134000Y30791000D01*
G75*
G02*
X88384000Y31041000I250000J0D01*
G01*
X90084000Y31041000D01*
G75*
G02*
X90334000Y30791000I0J-250000D01*
G01*
G37*
G04 #@! TD*
G04 #@! TO.C,Q914*
G36*
G01*
X100870000Y80560000D02*
X101570000Y80560000D01*
G75*
G02*
X101820000Y80310000I0J-250000D01*
G01*
X101820000Y78610000D01*
G75*
G02*
X101570000Y78360000I-250000J0D01*
G01*
X100870000Y78360000D01*
G75*
G02*
X100620000Y78610000I0J250000D01*
G01*
X100620000Y80310000D01*
G75*
G02*
X100870000Y80560000I250000J0D01*
G01*
G37*
G36*
G01*
X99340000Y76360000D02*
X101590000Y76360000D01*
G75*
G02*
X101840000Y76110000I0J-250000D01*
G01*
X101840000Y73560000D01*
G75*
G02*
X101590000Y73310000I-250000J0D01*
G01*
X99340000Y73310000D01*
G75*
G02*
X99090000Y73560000I0J250000D01*
G01*
X99090000Y76110000D01*
G75*
G02*
X99340000Y76360000I250000J0D01*
G01*
G37*
G36*
G01*
X96290000Y76360000D02*
X98540000Y76360000D01*
G75*
G02*
X98790000Y76110000I0J-250000D01*
G01*
X98790000Y73560000D01*
G75*
G02*
X98540000Y73310000I-250000J0D01*
G01*
X96290000Y73310000D01*
G75*
G02*
X96040000Y73560000I0J250000D01*
G01*
X96040000Y76110000D01*
G75*
G02*
X96290000Y76360000I250000J0D01*
G01*
G37*
G36*
G01*
X99340000Y73010000D02*
X101590000Y73010000D01*
G75*
G02*
X101840000Y72760000I0J-250000D01*
G01*
X101840000Y70210000D01*
G75*
G02*
X101590000Y69960000I-250000J0D01*
G01*
X99340000Y69960000D01*
G75*
G02*
X99090000Y70210000I0J250000D01*
G01*
X99090000Y72760000D01*
G75*
G02*
X99340000Y73010000I250000J0D01*
G01*
G37*
G36*
G01*
X96290000Y73010000D02*
X98540000Y73010000D01*
G75*
G02*
X98790000Y72760000I0J-250000D01*
G01*
X98790000Y70210000D01*
G75*
G02*
X98540000Y69960000I-250000J0D01*
G01*
X96290000Y69960000D01*
G75*
G02*
X96040000Y70210000I0J250000D01*
G01*
X96040000Y72760000D01*
G75*
G02*
X96290000Y73010000I250000J0D01*
G01*
G37*
G36*
G01*
X96310000Y80560000D02*
X97010000Y80560000D01*
G75*
G02*
X97260000Y80310000I0J-250000D01*
G01*
X97260000Y78610000D01*
G75*
G02*
X97010000Y78360000I-250000J0D01*
G01*
X96310000Y78360000D01*
G75*
G02*
X96060000Y78610000I0J250000D01*
G01*
X96060000Y80310000D01*
G75*
G02*
X96310000Y80560000I250000J0D01*
G01*
G37*
G04 #@! TD*
G04 #@! TO.C,R9*
G36*
G01*
X22595000Y5806000D02*
X21815000Y5806000D01*
G75*
G02*
X21745000Y5876000I0J70000D01*
G01*
X21745000Y6436000D01*
G75*
G02*
X21815000Y6506000I70000J0D01*
G01*
X22595000Y6506000D01*
G75*
G02*
X22665000Y6436000I0J-70000D01*
G01*
X22665000Y5876000D01*
G75*
G02*
X22595000Y5806000I-70000J0D01*
G01*
G37*
G36*
G01*
X22595000Y7406000D02*
X21815000Y7406000D01*
G75*
G02*
X21745000Y7476000I0J70000D01*
G01*
X21745000Y8036000D01*
G75*
G02*
X21815000Y8106000I70000J0D01*
G01*
X22595000Y8106000D01*
G75*
G02*
X22665000Y8036000I0J-70000D01*
G01*
X22665000Y7476000D01*
G75*
G02*
X22595000Y7406000I-70000J0D01*
G01*
G37*
G04 #@! TD*
G04 #@! TO.C,D11*
G36*
G01*
X62509926Y50691453D02*
X62509926Y51931453D01*
G75*
G02*
X62639926Y52061453I130000J0D01*
G01*
X63679926Y52061453D01*
G75*
G02*
X63809926Y51931453I0J-130000D01*
G01*
X63809926Y50691453D01*
G75*
G02*
X63679926Y50561453I-130000J0D01*
G01*
X62639926Y50561453D01*
G75*
G02*
X62509926Y50691453I0J130000D01*
G01*
G37*
G36*
G01*
X60609905Y50691453D02*
X60609905Y51931453D01*
G75*
G02*
X60739905Y52061453I130000J0D01*
G01*
X61779905Y52061453D01*
G75*
G02*
X61909905Y51931453I0J-130000D01*
G01*
X61909905Y50691453D01*
G75*
G02*
X61779905Y50561453I-130000J0D01*
G01*
X60739905Y50561453D01*
G75*
G02*
X60609905Y50691453I0J130000D01*
G01*
G37*
G04 #@! TD*
G04 #@! TO.C,L1*
G36*
G01*
X9416250Y40258000D02*
X8903750Y40258000D01*
G75*
G02*
X8685000Y40476750I0J218750D01*
G01*
X8685000Y40914250D01*
G75*
G02*
X8903750Y41133000I218750J0D01*
G01*
X9416250Y41133000D01*
G75*
G02*
X9635000Y40914250I0J-218750D01*
G01*
X9635000Y40476750D01*
G75*
G02*
X9416250Y40258000I-218750J0D01*
G01*
G37*
G36*
G01*
X9416250Y41833000D02*
X8903750Y41833000D01*
G75*
G02*
X8685000Y42051750I0J218750D01*
G01*
X8685000Y42489250D01*
G75*
G02*
X8903750Y42708000I218750J0D01*
G01*
X9416250Y42708000D01*
G75*
G02*
X9635000Y42489250I0J-218750D01*
G01*
X9635000Y42051750D01*
G75*
G02*
X9416250Y41833000I-218750J0D01*
G01*
G37*
G04 #@! TD*
G04 #@! TO.C,C2*
G36*
G01*
X13409999Y41410007D02*
X13409999Y42090007D01*
G75*
G02*
X13494999Y42175007I85000J0D01*
G01*
X14174999Y42175007D01*
G75*
G02*
X14259999Y42090007I0J-85000D01*
G01*
X14259999Y41410007D01*
G75*
G02*
X14174999Y41325007I-85000J0D01*
G01*
X13494999Y41325007D01*
G75*
G02*
X13409999Y41410007I0J85000D01*
G01*
G37*
G36*
G01*
X14990001Y41410007D02*
X14990001Y42090007D01*
G75*
G02*
X15075001Y42175007I85000J0D01*
G01*
X15755001Y42175007D01*
G75*
G02*
X15840001Y42090007I0J-85000D01*
G01*
X15840001Y41410007D01*
G75*
G02*
X15755001Y41325007I-85000J0D01*
G01*
X15075001Y41325007D01*
G75*
G02*
X14990001Y41410007I0J85000D01*
G01*
G37*
G04 #@! TD*
G04 #@! TO.C,L2*
G36*
G01*
X6437250Y40560000D02*
X5924750Y40560000D01*
G75*
G02*
X5706000Y40778750I0J218750D01*
G01*
X5706000Y41216250D01*
G75*
G02*
X5924750Y41435000I218750J0D01*
G01*
X6437250Y41435000D01*
G75*
G02*
X6656000Y41216250I0J-218750D01*
G01*
X6656000Y40778750D01*
G75*
G02*
X6437250Y40560000I-218750J0D01*
G01*
G37*
G36*
G01*
X6437250Y42135000D02*
X5924750Y42135000D01*
G75*
G02*
X5706000Y42353750I0J218750D01*
G01*
X5706000Y42791250D01*
G75*
G02*
X5924750Y43010000I218750J0D01*
G01*
X6437250Y43010000D01*
G75*
G02*
X6656000Y42791250I0J-218750D01*
G01*
X6656000Y42353750D01*
G75*
G02*
X6437250Y42135000I-218750J0D01*
G01*
G37*
G04 #@! TD*
G04 #@! TO.C,D4*
G36*
G01*
X73742000Y28131000D02*
X73742000Y29151000D01*
G75*
G02*
X73832000Y29241000I90000J0D01*
G01*
X74552000Y29241000D01*
G75*
G02*
X74642000Y29151000I0J-90000D01*
G01*
X74642000Y28131000D01*
G75*
G02*
X74552000Y28041000I-90000J0D01*
G01*
X73832000Y28041000D01*
G75*
G02*
X73742000Y28131000I0J90000D01*
G01*
G37*
G36*
G01*
X77042000Y28131000D02*
X77042000Y29151000D01*
G75*
G02*
X77132000Y29241000I90000J0D01*
G01*
X77852000Y29241000D01*
G75*
G02*
X77942000Y29151000I0J-90000D01*
G01*
X77942000Y28131000D01*
G75*
G02*
X77852000Y28041000I-90000J0D01*
G01*
X77132000Y28041000D01*
G75*
G02*
X77042000Y28131000I0J90000D01*
G01*
G37*
G04 #@! TD*
G04 #@! TO.C,C4*
G36*
G01*
X14759001Y51663000D02*
X14759001Y50983000D01*
G75*
G02*
X14674001Y50898000I-85000J0D01*
G01*
X13994001Y50898000D01*
G75*
G02*
X13909001Y50983000I0J85000D01*
G01*
X13909001Y51663000D01*
G75*
G02*
X13994001Y51748000I85000J0D01*
G01*
X14674001Y51748000D01*
G75*
G02*
X14759001Y51663000I0J-85000D01*
G01*
G37*
G36*
G01*
X13178999Y51663000D02*
X13178999Y50983000D01*
G75*
G02*
X13093999Y50898000I-85000J0D01*
G01*
X12413999Y50898000D01*
G75*
G02*
X12328999Y50983000I0J85000D01*
G01*
X12328999Y51663000D01*
G75*
G02*
X12413999Y51748000I85000J0D01*
G01*
X13093999Y51748000D01*
G75*
G02*
X13178999Y51663000I0J-85000D01*
G01*
G37*
G04 #@! TD*
G04 #@! TO.C,D13*
G36*
G01*
X19905021Y70696000D02*
X19905021Y71936000D01*
G75*
G02*
X20035021Y72066000I130000J0D01*
G01*
X21075021Y72066000D01*
G75*
G02*
X21205021Y71936000I0J-130000D01*
G01*
X21205021Y70696000D01*
G75*
G02*
X21075021Y70566000I-130000J0D01*
G01*
X20035021Y70566000D01*
G75*
G02*
X19905021Y70696000I0J130000D01*
G01*
G37*
G36*
G01*
X18005000Y70696000D02*
X18005000Y71936000D01*
G75*
G02*
X18135000Y72066000I130000J0D01*
G01*
X19175000Y72066000D01*
G75*
G02*
X19305000Y71936000I0J-130000D01*
G01*
X19305000Y70696000D01*
G75*
G02*
X19175000Y70566000I-130000J0D01*
G01*
X18135000Y70566000D01*
G75*
G02*
X18005000Y70696000I0J130000D01*
G01*
G37*
G04 #@! TD*
M02*
