G04 #@! TF.GenerationSoftware,KiCad,Pcbnew,8.0.9-8.0.9-0~ubuntu24.04.1*
G04 #@! TF.CreationDate,2026-07-06T14:45:12+00:00*
G04 #@! TF.ProjectId,luis48,6c756973-3438-42e6-9b69-6361645f7063,rev?*
G04 #@! TF.SameCoordinates,Original*
G04 #@! TF.FileFunction,Legend,Bot*
G04 #@! TF.FilePolarity,Positive*
%FSLAX46Y46*%
G04 Gerber Fmt 4.6, Leading zero omitted, Abs format (unit mm)*
G04 Created by KiCad (PCBNEW 8.0.9-8.0.9-0~ubuntu24.04.1) date 2026-07-06 14:45:12*
%MOMM*%
%LPD*%
G01*
G04 APERTURE LIST*
%ADD10C,0.127000*%
%ADD11C,0.170000*%
%ADD12C,0.200000*%
%ADD13C,0.120000*%
%ADD14C,0.203200*%
%ADD15C,0.000000*%
G04 APERTURE END LIST*
D10*
X72365856Y23602242D02*
X72619856Y23602242D01*
X72619856Y23203099D02*
X72619856Y23965099D01*
X72619856Y23965099D02*
X72256999Y23965099D01*
X71567570Y23203099D02*
X72002999Y23203099D01*
X71785284Y23203099D02*
X71785284Y23965099D01*
X71785284Y23965099D02*
X71857856Y23856242D01*
X71857856Y23856242D02*
X71930427Y23783670D01*
X71930427Y23783670D02*
X72002999Y23747384D01*
X71095856Y23965099D02*
X71023285Y23965099D01*
X71023285Y23965099D02*
X70950713Y23928813D01*
X70950713Y23928813D02*
X70914428Y23892527D01*
X70914428Y23892527D02*
X70878142Y23819956D01*
X70878142Y23819956D02*
X70841856Y23674813D01*
X70841856Y23674813D02*
X70841856Y23493384D01*
X70841856Y23493384D02*
X70878142Y23348242D01*
X70878142Y23348242D02*
X70914428Y23275670D01*
X70914428Y23275670D02*
X70950713Y23239384D01*
X70950713Y23239384D02*
X71023285Y23203099D01*
X71023285Y23203099D02*
X71095856Y23203099D01*
X71095856Y23203099D02*
X71168428Y23239384D01*
X71168428Y23239384D02*
X71204713Y23275670D01*
X71204713Y23275670D02*
X71240999Y23348242D01*
X71240999Y23348242D02*
X71277285Y23493384D01*
X71277285Y23493384D02*
X71277285Y23674813D01*
X71277285Y23674813D02*
X71240999Y23819956D01*
X71240999Y23819956D02*
X71204713Y23892527D01*
X71204713Y23892527D02*
X71168428Y23928813D01*
X71168428Y23928813D02*
X71095856Y23965099D01*
X56245090Y17507495D02*
X56892709Y17507495D01*
X56892709Y17507495D02*
X56968899Y17483305D01*
X56968899Y17483305D02*
X57006995Y17459114D01*
X57006995Y17459114D02*
X57045090Y17410733D01*
X57045090Y17410733D02*
X57045090Y17313971D01*
X57045090Y17313971D02*
X57006995Y17265590D01*
X57006995Y17265590D02*
X56968899Y17241400D01*
X56968899Y17241400D02*
X56892709Y17217209D01*
X56892709Y17217209D02*
X56245090Y17217209D01*
X57006995Y16999496D02*
X57045090Y16926924D01*
X57045090Y16926924D02*
X57045090Y16805972D01*
X57045090Y16805972D02*
X57006995Y16757591D01*
X57006995Y16757591D02*
X56968899Y16733400D01*
X56968899Y16733400D02*
X56892709Y16709210D01*
X56892709Y16709210D02*
X56816518Y16709210D01*
X56816518Y16709210D02*
X56740328Y16733400D01*
X56740328Y16733400D02*
X56702233Y16757591D01*
X56702233Y16757591D02*
X56664137Y16805972D01*
X56664137Y16805972D02*
X56626042Y16902734D01*
X56626042Y16902734D02*
X56587947Y16951115D01*
X56587947Y16951115D02*
X56549852Y16975305D01*
X56549852Y16975305D02*
X56473661Y16999496D01*
X56473661Y16999496D02*
X56397471Y16999496D01*
X56397471Y16999496D02*
X56321280Y16975305D01*
X56321280Y16975305D02*
X56283185Y16951115D01*
X56283185Y16951115D02*
X56245090Y16902734D01*
X56245090Y16902734D02*
X56245090Y16781781D01*
X56245090Y16781781D02*
X56283185Y16709210D01*
X56626042Y16322162D02*
X56664137Y16249590D01*
X56664137Y16249590D02*
X56702233Y16225400D01*
X56702233Y16225400D02*
X56778423Y16201209D01*
X56778423Y16201209D02*
X56892709Y16201209D01*
X56892709Y16201209D02*
X56968899Y16225400D01*
X56968899Y16225400D02*
X57006995Y16249590D01*
X57006995Y16249590D02*
X57045090Y16297971D01*
X57045090Y16297971D02*
X57045090Y16491495D01*
X57045090Y16491495D02*
X56245090Y16491495D01*
X56245090Y16491495D02*
X56245090Y16322162D01*
X56245090Y16322162D02*
X56283185Y16273781D01*
X56283185Y16273781D02*
X56321280Y16249590D01*
X56321280Y16249590D02*
X56397471Y16225400D01*
X56397471Y16225400D02*
X56473661Y16225400D01*
X56473661Y16225400D02*
X56549852Y16249590D01*
X56549852Y16249590D02*
X56587947Y16273781D01*
X56587947Y16273781D02*
X56626042Y16322162D01*
X56626042Y16322162D02*
X56626042Y16491495D01*
X56740328Y15983495D02*
X56740328Y15596447D01*
X66545090Y5465590D02*
X66545090Y5707495D01*
X66545090Y5707495D02*
X65745090Y5707495D01*
X66506995Y5320448D02*
X66545090Y5247876D01*
X66545090Y5247876D02*
X66545090Y5126924D01*
X66545090Y5126924D02*
X66506995Y5078543D01*
X66506995Y5078543D02*
X66468899Y5054352D01*
X66468899Y5054352D02*
X66392709Y5030162D01*
X66392709Y5030162D02*
X66316518Y5030162D01*
X66316518Y5030162D02*
X66240328Y5054352D01*
X66240328Y5054352D02*
X66202233Y5078543D01*
X66202233Y5078543D02*
X66164137Y5126924D01*
X66164137Y5126924D02*
X66126042Y5223686D01*
X66126042Y5223686D02*
X66087947Y5272067D01*
X66087947Y5272067D02*
X66049852Y5296257D01*
X66049852Y5296257D02*
X65973661Y5320448D01*
X65973661Y5320448D02*
X65897471Y5320448D01*
X65897471Y5320448D02*
X65821280Y5296257D01*
X65821280Y5296257D02*
X65783185Y5272067D01*
X65783185Y5272067D02*
X65745090Y5223686D01*
X65745090Y5223686D02*
X65745090Y5102733D01*
X65745090Y5102733D02*
X65783185Y5030162D01*
X65745090Y4812447D02*
X66392709Y4812447D01*
X66392709Y4812447D02*
X66468899Y4788257D01*
X66468899Y4788257D02*
X66506995Y4764066D01*
X66506995Y4764066D02*
X66545090Y4715685D01*
X66545090Y4715685D02*
X66545090Y4618923D01*
X66545090Y4618923D02*
X66506995Y4570542D01*
X66506995Y4570542D02*
X66468899Y4546352D01*
X66468899Y4546352D02*
X66392709Y4522161D01*
X66392709Y4522161D02*
X65745090Y4522161D01*
X66621280Y4401209D02*
X66621280Y4014162D01*
X66545090Y3893209D02*
X65745090Y3893209D01*
X79165090Y2737495D02*
X78365090Y2737495D01*
X78403185Y2229495D02*
X78365090Y2277876D01*
X78365090Y2277876D02*
X78365090Y2350447D01*
X78365090Y2350447D02*
X78403185Y2423019D01*
X78403185Y2423019D02*
X78479375Y2471400D01*
X78479375Y2471400D02*
X78555566Y2495590D01*
X78555566Y2495590D02*
X78707947Y2519781D01*
X78707947Y2519781D02*
X78822233Y2519781D01*
X78822233Y2519781D02*
X78974614Y2495590D01*
X78974614Y2495590D02*
X79050804Y2471400D01*
X79050804Y2471400D02*
X79126995Y2423019D01*
X79126995Y2423019D02*
X79165090Y2350447D01*
X79165090Y2350447D02*
X79165090Y2302066D01*
X79165090Y2302066D02*
X79126995Y2229495D01*
X79126995Y2229495D02*
X79088899Y2205304D01*
X79088899Y2205304D02*
X78822233Y2205304D01*
X78822233Y2205304D02*
X78822233Y2302066D01*
X79165090Y1987590D02*
X78365090Y1987590D01*
X78365090Y1987590D02*
X79165090Y1697304D01*
X79165090Y1697304D02*
X78365090Y1697304D01*
X79165090Y1189305D02*
X79165090Y1479591D01*
X79165090Y1334448D02*
X78365090Y1334448D01*
X78365090Y1334448D02*
X78479375Y1382829D01*
X78479375Y1382829D02*
X78555566Y1431210D01*
X78555566Y1431210D02*
X78593661Y1479591D01*
X56566042Y19128162D02*
X56604137Y19055590D01*
X56604137Y19055590D02*
X56642233Y19031400D01*
X56642233Y19031400D02*
X56718423Y19007209D01*
X56718423Y19007209D02*
X56832709Y19007209D01*
X56832709Y19007209D02*
X56908899Y19031400D01*
X56908899Y19031400D02*
X56946995Y19055590D01*
X56946995Y19055590D02*
X56985090Y19103971D01*
X56985090Y19103971D02*
X56985090Y19297495D01*
X56985090Y19297495D02*
X56185090Y19297495D01*
X56185090Y19297495D02*
X56185090Y19128162D01*
X56185090Y19128162D02*
X56223185Y19079781D01*
X56223185Y19079781D02*
X56261280Y19055590D01*
X56261280Y19055590D02*
X56337471Y19031400D01*
X56337471Y19031400D02*
X56413661Y19031400D01*
X56413661Y19031400D02*
X56489852Y19055590D01*
X56489852Y19055590D02*
X56527947Y19079781D01*
X56527947Y19079781D02*
X56566042Y19128162D01*
X56566042Y19128162D02*
X56566042Y19297495D01*
X56185090Y18789495D02*
X56832709Y18789495D01*
X56832709Y18789495D02*
X56908899Y18765305D01*
X56908899Y18765305D02*
X56946995Y18741114D01*
X56946995Y18741114D02*
X56985090Y18692733D01*
X56985090Y18692733D02*
X56985090Y18595971D01*
X56985090Y18595971D02*
X56946995Y18547590D01*
X56946995Y18547590D02*
X56908899Y18523400D01*
X56908899Y18523400D02*
X56832709Y18499209D01*
X56832709Y18499209D02*
X56185090Y18499209D01*
X56185090Y18305686D02*
X56185090Y17967019D01*
X56185090Y17967019D02*
X56985090Y18305686D01*
X56985090Y18305686D02*
X56985090Y17967019D01*
X61205090Y16830067D02*
X61205090Y16539781D01*
X62005090Y16684924D02*
X61205090Y16684924D01*
X62005090Y16370447D02*
X61205090Y16370447D01*
X61205090Y16370447D02*
X61205090Y16176923D01*
X61205090Y16176923D02*
X61243185Y16128542D01*
X61243185Y16128542D02*
X61281280Y16104352D01*
X61281280Y16104352D02*
X61357471Y16080161D01*
X61357471Y16080161D02*
X61471756Y16080161D01*
X61471756Y16080161D02*
X61547947Y16104352D01*
X61547947Y16104352D02*
X61586042Y16128542D01*
X61586042Y16128542D02*
X61624137Y16176923D01*
X61624137Y16176923D02*
X61624137Y16370447D01*
X61966995Y15886638D02*
X62005090Y15814066D01*
X62005090Y15814066D02*
X62005090Y15693114D01*
X62005090Y15693114D02*
X61966995Y15644733D01*
X61966995Y15644733D02*
X61928899Y15620542D01*
X61928899Y15620542D02*
X61852709Y15596352D01*
X61852709Y15596352D02*
X61776518Y15596352D01*
X61776518Y15596352D02*
X61700328Y15620542D01*
X61700328Y15620542D02*
X61662233Y15644733D01*
X61662233Y15644733D02*
X61624137Y15693114D01*
X61624137Y15693114D02*
X61586042Y15789876D01*
X61586042Y15789876D02*
X61547947Y15838257D01*
X61547947Y15838257D02*
X61509852Y15862447D01*
X61509852Y15862447D02*
X61433661Y15886638D01*
X61433661Y15886638D02*
X61357471Y15886638D01*
X61357471Y15886638D02*
X61281280Y15862447D01*
X61281280Y15862447D02*
X61243185Y15838257D01*
X61243185Y15838257D02*
X61205090Y15789876D01*
X61205090Y15789876D02*
X61205090Y15668923D01*
X61205090Y15668923D02*
X61243185Y15596352D01*
X72035090Y18981400D02*
X72035090Y19271686D01*
X72035090Y19126543D02*
X71235090Y19126543D01*
X71235090Y19126543D02*
X71349375Y19174924D01*
X71349375Y19174924D02*
X71425566Y19223305D01*
X71425566Y19223305D02*
X71463661Y19271686D01*
X71311280Y18787876D02*
X71273185Y18763685D01*
X71273185Y18763685D02*
X71235090Y18715304D01*
X71235090Y18715304D02*
X71235090Y18594352D01*
X71235090Y18594352D02*
X71273185Y18545971D01*
X71273185Y18545971D02*
X71311280Y18521780D01*
X71311280Y18521780D02*
X71387471Y18497590D01*
X71387471Y18497590D02*
X71463661Y18497590D01*
X71463661Y18497590D02*
X71577947Y18521780D01*
X71577947Y18521780D02*
X72035090Y18812066D01*
X72035090Y18812066D02*
X72035090Y18497590D01*
X71235090Y18352447D02*
X72035090Y18183113D01*
X72035090Y18183113D02*
X71235090Y18013780D01*
X48986042Y17377495D02*
X48986042Y17208162D01*
X49405090Y17135590D02*
X49405090Y17377495D01*
X49405090Y17377495D02*
X48605090Y17377495D01*
X48605090Y17377495D02*
X48605090Y17135590D01*
X48643185Y16651781D02*
X48605090Y16700162D01*
X48605090Y16700162D02*
X48605090Y16772733D01*
X48605090Y16772733D02*
X48643185Y16845305D01*
X48643185Y16845305D02*
X48719375Y16893686D01*
X48719375Y16893686D02*
X48795566Y16917876D01*
X48795566Y16917876D02*
X48947947Y16942067D01*
X48947947Y16942067D02*
X49062233Y16942067D01*
X49062233Y16942067D02*
X49214614Y16917876D01*
X49214614Y16917876D02*
X49290804Y16893686D01*
X49290804Y16893686D02*
X49366995Y16845305D01*
X49366995Y16845305D02*
X49405090Y16772733D01*
X49405090Y16772733D02*
X49405090Y16724352D01*
X49405090Y16724352D02*
X49366995Y16651781D01*
X49366995Y16651781D02*
X49328899Y16627590D01*
X49328899Y16627590D02*
X49062233Y16627590D01*
X49062233Y16627590D02*
X49062233Y16724352D01*
X48605090Y16482448D02*
X48605090Y16192162D01*
X49405090Y16337305D02*
X48605090Y16337305D01*
X49100328Y16022828D02*
X49100328Y15635780D01*
X49405090Y15829304D02*
X48795566Y15829304D01*
X48883185Y5331400D02*
X48845090Y5379781D01*
X48845090Y5379781D02*
X48845090Y5452352D01*
X48845090Y5452352D02*
X48883185Y5524924D01*
X48883185Y5524924D02*
X48959375Y5573305D01*
X48959375Y5573305D02*
X49035566Y5597495D01*
X49035566Y5597495D02*
X49187947Y5621686D01*
X49187947Y5621686D02*
X49302233Y5621686D01*
X49302233Y5621686D02*
X49454614Y5597495D01*
X49454614Y5597495D02*
X49530804Y5573305D01*
X49530804Y5573305D02*
X49606995Y5524924D01*
X49606995Y5524924D02*
X49645090Y5452352D01*
X49645090Y5452352D02*
X49645090Y5403971D01*
X49645090Y5403971D02*
X49606995Y5331400D01*
X49606995Y5331400D02*
X49568899Y5307209D01*
X49568899Y5307209D02*
X49302233Y5307209D01*
X49302233Y5307209D02*
X49302233Y5403971D01*
X49645090Y5089495D02*
X48845090Y5089495D01*
X48845090Y5089495D02*
X49645090Y4799209D01*
X49645090Y4799209D02*
X48845090Y4799209D01*
X49645090Y4557305D02*
X48845090Y4557305D01*
X48845090Y4557305D02*
X48845090Y4436353D01*
X48845090Y4436353D02*
X48883185Y4363781D01*
X48883185Y4363781D02*
X48959375Y4315400D01*
X48959375Y4315400D02*
X49035566Y4291210D01*
X49035566Y4291210D02*
X49187947Y4267019D01*
X49187947Y4267019D02*
X49302233Y4267019D01*
X49302233Y4267019D02*
X49454614Y4291210D01*
X49454614Y4291210D02*
X49530804Y4315400D01*
X49530804Y4315400D02*
X49606995Y4363781D01*
X49606995Y4363781D02*
X49645090Y4436353D01*
X49645090Y4436353D02*
X49645090Y4557305D01*
X49416518Y4073496D02*
X49416518Y3831591D01*
X49645090Y4121877D02*
X48845090Y3952543D01*
X48845090Y3952543D02*
X49645090Y3783210D01*
X67025090Y16977495D02*
X66225090Y16977495D01*
X66225090Y16977495D02*
X66796518Y16808162D01*
X66796518Y16808162D02*
X66225090Y16638828D01*
X66225090Y16638828D02*
X67025090Y16638828D01*
X66796518Y16421115D02*
X66796518Y16179210D01*
X67025090Y16469496D02*
X66225090Y16300162D01*
X66225090Y16300162D02*
X67025090Y16130829D01*
X67025090Y15961495D02*
X66225090Y15961495D01*
X66225090Y15961495D02*
X66225090Y15767971D01*
X66225090Y15767971D02*
X66263185Y15719590D01*
X66263185Y15719590D02*
X66301280Y15695400D01*
X66301280Y15695400D02*
X66377471Y15671209D01*
X66377471Y15671209D02*
X66491756Y15671209D01*
X66491756Y15671209D02*
X66567947Y15695400D01*
X66567947Y15695400D02*
X66606042Y15719590D01*
X66606042Y15719590D02*
X66644137Y15767971D01*
X66644137Y15767971D02*
X66644137Y15961495D01*
X64525090Y3045590D02*
X64525090Y3287495D01*
X64525090Y3287495D02*
X63725090Y3287495D01*
X64486995Y2900448D02*
X64525090Y2827876D01*
X64525090Y2827876D02*
X64525090Y2706924D01*
X64525090Y2706924D02*
X64486995Y2658543D01*
X64486995Y2658543D02*
X64448899Y2634352D01*
X64448899Y2634352D02*
X64372709Y2610162D01*
X64372709Y2610162D02*
X64296518Y2610162D01*
X64296518Y2610162D02*
X64220328Y2634352D01*
X64220328Y2634352D02*
X64182233Y2658543D01*
X64182233Y2658543D02*
X64144137Y2706924D01*
X64144137Y2706924D02*
X64106042Y2803686D01*
X64106042Y2803686D02*
X64067947Y2852067D01*
X64067947Y2852067D02*
X64029852Y2876257D01*
X64029852Y2876257D02*
X63953661Y2900448D01*
X63953661Y2900448D02*
X63877471Y2900448D01*
X63877471Y2900448D02*
X63801280Y2876257D01*
X63801280Y2876257D02*
X63763185Y2852067D01*
X63763185Y2852067D02*
X63725090Y2803686D01*
X63725090Y2803686D02*
X63725090Y2682733D01*
X63725090Y2682733D02*
X63763185Y2610162D01*
X63725090Y2392447D02*
X64372709Y2392447D01*
X64372709Y2392447D02*
X64448899Y2368257D01*
X64448899Y2368257D02*
X64486995Y2344066D01*
X64486995Y2344066D02*
X64525090Y2295685D01*
X64525090Y2295685D02*
X64525090Y2198923D01*
X64525090Y2198923D02*
X64486995Y2150542D01*
X64486995Y2150542D02*
X64448899Y2126352D01*
X64448899Y2126352D02*
X64372709Y2102161D01*
X64372709Y2102161D02*
X63725090Y2102161D01*
X64601280Y1981209D02*
X64601280Y1594162D01*
X64525090Y1182923D02*
X64144137Y1352257D01*
X64525090Y1473209D02*
X63725090Y1473209D01*
X63725090Y1473209D02*
X63725090Y1279685D01*
X63725090Y1279685D02*
X63763185Y1231304D01*
X63763185Y1231304D02*
X63801280Y1207114D01*
X63801280Y1207114D02*
X63877471Y1182923D01*
X63877471Y1182923D02*
X63991756Y1182923D01*
X63991756Y1182923D02*
X64067947Y1207114D01*
X64067947Y1207114D02*
X64106042Y1231304D01*
X64106042Y1231304D02*
X64144137Y1279685D01*
X64144137Y1279685D02*
X64144137Y1473209D01*
X71735090Y2677495D02*
X70935090Y2677495D01*
X71735090Y2435590D02*
X70935090Y2435590D01*
X70935090Y2435590D02*
X71735090Y2145304D01*
X71735090Y2145304D02*
X70935090Y2145304D01*
X71354137Y1806638D02*
X71735090Y1806638D01*
X70935090Y1975972D02*
X71354137Y1806638D01*
X71354137Y1806638D02*
X70935090Y1637305D01*
X71735090Y1201876D02*
X71735090Y1492162D01*
X71735090Y1347019D02*
X70935090Y1347019D01*
X70935090Y1347019D02*
X71049375Y1395400D01*
X71049375Y1395400D02*
X71125566Y1443781D01*
X71125566Y1443781D02*
X71163661Y1492162D01*
X53933185Y5461400D02*
X53895090Y5509781D01*
X53895090Y5509781D02*
X53895090Y5582352D01*
X53895090Y5582352D02*
X53933185Y5654924D01*
X53933185Y5654924D02*
X54009375Y5703305D01*
X54009375Y5703305D02*
X54085566Y5727495D01*
X54085566Y5727495D02*
X54237947Y5751686D01*
X54237947Y5751686D02*
X54352233Y5751686D01*
X54352233Y5751686D02*
X54504614Y5727495D01*
X54504614Y5727495D02*
X54580804Y5703305D01*
X54580804Y5703305D02*
X54656995Y5654924D01*
X54656995Y5654924D02*
X54695090Y5582352D01*
X54695090Y5582352D02*
X54695090Y5533971D01*
X54695090Y5533971D02*
X54656995Y5461400D01*
X54656995Y5461400D02*
X54618899Y5437209D01*
X54618899Y5437209D02*
X54352233Y5437209D01*
X54352233Y5437209D02*
X54352233Y5533971D01*
X54695090Y5219495D02*
X53895090Y5219495D01*
X53895090Y5219495D02*
X54695090Y4929209D01*
X54695090Y4929209D02*
X53895090Y4929209D01*
X54695090Y4687305D02*
X53895090Y4687305D01*
X53895090Y4687305D02*
X53895090Y4566353D01*
X53895090Y4566353D02*
X53933185Y4493781D01*
X53933185Y4493781D02*
X54009375Y4445400D01*
X54009375Y4445400D02*
X54085566Y4421210D01*
X54085566Y4421210D02*
X54237947Y4397019D01*
X54237947Y4397019D02*
X54352233Y4397019D01*
X54352233Y4397019D02*
X54504614Y4421210D01*
X54504614Y4421210D02*
X54580804Y4445400D01*
X54580804Y4445400D02*
X54656995Y4493781D01*
X54656995Y4493781D02*
X54695090Y4566353D01*
X54695090Y4566353D02*
X54695090Y4687305D01*
X54466518Y4203496D02*
X54466518Y3961591D01*
X54695090Y4251877D02*
X53895090Y4082543D01*
X53895090Y4082543D02*
X54695090Y3913210D01*
X58895090Y4365590D02*
X58895090Y4607495D01*
X58895090Y4607495D02*
X59276042Y4631686D01*
X59276042Y4631686D02*
X59237947Y4607495D01*
X59237947Y4607495D02*
X59199852Y4559114D01*
X59199852Y4559114D02*
X59199852Y4438162D01*
X59199852Y4438162D02*
X59237947Y4389781D01*
X59237947Y4389781D02*
X59276042Y4365590D01*
X59276042Y4365590D02*
X59352233Y4341400D01*
X59352233Y4341400D02*
X59542709Y4341400D01*
X59542709Y4341400D02*
X59618899Y4365590D01*
X59618899Y4365590D02*
X59656995Y4389781D01*
X59656995Y4389781D02*
X59695090Y4438162D01*
X59695090Y4438162D02*
X59695090Y4559114D01*
X59695090Y4559114D02*
X59656995Y4607495D01*
X59656995Y4607495D02*
X59618899Y4631686D01*
X58895090Y4196257D02*
X59695090Y4026923D01*
X59695090Y4026923D02*
X58895090Y3857590D01*
X51486042Y19488162D02*
X51524137Y19415590D01*
X51524137Y19415590D02*
X51562233Y19391400D01*
X51562233Y19391400D02*
X51638423Y19367209D01*
X51638423Y19367209D02*
X51752709Y19367209D01*
X51752709Y19367209D02*
X51828899Y19391400D01*
X51828899Y19391400D02*
X51866995Y19415590D01*
X51866995Y19415590D02*
X51905090Y19463971D01*
X51905090Y19463971D02*
X51905090Y19657495D01*
X51905090Y19657495D02*
X51105090Y19657495D01*
X51105090Y19657495D02*
X51105090Y19488162D01*
X51105090Y19488162D02*
X51143185Y19439781D01*
X51143185Y19439781D02*
X51181280Y19415590D01*
X51181280Y19415590D02*
X51257471Y19391400D01*
X51257471Y19391400D02*
X51333661Y19391400D01*
X51333661Y19391400D02*
X51409852Y19415590D01*
X51409852Y19415590D02*
X51447947Y19439781D01*
X51447947Y19439781D02*
X51486042Y19488162D01*
X51486042Y19488162D02*
X51486042Y19657495D01*
X51105090Y19052733D02*
X51105090Y18955971D01*
X51105090Y18955971D02*
X51143185Y18907590D01*
X51143185Y18907590D02*
X51219375Y18859209D01*
X51219375Y18859209D02*
X51371756Y18835019D01*
X51371756Y18835019D02*
X51638423Y18835019D01*
X51638423Y18835019D02*
X51790804Y18859209D01*
X51790804Y18859209D02*
X51866995Y18907590D01*
X51866995Y18907590D02*
X51905090Y18955971D01*
X51905090Y18955971D02*
X51905090Y19052733D01*
X51905090Y19052733D02*
X51866995Y19101114D01*
X51866995Y19101114D02*
X51790804Y19149495D01*
X51790804Y19149495D02*
X51638423Y19173686D01*
X51638423Y19173686D02*
X51371756Y19173686D01*
X51371756Y19173686D02*
X51219375Y19149495D01*
X51219375Y19149495D02*
X51143185Y19101114D01*
X51143185Y19101114D02*
X51105090Y19052733D01*
X51866995Y18641496D02*
X51905090Y18568924D01*
X51905090Y18568924D02*
X51905090Y18447972D01*
X51905090Y18447972D02*
X51866995Y18399591D01*
X51866995Y18399591D02*
X51828899Y18375400D01*
X51828899Y18375400D02*
X51752709Y18351210D01*
X51752709Y18351210D02*
X51676518Y18351210D01*
X51676518Y18351210D02*
X51600328Y18375400D01*
X51600328Y18375400D02*
X51562233Y18399591D01*
X51562233Y18399591D02*
X51524137Y18447972D01*
X51524137Y18447972D02*
X51486042Y18544734D01*
X51486042Y18544734D02*
X51447947Y18593115D01*
X51447947Y18593115D02*
X51409852Y18617305D01*
X51409852Y18617305D02*
X51333661Y18641496D01*
X51333661Y18641496D02*
X51257471Y18641496D01*
X51257471Y18641496D02*
X51181280Y18617305D01*
X51181280Y18617305D02*
X51143185Y18593115D01*
X51143185Y18593115D02*
X51105090Y18544734D01*
X51105090Y18544734D02*
X51105090Y18423781D01*
X51105090Y18423781D02*
X51143185Y18351210D01*
X51105090Y18206067D02*
X51105090Y17915781D01*
X51905090Y18060924D02*
X51105090Y18060924D01*
X53745090Y19947495D02*
X54392709Y19947495D01*
X54392709Y19947495D02*
X54468899Y19923305D01*
X54468899Y19923305D02*
X54506995Y19899114D01*
X54506995Y19899114D02*
X54545090Y19850733D01*
X54545090Y19850733D02*
X54545090Y19753971D01*
X54545090Y19753971D02*
X54506995Y19705590D01*
X54506995Y19705590D02*
X54468899Y19681400D01*
X54468899Y19681400D02*
X54392709Y19657209D01*
X54392709Y19657209D02*
X53745090Y19657209D01*
X54506995Y19439496D02*
X54545090Y19366924D01*
X54545090Y19366924D02*
X54545090Y19245972D01*
X54545090Y19245972D02*
X54506995Y19197591D01*
X54506995Y19197591D02*
X54468899Y19173400D01*
X54468899Y19173400D02*
X54392709Y19149210D01*
X54392709Y19149210D02*
X54316518Y19149210D01*
X54316518Y19149210D02*
X54240328Y19173400D01*
X54240328Y19173400D02*
X54202233Y19197591D01*
X54202233Y19197591D02*
X54164137Y19245972D01*
X54164137Y19245972D02*
X54126042Y19342734D01*
X54126042Y19342734D02*
X54087947Y19391115D01*
X54087947Y19391115D02*
X54049852Y19415305D01*
X54049852Y19415305D02*
X53973661Y19439496D01*
X53973661Y19439496D02*
X53897471Y19439496D01*
X53897471Y19439496D02*
X53821280Y19415305D01*
X53821280Y19415305D02*
X53783185Y19391115D01*
X53783185Y19391115D02*
X53745090Y19342734D01*
X53745090Y19342734D02*
X53745090Y19221781D01*
X53745090Y19221781D02*
X53783185Y19149210D01*
X54126042Y18762162D02*
X54164137Y18689590D01*
X54164137Y18689590D02*
X54202233Y18665400D01*
X54202233Y18665400D02*
X54278423Y18641209D01*
X54278423Y18641209D02*
X54392709Y18641209D01*
X54392709Y18641209D02*
X54468899Y18665400D01*
X54468899Y18665400D02*
X54506995Y18689590D01*
X54506995Y18689590D02*
X54545090Y18737971D01*
X54545090Y18737971D02*
X54545090Y18931495D01*
X54545090Y18931495D02*
X53745090Y18931495D01*
X53745090Y18931495D02*
X53745090Y18762162D01*
X53745090Y18762162D02*
X53783185Y18713781D01*
X53783185Y18713781D02*
X53821280Y18689590D01*
X53821280Y18689590D02*
X53897471Y18665400D01*
X53897471Y18665400D02*
X53973661Y18665400D01*
X53973661Y18665400D02*
X54049852Y18689590D01*
X54049852Y18689590D02*
X54087947Y18713781D01*
X54087947Y18713781D02*
X54126042Y18762162D01*
X54126042Y18762162D02*
X54126042Y18931495D01*
X54240328Y18423495D02*
X54240328Y18036447D01*
X54545090Y18229971D02*
X53935566Y18229971D01*
X51373185Y2711400D02*
X51335090Y2759781D01*
X51335090Y2759781D02*
X51335090Y2832352D01*
X51335090Y2832352D02*
X51373185Y2904924D01*
X51373185Y2904924D02*
X51449375Y2953305D01*
X51449375Y2953305D02*
X51525566Y2977495D01*
X51525566Y2977495D02*
X51677947Y3001686D01*
X51677947Y3001686D02*
X51792233Y3001686D01*
X51792233Y3001686D02*
X51944614Y2977495D01*
X51944614Y2977495D02*
X52020804Y2953305D01*
X52020804Y2953305D02*
X52096995Y2904924D01*
X52096995Y2904924D02*
X52135090Y2832352D01*
X52135090Y2832352D02*
X52135090Y2783971D01*
X52135090Y2783971D02*
X52096995Y2711400D01*
X52096995Y2711400D02*
X52058899Y2687209D01*
X52058899Y2687209D02*
X51792233Y2687209D01*
X51792233Y2687209D02*
X51792233Y2783971D01*
X52135090Y2469495D02*
X51335090Y2469495D01*
X51335090Y2469495D02*
X52135090Y2179209D01*
X52135090Y2179209D02*
X51335090Y2179209D01*
X52135090Y1937305D02*
X51335090Y1937305D01*
X51335090Y1937305D02*
X51335090Y1816353D01*
X51335090Y1816353D02*
X51373185Y1743781D01*
X51373185Y1743781D02*
X51449375Y1695400D01*
X51449375Y1695400D02*
X51525566Y1671210D01*
X51525566Y1671210D02*
X51677947Y1647019D01*
X51677947Y1647019D02*
X51792233Y1647019D01*
X51792233Y1647019D02*
X51944614Y1671210D01*
X51944614Y1671210D02*
X52020804Y1695400D01*
X52020804Y1695400D02*
X52096995Y1743781D01*
X52096995Y1743781D02*
X52135090Y1816353D01*
X52135090Y1816353D02*
X52135090Y1937305D01*
X51906518Y1453496D02*
X51906518Y1211591D01*
X52135090Y1501877D02*
X51335090Y1332543D01*
X51335090Y1332543D02*
X52135090Y1163210D01*
X54378899Y17117209D02*
X54416995Y17141400D01*
X54416995Y17141400D02*
X54455090Y17213971D01*
X54455090Y17213971D02*
X54455090Y17262352D01*
X54455090Y17262352D02*
X54416995Y17334924D01*
X54416995Y17334924D02*
X54340804Y17383305D01*
X54340804Y17383305D02*
X54264614Y17407495D01*
X54264614Y17407495D02*
X54112233Y17431686D01*
X54112233Y17431686D02*
X53997947Y17431686D01*
X53997947Y17431686D02*
X53845566Y17407495D01*
X53845566Y17407495D02*
X53769375Y17383305D01*
X53769375Y17383305D02*
X53693185Y17334924D01*
X53693185Y17334924D02*
X53655090Y17262352D01*
X53655090Y17262352D02*
X53655090Y17213971D01*
X53655090Y17213971D02*
X53693185Y17141400D01*
X53693185Y17141400D02*
X53731280Y17117209D01*
X54226518Y16923686D02*
X54226518Y16681781D01*
X54455090Y16972067D02*
X53655090Y16802733D01*
X53655090Y16802733D02*
X54455090Y16633400D01*
X54455090Y16464066D02*
X53655090Y16464066D01*
X53655090Y16464066D02*
X54455090Y16173780D01*
X54455090Y16173780D02*
X53655090Y16173780D01*
X54455090Y15931876D02*
X53655090Y15931876D01*
X54036042Y15931876D02*
X54036042Y15641590D01*
X54455090Y15641590D02*
X53655090Y15641590D01*
X51253185Y5331400D02*
X51215090Y5379781D01*
X51215090Y5379781D02*
X51215090Y5452352D01*
X51215090Y5452352D02*
X51253185Y5524924D01*
X51253185Y5524924D02*
X51329375Y5573305D01*
X51329375Y5573305D02*
X51405566Y5597495D01*
X51405566Y5597495D02*
X51557947Y5621686D01*
X51557947Y5621686D02*
X51672233Y5621686D01*
X51672233Y5621686D02*
X51824614Y5597495D01*
X51824614Y5597495D02*
X51900804Y5573305D01*
X51900804Y5573305D02*
X51976995Y5524924D01*
X51976995Y5524924D02*
X52015090Y5452352D01*
X52015090Y5452352D02*
X52015090Y5403971D01*
X52015090Y5403971D02*
X51976995Y5331400D01*
X51976995Y5331400D02*
X51938899Y5307209D01*
X51938899Y5307209D02*
X51672233Y5307209D01*
X51672233Y5307209D02*
X51672233Y5403971D01*
X52015090Y5089495D02*
X51215090Y5089495D01*
X51215090Y5089495D02*
X52015090Y4799209D01*
X52015090Y4799209D02*
X51215090Y4799209D01*
X52015090Y4557305D02*
X51215090Y4557305D01*
X51215090Y4557305D02*
X51215090Y4436353D01*
X51215090Y4436353D02*
X51253185Y4363781D01*
X51253185Y4363781D02*
X51329375Y4315400D01*
X51329375Y4315400D02*
X51405566Y4291210D01*
X51405566Y4291210D02*
X51557947Y4267019D01*
X51557947Y4267019D02*
X51672233Y4267019D01*
X51672233Y4267019D02*
X51824614Y4291210D01*
X51824614Y4291210D02*
X51900804Y4315400D01*
X51900804Y4315400D02*
X51976995Y4363781D01*
X51976995Y4363781D02*
X52015090Y4436353D01*
X52015090Y4436353D02*
X52015090Y4557305D01*
X51786518Y4073496D02*
X51786518Y3831591D01*
X52015090Y4121877D02*
X51215090Y3952543D01*
X51215090Y3952543D02*
X52015090Y3783210D01*
X57178899Y5307209D02*
X57216995Y5331400D01*
X57216995Y5331400D02*
X57255090Y5403971D01*
X57255090Y5403971D02*
X57255090Y5452352D01*
X57255090Y5452352D02*
X57216995Y5524924D01*
X57216995Y5524924D02*
X57140804Y5573305D01*
X57140804Y5573305D02*
X57064614Y5597495D01*
X57064614Y5597495D02*
X56912233Y5621686D01*
X56912233Y5621686D02*
X56797947Y5621686D01*
X56797947Y5621686D02*
X56645566Y5597495D01*
X56645566Y5597495D02*
X56569375Y5573305D01*
X56569375Y5573305D02*
X56493185Y5524924D01*
X56493185Y5524924D02*
X56455090Y5452352D01*
X56455090Y5452352D02*
X56455090Y5403971D01*
X56455090Y5403971D02*
X56493185Y5331400D01*
X56493185Y5331400D02*
X56531280Y5307209D01*
X57026518Y5113686D02*
X57026518Y4871781D01*
X57255090Y5162067D02*
X56455090Y4992733D01*
X56455090Y4992733D02*
X57255090Y4823400D01*
X57255090Y4654066D02*
X56455090Y4654066D01*
X56455090Y4654066D02*
X57255090Y4363780D01*
X57255090Y4363780D02*
X56455090Y4363780D01*
X57255090Y3879971D02*
X57255090Y4121876D01*
X57255090Y4121876D02*
X56455090Y4121876D01*
X79265090Y17317495D02*
X78465090Y17317495D01*
X78503185Y16809495D02*
X78465090Y16857876D01*
X78465090Y16857876D02*
X78465090Y16930447D01*
X78465090Y16930447D02*
X78503185Y17003019D01*
X78503185Y17003019D02*
X78579375Y17051400D01*
X78579375Y17051400D02*
X78655566Y17075590D01*
X78655566Y17075590D02*
X78807947Y17099781D01*
X78807947Y17099781D02*
X78922233Y17099781D01*
X78922233Y17099781D02*
X79074614Y17075590D01*
X79074614Y17075590D02*
X79150804Y17051400D01*
X79150804Y17051400D02*
X79226995Y17003019D01*
X79226995Y17003019D02*
X79265090Y16930447D01*
X79265090Y16930447D02*
X79265090Y16882066D01*
X79265090Y16882066D02*
X79226995Y16809495D01*
X79226995Y16809495D02*
X79188899Y16785304D01*
X79188899Y16785304D02*
X78922233Y16785304D01*
X78922233Y16785304D02*
X78922233Y16882066D01*
X79265090Y16567590D02*
X78465090Y16567590D01*
X78465090Y16567590D02*
X79265090Y16277304D01*
X79265090Y16277304D02*
X78465090Y16277304D01*
X78465090Y15793495D02*
X78465090Y16035400D01*
X78465090Y16035400D02*
X78846042Y16059591D01*
X78846042Y16059591D02*
X78807947Y16035400D01*
X78807947Y16035400D02*
X78769852Y15987019D01*
X78769852Y15987019D02*
X78769852Y15866067D01*
X78769852Y15866067D02*
X78807947Y15817686D01*
X78807947Y15817686D02*
X78846042Y15793495D01*
X78846042Y15793495D02*
X78922233Y15769305D01*
X78922233Y15769305D02*
X79112709Y15769305D01*
X79112709Y15769305D02*
X79188899Y15793495D01*
X79188899Y15793495D02*
X79226995Y15817686D01*
X79226995Y15817686D02*
X79265090Y15866067D01*
X79265090Y15866067D02*
X79265090Y15987019D01*
X79265090Y15987019D02*
X79226995Y16035400D01*
X79226995Y16035400D02*
X79188899Y16059591D01*
X64475090Y16447495D02*
X63675090Y16447495D01*
X64246518Y16229781D02*
X64246518Y15987876D01*
X64475090Y16278162D02*
X63675090Y16108828D01*
X63675090Y16108828D02*
X64475090Y15939495D01*
X63675090Y15842733D02*
X63675090Y15552447D01*
X64475090Y15697590D02*
X63675090Y15697590D01*
X69425090Y17157495D02*
X68625090Y17157495D01*
X69425090Y16915590D02*
X68625090Y16915590D01*
X68625090Y16915590D02*
X69425090Y16625304D01*
X69425090Y16625304D02*
X68625090Y16625304D01*
X69044137Y16286638D02*
X69425090Y16286638D01*
X68625090Y16455972D02*
X69044137Y16286638D01*
X69044137Y16286638D02*
X68625090Y16117305D01*
X68625090Y15730257D02*
X68625090Y15827019D01*
X68625090Y15827019D02*
X68663185Y15875400D01*
X68663185Y15875400D02*
X68701280Y15899590D01*
X68701280Y15899590D02*
X68815566Y15947971D01*
X68815566Y15947971D02*
X68967947Y15972162D01*
X68967947Y15972162D02*
X69272709Y15972162D01*
X69272709Y15972162D02*
X69348899Y15947971D01*
X69348899Y15947971D02*
X69386995Y15923781D01*
X69386995Y15923781D02*
X69425090Y15875400D01*
X69425090Y15875400D02*
X69425090Y15778638D01*
X69425090Y15778638D02*
X69386995Y15730257D01*
X69386995Y15730257D02*
X69348899Y15706066D01*
X69348899Y15706066D02*
X69272709Y15681876D01*
X69272709Y15681876D02*
X69082233Y15681876D01*
X69082233Y15681876D02*
X69006042Y15706066D01*
X69006042Y15706066D02*
X68967947Y15730257D01*
X68967947Y15730257D02*
X68929852Y15778638D01*
X68929852Y15778638D02*
X68929852Y15875400D01*
X68929852Y15875400D02*
X68967947Y15923781D01*
X68967947Y15923781D02*
X69006042Y15947971D01*
X69006042Y15947971D02*
X69082233Y15972162D01*
X69365090Y2647495D02*
X68565090Y2647495D01*
X69365090Y2405590D02*
X68565090Y2405590D01*
X68565090Y2405590D02*
X69365090Y2115304D01*
X69365090Y2115304D02*
X68565090Y2115304D01*
X68984137Y1776638D02*
X69365090Y1776638D01*
X68565090Y1945972D02*
X68984137Y1776638D01*
X68984137Y1776638D02*
X68565090Y1607305D01*
X68641280Y1462162D02*
X68603185Y1437971D01*
X68603185Y1437971D02*
X68565090Y1389590D01*
X68565090Y1389590D02*
X68565090Y1268638D01*
X68565090Y1268638D02*
X68603185Y1220257D01*
X68603185Y1220257D02*
X68641280Y1196066D01*
X68641280Y1196066D02*
X68717471Y1171876D01*
X68717471Y1171876D02*
X68793661Y1171876D01*
X68793661Y1171876D02*
X68907947Y1196066D01*
X68907947Y1196066D02*
X69365090Y1486352D01*
X69365090Y1486352D02*
X69365090Y1171876D01*
X64558899Y18827209D02*
X64596995Y18851400D01*
X64596995Y18851400D02*
X64635090Y18923971D01*
X64635090Y18923971D02*
X64635090Y18972352D01*
X64635090Y18972352D02*
X64596995Y19044924D01*
X64596995Y19044924D02*
X64520804Y19093305D01*
X64520804Y19093305D02*
X64444614Y19117495D01*
X64444614Y19117495D02*
X64292233Y19141686D01*
X64292233Y19141686D02*
X64177947Y19141686D01*
X64177947Y19141686D02*
X64025566Y19117495D01*
X64025566Y19117495D02*
X63949375Y19093305D01*
X63949375Y19093305D02*
X63873185Y19044924D01*
X63873185Y19044924D02*
X63835090Y18972352D01*
X63835090Y18972352D02*
X63835090Y18923971D01*
X63835090Y18923971D02*
X63873185Y18851400D01*
X63873185Y18851400D02*
X63911280Y18827209D01*
X64635090Y18367590D02*
X64635090Y18609495D01*
X64635090Y18609495D02*
X63835090Y18609495D01*
X63835090Y18270829D02*
X63835090Y17980543D01*
X64635090Y18125686D02*
X63835090Y18125686D01*
X62095090Y3175590D02*
X62095090Y3417495D01*
X62095090Y3417495D02*
X61295090Y3417495D01*
X62056995Y3030448D02*
X62095090Y2957876D01*
X62095090Y2957876D02*
X62095090Y2836924D01*
X62095090Y2836924D02*
X62056995Y2788543D01*
X62056995Y2788543D02*
X62018899Y2764352D01*
X62018899Y2764352D02*
X61942709Y2740162D01*
X61942709Y2740162D02*
X61866518Y2740162D01*
X61866518Y2740162D02*
X61790328Y2764352D01*
X61790328Y2764352D02*
X61752233Y2788543D01*
X61752233Y2788543D02*
X61714137Y2836924D01*
X61714137Y2836924D02*
X61676042Y2933686D01*
X61676042Y2933686D02*
X61637947Y2982067D01*
X61637947Y2982067D02*
X61599852Y3006257D01*
X61599852Y3006257D02*
X61523661Y3030448D01*
X61523661Y3030448D02*
X61447471Y3030448D01*
X61447471Y3030448D02*
X61371280Y3006257D01*
X61371280Y3006257D02*
X61333185Y2982067D01*
X61333185Y2982067D02*
X61295090Y2933686D01*
X61295090Y2933686D02*
X61295090Y2812733D01*
X61295090Y2812733D02*
X61333185Y2740162D01*
X61295090Y2522447D02*
X61942709Y2522447D01*
X61942709Y2522447D02*
X62018899Y2498257D01*
X62018899Y2498257D02*
X62056995Y2474066D01*
X62056995Y2474066D02*
X62095090Y2425685D01*
X62095090Y2425685D02*
X62095090Y2328923D01*
X62095090Y2328923D02*
X62056995Y2280542D01*
X62056995Y2280542D02*
X62018899Y2256352D01*
X62018899Y2256352D02*
X61942709Y2232161D01*
X61942709Y2232161D02*
X61295090Y2232161D01*
X62171280Y2111209D02*
X62171280Y1724162D01*
X61295090Y1603209D02*
X61942709Y1603209D01*
X61942709Y1603209D02*
X62018899Y1579019D01*
X62018899Y1579019D02*
X62056995Y1554828D01*
X62056995Y1554828D02*
X62095090Y1506447D01*
X62095090Y1506447D02*
X62095090Y1409685D01*
X62095090Y1409685D02*
X62056995Y1361304D01*
X62056995Y1361304D02*
X62018899Y1337114D01*
X62018899Y1337114D02*
X61942709Y1312923D01*
X61942709Y1312923D02*
X61295090Y1312923D01*
X62095090Y1071019D02*
X61295090Y1071019D01*
X62048899Y4997209D02*
X62086995Y5021400D01*
X62086995Y5021400D02*
X62125090Y5093971D01*
X62125090Y5093971D02*
X62125090Y5142352D01*
X62125090Y5142352D02*
X62086995Y5214924D01*
X62086995Y5214924D02*
X62010804Y5263305D01*
X62010804Y5263305D02*
X61934614Y5287495D01*
X61934614Y5287495D02*
X61782233Y5311686D01*
X61782233Y5311686D02*
X61667947Y5311686D01*
X61667947Y5311686D02*
X61515566Y5287495D01*
X61515566Y5287495D02*
X61439375Y5263305D01*
X61439375Y5263305D02*
X61363185Y5214924D01*
X61363185Y5214924D02*
X61325090Y5142352D01*
X61325090Y5142352D02*
X61325090Y5093971D01*
X61325090Y5093971D02*
X61363185Y5021400D01*
X61363185Y5021400D02*
X61401280Y4997209D01*
X62125090Y4779495D02*
X61325090Y4779495D01*
X62125090Y4489209D02*
X61667947Y4706924D01*
X61325090Y4489209D02*
X61782233Y4779495D01*
X61820328Y4271495D02*
X61820328Y3884447D01*
X62125090Y4077971D02*
X61515566Y4077971D01*
X67058899Y19027209D02*
X67096995Y19051400D01*
X67096995Y19051400D02*
X67135090Y19123971D01*
X67135090Y19123971D02*
X67135090Y19172352D01*
X67135090Y19172352D02*
X67096995Y19244924D01*
X67096995Y19244924D02*
X67020804Y19293305D01*
X67020804Y19293305D02*
X66944614Y19317495D01*
X66944614Y19317495D02*
X66792233Y19341686D01*
X66792233Y19341686D02*
X66677947Y19341686D01*
X66677947Y19341686D02*
X66525566Y19317495D01*
X66525566Y19317495D02*
X66449375Y19293305D01*
X66449375Y19293305D02*
X66373185Y19244924D01*
X66373185Y19244924D02*
X66335090Y19172352D01*
X66335090Y19172352D02*
X66335090Y19123971D01*
X66335090Y19123971D02*
X66373185Y19051400D01*
X66373185Y19051400D02*
X66411280Y19027209D01*
X66906518Y18833686D02*
X66906518Y18591781D01*
X67135090Y18882067D02*
X66335090Y18712733D01*
X66335090Y18712733D02*
X67135090Y18543400D01*
X67135090Y18374066D02*
X66335090Y18374066D01*
X66335090Y18374066D02*
X66906518Y18204733D01*
X66906518Y18204733D02*
X66335090Y18035399D01*
X66335090Y18035399D02*
X67135090Y18035399D01*
X59708899Y2247209D02*
X59746995Y2271400D01*
X59746995Y2271400D02*
X59785090Y2343971D01*
X59785090Y2343971D02*
X59785090Y2392352D01*
X59785090Y2392352D02*
X59746995Y2464924D01*
X59746995Y2464924D02*
X59670804Y2513305D01*
X59670804Y2513305D02*
X59594614Y2537495D01*
X59594614Y2537495D02*
X59442233Y2561686D01*
X59442233Y2561686D02*
X59327947Y2561686D01*
X59327947Y2561686D02*
X59175566Y2537495D01*
X59175566Y2537495D02*
X59099375Y2513305D01*
X59099375Y2513305D02*
X59023185Y2464924D01*
X59023185Y2464924D02*
X58985090Y2392352D01*
X58985090Y2392352D02*
X58985090Y2343971D01*
X58985090Y2343971D02*
X59023185Y2271400D01*
X59023185Y2271400D02*
X59061280Y2247209D01*
X59785090Y2029495D02*
X58985090Y2029495D01*
X59785090Y1739209D02*
X59327947Y1956924D01*
X58985090Y1739209D02*
X59442233Y2029495D01*
X59480328Y1521495D02*
X59480328Y1134447D01*
X76375090Y5517495D02*
X75575090Y5517495D01*
X75613185Y5009495D02*
X75575090Y5057876D01*
X75575090Y5057876D02*
X75575090Y5130447D01*
X75575090Y5130447D02*
X75613185Y5203019D01*
X75613185Y5203019D02*
X75689375Y5251400D01*
X75689375Y5251400D02*
X75765566Y5275590D01*
X75765566Y5275590D02*
X75917947Y5299781D01*
X75917947Y5299781D02*
X76032233Y5299781D01*
X76032233Y5299781D02*
X76184614Y5275590D01*
X76184614Y5275590D02*
X76260804Y5251400D01*
X76260804Y5251400D02*
X76336995Y5203019D01*
X76336995Y5203019D02*
X76375090Y5130447D01*
X76375090Y5130447D02*
X76375090Y5082066D01*
X76375090Y5082066D02*
X76336995Y5009495D01*
X76336995Y5009495D02*
X76298899Y4985304D01*
X76298899Y4985304D02*
X76032233Y4985304D01*
X76032233Y4985304D02*
X76032233Y5082066D01*
X76375090Y4767590D02*
X75575090Y4767590D01*
X75575090Y4767590D02*
X76375090Y4477304D01*
X76375090Y4477304D02*
X75575090Y4477304D01*
X75841756Y4017686D02*
X76375090Y4017686D01*
X75536995Y4138638D02*
X76108423Y4259591D01*
X76108423Y4259591D02*
X76108423Y3945114D01*
X75355090Y2827495D02*
X74555090Y2827495D01*
X74593185Y2319495D02*
X74555090Y2367876D01*
X74555090Y2367876D02*
X74555090Y2440447D01*
X74555090Y2440447D02*
X74593185Y2513019D01*
X74593185Y2513019D02*
X74669375Y2561400D01*
X74669375Y2561400D02*
X74745566Y2585590D01*
X74745566Y2585590D02*
X74897947Y2609781D01*
X74897947Y2609781D02*
X75012233Y2609781D01*
X75012233Y2609781D02*
X75164614Y2585590D01*
X75164614Y2585590D02*
X75240804Y2561400D01*
X75240804Y2561400D02*
X75316995Y2513019D01*
X75316995Y2513019D02*
X75355090Y2440447D01*
X75355090Y2440447D02*
X75355090Y2392066D01*
X75355090Y2392066D02*
X75316995Y2319495D01*
X75316995Y2319495D02*
X75278899Y2295304D01*
X75278899Y2295304D02*
X75012233Y2295304D01*
X75012233Y2295304D02*
X75012233Y2392066D01*
X75355090Y2077590D02*
X74555090Y2077590D01*
X74555090Y2077590D02*
X75355090Y1787304D01*
X75355090Y1787304D02*
X74555090Y1787304D01*
X74631280Y1569591D02*
X74593185Y1545400D01*
X74593185Y1545400D02*
X74555090Y1497019D01*
X74555090Y1497019D02*
X74555090Y1376067D01*
X74555090Y1376067D02*
X74593185Y1327686D01*
X74593185Y1327686D02*
X74631280Y1303495D01*
X74631280Y1303495D02*
X74707471Y1279305D01*
X74707471Y1279305D02*
X74783661Y1279305D01*
X74783661Y1279305D02*
X74897947Y1303495D01*
X74897947Y1303495D02*
X75355090Y1593781D01*
X75355090Y1593781D02*
X75355090Y1279305D01*
X61345090Y19430733D02*
X61345090Y19333971D01*
X61345090Y19333971D02*
X61383185Y19285590D01*
X61383185Y19285590D02*
X61459375Y19237209D01*
X61459375Y19237209D02*
X61611756Y19213019D01*
X61611756Y19213019D02*
X61878423Y19213019D01*
X61878423Y19213019D02*
X62030804Y19237209D01*
X62030804Y19237209D02*
X62106995Y19285590D01*
X62106995Y19285590D02*
X62145090Y19333971D01*
X62145090Y19333971D02*
X62145090Y19430733D01*
X62145090Y19430733D02*
X62106995Y19479114D01*
X62106995Y19479114D02*
X62030804Y19527495D01*
X62030804Y19527495D02*
X61878423Y19551686D01*
X61878423Y19551686D02*
X61611756Y19551686D01*
X61611756Y19551686D02*
X61459375Y19527495D01*
X61459375Y19527495D02*
X61383185Y19479114D01*
X61383185Y19479114D02*
X61345090Y19430733D01*
X62145090Y18995305D02*
X61345090Y18995305D01*
X62145090Y18511495D02*
X62145090Y18753400D01*
X62145090Y18753400D02*
X61345090Y18753400D01*
X62145090Y18342162D02*
X61345090Y18342162D01*
X61345090Y18342162D02*
X61345090Y18148638D01*
X61345090Y18148638D02*
X61383185Y18100257D01*
X61383185Y18100257D02*
X61421280Y18076067D01*
X61421280Y18076067D02*
X61497471Y18051876D01*
X61497471Y18051876D02*
X61611756Y18051876D01*
X61611756Y18051876D02*
X61687947Y18076067D01*
X61687947Y18076067D02*
X61726042Y18100257D01*
X61726042Y18100257D02*
X61764137Y18148638D01*
X61764137Y18148638D02*
X61764137Y18342162D01*
X49006042Y18528162D02*
X49006042Y18697495D01*
X49425090Y18697495D02*
X48625090Y18697495D01*
X48625090Y18697495D02*
X48625090Y18455590D01*
X49425090Y18262066D02*
X48625090Y18262066D01*
X48625090Y18262066D02*
X48625090Y18068542D01*
X48625090Y18068542D02*
X48663185Y18020161D01*
X48663185Y18020161D02*
X48701280Y17995971D01*
X48701280Y17995971D02*
X48777471Y17971780D01*
X48777471Y17971780D02*
X48891756Y17971780D01*
X48891756Y17971780D02*
X48967947Y17995971D01*
X48967947Y17995971D02*
X49006042Y18020161D01*
X49006042Y18020161D02*
X49044137Y18068542D01*
X49044137Y18068542D02*
X49044137Y18262066D01*
X58745090Y16125590D02*
X58745090Y16367495D01*
X58745090Y16367495D02*
X59126042Y16391686D01*
X59126042Y16391686D02*
X59087947Y16367495D01*
X59087947Y16367495D02*
X59049852Y16319114D01*
X59049852Y16319114D02*
X59049852Y16198162D01*
X59049852Y16198162D02*
X59087947Y16149781D01*
X59087947Y16149781D02*
X59126042Y16125590D01*
X59126042Y16125590D02*
X59202233Y16101400D01*
X59202233Y16101400D02*
X59392709Y16101400D01*
X59392709Y16101400D02*
X59468899Y16125590D01*
X59468899Y16125590D02*
X59506995Y16149781D01*
X59506995Y16149781D02*
X59545090Y16198162D01*
X59545090Y16198162D02*
X59545090Y16319114D01*
X59545090Y16319114D02*
X59506995Y16367495D01*
X59506995Y16367495D02*
X59468899Y16391686D01*
X58745090Y15956257D02*
X59545090Y15786923D01*
X59545090Y15786923D02*
X58745090Y15617590D01*
X68945090Y5297495D02*
X68145090Y5297495D01*
X68945090Y5055590D02*
X68145090Y5055590D01*
X68145090Y5055590D02*
X68945090Y4765304D01*
X68945090Y4765304D02*
X68145090Y4765304D01*
X68564137Y4426638D02*
X68945090Y4426638D01*
X68145090Y4595972D02*
X68564137Y4426638D01*
X68564137Y4426638D02*
X68145090Y4257305D01*
X68411756Y3870257D02*
X68945090Y3870257D01*
X68106995Y3991209D02*
X68678423Y4112162D01*
X68678423Y4112162D02*
X68678423Y3797685D01*
X54033185Y2621400D02*
X53995090Y2669781D01*
X53995090Y2669781D02*
X53995090Y2742352D01*
X53995090Y2742352D02*
X54033185Y2814924D01*
X54033185Y2814924D02*
X54109375Y2863305D01*
X54109375Y2863305D02*
X54185566Y2887495D01*
X54185566Y2887495D02*
X54337947Y2911686D01*
X54337947Y2911686D02*
X54452233Y2911686D01*
X54452233Y2911686D02*
X54604614Y2887495D01*
X54604614Y2887495D02*
X54680804Y2863305D01*
X54680804Y2863305D02*
X54756995Y2814924D01*
X54756995Y2814924D02*
X54795090Y2742352D01*
X54795090Y2742352D02*
X54795090Y2693971D01*
X54795090Y2693971D02*
X54756995Y2621400D01*
X54756995Y2621400D02*
X54718899Y2597209D01*
X54718899Y2597209D02*
X54452233Y2597209D01*
X54452233Y2597209D02*
X54452233Y2693971D01*
X54795090Y2379495D02*
X53995090Y2379495D01*
X53995090Y2379495D02*
X54795090Y2089209D01*
X54795090Y2089209D02*
X53995090Y2089209D01*
X54795090Y1847305D02*
X53995090Y1847305D01*
X53995090Y1847305D02*
X53995090Y1726353D01*
X53995090Y1726353D02*
X54033185Y1653781D01*
X54033185Y1653781D02*
X54109375Y1605400D01*
X54109375Y1605400D02*
X54185566Y1581210D01*
X54185566Y1581210D02*
X54337947Y1557019D01*
X54337947Y1557019D02*
X54452233Y1557019D01*
X54452233Y1557019D02*
X54604614Y1581210D01*
X54604614Y1581210D02*
X54680804Y1605400D01*
X54680804Y1605400D02*
X54756995Y1653781D01*
X54756995Y1653781D02*
X54795090Y1726353D01*
X54795090Y1726353D02*
X54795090Y1847305D01*
X54566518Y1363496D02*
X54566518Y1121591D01*
X54795090Y1411877D02*
X53995090Y1242543D01*
X53995090Y1242543D02*
X54795090Y1073210D01*
X51556042Y17347495D02*
X51556042Y17178162D01*
X51975090Y17105590D02*
X51975090Y17347495D01*
X51975090Y17347495D02*
X51175090Y17347495D01*
X51175090Y17347495D02*
X51175090Y17105590D01*
X51213185Y16621781D02*
X51175090Y16670162D01*
X51175090Y16670162D02*
X51175090Y16742733D01*
X51175090Y16742733D02*
X51213185Y16815305D01*
X51213185Y16815305D02*
X51289375Y16863686D01*
X51289375Y16863686D02*
X51365566Y16887876D01*
X51365566Y16887876D02*
X51517947Y16912067D01*
X51517947Y16912067D02*
X51632233Y16912067D01*
X51632233Y16912067D02*
X51784614Y16887876D01*
X51784614Y16887876D02*
X51860804Y16863686D01*
X51860804Y16863686D02*
X51936995Y16815305D01*
X51936995Y16815305D02*
X51975090Y16742733D01*
X51975090Y16742733D02*
X51975090Y16694352D01*
X51975090Y16694352D02*
X51936995Y16621781D01*
X51936995Y16621781D02*
X51898899Y16597590D01*
X51898899Y16597590D02*
X51632233Y16597590D01*
X51632233Y16597590D02*
X51632233Y16694352D01*
X51175090Y16452448D02*
X51175090Y16162162D01*
X51975090Y16307305D02*
X51175090Y16307305D01*
X51670328Y15992828D02*
X51670328Y15605780D01*
X78563185Y19101400D02*
X78525090Y19149781D01*
X78525090Y19149781D02*
X78525090Y19222352D01*
X78525090Y19222352D02*
X78563185Y19294924D01*
X78563185Y19294924D02*
X78639375Y19343305D01*
X78639375Y19343305D02*
X78715566Y19367495D01*
X78715566Y19367495D02*
X78867947Y19391686D01*
X78867947Y19391686D02*
X78982233Y19391686D01*
X78982233Y19391686D02*
X79134614Y19367495D01*
X79134614Y19367495D02*
X79210804Y19343305D01*
X79210804Y19343305D02*
X79286995Y19294924D01*
X79286995Y19294924D02*
X79325090Y19222352D01*
X79325090Y19222352D02*
X79325090Y19173971D01*
X79325090Y19173971D02*
X79286995Y19101400D01*
X79286995Y19101400D02*
X79248899Y19077209D01*
X79248899Y19077209D02*
X78982233Y19077209D01*
X78982233Y19077209D02*
X78982233Y19173971D01*
X79325090Y18859495D02*
X78525090Y18859495D01*
X78525090Y18859495D02*
X79325090Y18569209D01*
X79325090Y18569209D02*
X78525090Y18569209D01*
X79325090Y18327305D02*
X78525090Y18327305D01*
X78525090Y18327305D02*
X78525090Y18206353D01*
X78525090Y18206353D02*
X78563185Y18133781D01*
X78563185Y18133781D02*
X78639375Y18085400D01*
X78639375Y18085400D02*
X78715566Y18061210D01*
X78715566Y18061210D02*
X78867947Y18037019D01*
X78867947Y18037019D02*
X78982233Y18037019D01*
X78982233Y18037019D02*
X79134614Y18061210D01*
X79134614Y18061210D02*
X79210804Y18085400D01*
X79210804Y18085400D02*
X79286995Y18133781D01*
X79286995Y18133781D02*
X79325090Y18206353D01*
X79325090Y18206353D02*
X79325090Y18327305D01*
X71315090Y5237495D02*
X70515090Y5237495D01*
X71315090Y4995590D02*
X70515090Y4995590D01*
X70515090Y4995590D02*
X71315090Y4705304D01*
X71315090Y4705304D02*
X70515090Y4705304D01*
X70934137Y4366638D02*
X71315090Y4366638D01*
X70515090Y4535972D02*
X70934137Y4366638D01*
X70934137Y4366638D02*
X70515090Y4197305D01*
X70515090Y4076352D02*
X70515090Y3761876D01*
X70515090Y3761876D02*
X70819852Y3931209D01*
X70819852Y3931209D02*
X70819852Y3858638D01*
X70819852Y3858638D02*
X70857947Y3810257D01*
X70857947Y3810257D02*
X70896042Y3786066D01*
X70896042Y3786066D02*
X70972233Y3761876D01*
X70972233Y3761876D02*
X71162709Y3761876D01*
X71162709Y3761876D02*
X71238899Y3786066D01*
X71238899Y3786066D02*
X71276995Y3810257D01*
X71276995Y3810257D02*
X71315090Y3858638D01*
X71315090Y3858638D02*
X71315090Y4003781D01*
X71315090Y4003781D02*
X71276995Y4052162D01*
X71276995Y4052162D02*
X71238899Y4076352D01*
X75465090Y17227495D02*
X74665090Y17227495D01*
X74703185Y16719495D02*
X74665090Y16767876D01*
X74665090Y16767876D02*
X74665090Y16840447D01*
X74665090Y16840447D02*
X74703185Y16913019D01*
X74703185Y16913019D02*
X74779375Y16961400D01*
X74779375Y16961400D02*
X74855566Y16985590D01*
X74855566Y16985590D02*
X75007947Y17009781D01*
X75007947Y17009781D02*
X75122233Y17009781D01*
X75122233Y17009781D02*
X75274614Y16985590D01*
X75274614Y16985590D02*
X75350804Y16961400D01*
X75350804Y16961400D02*
X75426995Y16913019D01*
X75426995Y16913019D02*
X75465090Y16840447D01*
X75465090Y16840447D02*
X75465090Y16792066D01*
X75465090Y16792066D02*
X75426995Y16719495D01*
X75426995Y16719495D02*
X75388899Y16695304D01*
X75388899Y16695304D02*
X75122233Y16695304D01*
X75122233Y16695304D02*
X75122233Y16792066D01*
X75465090Y16477590D02*
X74665090Y16477590D01*
X74665090Y16477590D02*
X75465090Y16187304D01*
X75465090Y16187304D02*
X74665090Y16187304D01*
X74665090Y15727686D02*
X74665090Y15824448D01*
X74665090Y15824448D02*
X74703185Y15872829D01*
X74703185Y15872829D02*
X74741280Y15897019D01*
X74741280Y15897019D02*
X74855566Y15945400D01*
X74855566Y15945400D02*
X75007947Y15969591D01*
X75007947Y15969591D02*
X75312709Y15969591D01*
X75312709Y15969591D02*
X75388899Y15945400D01*
X75388899Y15945400D02*
X75426995Y15921210D01*
X75426995Y15921210D02*
X75465090Y15872829D01*
X75465090Y15872829D02*
X75465090Y15776067D01*
X75465090Y15776067D02*
X75426995Y15727686D01*
X75426995Y15727686D02*
X75388899Y15703495D01*
X75388899Y15703495D02*
X75312709Y15679305D01*
X75312709Y15679305D02*
X75122233Y15679305D01*
X75122233Y15679305D02*
X75046042Y15703495D01*
X75046042Y15703495D02*
X75007947Y15727686D01*
X75007947Y15727686D02*
X74969852Y15776067D01*
X74969852Y15776067D02*
X74969852Y15872829D01*
X74969852Y15872829D02*
X75007947Y15921210D01*
X75007947Y15921210D02*
X75046042Y15945400D01*
X75046042Y15945400D02*
X75122233Y15969591D01*
X72015090Y17207495D02*
X71215090Y17207495D01*
X72015090Y16965590D02*
X71215090Y16965590D01*
X71215090Y16965590D02*
X72015090Y16675304D01*
X72015090Y16675304D02*
X71215090Y16675304D01*
X71634137Y16336638D02*
X72015090Y16336638D01*
X71215090Y16505972D02*
X71634137Y16336638D01*
X71634137Y16336638D02*
X71215090Y16167305D01*
X71215090Y15756066D02*
X71215090Y15997971D01*
X71215090Y15997971D02*
X71596042Y16022162D01*
X71596042Y16022162D02*
X71557947Y15997971D01*
X71557947Y15997971D02*
X71519852Y15949590D01*
X71519852Y15949590D02*
X71519852Y15828638D01*
X71519852Y15828638D02*
X71557947Y15780257D01*
X71557947Y15780257D02*
X71596042Y15756066D01*
X71596042Y15756066D02*
X71672233Y15731876D01*
X71672233Y15731876D02*
X71862709Y15731876D01*
X71862709Y15731876D02*
X71938899Y15756066D01*
X71938899Y15756066D02*
X71976995Y15780257D01*
X71976995Y15780257D02*
X72015090Y15828638D01*
X72015090Y15828638D02*
X72015090Y15949590D01*
X72015090Y15949590D02*
X71976995Y15997971D01*
X71976995Y15997971D02*
X71938899Y16022162D01*
X57285090Y2507495D02*
X56485090Y2507495D01*
X57285090Y2217209D02*
X56827947Y2434924D01*
X56485090Y2217209D02*
X56942233Y2507495D01*
X57285090Y1999495D02*
X56485090Y1999495D01*
X56485090Y1999495D02*
X57285090Y1709209D01*
X57285090Y1709209D02*
X56485090Y1709209D01*
X57285090Y1467305D02*
X56485090Y1467305D01*
X57285090Y1177019D02*
X56827947Y1394734D01*
X56485090Y1177019D02*
X56942233Y1467305D01*
X66995090Y3015590D02*
X66995090Y3257495D01*
X66995090Y3257495D02*
X66195090Y3257495D01*
X66956995Y2870448D02*
X66995090Y2797876D01*
X66995090Y2797876D02*
X66995090Y2676924D01*
X66995090Y2676924D02*
X66956995Y2628543D01*
X66956995Y2628543D02*
X66918899Y2604352D01*
X66918899Y2604352D02*
X66842709Y2580162D01*
X66842709Y2580162D02*
X66766518Y2580162D01*
X66766518Y2580162D02*
X66690328Y2604352D01*
X66690328Y2604352D02*
X66652233Y2628543D01*
X66652233Y2628543D02*
X66614137Y2676924D01*
X66614137Y2676924D02*
X66576042Y2773686D01*
X66576042Y2773686D02*
X66537947Y2822067D01*
X66537947Y2822067D02*
X66499852Y2846257D01*
X66499852Y2846257D02*
X66423661Y2870448D01*
X66423661Y2870448D02*
X66347471Y2870448D01*
X66347471Y2870448D02*
X66271280Y2846257D01*
X66271280Y2846257D02*
X66233185Y2822067D01*
X66233185Y2822067D02*
X66195090Y2773686D01*
X66195090Y2773686D02*
X66195090Y2652733D01*
X66195090Y2652733D02*
X66233185Y2580162D01*
X66195090Y2362447D02*
X66842709Y2362447D01*
X66842709Y2362447D02*
X66918899Y2338257D01*
X66918899Y2338257D02*
X66956995Y2314066D01*
X66956995Y2314066D02*
X66995090Y2265685D01*
X66995090Y2265685D02*
X66995090Y2168923D01*
X66995090Y2168923D02*
X66956995Y2120542D01*
X66956995Y2120542D02*
X66918899Y2096352D01*
X66918899Y2096352D02*
X66842709Y2072161D01*
X66842709Y2072161D02*
X66195090Y2072161D01*
X67071280Y1951209D02*
X67071280Y1564162D01*
X66195090Y1443209D02*
X66842709Y1443209D01*
X66842709Y1443209D02*
X66918899Y1419019D01*
X66918899Y1419019D02*
X66956995Y1394828D01*
X66956995Y1394828D02*
X66995090Y1346447D01*
X66995090Y1346447D02*
X66995090Y1249685D01*
X66995090Y1249685D02*
X66956995Y1201304D01*
X66956995Y1201304D02*
X66918899Y1177114D01*
X66918899Y1177114D02*
X66842709Y1152923D01*
X66842709Y1152923D02*
X66195090Y1152923D01*
X79165090Y5377495D02*
X78365090Y5377495D01*
X78403185Y4869495D02*
X78365090Y4917876D01*
X78365090Y4917876D02*
X78365090Y4990447D01*
X78365090Y4990447D02*
X78403185Y5063019D01*
X78403185Y5063019D02*
X78479375Y5111400D01*
X78479375Y5111400D02*
X78555566Y5135590D01*
X78555566Y5135590D02*
X78707947Y5159781D01*
X78707947Y5159781D02*
X78822233Y5159781D01*
X78822233Y5159781D02*
X78974614Y5135590D01*
X78974614Y5135590D02*
X79050804Y5111400D01*
X79050804Y5111400D02*
X79126995Y5063019D01*
X79126995Y5063019D02*
X79165090Y4990447D01*
X79165090Y4990447D02*
X79165090Y4942066D01*
X79165090Y4942066D02*
X79126995Y4869495D01*
X79126995Y4869495D02*
X79088899Y4845304D01*
X79088899Y4845304D02*
X78822233Y4845304D01*
X78822233Y4845304D02*
X78822233Y4942066D01*
X79165090Y4627590D02*
X78365090Y4627590D01*
X78365090Y4627590D02*
X79165090Y4337304D01*
X79165090Y4337304D02*
X78365090Y4337304D01*
X78365090Y4143781D02*
X78365090Y3829305D01*
X78365090Y3829305D02*
X78669852Y3998638D01*
X78669852Y3998638D02*
X78669852Y3926067D01*
X78669852Y3926067D02*
X78707947Y3877686D01*
X78707947Y3877686D02*
X78746042Y3853495D01*
X78746042Y3853495D02*
X78822233Y3829305D01*
X78822233Y3829305D02*
X79012709Y3829305D01*
X79012709Y3829305D02*
X79088899Y3853495D01*
X79088899Y3853495D02*
X79126995Y3877686D01*
X79126995Y3877686D02*
X79165090Y3926067D01*
X79165090Y3926067D02*
X79165090Y4071210D01*
X79165090Y4071210D02*
X79126995Y4119591D01*
X79126995Y4119591D02*
X79088899Y4143781D01*
X58785090Y19710067D02*
X58785090Y19419781D01*
X59585090Y19564924D02*
X58785090Y19564924D01*
X59356518Y19274638D02*
X59356518Y19032733D01*
X59585090Y19323019D02*
X58785090Y19153685D01*
X58785090Y19153685D02*
X59585090Y18984352D01*
X59508899Y18524732D02*
X59546995Y18548923D01*
X59546995Y18548923D02*
X59585090Y18621494D01*
X59585090Y18621494D02*
X59585090Y18669875D01*
X59585090Y18669875D02*
X59546995Y18742447D01*
X59546995Y18742447D02*
X59470804Y18790828D01*
X59470804Y18790828D02*
X59394614Y18815018D01*
X59394614Y18815018D02*
X59242233Y18839209D01*
X59242233Y18839209D02*
X59127947Y18839209D01*
X59127947Y18839209D02*
X58975566Y18815018D01*
X58975566Y18815018D02*
X58899375Y18790828D01*
X58899375Y18790828D02*
X58823185Y18742447D01*
X58823185Y18742447D02*
X58785090Y18669875D01*
X58785090Y18669875D02*
X58785090Y18621494D01*
X58785090Y18621494D02*
X58823185Y18548923D01*
X58823185Y18548923D02*
X58861280Y18524732D01*
X59585090Y18307018D02*
X58785090Y18307018D01*
X59166042Y18307018D02*
X59166042Y18016732D01*
X59585090Y18016732D02*
X58785090Y18016732D01*
X64465090Y5765590D02*
X64465090Y6007495D01*
X64465090Y6007495D02*
X63665090Y6007495D01*
X64426995Y5620448D02*
X64465090Y5547876D01*
X64465090Y5547876D02*
X64465090Y5426924D01*
X64465090Y5426924D02*
X64426995Y5378543D01*
X64426995Y5378543D02*
X64388899Y5354352D01*
X64388899Y5354352D02*
X64312709Y5330162D01*
X64312709Y5330162D02*
X64236518Y5330162D01*
X64236518Y5330162D02*
X64160328Y5354352D01*
X64160328Y5354352D02*
X64122233Y5378543D01*
X64122233Y5378543D02*
X64084137Y5426924D01*
X64084137Y5426924D02*
X64046042Y5523686D01*
X64046042Y5523686D02*
X64007947Y5572067D01*
X64007947Y5572067D02*
X63969852Y5596257D01*
X63969852Y5596257D02*
X63893661Y5620448D01*
X63893661Y5620448D02*
X63817471Y5620448D01*
X63817471Y5620448D02*
X63741280Y5596257D01*
X63741280Y5596257D02*
X63703185Y5572067D01*
X63703185Y5572067D02*
X63665090Y5523686D01*
X63665090Y5523686D02*
X63665090Y5402733D01*
X63665090Y5402733D02*
X63703185Y5330162D01*
X63665090Y5112447D02*
X64312709Y5112447D01*
X64312709Y5112447D02*
X64388899Y5088257D01*
X64388899Y5088257D02*
X64426995Y5064066D01*
X64426995Y5064066D02*
X64465090Y5015685D01*
X64465090Y5015685D02*
X64465090Y4918923D01*
X64465090Y4918923D02*
X64426995Y4870542D01*
X64426995Y4870542D02*
X64388899Y4846352D01*
X64388899Y4846352D02*
X64312709Y4822161D01*
X64312709Y4822161D02*
X63665090Y4822161D01*
X64541280Y4701209D02*
X64541280Y4314162D01*
X64465090Y4193209D02*
X63665090Y4193209D01*
X64046042Y4193209D02*
X64046042Y3902923D01*
X64465090Y3902923D02*
X63665090Y3902923D01*
X74753185Y19051400D02*
X74715090Y19099781D01*
X74715090Y19099781D02*
X74715090Y19172352D01*
X74715090Y19172352D02*
X74753185Y19244924D01*
X74753185Y19244924D02*
X74829375Y19293305D01*
X74829375Y19293305D02*
X74905566Y19317495D01*
X74905566Y19317495D02*
X75057947Y19341686D01*
X75057947Y19341686D02*
X75172233Y19341686D01*
X75172233Y19341686D02*
X75324614Y19317495D01*
X75324614Y19317495D02*
X75400804Y19293305D01*
X75400804Y19293305D02*
X75476995Y19244924D01*
X75476995Y19244924D02*
X75515090Y19172352D01*
X75515090Y19172352D02*
X75515090Y19123971D01*
X75515090Y19123971D02*
X75476995Y19051400D01*
X75476995Y19051400D02*
X75438899Y19027209D01*
X75438899Y19027209D02*
X75172233Y19027209D01*
X75172233Y19027209D02*
X75172233Y19123971D01*
X75515090Y18809495D02*
X74715090Y18809495D01*
X74715090Y18809495D02*
X75515090Y18519209D01*
X75515090Y18519209D02*
X74715090Y18519209D01*
X75515090Y18277305D02*
X74715090Y18277305D01*
X74715090Y18277305D02*
X74715090Y18156353D01*
X74715090Y18156353D02*
X74753185Y18083781D01*
X74753185Y18083781D02*
X74829375Y18035400D01*
X74829375Y18035400D02*
X74905566Y18011210D01*
X74905566Y18011210D02*
X75057947Y17987019D01*
X75057947Y17987019D02*
X75172233Y17987019D01*
X75172233Y17987019D02*
X75324614Y18011210D01*
X75324614Y18011210D02*
X75400804Y18035400D01*
X75400804Y18035400D02*
X75476995Y18083781D01*
X75476995Y18083781D02*
X75515090Y18156353D01*
X75515090Y18156353D02*
X75515090Y18277305D01*
X69565090Y18891400D02*
X69565090Y19181686D01*
X69565090Y19036543D02*
X68765090Y19036543D01*
X68765090Y19036543D02*
X68879375Y19084924D01*
X68879375Y19084924D02*
X68955566Y19133305D01*
X68955566Y19133305D02*
X68993661Y19181686D01*
X68841280Y18697876D02*
X68803185Y18673685D01*
X68803185Y18673685D02*
X68765090Y18625304D01*
X68765090Y18625304D02*
X68765090Y18504352D01*
X68765090Y18504352D02*
X68803185Y18455971D01*
X68803185Y18455971D02*
X68841280Y18431780D01*
X68841280Y18431780D02*
X68917471Y18407590D01*
X68917471Y18407590D02*
X68993661Y18407590D01*
X68993661Y18407590D02*
X69107947Y18431780D01*
X69107947Y18431780D02*
X69565090Y18722066D01*
X69565090Y18722066D02*
X69565090Y18407590D01*
X68765090Y18262447D02*
X69565090Y18093113D01*
X69565090Y18093113D02*
X68765090Y17923780D01*
X49003185Y2711400D02*
X48965090Y2759781D01*
X48965090Y2759781D02*
X48965090Y2832352D01*
X48965090Y2832352D02*
X49003185Y2904924D01*
X49003185Y2904924D02*
X49079375Y2953305D01*
X49079375Y2953305D02*
X49155566Y2977495D01*
X49155566Y2977495D02*
X49307947Y3001686D01*
X49307947Y3001686D02*
X49422233Y3001686D01*
X49422233Y3001686D02*
X49574614Y2977495D01*
X49574614Y2977495D02*
X49650804Y2953305D01*
X49650804Y2953305D02*
X49726995Y2904924D01*
X49726995Y2904924D02*
X49765090Y2832352D01*
X49765090Y2832352D02*
X49765090Y2783971D01*
X49765090Y2783971D02*
X49726995Y2711400D01*
X49726995Y2711400D02*
X49688899Y2687209D01*
X49688899Y2687209D02*
X49422233Y2687209D01*
X49422233Y2687209D02*
X49422233Y2783971D01*
X49765090Y2469495D02*
X48965090Y2469495D01*
X48965090Y2469495D02*
X49765090Y2179209D01*
X49765090Y2179209D02*
X48965090Y2179209D01*
X49765090Y1937305D02*
X48965090Y1937305D01*
X48965090Y1937305D02*
X48965090Y1816353D01*
X48965090Y1816353D02*
X49003185Y1743781D01*
X49003185Y1743781D02*
X49079375Y1695400D01*
X49079375Y1695400D02*
X49155566Y1671210D01*
X49155566Y1671210D02*
X49307947Y1647019D01*
X49307947Y1647019D02*
X49422233Y1647019D01*
X49422233Y1647019D02*
X49574614Y1671210D01*
X49574614Y1671210D02*
X49650804Y1695400D01*
X49650804Y1695400D02*
X49726995Y1743781D01*
X49726995Y1743781D02*
X49765090Y1816353D01*
X49765090Y1816353D02*
X49765090Y1937305D01*
X49536518Y1453496D02*
X49536518Y1211591D01*
X49765090Y1501877D02*
X48965090Y1332543D01*
X48965090Y1332543D02*
X49765090Y1163210D01*
D11*
X120866069Y50336192D02*
X121139402Y50726668D01*
X121334640Y50336192D02*
X121334640Y51156192D01*
X121334640Y51156192D02*
X121022259Y51156192D01*
X121022259Y51156192D02*
X120944164Y51117144D01*
X120944164Y51117144D02*
X120905117Y51078097D01*
X120905117Y51078097D02*
X120866069Y51000001D01*
X120866069Y51000001D02*
X120866069Y50882859D01*
X120866069Y50882859D02*
X120905117Y50804763D01*
X120905117Y50804763D02*
X120944164Y50765716D01*
X120944164Y50765716D02*
X121022259Y50726668D01*
X121022259Y50726668D02*
X121334640Y50726668D01*
X120475593Y50336192D02*
X120319402Y50336192D01*
X120319402Y50336192D02*
X120241307Y50375239D01*
X120241307Y50375239D02*
X120202259Y50414287D01*
X120202259Y50414287D02*
X120124164Y50531430D01*
X120124164Y50531430D02*
X120085117Y50687620D01*
X120085117Y50687620D02*
X120085117Y51000001D01*
X120085117Y51000001D02*
X120124164Y51078097D01*
X120124164Y51078097D02*
X120163212Y51117144D01*
X120163212Y51117144D02*
X120241307Y51156192D01*
X120241307Y51156192D02*
X120397498Y51156192D01*
X120397498Y51156192D02*
X120475593Y51117144D01*
X120475593Y51117144D02*
X120514640Y51078097D01*
X120514640Y51078097D02*
X120553688Y51000001D01*
X120553688Y51000001D02*
X120553688Y50804763D01*
X120553688Y50804763D02*
X120514640Y50726668D01*
X120514640Y50726668D02*
X120475593Y50687620D01*
X120475593Y50687620D02*
X120397498Y50648573D01*
X120397498Y50648573D02*
X120241307Y50648573D01*
X120241307Y50648573D02*
X120163212Y50687620D01*
X120163212Y50687620D02*
X120124164Y50726668D01*
X120124164Y50726668D02*
X120085117Y50804763D01*
X119577498Y51156192D02*
X119499403Y51156192D01*
X119499403Y51156192D02*
X119421307Y51117144D01*
X119421307Y51117144D02*
X119382260Y51078097D01*
X119382260Y51078097D02*
X119343212Y51000001D01*
X119343212Y51000001D02*
X119304165Y50843811D01*
X119304165Y50843811D02*
X119304165Y50648573D01*
X119304165Y50648573D02*
X119343212Y50492382D01*
X119343212Y50492382D02*
X119382260Y50414287D01*
X119382260Y50414287D02*
X119421307Y50375239D01*
X119421307Y50375239D02*
X119499403Y50336192D01*
X119499403Y50336192D02*
X119577498Y50336192D01*
X119577498Y50336192D02*
X119655593Y50375239D01*
X119655593Y50375239D02*
X119694641Y50414287D01*
X119694641Y50414287D02*
X119733688Y50492382D01*
X119733688Y50492382D02*
X119772736Y50648573D01*
X119772736Y50648573D02*
X119772736Y50843811D01*
X119772736Y50843811D02*
X119733688Y51000001D01*
X119733688Y51000001D02*
X119694641Y51078097D01*
X119694641Y51078097D02*
X119655593Y51117144D01*
X119655593Y51117144D02*
X119577498Y51156192D01*
X118601308Y51156192D02*
X118757498Y51156192D01*
X118757498Y51156192D02*
X118835594Y51117144D01*
X118835594Y51117144D02*
X118874641Y51078097D01*
X118874641Y51078097D02*
X118952736Y50960954D01*
X118952736Y50960954D02*
X118991784Y50804763D01*
X118991784Y50804763D02*
X118991784Y50492382D01*
X118991784Y50492382D02*
X118952736Y50414287D01*
X118952736Y50414287D02*
X118913689Y50375239D01*
X118913689Y50375239D02*
X118835594Y50336192D01*
X118835594Y50336192D02*
X118679403Y50336192D01*
X118679403Y50336192D02*
X118601308Y50375239D01*
X118601308Y50375239D02*
X118562260Y50414287D01*
X118562260Y50414287D02*
X118523213Y50492382D01*
X118523213Y50492382D02*
X118523213Y50687620D01*
X118523213Y50687620D02*
X118562260Y50765716D01*
X118562260Y50765716D02*
X118601308Y50804763D01*
X118601308Y50804763D02*
X118679403Y50843811D01*
X118679403Y50843811D02*
X118835594Y50843811D01*
X118835594Y50843811D02*
X118913689Y50804763D01*
X118913689Y50804763D02*
X118952736Y50765716D01*
X118952736Y50765716D02*
X118991784Y50687620D01*
X109994348Y35389192D02*
X110267681Y35779668D01*
X110462919Y35389192D02*
X110462919Y36209192D01*
X110462919Y36209192D02*
X110150538Y36209192D01*
X110150538Y36209192D02*
X110072443Y36170144D01*
X110072443Y36170144D02*
X110033396Y36131097D01*
X110033396Y36131097D02*
X109994348Y36053001D01*
X109994348Y36053001D02*
X109994348Y35935859D01*
X109994348Y35935859D02*
X110033396Y35857763D01*
X110033396Y35857763D02*
X110072443Y35818716D01*
X110072443Y35818716D02*
X110150538Y35779668D01*
X110150538Y35779668D02*
X110462919Y35779668D01*
X109603872Y35389192D02*
X109447681Y35389192D01*
X109447681Y35389192D02*
X109369586Y35428239D01*
X109369586Y35428239D02*
X109330538Y35467287D01*
X109330538Y35467287D02*
X109252443Y35584430D01*
X109252443Y35584430D02*
X109213396Y35740620D01*
X109213396Y35740620D02*
X109213396Y36053001D01*
X109213396Y36053001D02*
X109252443Y36131097D01*
X109252443Y36131097D02*
X109291491Y36170144D01*
X109291491Y36170144D02*
X109369586Y36209192D01*
X109369586Y36209192D02*
X109525777Y36209192D01*
X109525777Y36209192D02*
X109603872Y36170144D01*
X109603872Y36170144D02*
X109642919Y36131097D01*
X109642919Y36131097D02*
X109681967Y36053001D01*
X109681967Y36053001D02*
X109681967Y35857763D01*
X109681967Y35857763D02*
X109642919Y35779668D01*
X109642919Y35779668D02*
X109603872Y35740620D01*
X109603872Y35740620D02*
X109525777Y35701573D01*
X109525777Y35701573D02*
X109369586Y35701573D01*
X109369586Y35701573D02*
X109291491Y35740620D01*
X109291491Y35740620D02*
X109252443Y35779668D01*
X109252443Y35779668D02*
X109213396Y35857763D01*
X108705777Y36209192D02*
X108627682Y36209192D01*
X108627682Y36209192D02*
X108549586Y36170144D01*
X108549586Y36170144D02*
X108510539Y36131097D01*
X108510539Y36131097D02*
X108471491Y36053001D01*
X108471491Y36053001D02*
X108432444Y35896811D01*
X108432444Y35896811D02*
X108432444Y35701573D01*
X108432444Y35701573D02*
X108471491Y35545382D01*
X108471491Y35545382D02*
X108510539Y35467287D01*
X108510539Y35467287D02*
X108549586Y35428239D01*
X108549586Y35428239D02*
X108627682Y35389192D01*
X108627682Y35389192D02*
X108705777Y35389192D01*
X108705777Y35389192D02*
X108783872Y35428239D01*
X108783872Y35428239D02*
X108822920Y35467287D01*
X108822920Y35467287D02*
X108861967Y35545382D01*
X108861967Y35545382D02*
X108901015Y35701573D01*
X108901015Y35701573D02*
X108901015Y35896811D01*
X108901015Y35896811D02*
X108861967Y36053001D01*
X108861967Y36053001D02*
X108822920Y36131097D01*
X108822920Y36131097D02*
X108783872Y36170144D01*
X108783872Y36170144D02*
X108705777Y36209192D01*
X108159111Y36209192D02*
X107651492Y36209192D01*
X107651492Y36209192D02*
X107924825Y35896811D01*
X107924825Y35896811D02*
X107807682Y35896811D01*
X107807682Y35896811D02*
X107729587Y35857763D01*
X107729587Y35857763D02*
X107690539Y35818716D01*
X107690539Y35818716D02*
X107651492Y35740620D01*
X107651492Y35740620D02*
X107651492Y35545382D01*
X107651492Y35545382D02*
X107690539Y35467287D01*
X107690539Y35467287D02*
X107729587Y35428239D01*
X107729587Y35428239D02*
X107807682Y35389192D01*
X107807682Y35389192D02*
X108041968Y35389192D01*
X108041968Y35389192D02*
X108120063Y35428239D01*
X108120063Y35428239D02*
X108159111Y35467287D01*
X84595191Y99461652D02*
X84985667Y99188319D01*
X84595191Y98993081D02*
X85415191Y98993081D01*
X85415191Y98993081D02*
X85415191Y99305462D01*
X85415191Y99305462D02*
X85376143Y99383557D01*
X85376143Y99383557D02*
X85337096Y99422604D01*
X85337096Y99422604D02*
X85259000Y99461652D01*
X85259000Y99461652D02*
X85141858Y99461652D01*
X85141858Y99461652D02*
X85063762Y99422604D01*
X85063762Y99422604D02*
X85024715Y99383557D01*
X85024715Y99383557D02*
X84985667Y99305462D01*
X84985667Y99305462D02*
X84985667Y98993081D01*
X85141858Y100164508D02*
X84595191Y100164508D01*
X85454239Y99969270D02*
X84868524Y99774032D01*
X84868524Y99774032D02*
X84868524Y100281651D01*
X85415191Y100750222D02*
X85415191Y100828317D01*
X85415191Y100828317D02*
X85376143Y100906413D01*
X85376143Y100906413D02*
X85337096Y100945460D01*
X85337096Y100945460D02*
X85259000Y100984508D01*
X85259000Y100984508D02*
X85102810Y101023555D01*
X85102810Y101023555D02*
X84907572Y101023555D01*
X84907572Y101023555D02*
X84751381Y100984508D01*
X84751381Y100984508D02*
X84673286Y100945460D01*
X84673286Y100945460D02*
X84634239Y100906413D01*
X84634239Y100906413D02*
X84595191Y100828317D01*
X84595191Y100828317D02*
X84595191Y100750222D01*
X84595191Y100750222D02*
X84634239Y100672127D01*
X84634239Y100672127D02*
X84673286Y100633079D01*
X84673286Y100633079D02*
X84751381Y100594032D01*
X84751381Y100594032D02*
X84907572Y100554984D01*
X84907572Y100554984D02*
X85102810Y100554984D01*
X85102810Y100554984D02*
X85259000Y100594032D01*
X85259000Y100594032D02*
X85337096Y100633079D01*
X85337096Y100633079D02*
X85376143Y100672127D01*
X85376143Y100672127D02*
X85415191Y100750222D01*
X85141858Y101726412D02*
X84595191Y101726412D01*
X85454239Y101531174D02*
X84868524Y101335936D01*
X84868524Y101335936D02*
X84868524Y101843555D01*
X81652191Y99244652D02*
X82042667Y98971319D01*
X81652191Y98776081D02*
X82472191Y98776081D01*
X82472191Y98776081D02*
X82472191Y99088462D01*
X82472191Y99088462D02*
X82433143Y99166557D01*
X82433143Y99166557D02*
X82394096Y99205604D01*
X82394096Y99205604D02*
X82316000Y99244652D01*
X82316000Y99244652D02*
X82198858Y99244652D01*
X82198858Y99244652D02*
X82120762Y99205604D01*
X82120762Y99205604D02*
X82081715Y99166557D01*
X82081715Y99166557D02*
X82042667Y99088462D01*
X82042667Y99088462D02*
X82042667Y98776081D01*
X82198858Y99947508D02*
X81652191Y99947508D01*
X82511239Y99752270D02*
X81925524Y99557032D01*
X81925524Y99557032D02*
X81925524Y100064651D01*
X82472191Y100533222D02*
X82472191Y100611317D01*
X82472191Y100611317D02*
X82433143Y100689413D01*
X82433143Y100689413D02*
X82394096Y100728460D01*
X82394096Y100728460D02*
X82316000Y100767508D01*
X82316000Y100767508D02*
X82159810Y100806555D01*
X82159810Y100806555D02*
X81964572Y100806555D01*
X81964572Y100806555D02*
X81808381Y100767508D01*
X81808381Y100767508D02*
X81730286Y100728460D01*
X81730286Y100728460D02*
X81691239Y100689413D01*
X81691239Y100689413D02*
X81652191Y100611317D01*
X81652191Y100611317D02*
X81652191Y100533222D01*
X81652191Y100533222D02*
X81691239Y100455127D01*
X81691239Y100455127D02*
X81730286Y100416079D01*
X81730286Y100416079D02*
X81808381Y100377032D01*
X81808381Y100377032D02*
X81964572Y100337984D01*
X81964572Y100337984D02*
X82159810Y100337984D01*
X82159810Y100337984D02*
X82316000Y100377032D01*
X82316000Y100377032D02*
X82394096Y100416079D01*
X82394096Y100416079D02*
X82433143Y100455127D01*
X82433143Y100455127D02*
X82472191Y100533222D01*
X82472191Y101509412D02*
X82472191Y101353222D01*
X82472191Y101353222D02*
X82433143Y101275126D01*
X82433143Y101275126D02*
X82394096Y101236079D01*
X82394096Y101236079D02*
X82276953Y101157984D01*
X82276953Y101157984D02*
X82120762Y101118936D01*
X82120762Y101118936D02*
X81808381Y101118936D01*
X81808381Y101118936D02*
X81730286Y101157984D01*
X81730286Y101157984D02*
X81691239Y101197031D01*
X81691239Y101197031D02*
X81652191Y101275126D01*
X81652191Y101275126D02*
X81652191Y101431317D01*
X81652191Y101431317D02*
X81691239Y101509412D01*
X81691239Y101509412D02*
X81730286Y101548460D01*
X81730286Y101548460D02*
X81808381Y101587507D01*
X81808381Y101587507D02*
X82003619Y101587507D01*
X82003619Y101587507D02*
X82081715Y101548460D01*
X82081715Y101548460D02*
X82120762Y101509412D01*
X82120762Y101509412D02*
X82159810Y101431317D01*
X82159810Y101431317D02*
X82159810Y101275126D01*
X82159810Y101275126D02*
X82120762Y101197031D01*
X82120762Y101197031D02*
X82081715Y101157984D01*
X82081715Y101157984D02*
X82003619Y101118936D01*
X99367348Y65797192D02*
X99640681Y66187668D01*
X99835919Y65797192D02*
X99835919Y66617192D01*
X99835919Y66617192D02*
X99523538Y66617192D01*
X99523538Y66617192D02*
X99445443Y66578144D01*
X99445443Y66578144D02*
X99406396Y66539097D01*
X99406396Y66539097D02*
X99367348Y66461001D01*
X99367348Y66461001D02*
X99367348Y66343859D01*
X99367348Y66343859D02*
X99406396Y66265763D01*
X99406396Y66265763D02*
X99445443Y66226716D01*
X99445443Y66226716D02*
X99523538Y66187668D01*
X99523538Y66187668D02*
X99835919Y66187668D01*
X98976872Y65797192D02*
X98820681Y65797192D01*
X98820681Y65797192D02*
X98742586Y65836239D01*
X98742586Y65836239D02*
X98703538Y65875287D01*
X98703538Y65875287D02*
X98625443Y65992430D01*
X98625443Y65992430D02*
X98586396Y66148620D01*
X98586396Y66148620D02*
X98586396Y66461001D01*
X98586396Y66461001D02*
X98625443Y66539097D01*
X98625443Y66539097D02*
X98664491Y66578144D01*
X98664491Y66578144D02*
X98742586Y66617192D01*
X98742586Y66617192D02*
X98898777Y66617192D01*
X98898777Y66617192D02*
X98976872Y66578144D01*
X98976872Y66578144D02*
X99015919Y66539097D01*
X99015919Y66539097D02*
X99054967Y66461001D01*
X99054967Y66461001D02*
X99054967Y66265763D01*
X99054967Y66265763D02*
X99015919Y66187668D01*
X99015919Y66187668D02*
X98976872Y66148620D01*
X98976872Y66148620D02*
X98898777Y66109573D01*
X98898777Y66109573D02*
X98742586Y66109573D01*
X98742586Y66109573D02*
X98664491Y66148620D01*
X98664491Y66148620D02*
X98625443Y66187668D01*
X98625443Y66187668D02*
X98586396Y66265763D01*
X98078777Y66617192D02*
X98000682Y66617192D01*
X98000682Y66617192D02*
X97922586Y66578144D01*
X97922586Y66578144D02*
X97883539Y66539097D01*
X97883539Y66539097D02*
X97844491Y66461001D01*
X97844491Y66461001D02*
X97805444Y66304811D01*
X97805444Y66304811D02*
X97805444Y66109573D01*
X97805444Y66109573D02*
X97844491Y65953382D01*
X97844491Y65953382D02*
X97883539Y65875287D01*
X97883539Y65875287D02*
X97922586Y65836239D01*
X97922586Y65836239D02*
X98000682Y65797192D01*
X98000682Y65797192D02*
X98078777Y65797192D01*
X98078777Y65797192D02*
X98156872Y65836239D01*
X98156872Y65836239D02*
X98195920Y65875287D01*
X98195920Y65875287D02*
X98234967Y65953382D01*
X98234967Y65953382D02*
X98274015Y66109573D01*
X98274015Y66109573D02*
X98274015Y66304811D01*
X98274015Y66304811D02*
X98234967Y66461001D01*
X98234967Y66461001D02*
X98195920Y66539097D01*
X98195920Y66539097D02*
X98156872Y66578144D01*
X98156872Y66578144D02*
X98078777Y66617192D01*
X97063539Y66617192D02*
X97454015Y66617192D01*
X97454015Y66617192D02*
X97493063Y66226716D01*
X97493063Y66226716D02*
X97454015Y66265763D01*
X97454015Y66265763D02*
X97375920Y66304811D01*
X97375920Y66304811D02*
X97180682Y66304811D01*
X97180682Y66304811D02*
X97102587Y66265763D01*
X97102587Y66265763D02*
X97063539Y66226716D01*
X97063539Y66226716D02*
X97024492Y66148620D01*
X97024492Y66148620D02*
X97024492Y65953382D01*
X97024492Y65953382D02*
X97063539Y65875287D01*
X97063539Y65875287D02*
X97102587Y65836239D01*
X97102587Y65836239D02*
X97180682Y65797192D01*
X97180682Y65797192D02*
X97375920Y65797192D01*
X97375920Y65797192D02*
X97454015Y65836239D01*
X97454015Y65836239D02*
X97493063Y65875287D01*
X99558348Y34680192D02*
X99831681Y35070668D01*
X100026919Y34680192D02*
X100026919Y35500192D01*
X100026919Y35500192D02*
X99714538Y35500192D01*
X99714538Y35500192D02*
X99636443Y35461144D01*
X99636443Y35461144D02*
X99597396Y35422097D01*
X99597396Y35422097D02*
X99558348Y35344001D01*
X99558348Y35344001D02*
X99558348Y35226859D01*
X99558348Y35226859D02*
X99597396Y35148763D01*
X99597396Y35148763D02*
X99636443Y35109716D01*
X99636443Y35109716D02*
X99714538Y35070668D01*
X99714538Y35070668D02*
X100026919Y35070668D01*
X99167872Y34680192D02*
X99011681Y34680192D01*
X99011681Y34680192D02*
X98933586Y34719239D01*
X98933586Y34719239D02*
X98894538Y34758287D01*
X98894538Y34758287D02*
X98816443Y34875430D01*
X98816443Y34875430D02*
X98777396Y35031620D01*
X98777396Y35031620D02*
X98777396Y35344001D01*
X98777396Y35344001D02*
X98816443Y35422097D01*
X98816443Y35422097D02*
X98855491Y35461144D01*
X98855491Y35461144D02*
X98933586Y35500192D01*
X98933586Y35500192D02*
X99089777Y35500192D01*
X99089777Y35500192D02*
X99167872Y35461144D01*
X99167872Y35461144D02*
X99206919Y35422097D01*
X99206919Y35422097D02*
X99245967Y35344001D01*
X99245967Y35344001D02*
X99245967Y35148763D01*
X99245967Y35148763D02*
X99206919Y35070668D01*
X99206919Y35070668D02*
X99167872Y35031620D01*
X99167872Y35031620D02*
X99089777Y34992573D01*
X99089777Y34992573D02*
X98933586Y34992573D01*
X98933586Y34992573D02*
X98855491Y35031620D01*
X98855491Y35031620D02*
X98816443Y35070668D01*
X98816443Y35070668D02*
X98777396Y35148763D01*
X97996444Y34680192D02*
X98465015Y34680192D01*
X98230729Y34680192D02*
X98230729Y35500192D01*
X98230729Y35500192D02*
X98308825Y35383049D01*
X98308825Y35383049D02*
X98386920Y35304954D01*
X98386920Y35304954D02*
X98465015Y35265906D01*
X97723111Y35500192D02*
X97215492Y35500192D01*
X97215492Y35500192D02*
X97488825Y35187811D01*
X97488825Y35187811D02*
X97371682Y35187811D01*
X97371682Y35187811D02*
X97293587Y35148763D01*
X97293587Y35148763D02*
X97254539Y35109716D01*
X97254539Y35109716D02*
X97215492Y35031620D01*
X97215492Y35031620D02*
X97215492Y34836382D01*
X97215492Y34836382D02*
X97254539Y34758287D01*
X97254539Y34758287D02*
X97293587Y34719239D01*
X97293587Y34719239D02*
X97371682Y34680192D01*
X97371682Y34680192D02*
X97605968Y34680192D01*
X97605968Y34680192D02*
X97684063Y34719239D01*
X97684063Y34719239D02*
X97723111Y34758287D01*
X120532627Y66152192D02*
X120805960Y66542668D01*
X121001198Y66152192D02*
X121001198Y66972192D01*
X121001198Y66972192D02*
X120688817Y66972192D01*
X120688817Y66972192D02*
X120610722Y66933144D01*
X120610722Y66933144D02*
X120571675Y66894097D01*
X120571675Y66894097D02*
X120532627Y66816001D01*
X120532627Y66816001D02*
X120532627Y66698859D01*
X120532627Y66698859D02*
X120571675Y66620763D01*
X120571675Y66620763D02*
X120610722Y66581716D01*
X120610722Y66581716D02*
X120688817Y66542668D01*
X120688817Y66542668D02*
X121001198Y66542668D01*
X120142151Y66152192D02*
X119985960Y66152192D01*
X119985960Y66152192D02*
X119907865Y66191239D01*
X119907865Y66191239D02*
X119868817Y66230287D01*
X119868817Y66230287D02*
X119790722Y66347430D01*
X119790722Y66347430D02*
X119751675Y66503620D01*
X119751675Y66503620D02*
X119751675Y66816001D01*
X119751675Y66816001D02*
X119790722Y66894097D01*
X119790722Y66894097D02*
X119829770Y66933144D01*
X119829770Y66933144D02*
X119907865Y66972192D01*
X119907865Y66972192D02*
X120064056Y66972192D01*
X120064056Y66972192D02*
X120142151Y66933144D01*
X120142151Y66933144D02*
X120181198Y66894097D01*
X120181198Y66894097D02*
X120220246Y66816001D01*
X120220246Y66816001D02*
X120220246Y66620763D01*
X120220246Y66620763D02*
X120181198Y66542668D01*
X120181198Y66542668D02*
X120142151Y66503620D01*
X120142151Y66503620D02*
X120064056Y66464573D01*
X120064056Y66464573D02*
X119907865Y66464573D01*
X119907865Y66464573D02*
X119829770Y66503620D01*
X119829770Y66503620D02*
X119790722Y66542668D01*
X119790722Y66542668D02*
X119751675Y66620763D01*
X119244056Y66972192D02*
X119165961Y66972192D01*
X119165961Y66972192D02*
X119087865Y66933144D01*
X119087865Y66933144D02*
X119048818Y66894097D01*
X119048818Y66894097D02*
X119009770Y66816001D01*
X119009770Y66816001D02*
X118970723Y66659811D01*
X118970723Y66659811D02*
X118970723Y66464573D01*
X118970723Y66464573D02*
X119009770Y66308382D01*
X119009770Y66308382D02*
X119048818Y66230287D01*
X119048818Y66230287D02*
X119087865Y66191239D01*
X119087865Y66191239D02*
X119165961Y66152192D01*
X119165961Y66152192D02*
X119244056Y66152192D01*
X119244056Y66152192D02*
X119322151Y66191239D01*
X119322151Y66191239D02*
X119361199Y66230287D01*
X119361199Y66230287D02*
X119400246Y66308382D01*
X119400246Y66308382D02*
X119439294Y66464573D01*
X119439294Y66464573D02*
X119439294Y66659811D01*
X119439294Y66659811D02*
X119400246Y66816001D01*
X119400246Y66816001D02*
X119361199Y66894097D01*
X119361199Y66894097D02*
X119322151Y66933144D01*
X119322151Y66933144D02*
X119244056Y66972192D01*
X118267866Y66698859D02*
X118267866Y66152192D01*
X118463104Y67011239D02*
X118658342Y66425525D01*
X118658342Y66425525D02*
X118150723Y66425525D01*
X86307191Y99596651D02*
X86697667Y99323319D01*
X86307191Y99128081D02*
X87127191Y99128081D01*
X87127191Y99128081D02*
X87127191Y99440462D01*
X87127191Y99440462D02*
X87088143Y99518556D01*
X87088143Y99518556D02*
X87049096Y99557603D01*
X87049096Y99557603D02*
X86971000Y99596651D01*
X86971000Y99596651D02*
X86853858Y99596651D01*
X86853858Y99596651D02*
X86775762Y99557603D01*
X86775762Y99557603D02*
X86736715Y99518556D01*
X86736715Y99518556D02*
X86697667Y99440462D01*
X86697667Y99440462D02*
X86697667Y99128081D01*
X86853858Y100299508D02*
X86307191Y100299508D01*
X87166239Y100104270D02*
X86580524Y99909032D01*
X86580524Y99909032D02*
X86580524Y100416651D01*
X87127191Y100885222D02*
X87127191Y100963317D01*
X87127191Y100963317D02*
X87088143Y101041413D01*
X87088143Y101041413D02*
X87049096Y101080460D01*
X87049096Y101080460D02*
X86971000Y101119508D01*
X86971000Y101119508D02*
X86814810Y101158555D01*
X86814810Y101158555D02*
X86619572Y101158555D01*
X86619572Y101158555D02*
X86463381Y101119508D01*
X86463381Y101119508D02*
X86385286Y101080460D01*
X86385286Y101080460D02*
X86346239Y101041413D01*
X86346239Y101041413D02*
X86307191Y100963317D01*
X86307191Y100963317D02*
X86307191Y100885222D01*
X86307191Y100885222D02*
X86346239Y100807127D01*
X86346239Y100807127D02*
X86385286Y100768079D01*
X86385286Y100768079D02*
X86463381Y100729032D01*
X86463381Y100729032D02*
X86619572Y100689984D01*
X86619572Y100689984D02*
X86814810Y100689984D01*
X86814810Y100689984D02*
X86971000Y100729032D01*
X86971000Y100729032D02*
X87049096Y100768079D01*
X87049096Y100768079D02*
X87088143Y100807127D01*
X87088143Y100807127D02*
X87127191Y100885222D01*
X87127191Y101431888D02*
X87127191Y101939507D01*
X87127191Y101939507D02*
X86814810Y101666174D01*
X86814810Y101666174D02*
X86814810Y101783317D01*
X86814810Y101783317D02*
X86775762Y101861412D01*
X86775762Y101861412D02*
X86736715Y101900460D01*
X86736715Y101900460D02*
X86658619Y101939507D01*
X86658619Y101939507D02*
X86463381Y101939507D01*
X86463381Y101939507D02*
X86385286Y101900460D01*
X86385286Y101900460D02*
X86346239Y101861412D01*
X86346239Y101861412D02*
X86307191Y101783317D01*
X86307191Y101783317D02*
X86307191Y101549031D01*
X86307191Y101549031D02*
X86346239Y101470936D01*
X86346239Y101470936D02*
X86385286Y101431888D01*
X110206069Y50434120D02*
X110479402Y50824596D01*
X110674640Y50434120D02*
X110674640Y51254120D01*
X110674640Y51254120D02*
X110362259Y51254120D01*
X110362259Y51254120D02*
X110284164Y51215072D01*
X110284164Y51215072D02*
X110245117Y51176025D01*
X110245117Y51176025D02*
X110206069Y51097929D01*
X110206069Y51097929D02*
X110206069Y50980787D01*
X110206069Y50980787D02*
X110245117Y50902691D01*
X110245117Y50902691D02*
X110284164Y50863644D01*
X110284164Y50863644D02*
X110362259Y50824596D01*
X110362259Y50824596D02*
X110674640Y50824596D01*
X109815593Y50434120D02*
X109659402Y50434120D01*
X109659402Y50434120D02*
X109581307Y50473167D01*
X109581307Y50473167D02*
X109542259Y50512215D01*
X109542259Y50512215D02*
X109464164Y50629358D01*
X109464164Y50629358D02*
X109425117Y50785548D01*
X109425117Y50785548D02*
X109425117Y51097929D01*
X109425117Y51097929D02*
X109464164Y51176025D01*
X109464164Y51176025D02*
X109503212Y51215072D01*
X109503212Y51215072D02*
X109581307Y51254120D01*
X109581307Y51254120D02*
X109737498Y51254120D01*
X109737498Y51254120D02*
X109815593Y51215072D01*
X109815593Y51215072D02*
X109854640Y51176025D01*
X109854640Y51176025D02*
X109893688Y51097929D01*
X109893688Y51097929D02*
X109893688Y50902691D01*
X109893688Y50902691D02*
X109854640Y50824596D01*
X109854640Y50824596D02*
X109815593Y50785548D01*
X109815593Y50785548D02*
X109737498Y50746501D01*
X109737498Y50746501D02*
X109581307Y50746501D01*
X109581307Y50746501D02*
X109503212Y50785548D01*
X109503212Y50785548D02*
X109464164Y50824596D01*
X109464164Y50824596D02*
X109425117Y50902691D01*
X108644165Y50434120D02*
X109112736Y50434120D01*
X108878450Y50434120D02*
X108878450Y51254120D01*
X108878450Y51254120D02*
X108956546Y51136977D01*
X108956546Y51136977D02*
X109034641Y51058882D01*
X109034641Y51058882D02*
X109112736Y51019834D01*
X107863213Y50434120D02*
X108331784Y50434120D01*
X108097498Y50434120D02*
X108097498Y51254120D01*
X108097498Y51254120D02*
X108175594Y51136977D01*
X108175594Y51136977D02*
X108253689Y51058882D01*
X108253689Y51058882D02*
X108331784Y51019834D01*
X88994348Y81179192D02*
X89267681Y81569668D01*
X89462919Y81179192D02*
X89462919Y81999192D01*
X89462919Y81999192D02*
X89150538Y81999192D01*
X89150538Y81999192D02*
X89072443Y81960144D01*
X89072443Y81960144D02*
X89033396Y81921097D01*
X89033396Y81921097D02*
X88994348Y81843001D01*
X88994348Y81843001D02*
X88994348Y81725859D01*
X88994348Y81725859D02*
X89033396Y81647763D01*
X89033396Y81647763D02*
X89072443Y81608716D01*
X89072443Y81608716D02*
X89150538Y81569668D01*
X89150538Y81569668D02*
X89462919Y81569668D01*
X88603872Y81179192D02*
X88447681Y81179192D01*
X88447681Y81179192D02*
X88369586Y81218239D01*
X88369586Y81218239D02*
X88330538Y81257287D01*
X88330538Y81257287D02*
X88252443Y81374430D01*
X88252443Y81374430D02*
X88213396Y81530620D01*
X88213396Y81530620D02*
X88213396Y81843001D01*
X88213396Y81843001D02*
X88252443Y81921097D01*
X88252443Y81921097D02*
X88291491Y81960144D01*
X88291491Y81960144D02*
X88369586Y81999192D01*
X88369586Y81999192D02*
X88525777Y81999192D01*
X88525777Y81999192D02*
X88603872Y81960144D01*
X88603872Y81960144D02*
X88642919Y81921097D01*
X88642919Y81921097D02*
X88681967Y81843001D01*
X88681967Y81843001D02*
X88681967Y81647763D01*
X88681967Y81647763D02*
X88642919Y81569668D01*
X88642919Y81569668D02*
X88603872Y81530620D01*
X88603872Y81530620D02*
X88525777Y81491573D01*
X88525777Y81491573D02*
X88369586Y81491573D01*
X88369586Y81491573D02*
X88291491Y81530620D01*
X88291491Y81530620D02*
X88252443Y81569668D01*
X88252443Y81569668D02*
X88213396Y81647763D01*
X87432444Y81179192D02*
X87901015Y81179192D01*
X87666729Y81179192D02*
X87666729Y81999192D01*
X87666729Y81999192D02*
X87744825Y81882049D01*
X87744825Y81882049D02*
X87822920Y81803954D01*
X87822920Y81803954D02*
X87901015Y81764906D01*
X86729587Y81999192D02*
X86885777Y81999192D01*
X86885777Y81999192D02*
X86963873Y81960144D01*
X86963873Y81960144D02*
X87002920Y81921097D01*
X87002920Y81921097D02*
X87081015Y81803954D01*
X87081015Y81803954D02*
X87120063Y81647763D01*
X87120063Y81647763D02*
X87120063Y81335382D01*
X87120063Y81335382D02*
X87081015Y81257287D01*
X87081015Y81257287D02*
X87041968Y81218239D01*
X87041968Y81218239D02*
X86963873Y81179192D01*
X86963873Y81179192D02*
X86807682Y81179192D01*
X86807682Y81179192D02*
X86729587Y81218239D01*
X86729587Y81218239D02*
X86690539Y81257287D01*
X86690539Y81257287D02*
X86651492Y81335382D01*
X86651492Y81335382D02*
X86651492Y81530620D01*
X86651492Y81530620D02*
X86690539Y81608716D01*
X86690539Y81608716D02*
X86729587Y81647763D01*
X86729587Y81647763D02*
X86807682Y81686811D01*
X86807682Y81686811D02*
X86963873Y81686811D01*
X86963873Y81686811D02*
X87041968Y81647763D01*
X87041968Y81647763D02*
X87081015Y81608716D01*
X87081015Y81608716D02*
X87120063Y81530620D01*
X110084348Y81299192D02*
X110357681Y81689668D01*
X110552919Y81299192D02*
X110552919Y82119192D01*
X110552919Y82119192D02*
X110240538Y82119192D01*
X110240538Y82119192D02*
X110162443Y82080144D01*
X110162443Y82080144D02*
X110123396Y82041097D01*
X110123396Y82041097D02*
X110084348Y81963001D01*
X110084348Y81963001D02*
X110084348Y81845859D01*
X110084348Y81845859D02*
X110123396Y81767763D01*
X110123396Y81767763D02*
X110162443Y81728716D01*
X110162443Y81728716D02*
X110240538Y81689668D01*
X110240538Y81689668D02*
X110552919Y81689668D01*
X109693872Y81299192D02*
X109537681Y81299192D01*
X109537681Y81299192D02*
X109459586Y81338239D01*
X109459586Y81338239D02*
X109420538Y81377287D01*
X109420538Y81377287D02*
X109342443Y81494430D01*
X109342443Y81494430D02*
X109303396Y81650620D01*
X109303396Y81650620D02*
X109303396Y81963001D01*
X109303396Y81963001D02*
X109342443Y82041097D01*
X109342443Y82041097D02*
X109381491Y82080144D01*
X109381491Y82080144D02*
X109459586Y82119192D01*
X109459586Y82119192D02*
X109615777Y82119192D01*
X109615777Y82119192D02*
X109693872Y82080144D01*
X109693872Y82080144D02*
X109732919Y82041097D01*
X109732919Y82041097D02*
X109771967Y81963001D01*
X109771967Y81963001D02*
X109771967Y81767763D01*
X109771967Y81767763D02*
X109732919Y81689668D01*
X109732919Y81689668D02*
X109693872Y81650620D01*
X109693872Y81650620D02*
X109615777Y81611573D01*
X109615777Y81611573D02*
X109459586Y81611573D01*
X109459586Y81611573D02*
X109381491Y81650620D01*
X109381491Y81650620D02*
X109342443Y81689668D01*
X109342443Y81689668D02*
X109303396Y81767763D01*
X108522444Y81299192D02*
X108991015Y81299192D01*
X108756729Y81299192D02*
X108756729Y82119192D01*
X108756729Y82119192D02*
X108834825Y82002049D01*
X108834825Y82002049D02*
X108912920Y81923954D01*
X108912920Y81923954D02*
X108991015Y81884906D01*
X108210063Y82041097D02*
X108171015Y82080144D01*
X108171015Y82080144D02*
X108092920Y82119192D01*
X108092920Y82119192D02*
X107897682Y82119192D01*
X107897682Y82119192D02*
X107819587Y82080144D01*
X107819587Y82080144D02*
X107780539Y82041097D01*
X107780539Y82041097D02*
X107741492Y81963001D01*
X107741492Y81963001D02*
X107741492Y81884906D01*
X107741492Y81884906D02*
X107780539Y81767763D01*
X107780539Y81767763D02*
X108249111Y81299192D01*
X108249111Y81299192D02*
X107741492Y81299192D01*
X99857348Y49989192D02*
X100130681Y50379668D01*
X100325919Y49989192D02*
X100325919Y50809192D01*
X100325919Y50809192D02*
X100013538Y50809192D01*
X100013538Y50809192D02*
X99935443Y50770144D01*
X99935443Y50770144D02*
X99896396Y50731097D01*
X99896396Y50731097D02*
X99857348Y50653001D01*
X99857348Y50653001D02*
X99857348Y50535859D01*
X99857348Y50535859D02*
X99896396Y50457763D01*
X99896396Y50457763D02*
X99935443Y50418716D01*
X99935443Y50418716D02*
X100013538Y50379668D01*
X100013538Y50379668D02*
X100325919Y50379668D01*
X99466872Y49989192D02*
X99310681Y49989192D01*
X99310681Y49989192D02*
X99232586Y50028239D01*
X99232586Y50028239D02*
X99193538Y50067287D01*
X99193538Y50067287D02*
X99115443Y50184430D01*
X99115443Y50184430D02*
X99076396Y50340620D01*
X99076396Y50340620D02*
X99076396Y50653001D01*
X99076396Y50653001D02*
X99115443Y50731097D01*
X99115443Y50731097D02*
X99154491Y50770144D01*
X99154491Y50770144D02*
X99232586Y50809192D01*
X99232586Y50809192D02*
X99388777Y50809192D01*
X99388777Y50809192D02*
X99466872Y50770144D01*
X99466872Y50770144D02*
X99505919Y50731097D01*
X99505919Y50731097D02*
X99544967Y50653001D01*
X99544967Y50653001D02*
X99544967Y50457763D01*
X99544967Y50457763D02*
X99505919Y50379668D01*
X99505919Y50379668D02*
X99466872Y50340620D01*
X99466872Y50340620D02*
X99388777Y50301573D01*
X99388777Y50301573D02*
X99232586Y50301573D01*
X99232586Y50301573D02*
X99154491Y50340620D01*
X99154491Y50340620D02*
X99115443Y50379668D01*
X99115443Y50379668D02*
X99076396Y50457763D01*
X98295444Y49989192D02*
X98764015Y49989192D01*
X98529729Y49989192D02*
X98529729Y50809192D01*
X98529729Y50809192D02*
X98607825Y50692049D01*
X98607825Y50692049D02*
X98685920Y50613954D01*
X98685920Y50613954D02*
X98764015Y50574906D01*
X97553539Y50809192D02*
X97944015Y50809192D01*
X97944015Y50809192D02*
X97983063Y50418716D01*
X97983063Y50418716D02*
X97944015Y50457763D01*
X97944015Y50457763D02*
X97865920Y50496811D01*
X97865920Y50496811D02*
X97670682Y50496811D01*
X97670682Y50496811D02*
X97592587Y50457763D01*
X97592587Y50457763D02*
X97553539Y50418716D01*
X97553539Y50418716D02*
X97514492Y50340620D01*
X97514492Y50340620D02*
X97514492Y50145382D01*
X97514492Y50145382D02*
X97553539Y50067287D01*
X97553539Y50067287D02*
X97592587Y50028239D01*
X97592587Y50028239D02*
X97670682Y49989192D01*
X97670682Y49989192D02*
X97865920Y49989192D01*
X97865920Y49989192D02*
X97944015Y50028239D01*
X97944015Y50028239D02*
X97983063Y50067287D01*
X88831191Y99501651D02*
X89221667Y99228319D01*
X88831191Y99033081D02*
X89651191Y99033081D01*
X89651191Y99033081D02*
X89651191Y99345462D01*
X89651191Y99345462D02*
X89612143Y99423557D01*
X89612143Y99423557D02*
X89573096Y99462604D01*
X89573096Y99462604D02*
X89495000Y99501651D01*
X89495000Y99501651D02*
X89377858Y99501651D01*
X89377858Y99501651D02*
X89299762Y99462604D01*
X89299762Y99462604D02*
X89260715Y99423557D01*
X89260715Y99423557D02*
X89221667Y99345462D01*
X89221667Y99345462D02*
X89221667Y99033081D01*
X89377858Y100204508D02*
X88831191Y100204508D01*
X89690239Y100009270D02*
X89104524Y99814032D01*
X89104524Y99814032D02*
X89104524Y100321651D01*
X89651191Y100790222D02*
X89651191Y100868317D01*
X89651191Y100868317D02*
X89612143Y100946413D01*
X89612143Y100946413D02*
X89573096Y100985460D01*
X89573096Y100985460D02*
X89495000Y101024508D01*
X89495000Y101024508D02*
X89338810Y101063555D01*
X89338810Y101063555D02*
X89143572Y101063555D01*
X89143572Y101063555D02*
X88987381Y101024508D01*
X88987381Y101024508D02*
X88909286Y100985460D01*
X88909286Y100985460D02*
X88870239Y100946413D01*
X88870239Y100946413D02*
X88831191Y100868317D01*
X88831191Y100868317D02*
X88831191Y100790222D01*
X88831191Y100790222D02*
X88870239Y100712127D01*
X88870239Y100712127D02*
X88909286Y100673079D01*
X88909286Y100673079D02*
X88987381Y100634032D01*
X88987381Y100634032D02*
X89143572Y100594984D01*
X89143572Y100594984D02*
X89338810Y100594984D01*
X89338810Y100594984D02*
X89495000Y100634032D01*
X89495000Y100634032D02*
X89573096Y100673079D01*
X89573096Y100673079D02*
X89612143Y100712127D01*
X89612143Y100712127D02*
X89651191Y100790222D01*
X88831191Y101844507D02*
X88831191Y101375936D01*
X88831191Y101610222D02*
X89651191Y101610222D01*
X89651191Y101610222D02*
X89534048Y101532126D01*
X89534048Y101532126D02*
X89455953Y101454031D01*
X89455953Y101454031D02*
X89416905Y101375936D01*
X83173263Y99410652D02*
X83563739Y99137319D01*
X83173263Y98942081D02*
X83993263Y98942081D01*
X83993263Y98942081D02*
X83993263Y99254462D01*
X83993263Y99254462D02*
X83954215Y99332557D01*
X83954215Y99332557D02*
X83915168Y99371604D01*
X83915168Y99371604D02*
X83837072Y99410652D01*
X83837072Y99410652D02*
X83719930Y99410652D01*
X83719930Y99410652D02*
X83641834Y99371604D01*
X83641834Y99371604D02*
X83602787Y99332557D01*
X83602787Y99332557D02*
X83563739Y99254462D01*
X83563739Y99254462D02*
X83563739Y98942081D01*
X83719930Y100113508D02*
X83173263Y100113508D01*
X84032311Y99918270D02*
X83446596Y99723032D01*
X83446596Y99723032D02*
X83446596Y100230651D01*
X83993263Y100699222D02*
X83993263Y100777317D01*
X83993263Y100777317D02*
X83954215Y100855413D01*
X83954215Y100855413D02*
X83915168Y100894460D01*
X83915168Y100894460D02*
X83837072Y100933508D01*
X83837072Y100933508D02*
X83680882Y100972555D01*
X83680882Y100972555D02*
X83485644Y100972555D01*
X83485644Y100972555D02*
X83329453Y100933508D01*
X83329453Y100933508D02*
X83251358Y100894460D01*
X83251358Y100894460D02*
X83212311Y100855413D01*
X83212311Y100855413D02*
X83173263Y100777317D01*
X83173263Y100777317D02*
X83173263Y100699222D01*
X83173263Y100699222D02*
X83212311Y100621127D01*
X83212311Y100621127D02*
X83251358Y100582079D01*
X83251358Y100582079D02*
X83329453Y100543032D01*
X83329453Y100543032D02*
X83485644Y100503984D01*
X83485644Y100503984D02*
X83680882Y100503984D01*
X83680882Y100503984D02*
X83837072Y100543032D01*
X83837072Y100543032D02*
X83915168Y100582079D01*
X83915168Y100582079D02*
X83954215Y100621127D01*
X83954215Y100621127D02*
X83993263Y100699222D01*
X83993263Y101714460D02*
X83993263Y101323984D01*
X83993263Y101323984D02*
X83602787Y101284936D01*
X83602787Y101284936D02*
X83641834Y101323984D01*
X83641834Y101323984D02*
X83680882Y101402079D01*
X83680882Y101402079D02*
X83680882Y101597317D01*
X83680882Y101597317D02*
X83641834Y101675412D01*
X83641834Y101675412D02*
X83602787Y101714460D01*
X83602787Y101714460D02*
X83524691Y101753507D01*
X83524691Y101753507D02*
X83329453Y101753507D01*
X83329453Y101753507D02*
X83251358Y101714460D01*
X83251358Y101714460D02*
X83212311Y101675412D01*
X83212311Y101675412D02*
X83173263Y101597317D01*
X83173263Y101597317D02*
X83173263Y101402079D01*
X83173263Y101402079D02*
X83212311Y101323984D01*
X83212311Y101323984D02*
X83251358Y101284936D01*
X120654348Y35289192D02*
X120927681Y35679668D01*
X121122919Y35289192D02*
X121122919Y36109192D01*
X121122919Y36109192D02*
X120810538Y36109192D01*
X120810538Y36109192D02*
X120732443Y36070144D01*
X120732443Y36070144D02*
X120693396Y36031097D01*
X120693396Y36031097D02*
X120654348Y35953001D01*
X120654348Y35953001D02*
X120654348Y35835859D01*
X120654348Y35835859D02*
X120693396Y35757763D01*
X120693396Y35757763D02*
X120732443Y35718716D01*
X120732443Y35718716D02*
X120810538Y35679668D01*
X120810538Y35679668D02*
X121122919Y35679668D01*
X120263872Y35289192D02*
X120107681Y35289192D01*
X120107681Y35289192D02*
X120029586Y35328239D01*
X120029586Y35328239D02*
X119990538Y35367287D01*
X119990538Y35367287D02*
X119912443Y35484430D01*
X119912443Y35484430D02*
X119873396Y35640620D01*
X119873396Y35640620D02*
X119873396Y35953001D01*
X119873396Y35953001D02*
X119912443Y36031097D01*
X119912443Y36031097D02*
X119951491Y36070144D01*
X119951491Y36070144D02*
X120029586Y36109192D01*
X120029586Y36109192D02*
X120185777Y36109192D01*
X120185777Y36109192D02*
X120263872Y36070144D01*
X120263872Y36070144D02*
X120302919Y36031097D01*
X120302919Y36031097D02*
X120341967Y35953001D01*
X120341967Y35953001D02*
X120341967Y35757763D01*
X120341967Y35757763D02*
X120302919Y35679668D01*
X120302919Y35679668D02*
X120263872Y35640620D01*
X120263872Y35640620D02*
X120185777Y35601573D01*
X120185777Y35601573D02*
X120029586Y35601573D01*
X120029586Y35601573D02*
X119951491Y35640620D01*
X119951491Y35640620D02*
X119912443Y35679668D01*
X119912443Y35679668D02*
X119873396Y35757763D01*
X119365777Y36109192D02*
X119287682Y36109192D01*
X119287682Y36109192D02*
X119209586Y36070144D01*
X119209586Y36070144D02*
X119170539Y36031097D01*
X119170539Y36031097D02*
X119131491Y35953001D01*
X119131491Y35953001D02*
X119092444Y35796811D01*
X119092444Y35796811D02*
X119092444Y35601573D01*
X119092444Y35601573D02*
X119131491Y35445382D01*
X119131491Y35445382D02*
X119170539Y35367287D01*
X119170539Y35367287D02*
X119209586Y35328239D01*
X119209586Y35328239D02*
X119287682Y35289192D01*
X119287682Y35289192D02*
X119365777Y35289192D01*
X119365777Y35289192D02*
X119443872Y35328239D01*
X119443872Y35328239D02*
X119482920Y35367287D01*
X119482920Y35367287D02*
X119521967Y35445382D01*
X119521967Y35445382D02*
X119561015Y35601573D01*
X119561015Y35601573D02*
X119561015Y35796811D01*
X119561015Y35796811D02*
X119521967Y35953001D01*
X119521967Y35953001D02*
X119482920Y36031097D01*
X119482920Y36031097D02*
X119443872Y36070144D01*
X119443872Y36070144D02*
X119365777Y36109192D01*
X118780063Y36031097D02*
X118741015Y36070144D01*
X118741015Y36070144D02*
X118662920Y36109192D01*
X118662920Y36109192D02*
X118467682Y36109192D01*
X118467682Y36109192D02*
X118389587Y36070144D01*
X118389587Y36070144D02*
X118350539Y36031097D01*
X118350539Y36031097D02*
X118311492Y35953001D01*
X118311492Y35953001D02*
X118311492Y35874906D01*
X118311492Y35874906D02*
X118350539Y35757763D01*
X118350539Y35757763D02*
X118819111Y35289192D01*
X118819111Y35289192D02*
X118311492Y35289192D01*
X90240191Y99512651D02*
X90630667Y99239319D01*
X90240191Y99044081D02*
X91060191Y99044081D01*
X91060191Y99044081D02*
X91060191Y99356462D01*
X91060191Y99356462D02*
X91021143Y99434557D01*
X91021143Y99434557D02*
X90982096Y99473604D01*
X90982096Y99473604D02*
X90904000Y99512651D01*
X90904000Y99512651D02*
X90786858Y99512651D01*
X90786858Y99512651D02*
X90708762Y99473604D01*
X90708762Y99473604D02*
X90669715Y99434557D01*
X90669715Y99434557D02*
X90630667Y99356462D01*
X90630667Y99356462D02*
X90630667Y99044081D01*
X90786858Y100215508D02*
X90240191Y100215508D01*
X91099239Y100020270D02*
X90513524Y99825032D01*
X90513524Y99825032D02*
X90513524Y100332651D01*
X91060191Y100801222D02*
X91060191Y100879317D01*
X91060191Y100879317D02*
X91021143Y100957413D01*
X91021143Y100957413D02*
X90982096Y100996460D01*
X90982096Y100996460D02*
X90904000Y101035508D01*
X90904000Y101035508D02*
X90747810Y101074555D01*
X90747810Y101074555D02*
X90552572Y101074555D01*
X90552572Y101074555D02*
X90396381Y101035508D01*
X90396381Y101035508D02*
X90318286Y100996460D01*
X90318286Y100996460D02*
X90279239Y100957413D01*
X90279239Y100957413D02*
X90240191Y100879317D01*
X90240191Y100879317D02*
X90240191Y100801222D01*
X90240191Y100801222D02*
X90279239Y100723127D01*
X90279239Y100723127D02*
X90318286Y100684079D01*
X90318286Y100684079D02*
X90396381Y100645032D01*
X90396381Y100645032D02*
X90552572Y100605984D01*
X90552572Y100605984D02*
X90747810Y100605984D01*
X90747810Y100605984D02*
X90904000Y100645032D01*
X90904000Y100645032D02*
X90982096Y100684079D01*
X90982096Y100684079D02*
X91021143Y100723127D01*
X91021143Y100723127D02*
X91060191Y100801222D01*
X90982096Y101386936D02*
X91021143Y101425984D01*
X91021143Y101425984D02*
X91060191Y101504079D01*
X91060191Y101504079D02*
X91060191Y101699317D01*
X91060191Y101699317D02*
X91021143Y101777412D01*
X91021143Y101777412D02*
X90982096Y101816460D01*
X90982096Y101816460D02*
X90904000Y101855507D01*
X90904000Y101855507D02*
X90825905Y101855507D01*
X90825905Y101855507D02*
X90708762Y101816460D01*
X90708762Y101816460D02*
X90240191Y101347888D01*
X90240191Y101347888D02*
X90240191Y101855507D01*
X99724348Y81199192D02*
X99997681Y81589668D01*
X100192919Y81199192D02*
X100192919Y82019192D01*
X100192919Y82019192D02*
X99880538Y82019192D01*
X99880538Y82019192D02*
X99802443Y81980144D01*
X99802443Y81980144D02*
X99763396Y81941097D01*
X99763396Y81941097D02*
X99724348Y81863001D01*
X99724348Y81863001D02*
X99724348Y81745859D01*
X99724348Y81745859D02*
X99763396Y81667763D01*
X99763396Y81667763D02*
X99802443Y81628716D01*
X99802443Y81628716D02*
X99880538Y81589668D01*
X99880538Y81589668D02*
X100192919Y81589668D01*
X99333872Y81199192D02*
X99177681Y81199192D01*
X99177681Y81199192D02*
X99099586Y81238239D01*
X99099586Y81238239D02*
X99060538Y81277287D01*
X99060538Y81277287D02*
X98982443Y81394430D01*
X98982443Y81394430D02*
X98943396Y81550620D01*
X98943396Y81550620D02*
X98943396Y81863001D01*
X98943396Y81863001D02*
X98982443Y81941097D01*
X98982443Y81941097D02*
X99021491Y81980144D01*
X99021491Y81980144D02*
X99099586Y82019192D01*
X99099586Y82019192D02*
X99255777Y82019192D01*
X99255777Y82019192D02*
X99333872Y81980144D01*
X99333872Y81980144D02*
X99372919Y81941097D01*
X99372919Y81941097D02*
X99411967Y81863001D01*
X99411967Y81863001D02*
X99411967Y81667763D01*
X99411967Y81667763D02*
X99372919Y81589668D01*
X99372919Y81589668D02*
X99333872Y81550620D01*
X99333872Y81550620D02*
X99255777Y81511573D01*
X99255777Y81511573D02*
X99099586Y81511573D01*
X99099586Y81511573D02*
X99021491Y81550620D01*
X99021491Y81550620D02*
X98982443Y81589668D01*
X98982443Y81589668D02*
X98943396Y81667763D01*
X98162444Y81199192D02*
X98631015Y81199192D01*
X98396729Y81199192D02*
X98396729Y82019192D01*
X98396729Y82019192D02*
X98474825Y81902049D01*
X98474825Y81902049D02*
X98552920Y81823954D01*
X98552920Y81823954D02*
X98631015Y81784906D01*
X97459587Y81745859D02*
X97459587Y81199192D01*
X97654825Y82058239D02*
X97850063Y81472525D01*
X97850063Y81472525D02*
X97342444Y81472525D01*
X120744348Y81199192D02*
X121017681Y81589668D01*
X121212919Y81199192D02*
X121212919Y82019192D01*
X121212919Y82019192D02*
X120900538Y82019192D01*
X120900538Y82019192D02*
X120822443Y81980144D01*
X120822443Y81980144D02*
X120783396Y81941097D01*
X120783396Y81941097D02*
X120744348Y81863001D01*
X120744348Y81863001D02*
X120744348Y81745859D01*
X120744348Y81745859D02*
X120783396Y81667763D01*
X120783396Y81667763D02*
X120822443Y81628716D01*
X120822443Y81628716D02*
X120900538Y81589668D01*
X120900538Y81589668D02*
X121212919Y81589668D01*
X120353872Y81199192D02*
X120197681Y81199192D01*
X120197681Y81199192D02*
X120119586Y81238239D01*
X120119586Y81238239D02*
X120080538Y81277287D01*
X120080538Y81277287D02*
X120002443Y81394430D01*
X120002443Y81394430D02*
X119963396Y81550620D01*
X119963396Y81550620D02*
X119963396Y81863001D01*
X119963396Y81863001D02*
X120002443Y81941097D01*
X120002443Y81941097D02*
X120041491Y81980144D01*
X120041491Y81980144D02*
X120119586Y82019192D01*
X120119586Y82019192D02*
X120275777Y82019192D01*
X120275777Y82019192D02*
X120353872Y81980144D01*
X120353872Y81980144D02*
X120392919Y81941097D01*
X120392919Y81941097D02*
X120431967Y81863001D01*
X120431967Y81863001D02*
X120431967Y81667763D01*
X120431967Y81667763D02*
X120392919Y81589668D01*
X120392919Y81589668D02*
X120353872Y81550620D01*
X120353872Y81550620D02*
X120275777Y81511573D01*
X120275777Y81511573D02*
X120119586Y81511573D01*
X120119586Y81511573D02*
X120041491Y81550620D01*
X120041491Y81550620D02*
X120002443Y81589668D01*
X120002443Y81589668D02*
X119963396Y81667763D01*
X119455777Y82019192D02*
X119377682Y82019192D01*
X119377682Y82019192D02*
X119299586Y81980144D01*
X119299586Y81980144D02*
X119260539Y81941097D01*
X119260539Y81941097D02*
X119221491Y81863001D01*
X119221491Y81863001D02*
X119182444Y81706811D01*
X119182444Y81706811D02*
X119182444Y81511573D01*
X119182444Y81511573D02*
X119221491Y81355382D01*
X119221491Y81355382D02*
X119260539Y81277287D01*
X119260539Y81277287D02*
X119299586Y81238239D01*
X119299586Y81238239D02*
X119377682Y81199192D01*
X119377682Y81199192D02*
X119455777Y81199192D01*
X119455777Y81199192D02*
X119533872Y81238239D01*
X119533872Y81238239D02*
X119572920Y81277287D01*
X119572920Y81277287D02*
X119611967Y81355382D01*
X119611967Y81355382D02*
X119651015Y81511573D01*
X119651015Y81511573D02*
X119651015Y81706811D01*
X119651015Y81706811D02*
X119611967Y81863001D01*
X119611967Y81863001D02*
X119572920Y81941097D01*
X119572920Y81941097D02*
X119533872Y81980144D01*
X119533872Y81980144D02*
X119455777Y82019192D01*
X118401492Y81199192D02*
X118870063Y81199192D01*
X118635777Y81199192D02*
X118635777Y82019192D01*
X118635777Y82019192D02*
X118713873Y81902049D01*
X118713873Y81902049D02*
X118791968Y81823954D01*
X118791968Y81823954D02*
X118870063Y81784906D01*
G04 #@! TO.C,M5*
D12*
X18879000Y10757000D02*
X4979000Y10757000D01*
X4979000Y38257000D01*
X18879000Y38257000D01*
X18879000Y10757000D01*
G04 #@! TO.C,M9*
X26914998Y100614996D02*
X67715001Y100614996D01*
X26914998Y60714997D02*
X26914998Y100614996D01*
X26914998Y60714997D02*
X69014998Y60714997D01*
X67715001Y100614996D02*
X69015001Y100614996D01*
X69014998Y60714997D02*
X69015001Y100614996D01*
G04 #@! TO.C,M1*
X50839747Y25197400D02*
X50839747Y24897402D01*
X50839749Y44047402D02*
X50839744Y42497402D01*
X50839749Y40497400D02*
X50839749Y39397397D01*
X50839749Y37797402D02*
X50839749Y35097402D01*
X50839749Y31597400D02*
X50839749Y26797400D01*
X66139746Y24897404D02*
X50839747Y24897402D01*
X67639746Y45497402D02*
X52239746Y45497402D01*
X67639746Y45497402D02*
X67639746Y45197402D01*
X67639746Y43597402D02*
X67639746Y33197400D01*
X67639746Y31497402D02*
X67639746Y28297399D01*
D13*
G04 #@! TO.C,F10*
X70749000Y29949010D02*
X70749000Y25099010D01*
X72749000Y29949010D02*
X72749000Y25099010D01*
X70749000Y29999010D02*
G75*
G02*
X72749000Y29999010I1000000J0D01*
G01*
X72749000Y25099010D02*
G75*
G02*
X70749000Y25099010I-1000000J0D01*
G01*
D12*
G04 #@! TO.C,M4*
X77897272Y87665647D02*
X77897272Y93403997D01*
X78258920Y87303999D02*
X77897272Y87665647D01*
X78495981Y93403997D02*
X77897272Y93403997D01*
X78495981Y93403997D02*
X79245982Y94153998D01*
X79245982Y94153998D02*
X79245982Y95153999D01*
X91320601Y87303999D02*
X78258920Y87303999D01*
X91320601Y87303999D02*
X91570600Y87553999D01*
X91320982Y95153999D02*
X79245982Y95153999D01*
X91570600Y94904380D02*
X91320982Y95153999D01*
X91570600Y87553999D02*
X91570600Y94904380D01*
G04 #@! TO.C,M7*
X74820001Y73325060D02*
X75181649Y73686708D01*
X74820001Y60263379D02*
X74820001Y73325060D01*
X74820001Y60263379D02*
X75070001Y60013380D01*
X75070001Y60013380D02*
X82420382Y60013380D01*
X75181649Y73686708D02*
X80919999Y73686708D01*
X80919999Y73087999D02*
X80919999Y73686708D01*
X80919999Y73087999D02*
X81670000Y72337998D01*
X81670000Y72337998D02*
X82670001Y72337998D01*
X82420382Y60013380D02*
X82670001Y60262998D01*
X82670001Y60262998D02*
X82670001Y72337998D01*
G04 #@! TO.C,M6*
X2871510Y72738499D02*
X2832663Y83913499D01*
X8569332Y72738499D02*
X2871510Y72738499D01*
X8569332Y72738499D02*
X8844338Y73013503D01*
X9669337Y73013503D02*
X8844338Y73013503D01*
X9669337Y73013503D02*
X9719337Y73069705D01*
X9719337Y73069705D02*
X9719337Y83913499D01*
X9725540Y83913499D02*
X2832663Y83913499D01*
G04 #@! TO.C,M8*
X21529216Y37770242D02*
X21529216Y23370242D01*
X21529216Y23370242D02*
X27929216Y23370242D01*
X31129216Y38370242D02*
X26029216Y38370242D01*
X31129216Y23370242D02*
X29829216Y23370242D01*
X31129216Y23370242D02*
X31129216Y38370242D01*
G04 #@! TO.C,M3*
X32739997Y23661000D02*
X32739997Y32761000D01*
X35840000Y23661000D02*
X34839998Y23661000D01*
X35840000Y23661000D02*
X35840000Y32761000D01*
D14*
G04 #@! TO.C,R906*
X119821721Y48911985D02*
X120221721Y48911995D01*
X119822778Y48166149D02*
X120222777Y48166160D01*
G04 #@! TO.C,R903*
X108950000Y33964985D02*
X109350000Y33964995D01*
X108951057Y33219149D02*
X109351056Y33219160D01*
G04 #@! TO.C,R404*
X84437149Y97511943D02*
X84437160Y97111944D01*
X85182985Y97513000D02*
X85182995Y97113000D01*
G04 #@! TO.C,R406*
X81691149Y97359943D02*
X81691160Y96959944D01*
X82436985Y97361000D02*
X82436995Y96961000D01*
G04 #@! TO.C,R905*
X98323000Y64372985D02*
X98723000Y64372995D01*
X98324057Y63627149D02*
X98724056Y63627160D01*
G04 #@! TO.C,R913*
X98514000Y33255985D02*
X98914000Y33255995D01*
X98515057Y32510149D02*
X98915056Y32510160D01*
G04 #@! TO.C,R904*
X119488279Y64727985D02*
X119888279Y64727995D01*
X119489336Y63982149D02*
X119889335Y63982160D01*
G04 #@! TO.C,R403*
X86234149Y97511943D02*
X86234160Y97111944D01*
X86979985Y97513000D02*
X86979995Y97113000D01*
G04 #@! TO.C,R911*
X109161721Y49009913D02*
X109561721Y49009923D01*
X109162778Y48264077D02*
X109562777Y48264088D01*
G04 #@! TO.C,R916*
X87950000Y79754985D02*
X88350000Y79754995D01*
X87951057Y79009149D02*
X88351056Y79009160D01*
G04 #@! TO.C,R912*
X109040000Y79874985D02*
X109440000Y79874995D01*
X109041057Y79129149D02*
X109441056Y79129160D01*
G04 #@! TO.C,R915*
X98813000Y48564985D02*
X99213000Y48564995D01*
X98814057Y47819149D02*
X99214056Y47819160D01*
G04 #@! TO.C,R401*
X88591149Y97511943D02*
X88591160Y97111944D01*
X89336985Y97513000D02*
X89336995Y97113000D01*
D15*
G04 #@! TO.C,G\u002A\u002A\u002A*
G36*
X44127119Y107708284D02*
G01*
X44112054Y107693219D01*
X44096989Y107708284D01*
X44112054Y107723350D01*
X44127119Y107708284D01*
G37*
G36*
X45844557Y105870325D02*
G01*
X45829492Y105855260D01*
X45814427Y105870325D01*
X45829492Y105885390D01*
X45844557Y105870325D01*
G37*
G36*
X45995210Y106563326D02*
G01*
X45980144Y106548261D01*
X45965079Y106563326D01*
X45980144Y106578391D01*
X45995210Y106563326D01*
G37*
G36*
X46025340Y104213148D02*
G01*
X46010275Y104198083D01*
X45995210Y104213148D01*
X46010275Y104228213D01*
X46025340Y104213148D01*
G37*
G36*
X44180943Y107708890D02*
G01*
X44177337Y107673132D01*
X44168274Y107668418D01*
X44157250Y107693219D01*
X44159424Y107709170D01*
X44177337Y107713306D01*
X44180943Y107708890D01*
G37*
G36*
X44612946Y104386900D02*
G01*
X44630139Y104364746D01*
X44633519Y104332873D01*
X44619948Y104333138D01*
X44596079Y104370034D01*
X44593934Y104375750D01*
X44587612Y104405941D01*
X44612946Y104386900D01*
G37*
G36*
X45759692Y105884081D02*
G01*
X45784296Y105873548D01*
X45778745Y105865750D01*
X45739100Y105844364D01*
X45715991Y105839627D01*
X45693905Y105856205D01*
X45698996Y105869622D01*
X45739100Y105885390D01*
X45759692Y105884081D01*
G37*
G36*
X50977019Y107832914D02*
G01*
X50996870Y107781401D01*
X50989005Y107749187D01*
X50953456Y107727940D01*
X50910027Y107742722D01*
X50882018Y107791489D01*
X50886380Y107827637D01*
X50934400Y107843872D01*
X50977019Y107832914D01*
G37*
G36*
X52031586Y107832914D02*
G01*
X52051437Y107781401D01*
X52043572Y107749187D01*
X52008023Y107727940D01*
X51964594Y107742722D01*
X51936585Y107791489D01*
X51940947Y107827637D01*
X51988967Y107843872D01*
X52031586Y107832914D01*
G37*
G36*
X53521784Y107882403D02*
G01*
X53524828Y107806209D01*
X53521663Y107744146D01*
X53514717Y107737799D01*
X53499444Y107783611D01*
X53487776Y107838369D01*
X53489160Y107881535D01*
X53507151Y107903567D01*
X53521784Y107882403D01*
G37*
G36*
X50858303Y106667026D02*
G01*
X50927115Y106637301D01*
X50955643Y106567524D01*
X50946259Y106453389D01*
X50933482Y106408054D01*
X50899320Y106375010D01*
X50827386Y106367478D01*
X50725696Y106367478D01*
X50725696Y106518130D01*
X50725696Y106668783D01*
X50827638Y106668783D01*
X50858303Y106667026D01*
G37*
G36*
X55707878Y105459559D02*
G01*
X55753036Y105438711D01*
X55774647Y105390620D01*
X55784780Y105342653D01*
X55782462Y105261494D01*
X55737893Y105216701D01*
X55644238Y105198189D01*
X55516443Y105188924D01*
X55516443Y105326244D01*
X55516443Y105463563D01*
X55636391Y105463563D01*
X55707878Y105459559D01*
G37*
G36*
X50556755Y107976995D02*
G01*
X50566879Y107941851D01*
X50574645Y107857757D01*
X50565655Y107780622D01*
X50541544Y107736333D01*
X50530356Y107731195D01*
X50491771Y107745725D01*
X50465165Y107808883D01*
X50454983Y107911665D01*
X50461686Y107971890D01*
X50487687Y108020655D01*
X50523063Y108024723D01*
X50556755Y107976995D01*
G37*
G36*
X52937613Y108010060D02*
G01*
X52964483Y107954983D01*
X52979601Y107864114D01*
X52981684Y107787469D01*
X52971196Y107737279D01*
X52943303Y107723350D01*
X52935156Y107724876D01*
X52902083Y107761931D01*
X52877502Y107831916D01*
X52867142Y107912596D01*
X52876731Y107981738D01*
X52905951Y108021389D01*
X52937613Y108010060D01*
G37*
G36*
X54671730Y107996505D02*
G01*
X54682085Y107973411D01*
X54700168Y107894867D01*
X54702132Y107813294D01*
X54688788Y107749264D01*
X54660948Y107723350D01*
X54618884Y107742992D01*
X54591296Y107812828D01*
X54582398Y107936727D01*
X54584429Y107982273D01*
X54601246Y108042478D01*
X54631706Y108048132D01*
X54671730Y107996505D01*
G37*
G36*
X55691214Y108041134D02*
G01*
X55728102Y107977497D01*
X55749123Y107903927D01*
X55757324Y107815102D01*
X55745102Y107749162D01*
X55713453Y107723350D01*
X55693702Y107732636D01*
X55659947Y107783865D01*
X55632689Y107861022D01*
X55618720Y107942418D01*
X55624831Y108006363D01*
X55653840Y108048702D01*
X55691214Y108041134D01*
G37*
G36*
X52291404Y106632554D02*
G01*
X52324578Y106629326D01*
X52375463Y106614830D01*
X52397913Y106576256D01*
X52407203Y106495532D01*
X52416468Y106367478D01*
X52279148Y106367478D01*
X52141829Y106367478D01*
X52141829Y106482978D01*
X52142126Y106502393D01*
X52149395Y106578295D01*
X52163350Y106619999D01*
X52166361Y106622311D01*
X52214624Y106632997D01*
X52291404Y106632554D01*
G37*
G36*
X50061748Y105457465D02*
G01*
X50089704Y105454874D01*
X50143623Y105441611D01*
X50164683Y105405550D01*
X50168282Y105327976D01*
X50167749Y105279205D01*
X50157331Y105228018D01*
X50120429Y105206693D01*
X50040227Y105198189D01*
X49912173Y105188924D01*
X49912173Y105306157D01*
X49912511Y105327179D01*
X49919826Y105403283D01*
X49933694Y105444910D01*
X49936705Y105447222D01*
X49984968Y105457908D01*
X50061748Y105457465D01*
G37*
G36*
X46082033Y107188534D02*
G01*
X46079591Y107153627D01*
X46102041Y107074487D01*
X46170246Y106985153D01*
X46213681Y106936177D01*
X46265362Y106858499D01*
X46271852Y106800107D01*
X46235991Y106750875D01*
X46153622Y106690627D01*
X46075995Y106654240D01*
X46024717Y106654102D01*
X46012621Y106666577D01*
X45996704Y106723866D01*
X46001919Y106791342D01*
X46027721Y106835972D01*
X46033718Y106841571D01*
X46047028Y106898205D01*
X46040149Y107002079D01*
X46034723Y107050804D01*
X46031964Y107133162D01*
X46039547Y107179612D01*
X46045822Y107188905D01*
X46073453Y107210394D01*
X46082033Y107188534D01*
G37*
G36*
X46083533Y106128748D02*
G01*
X46089025Y106095601D01*
X46069204Y106031936D01*
X46029995Y105973251D01*
X45985899Y105946598D01*
X45979219Y105945014D01*
X45978027Y105918946D01*
X45975759Y105899635D01*
X45934568Y105876560D01*
X45901085Y105872757D01*
X45891489Y105888200D01*
X45895317Y105897475D01*
X45876466Y105915520D01*
X45866583Y105917191D01*
X45844557Y105949340D01*
X45852314Y105965819D01*
X45889753Y105945651D01*
X45890109Y105945356D01*
X45925960Y105923277D01*
X45934949Y105946173D01*
X45944856Y105975542D01*
X45987677Y106022759D01*
X46019023Y106051266D01*
X46044172Y106093875D01*
X46044851Y106099554D01*
X46052166Y106149032D01*
X46058767Y106154401D01*
X46083533Y106128748D01*
G37*
G36*
X45874688Y106563326D02*
G01*
X45879301Y106542356D01*
X45914841Y106518130D01*
X45937226Y106508990D01*
X45991679Y106463709D01*
X46055340Y106393263D01*
X46103617Y106331603D01*
X46132278Y106283919D01*
X46129624Y106254405D01*
X46099819Y106227545D01*
X46042427Y106193203D01*
X46005904Y106198145D01*
X45995210Y106252637D01*
X45995210Y106318580D01*
X45931680Y106250389D01*
X45868151Y106182198D01*
X45931680Y106123012D01*
X45960836Y106094819D01*
X45990242Y106054917D01*
X45967918Y106042651D01*
X45890878Y106052885D01*
X45825521Y106062013D01*
X45797191Y106051050D01*
X45798195Y106011969D01*
X45794886Y105967502D01*
X45745657Y105934696D01*
X45723458Y105930328D01*
X45676137Y105932201D01*
X45658734Y105947319D01*
X45686372Y105967352D01*
X45700230Y105974494D01*
X45724035Y106011895D01*
X45718447Y106021165D01*
X45666029Y106030312D01*
X45562153Y106022760D01*
X45483991Y106014058D01*
X45426141Y106014691D01*
X45399362Y106032512D01*
X45387739Y106072017D01*
X45381448Y106150223D01*
X45398392Y106220747D01*
X45440005Y106246956D01*
X45458748Y106243922D01*
X45482991Y106216825D01*
X45486901Y106204128D01*
X45524722Y106186695D01*
X45555371Y106197955D01*
X45605733Y106249397D01*
X45646798Y106322587D01*
X45663774Y106395329D01*
X45664362Y106403039D01*
X45691404Y106465724D01*
X45746325Y106531976D01*
X45759451Y106543987D01*
X45826865Y106596497D01*
X45863580Y106602529D01*
X45874688Y106563326D01*
G37*
G36*
X57836491Y106503065D02*
G01*
X57836491Y103685865D01*
X50334000Y103685865D01*
X42831509Y103685865D01*
X42831509Y103859444D01*
X45646712Y103859444D01*
X45658125Y103846065D01*
X45675548Y103841251D01*
X45715875Y103848444D01*
X45715595Y103854611D01*
X45812582Y103854611D01*
X45821959Y103845878D01*
X45850998Y103841192D01*
X45927416Y103845878D01*
X45935965Y103848695D01*
X45933580Y103851582D01*
X46206123Y103851582D01*
X46221188Y103836517D01*
X46236253Y103851582D01*
X46228391Y103859444D01*
X46309583Y103859444D01*
X46320995Y103846065D01*
X46338419Y103841251D01*
X46378746Y103848444D01*
X46378279Y103858729D01*
X46339199Y103864269D01*
X46309583Y103859444D01*
X46228391Y103859444D01*
X46221188Y103866647D01*
X46206123Y103851582D01*
X45933580Y103851582D01*
X45929505Y103856516D01*
X45874688Y103859657D01*
X45854245Y103859366D01*
X45812582Y103854611D01*
X45715595Y103854611D01*
X45715408Y103858729D01*
X45676329Y103864269D01*
X45646712Y103859444D01*
X42831509Y103859444D01*
X42831509Y104068138D01*
X44722378Y104068138D01*
X44756307Y104058252D01*
X44823566Y104056240D01*
X44929960Y104063179D01*
X45082237Y104079520D01*
X45287143Y104105711D01*
X45376930Y104117735D01*
X45493035Y104117735D01*
X45497451Y104114129D01*
X45533209Y104117735D01*
X45537923Y104126798D01*
X45513122Y104137822D01*
X45497171Y104135647D01*
X45493035Y104117735D01*
X45376930Y104117735D01*
X45467926Y104129921D01*
X45302208Y104128443D01*
X45161448Y104125203D01*
X45015184Y104117735D01*
X44887804Y104107219D01*
X44789649Y104094731D01*
X44731060Y104081345D01*
X44722378Y104068138D01*
X42831509Y104068138D01*
X42831509Y104147865D01*
X45734079Y104147865D01*
X45738495Y104144259D01*
X45774253Y104147865D01*
X45778966Y104156928D01*
X45754166Y104167952D01*
X45738215Y104165778D01*
X45734079Y104147865D01*
X42831509Y104147865D01*
X42831509Y104678094D01*
X44035059Y104678094D01*
X44151630Y104737565D01*
X44268202Y104797035D01*
X44367891Y104610548D01*
X44377624Y104592409D01*
X44467482Y104432658D01*
X44539065Y104320460D01*
X44590552Y104258426D01*
X44620119Y104249168D01*
X44633451Y104255982D01*
X44694755Y104269515D01*
X44783166Y104279006D01*
X44812296Y104281114D01*
X44959832Y104295732D01*
X45144905Y104318609D01*
X45350180Y104347482D01*
X45558318Y104380092D01*
X45640248Y104393434D01*
X45740321Y104409149D01*
X45806118Y104418769D01*
X45850106Y104428893D01*
X45896509Y104453224D01*
X45902330Y104463304D01*
X45877565Y104454367D01*
X45853270Y104444082D01*
X45856745Y104464602D01*
X45875440Y104490432D01*
X45894423Y104490583D01*
X45924282Y104456253D01*
X45976140Y104379512D01*
X45996041Y104349039D01*
X46042779Y104270229D01*
X46052942Y104235345D01*
X46027422Y104241992D01*
X46017989Y104245921D01*
X45981735Y104230787D01*
X45977708Y104221187D01*
X45992636Y104184608D01*
X46004302Y104180373D01*
X46040674Y104198518D01*
X46043098Y104200812D01*
X46077995Y104189449D01*
X46141561Y104141291D01*
X46224175Y104063422D01*
X46240092Y104047465D01*
X46323016Y103970956D01*
X46392372Y103917124D01*
X46434516Y103896778D01*
X46455689Y103893344D01*
X46465303Y103871617D01*
X46483651Y103860065D01*
X46548042Y103853600D01*
X46644457Y103853865D01*
X46675772Y103854978D01*
X46750930Y103858238D01*
X46814872Y103865528D01*
X46871959Y103881527D01*
X46926554Y103910912D01*
X46983017Y103958361D01*
X47045711Y104028552D01*
X47118998Y104126163D01*
X47207238Y104255871D01*
X47314794Y104422356D01*
X47446027Y104630294D01*
X47605300Y104884363D01*
X47630637Y104925017D01*
X47687986Y105019122D01*
X47727842Y105087612D01*
X47742778Y105117874D01*
X47731425Y105121808D01*
X47672206Y105127215D01*
X47573760Y105131007D01*
X47449006Y105132539D01*
X47375155Y105133136D01*
X47249330Y105136483D01*
X47150369Y105142082D01*
X47094970Y105149149D01*
X47067986Y105167473D01*
X47009731Y105236458D01*
X46932333Y105350787D01*
X46839681Y105505040D01*
X46829106Y105523459D01*
X48901297Y105523459D01*
X48905886Y105396820D01*
X48918568Y105333015D01*
X48964825Y105200142D01*
X49036357Y105115161D01*
X49142233Y105070074D01*
X49291527Y105056887D01*
X49396313Y105060270D01*
X49485887Y105076180D01*
X49528265Y105107789D01*
X49530184Y105154726D01*
X49748607Y105154726D01*
X49749142Y105134874D01*
X49764892Y105101231D01*
X49812396Y105079083D01*
X49905781Y105059907D01*
X50025199Y105049505D01*
X50162586Y105063637D01*
X50184342Y105071867D01*
X50605174Y105071867D01*
X50846218Y105071867D01*
X51268045Y105071867D01*
X51524154Y105071867D01*
X51647193Y105072539D01*
X51723307Y105076899D01*
X51762903Y105088455D01*
X51777911Y105110717D01*
X51780263Y105147193D01*
X51777548Y105184812D01*
X51758874Y105210229D01*
X51709455Y105220564D01*
X51614545Y105222519D01*
X51612011Y105222519D01*
X51518370Y105224130D01*
X51469847Y105234339D01*
X51451610Y105261235D01*
X51448828Y105312911D01*
X51450519Y105357548D01*
X51465825Y105389185D01*
X51510297Y105401327D01*
X51599480Y105403302D01*
X51659940Y105404016D01*
X51720321Y105411621D01*
X51745248Y105433923D01*
X51748870Y105467073D01*
X51935741Y105467073D01*
X51937853Y105068741D01*
X52061341Y105077837D01*
X52184829Y105086932D01*
X52306449Y105372294D01*
X52428068Y105657656D01*
X52436692Y105364762D01*
X52438190Y105314846D01*
X52442902Y105197640D01*
X52450239Y105125889D01*
X52463357Y105088443D01*
X52485410Y105074153D01*
X52519551Y105071867D01*
X52593786Y105071867D01*
X53106004Y105071867D01*
X53362113Y105071867D01*
X53799006Y105071867D01*
X53914024Y105071867D01*
X54029042Y105071867D01*
X54144723Y105358106D01*
X54180591Y105444618D01*
X54226222Y105547729D01*
X54261100Y105618229D01*
X54279674Y105644346D01*
X54284244Y105634512D01*
X54289092Y105577502D01*
X54289922Y105481015D01*
X54286425Y105358106D01*
X54273905Y105071867D01*
X54367891Y105071867D01*
X54461876Y105071867D01*
X54672790Y105071867D01*
X54913834Y105071867D01*
X55012497Y105072308D01*
X55093224Y105076141D01*
X55093463Y105076203D01*
X55135669Y105087130D01*
X55152124Y105109036D01*
X55154877Y105145618D01*
X55153085Y105175703D01*
X55136247Y105205645D01*
X55089109Y105220621D01*
X54996692Y105228477D01*
X54927780Y105233437D01*
X54867002Y105245687D01*
X54839423Y105271752D01*
X54828973Y105320443D01*
X54826061Y105361735D01*
X54838547Y105390400D01*
X54882411Y105401470D01*
X54972093Y105403302D01*
X55033566Y105404037D01*
X55094414Y105411588D01*
X55119712Y105433442D01*
X55124747Y105476978D01*
X55124046Y105497635D01*
X55110767Y105533334D01*
X55068508Y105551049D01*
X54981627Y105559836D01*
X54922956Y105564312D01*
X54865442Y105576592D01*
X54842592Y105604605D01*
X54838507Y105659411D01*
X54840752Y105706278D01*
X54857762Y105737279D01*
X54904694Y105751648D01*
X54996692Y105758910D01*
X55060998Y105763448D01*
X55123139Y105774876D01*
X55149439Y105798368D01*
X55154877Y105841769D01*
X55153436Y105871957D01*
X55140909Y105896657D01*
X55104992Y105909643D01*
X55033398Y105914678D01*
X54913834Y105915520D01*
X55335660Y105915520D01*
X55335660Y105495862D01*
X55335660Y105076203D01*
X55498250Y105055889D01*
X55591696Y105047843D01*
X55755550Y105058741D01*
X55873376Y105107209D01*
X55944538Y105192898D01*
X55968401Y105315454D01*
X55968299Y105326281D01*
X55949562Y105430590D01*
X55902522Y105496975D01*
X56152313Y105496975D01*
X56161829Y105350501D01*
X56201959Y105222519D01*
X56235387Y105170598D01*
X56337023Y105090344D01*
X56475133Y105050638D01*
X56641719Y105054534D01*
X56671990Y105059295D01*
X56744184Y105076322D01*
X56758047Y105087601D01*
X56902446Y105087601D01*
X56927931Y105076551D01*
X56990377Y105071867D01*
X57037198Y105076370D01*
X57074116Y105099399D01*
X57107431Y105153863D01*
X57148409Y105252650D01*
X57184755Y105340190D01*
X57217785Y105407622D01*
X57237587Y105433433D01*
X57255221Y105410877D01*
X57286765Y105345631D01*
X57324272Y105252650D01*
X57360694Y105160912D01*
X57393432Y105102803D01*
X57429046Y105077441D01*
X57478599Y105071867D01*
X57539162Y105075534D01*
X57565316Y105084691D01*
X57562059Y105094384D01*
X57538647Y105147861D01*
X57497601Y105236238D01*
X57444794Y105346739D01*
X57406954Y105427522D01*
X57357254Y105551902D01*
X57331577Y105654920D01*
X57324272Y105755742D01*
X57322905Y105843479D01*
X57313081Y105893571D01*
X57286254Y105912550D01*
X57233881Y105915520D01*
X57231837Y105915520D01*
X57181122Y105912503D01*
X57154854Y105893636D01*
X57144990Y105844113D01*
X57143490Y105749134D01*
X57140774Y105679386D01*
X57124069Y105583898D01*
X57086819Y105478586D01*
X57022968Y105343041D01*
X56997882Y105292804D01*
X56948982Y105192555D01*
X56915110Y105119788D01*
X56902446Y105087601D01*
X56758047Y105087601D01*
X56774257Y105100789D01*
X56776209Y105141779D01*
X56767533Y105173993D01*
X56741346Y105195847D01*
X56684021Y105205380D01*
X56581024Y105207484D01*
X56493971Y105210051D01*
X56412384Y105218470D01*
X56371988Y105230716D01*
X56364881Y105241592D01*
X56348412Y105305732D01*
X56338670Y105402321D01*
X56336345Y105510882D01*
X56342132Y105610937D01*
X56356723Y105682009D01*
X56371138Y105713854D01*
X56413637Y105754654D01*
X56489917Y105764868D01*
X56497437Y105764827D01*
X56568566Y105760121D01*
X56605991Y105749974D01*
X56610375Y105741867D01*
X56613294Y105695380D01*
X56605216Y105634135D01*
X56590556Y105583124D01*
X56573730Y105567339D01*
X56573715Y105567348D01*
X56530154Y105566743D01*
X56494910Y105530525D01*
X56490348Y105481669D01*
X56498005Y105468135D01*
X56547665Y105441577D01*
X56645391Y105433433D01*
X56781924Y105433433D01*
X56781924Y105655897D01*
X56781822Y105697490D01*
X56779003Y105796570D01*
X56769379Y105853549D01*
X56749054Y105882258D01*
X56714130Y105896530D01*
X56677086Y105904388D01*
X56570257Y105913799D01*
X56455567Y105911031D01*
X56355521Y105897297D01*
X56292623Y105873811D01*
X56282090Y105865181D01*
X56214979Y105772531D01*
X56170875Y105643723D01*
X56152313Y105496975D01*
X55902522Y105496975D01*
X55890180Y105514392D01*
X55858656Y105548245D01*
X55834406Y105592157D01*
X55838259Y105642153D01*
X55872548Y105712532D01*
X55939603Y105817596D01*
X56004449Y105915520D01*
X55903566Y105915086D01*
X55865123Y105913211D01*
X55814881Y105896463D01*
X55771813Y105851268D01*
X55719833Y105764434D01*
X55694696Y105721300D01*
X55631834Y105640444D01*
X55576713Y105614216D01*
X55562764Y105614861D01*
X55533081Y105629441D01*
X55519615Y105674507D01*
X55516443Y105764868D01*
X55515428Y105839264D01*
X55506245Y105891992D01*
X55479561Y105912229D01*
X55426052Y105915520D01*
X55335660Y105915520D01*
X54913834Y105915520D01*
X54672790Y105915520D01*
X54672790Y105493694D01*
X54672790Y105071867D01*
X54461876Y105071867D01*
X54461876Y105493694D01*
X54461876Y105915520D01*
X54341354Y105915520D01*
X54314452Y105915306D01*
X54247598Y105912349D01*
X54220832Y105907028D01*
X54212697Y105886095D01*
X54184219Y105820045D01*
X54140099Y105720236D01*
X54085391Y105598191D01*
X53949950Y105297846D01*
X53949804Y105606683D01*
X53949658Y105915520D01*
X53874332Y105915520D01*
X53799006Y105915520D01*
X53799006Y105493694D01*
X53799006Y105071867D01*
X53362113Y105071867D01*
X53485153Y105072539D01*
X53561267Y105076899D01*
X53600863Y105088455D01*
X53615871Y105110717D01*
X53618223Y105147193D01*
X53615508Y105184812D01*
X53596834Y105210229D01*
X53547415Y105220564D01*
X53452505Y105222519D01*
X53449971Y105222519D01*
X53356329Y105224130D01*
X53307806Y105234339D01*
X53289570Y105261235D01*
X53286787Y105312911D01*
X53288479Y105357548D01*
X53303785Y105389185D01*
X53348257Y105401327D01*
X53437440Y105403302D01*
X53497900Y105404016D01*
X53558281Y105411621D01*
X53583208Y105433923D01*
X53588092Y105478628D01*
X53587381Y105493694D01*
X53586665Y105508859D01*
X53571455Y105539049D01*
X53526850Y105551512D01*
X53437440Y105553955D01*
X53286787Y105553955D01*
X53286787Y105659411D01*
X53286787Y105764868D01*
X53452505Y105764868D01*
X53535268Y105766102D01*
X53591185Y105774590D01*
X53613921Y105797053D01*
X53618223Y105840194D01*
X53615937Y105876382D01*
X53601115Y105898769D01*
X53561824Y105910415D01*
X53486133Y105914829D01*
X53362113Y105915520D01*
X53106004Y105915520D01*
X53106004Y105493694D01*
X53106004Y105071867D01*
X52593786Y105071867D01*
X52593786Y105493694D01*
X52593786Y105495513D01*
X52593786Y105919158D01*
X52482285Y105909807D01*
X52459359Y105907704D01*
X52414345Y105898749D01*
X52379268Y105876096D01*
X52345704Y105829325D01*
X52305229Y105748016D01*
X52249418Y105621748D01*
X52213072Y105540204D01*
X52164894Y105438496D01*
X52128235Y105368862D01*
X52109009Y105343041D01*
X52104577Y105352902D01*
X52100307Y105409927D01*
X52100365Y105506402D01*
X52104937Y105629281D01*
X52119909Y105915520D01*
X52042256Y105915520D01*
X51987801Y105909410D01*
X51949116Y105890462D01*
X51947943Y105887406D01*
X51942552Y105839074D01*
X51938468Y105744879D01*
X51936071Y105616865D01*
X51935741Y105467073D01*
X51748870Y105467073D01*
X51750132Y105478628D01*
X51748705Y105508859D01*
X51733496Y105539049D01*
X51688891Y105551512D01*
X51599480Y105553955D01*
X51448828Y105553955D01*
X51448828Y105659411D01*
X51448828Y105764868D01*
X51614545Y105764868D01*
X51697308Y105766102D01*
X51753225Y105774590D01*
X51775961Y105797053D01*
X51780263Y105840194D01*
X51777978Y105876382D01*
X51763155Y105898769D01*
X51723864Y105910415D01*
X51648174Y105914829D01*
X51524154Y105915520D01*
X51268045Y105915520D01*
X51268045Y105493694D01*
X51268045Y105071867D01*
X50846218Y105071867D01*
X50944881Y105072308D01*
X51025608Y105076141D01*
X51068054Y105087130D01*
X51084508Y105109036D01*
X51087262Y105145618D01*
X51085469Y105175703D01*
X51068631Y105205645D01*
X51021493Y105220621D01*
X50929077Y105228477D01*
X50862615Y105233191D01*
X50801651Y105244735D01*
X50776080Y105268637D01*
X50770892Y105312911D01*
X50771654Y105335297D01*
X50784993Y105371096D01*
X50827216Y105388716D01*
X50914011Y105397420D01*
X50951479Y105400144D01*
X51020564Y105411223D01*
X51050587Y105434437D01*
X51057131Y105478628D01*
X51056626Y105493694D01*
X51056497Y105497525D01*
X51043290Y105533139D01*
X51000989Y105550962D01*
X50914011Y105559836D01*
X50855340Y105564312D01*
X50797826Y105576592D01*
X50774976Y105604605D01*
X50770892Y105659411D01*
X50773137Y105706278D01*
X50790147Y105737279D01*
X50837078Y105751648D01*
X50929077Y105758910D01*
X50993382Y105763448D01*
X51055523Y105774876D01*
X51081823Y105798368D01*
X51087262Y105841769D01*
X51085820Y105871957D01*
X51073293Y105896657D01*
X51037377Y105909643D01*
X50965782Y105914678D01*
X50846218Y105915520D01*
X50605174Y105915520D01*
X50605174Y105493694D01*
X50605174Y105071867D01*
X50184342Y105071867D01*
X50271574Y105104865D01*
X50337915Y105169575D01*
X50341564Y105176766D01*
X50365228Y105265502D01*
X50364390Y105365233D01*
X50342922Y105458315D01*
X50323262Y105493694D01*
X50304696Y105527104D01*
X50253582Y105553955D01*
X50223324Y105560786D01*
X50218669Y105588775D01*
X50244713Y105647107D01*
X50303869Y105744950D01*
X50341155Y105804999D01*
X50379427Y105870440D01*
X50394261Y105901502D01*
X50393830Y105902801D01*
X50361631Y105911826D01*
X50293954Y105915520D01*
X50253406Y105913751D01*
X50205986Y105897374D01*
X50167733Y105852320D01*
X50123086Y105764868D01*
X50075695Y105675722D01*
X50031620Y105627610D01*
X49982349Y105614216D01*
X49957381Y105615450D01*
X49927516Y105630557D01*
X49914821Y105675265D01*
X49912173Y105764868D01*
X49911459Y105825328D01*
X49903854Y105885709D01*
X49881552Y105910636D01*
X49836847Y105915520D01*
X49761520Y105915520D01*
X49756140Y105569020D01*
X49754138Y105444544D01*
X49751864Y105313018D01*
X49749928Y105211345D01*
X49748607Y105154726D01*
X49530184Y105154726D01*
X49530318Y105158008D01*
X49521976Y105180385D01*
X49494747Y105203570D01*
X49437735Y105212888D01*
X49335822Y105212579D01*
X49251740Y105212390D01*
X49170150Y105226369D01*
X49124236Y105267080D01*
X49103917Y105345618D01*
X49099111Y105473077D01*
X49099209Y105499913D01*
X49108228Y105629550D01*
X49135461Y105710824D01*
X49186124Y105752881D01*
X49265427Y105764868D01*
X49332887Y105760403D01*
X49363639Y105736115D01*
X49369824Y105676507D01*
X49357639Y105608610D01*
X49309563Y105569020D01*
X49274558Y105547005D01*
X49249302Y105491663D01*
X49249792Y105480204D01*
X49264150Y105450451D01*
X49309329Y105436745D01*
X49399955Y105433433D01*
X49550607Y105433433D01*
X49550607Y105645092D01*
X49550521Y105684142D01*
X49547623Y105780604D01*
X49537008Y105836387D01*
X49513849Y105866546D01*
X49473319Y105886136D01*
X49374532Y105910328D01*
X49243328Y105915478D01*
X49120373Y105896467D01*
X49029826Y105854991D01*
X49027025Y105852727D01*
X48967681Y105772907D01*
X48923834Y105655986D01*
X48901297Y105523459D01*
X46829106Y105523459D01*
X46644655Y105844732D01*
X46259753Y105224788D01*
X46201649Y105131206D01*
X46080505Y104936382D01*
X45986119Y104785673D01*
X45914903Y104674063D01*
X45863272Y104596539D01*
X45827639Y104548085D01*
X45804418Y104523688D01*
X45790022Y104518332D01*
X45780865Y104527002D01*
X45773361Y104544685D01*
X45767673Y104569581D01*
X45784641Y104574501D01*
X45799973Y104571771D01*
X45814427Y104603066D01*
X45810512Y104625541D01*
X45782518Y104650040D01*
X45772591Y104651728D01*
X45767640Y104677597D01*
X45771593Y104686239D01*
X45760278Y104715260D01*
X45759694Y104715565D01*
X45735601Y104747267D01*
X45690364Y104821230D01*
X45630246Y104926802D01*
X45561509Y105053334D01*
X45525057Y105121757D01*
X45463538Y105240008D01*
X45428953Y105320421D01*
X45421220Y105374041D01*
X45440258Y105411912D01*
X45485984Y105445079D01*
X45558318Y105484588D01*
X45571140Y105491814D01*
X45616004Y105524991D01*
X45618463Y105543785D01*
X45612963Y105545519D01*
X45560291Y105561233D01*
X45461487Y105590280D01*
X45325557Y105630026D01*
X45161511Y105677834D01*
X44978353Y105731070D01*
X44368490Y105908108D01*
X44335470Y105783760D01*
X44332554Y105772842D01*
X44309391Y105687683D01*
X44274957Y105562563D01*
X44233406Y105412534D01*
X44188892Y105252650D01*
X44177899Y105213219D01*
X44135566Y105060367D01*
X44098566Y104925264D01*
X44070558Y104821332D01*
X44055197Y104761991D01*
X44035059Y104678094D01*
X42831509Y104678094D01*
X42831509Y106503065D01*
X42831509Y106993964D01*
X43073998Y106993964D01*
X43084293Y106925972D01*
X43111096Y106842820D01*
X43156645Y106738318D01*
X43223178Y106606278D01*
X43312932Y106440508D01*
X43428146Y106234819D01*
X43571058Y105983021D01*
X43571323Y105982554D01*
X43641211Y105864503D01*
X43701661Y105771279D01*
X43746217Y105712249D01*
X43768420Y105696781D01*
X43783246Y105718196D01*
X43823579Y105784039D01*
X43880828Y105881443D01*
X43947838Y105998379D01*
X43996145Y106080339D01*
X44063925Y106183830D01*
X44119058Y106254182D01*
X44154085Y106281172D01*
X44195212Y106283898D01*
X44285557Y106289185D01*
X44409299Y106296075D01*
X44552347Y106303770D01*
X44902248Y106322282D01*
X44833312Y106443644D01*
X45164720Y106443644D01*
X45206664Y106263884D01*
X45291592Y106098674D01*
X45418407Y105958080D01*
X45586013Y105852166D01*
X45615654Y105839768D01*
X45722248Y105809081D01*
X45824184Y105797044D01*
X45904244Y105804593D01*
X45945209Y105832662D01*
X45963126Y105852486D01*
X45995210Y105825129D01*
X46024080Y105798256D01*
X46045210Y105817596D01*
X46053603Y105831456D01*
X46099756Y105855260D01*
X46108639Y105857792D01*
X46137354Y105900210D01*
X46158385Y105983314D01*
X46169339Y106041445D01*
X46190067Y106116377D01*
X46211572Y106168199D01*
X46228573Y106185164D01*
X46235792Y106155528D01*
X46236385Y106150199D01*
X46266723Y106103178D01*
X46328716Y106054677D01*
X46341441Y106047190D01*
X46398916Y106017932D01*
X46432548Y106020714D01*
X46465956Y106055714D01*
X46555110Y106198660D01*
X46612824Y106381592D01*
X46622554Y106571113D01*
X46586619Y106756298D01*
X46527234Y106883580D01*
X46932397Y106883580D01*
X46991370Y106678257D01*
X46999256Y106650706D01*
X47033151Y106531224D01*
X47076862Y106376066D01*
X47125602Y106202258D01*
X47174581Y106026821D01*
X47186773Y105983489D01*
X47236553Y105816773D01*
X47278750Y105692474D01*
X47311386Y105616028D01*
X47332484Y105592873D01*
X47334057Y105593413D01*
X47378222Y105606773D01*
X47469835Y105633534D01*
X47599428Y105670962D01*
X47757534Y105716320D01*
X47934684Y105766872D01*
X48503221Y105928708D01*
X48403164Y106012239D01*
X48303107Y106095770D01*
X48371351Y106209026D01*
X48375812Y106216825D01*
X50544913Y106216825D01*
X50754146Y106216825D01*
X50833772Y106217983D01*
X50926259Y106226875D01*
X50932254Y106228905D01*
X51298175Y106228905D01*
X51546752Y106230398D01*
X51658339Y106231627D01*
X51736434Y106236238D01*
X51777225Y106247879D01*
X51792820Y106270291D01*
X51795328Y106307217D01*
X51793901Y106337447D01*
X51778691Y106367637D01*
X51734086Y106380101D01*
X51644676Y106382543D01*
X51569077Y106383643D01*
X51515979Y106393580D01*
X51493332Y106422480D01*
X51484582Y106480467D01*
X51475140Y106578391D01*
X51627701Y106578391D01*
X51691066Y106579166D01*
X51750835Y106586893D01*
X51775460Y106609221D01*
X51778637Y106638652D01*
X51976051Y106638652D01*
X51976111Y106231891D01*
X52155639Y106222667D01*
X52297931Y106221837D01*
X52435463Y106244081D01*
X52527019Y106295718D01*
X52577994Y106380175D01*
X52593786Y106500878D01*
X52591561Y106549757D01*
X52834830Y106549757D01*
X52834837Y106532123D01*
X52835984Y106391454D01*
X52840216Y106299811D01*
X52849147Y106247019D01*
X52864389Y106222903D01*
X52887558Y106217287D01*
X52912114Y106218373D01*
X52956971Y106230873D01*
X52986962Y106265115D01*
X53005519Y106330726D01*
X53016075Y106437334D01*
X53022061Y106594564D01*
X53030678Y106924892D01*
X53115359Y106934602D01*
X53146235Y106937234D01*
X53207534Y106930940D01*
X53248226Y106899194D01*
X53272324Y106833339D01*
X53283840Y106724713D01*
X53286787Y106564658D01*
X53287498Y106472783D01*
X53290727Y106357840D01*
X53295968Y106276154D01*
X53302561Y106241226D01*
X53332530Y106234532D01*
X53396074Y106240313D01*
X53473813Y106255174D01*
X53462853Y106600438D01*
X53462659Y106606178D01*
X53950263Y106606178D01*
X53959362Y106480339D01*
X53982356Y106388940D01*
X53985415Y106382525D01*
X54060038Y106295519D01*
X54175174Y106237857D01*
X54315873Y106217237D01*
X54438858Y106221958D01*
X54519542Y106238589D01*
X54556994Y106270755D01*
X54559677Y106322098D01*
X54551911Y106352638D01*
X54530151Y106377535D01*
X54481391Y106383730D01*
X54389285Y106376433D01*
X54328855Y106371979D01*
X54229686Y106381378D01*
X54169056Y106423992D01*
X54138721Y106508301D01*
X54130441Y106642785D01*
X54130756Y106680145D01*
X54140648Y106807635D01*
X54168242Y106887291D01*
X54218708Y106928326D01*
X54297219Y106939957D01*
X54366547Y106935141D01*
X54395915Y106909548D01*
X54401615Y106846745D01*
X54401600Y106843237D01*
X54387434Y106770212D01*
X54341354Y106737774D01*
X54306882Y106718728D01*
X54281093Y106663618D01*
X54281510Y106652029D01*
X54294534Y106622766D01*
X54337067Y106611955D01*
X54424213Y106614403D01*
X54567333Y106623587D01*
X54573832Y106772039D01*
X54767752Y106772039D01*
X54769769Y106621993D01*
X54778246Y106231891D01*
X54887801Y106222744D01*
X54997355Y106213597D01*
X55128515Y106516516D01*
X55174342Y106620202D01*
X55222259Y106723401D01*
X55257650Y106793587D01*
X55275069Y106819503D01*
X55278617Y106810520D01*
X55282674Y106754760D01*
X55283546Y106659299D01*
X55280959Y106537293D01*
X55277645Y106417261D01*
X55278664Y106328197D01*
X55286692Y106276791D01*
X55303771Y106251104D01*
X55331943Y106239198D01*
X55369976Y106233170D01*
X55409242Y106240189D01*
X55411218Y106245062D01*
X55412473Y106256068D01*
X55576704Y106256068D01*
X55595361Y106230163D01*
X55652776Y106216825D01*
X55684570Y106219322D01*
X55718630Y106235178D01*
X55746600Y106273739D01*
X55772664Y106344158D01*
X55801007Y106455585D01*
X55835813Y106617174D01*
X55847903Y106673227D01*
X55873542Y106779064D01*
X55895296Y106852321D01*
X55909433Y106879696D01*
X55920640Y106859505D01*
X55942656Y106791184D01*
X55971007Y106685982D01*
X56002284Y106555793D01*
X56014164Y106503956D01*
X56044461Y106378725D01*
X56068564Y106298813D01*
X56091132Y106253896D01*
X56116822Y106233648D01*
X56150294Y106227743D01*
X56201617Y106227609D01*
X56243015Y106234524D01*
X56242679Y106254313D01*
X56229194Y106321203D01*
X56204377Y106423065D01*
X56171740Y106547235D01*
X56134795Y106681051D01*
X56097055Y106811851D01*
X56062031Y106926973D01*
X56033236Y107013753D01*
X56014183Y107059530D01*
X55983598Y107079206D01*
X55916421Y107089665D01*
X55845994Y107083578D01*
X55802862Y107060769D01*
X55799073Y107052857D01*
X55778900Y106995182D01*
X55748725Y106897693D01*
X55712461Y106774308D01*
X55674019Y106638945D01*
X55637311Y106505522D01*
X55606248Y106387957D01*
X55584742Y106300166D01*
X55576704Y106256068D01*
X55412473Y106256068D01*
X55417047Y106296168D01*
X55421756Y106392569D01*
X55424904Y106522857D01*
X55426052Y106675623D01*
X55426052Y107094247D01*
X55315801Y107084896D01*
X55282479Y107081528D01*
X55242007Y107070885D01*
X55208893Y107044857D01*
X55175416Y106993423D01*
X55133854Y106906558D01*
X55076486Y106774239D01*
X54947422Y106472934D01*
X54938160Y106774239D01*
X54937180Y106805553D01*
X54932072Y106932205D01*
X54924709Y107012163D01*
X54912280Y107056759D01*
X54891972Y107077324D01*
X54860970Y107085190D01*
X54815576Y107082253D01*
X54777167Y107053466D01*
X54776346Y107050761D01*
X54771260Y106999264D01*
X54768322Y106902076D01*
X54767752Y106772039D01*
X54573832Y106772039D01*
X54576247Y106827188D01*
X54577871Y106865969D01*
X54579177Y106959288D01*
X54570785Y107012574D01*
X54548092Y107041240D01*
X54506492Y107060699D01*
X54455901Y107074683D01*
X54336034Y107087281D01*
X54209875Y107082412D01*
X54109421Y107060124D01*
X54108738Y107059845D01*
X54048533Y107014324D01*
X53996431Y106943008D01*
X53971309Y106864980D01*
X53954449Y106742408D01*
X53950263Y106606178D01*
X53462659Y106606178D01*
X53459312Y106705023D01*
X53453308Y106821417D01*
X53443999Y106898388D01*
X53428527Y106948475D01*
X53404033Y106984218D01*
X53367660Y107018155D01*
X53360158Y107024464D01*
X53270000Y107074967D01*
X53157053Y107087114D01*
X53108012Y107085029D01*
X53004099Y107070878D01*
X52930081Y107037612D01*
X52881050Y106977047D01*
X52852102Y106881004D01*
X52838330Y106741301D01*
X52834830Y106549757D01*
X52591561Y106549757D01*
X52590806Y106566331D01*
X52569261Y106638900D01*
X52518460Y106693530D01*
X52515885Y106695567D01*
X52464416Y106742255D01*
X52443134Y106773147D01*
X52449523Y106789982D01*
X52481858Y106846198D01*
X52532336Y106923163D01*
X52580364Y106998667D01*
X52600499Y107055489D01*
X52578596Y107083265D01*
X52513696Y107090609D01*
X52510104Y107090549D01*
X52461094Y107074206D01*
X52410829Y107021888D01*
X52349281Y106923399D01*
X52300329Y106844159D01*
X52240451Y106776771D01*
X52194446Y106767804D01*
X52161758Y106817264D01*
X52141829Y106925153D01*
X52140196Y106940830D01*
X52125984Y107026254D01*
X52102453Y107069064D01*
X52061813Y107084800D01*
X52020514Y107085428D01*
X51986427Y107069735D01*
X51985460Y107065740D01*
X51981755Y107015396D01*
X51978761Y106919519D01*
X51976764Y106789981D01*
X51976051Y106638652D01*
X51778637Y106638652D01*
X51780263Y106653717D01*
X51778836Y106683948D01*
X51763626Y106714138D01*
X51719021Y106726601D01*
X51629611Y106729044D01*
X51478958Y106729044D01*
X51478958Y106834500D01*
X51478958Y106939957D01*
X51646771Y106939957D01*
X51728694Y106941108D01*
X51784896Y106948869D01*
X51805756Y106969128D01*
X51804956Y107007751D01*
X51800393Y107030187D01*
X51783520Y107055456D01*
X51743974Y107070421D01*
X51669227Y107078796D01*
X51546752Y107084295D01*
X51298175Y107093047D01*
X51298175Y106660976D01*
X51298175Y106228905D01*
X50932254Y106228905D01*
X50990503Y106248630D01*
X51046180Y106288048D01*
X51055533Y106296248D01*
X51102218Y106349630D01*
X51123760Y106414467D01*
X51128981Y106514928D01*
X51121154Y106614626D01*
X51102472Y106660976D01*
X51079828Y106717155D01*
X50997060Y106780260D01*
X50866208Y106811434D01*
X50803132Y106819402D01*
X50750199Y106836565D01*
X50728136Y106875028D01*
X50719713Y106951234D01*
X50718453Y106967548D01*
X50707194Y107039015D01*
X50681125Y107070267D01*
X50627772Y107078585D01*
X50544913Y107081625D01*
X50544913Y106649225D01*
X50544913Y106216825D01*
X48375812Y106216825D01*
X48440152Y106329302D01*
X48503594Y106454402D01*
X48547698Y106558209D01*
X48568294Y106630768D01*
X48564124Y106649225D01*
X48561209Y106662125D01*
X48549832Y106667479D01*
X48526170Y106702501D01*
X48509017Y106741274D01*
X48465423Y106797914D01*
X48435449Y106832073D01*
X48368904Y106911517D01*
X48297199Y107000218D01*
X48257279Y107050058D01*
X48163053Y107165288D01*
X48074213Y107271392D01*
X48031300Y107321986D01*
X47937113Y107434028D01*
X47853006Y107535173D01*
X47797223Y107602828D01*
X48113945Y107602828D01*
X48116690Y107592424D01*
X48143523Y107546106D01*
X48188394Y107476535D01*
X48241069Y107399019D01*
X48291312Y107328861D01*
X48328890Y107281370D01*
X48336691Y107271913D01*
X48377438Y107217453D01*
X48438601Y107132193D01*
X48510175Y107030004D01*
X48542905Y106984125D01*
X48605538Y106904762D01*
X48651592Y106858015D01*
X48672880Y106852802D01*
X48675120Y106870071D01*
X48651212Y106903298D01*
X48638382Y106910446D01*
X48616562Y106955022D01*
X48614962Y106970542D01*
X48593964Y107005240D01*
X48593600Y107005423D01*
X48566478Y107033656D01*
X48511439Y107100138D01*
X48436306Y107195171D01*
X48348904Y107309055D01*
X48344013Y107315510D01*
X48258280Y107427323D01*
X48186421Y107518653D01*
X48135841Y107580241D01*
X48113945Y107602828D01*
X47797223Y107602828D01*
X47747309Y107663366D01*
X47643162Y107489977D01*
X47595438Y107409631D01*
X47520089Y107276003D01*
X47474442Y107181895D01*
X47455424Y107120515D01*
X47459962Y107085069D01*
X47466734Y107069653D01*
X47447329Y107071925D01*
X47442193Y107072708D01*
X47408132Y107046836D01*
X47358769Y106986495D01*
X47304391Y106906507D01*
X47255285Y106821696D01*
X47221742Y106746886D01*
X47205903Y106742872D01*
X47151028Y106760929D01*
X47072361Y106801557D01*
X46932397Y106883580D01*
X46527234Y106883580D01*
X46507339Y106926222D01*
X46387032Y107069962D01*
X46228018Y107176592D01*
X46041057Y107240746D01*
X45835908Y107255081D01*
X45637014Y107210453D01*
X45449253Y107107297D01*
X45448717Y107106904D01*
X45307759Y106969586D01*
X45214171Y106806560D01*
X45166857Y106627891D01*
X45164720Y106443644D01*
X44833312Y106443644D01*
X44538559Y106962555D01*
X44174869Y107602828D01*
X44038005Y107600108D01*
X43938301Y107592600D01*
X43807859Y107575466D01*
X43675162Y107552430D01*
X43659215Y107549272D01*
X43544770Y107527461D01*
X43451634Y107511090D01*
X43398667Y107503497D01*
X43373765Y107498532D01*
X43359821Y107480641D01*
X43360613Y107477499D01*
X43339388Y107444896D01*
X43285789Y107398396D01*
X43257784Y107373769D01*
X43190237Y107291880D01*
X43132630Y107195687D01*
X43119781Y107168889D01*
X43093980Y107109233D01*
X43077973Y107052988D01*
X43073998Y106993964D01*
X42831509Y106993964D01*
X42831509Y107545622D01*
X43322132Y107545622D01*
X43347466Y107564662D01*
X43364658Y107586816D01*
X43368038Y107618690D01*
X43354468Y107618425D01*
X43330599Y107581529D01*
X43328454Y107575813D01*
X43322132Y107545622D01*
X42831509Y107545622D01*
X42831509Y107648023D01*
X43765554Y107648023D01*
X43766862Y107627432D01*
X43777395Y107602828D01*
X43785194Y107608379D01*
X43806580Y107648023D01*
X43808057Y107655229D01*
X44051059Y107655229D01*
X44075935Y107635562D01*
X44099708Y107636553D01*
X44177114Y107637450D01*
X44296216Y107637758D01*
X44446187Y107637457D01*
X44616204Y107636528D01*
X45120354Y107632958D01*
X45110703Y107480129D01*
X45101051Y107327299D01*
X45444794Y107668444D01*
X45503094Y107726615D01*
X45630745Y107855994D01*
X45748418Y107977786D01*
X45845067Y108080487D01*
X45909646Y108152592D01*
X46030755Y108295594D01*
X45915058Y108404968D01*
X45893395Y108425594D01*
X45815883Y108500311D01*
X45711048Y108602153D01*
X45589889Y108720417D01*
X45463406Y108844399D01*
X45431044Y108876193D01*
X46175950Y108876193D01*
X46189700Y108850325D01*
X46228434Y108782807D01*
X46286117Y108684119D01*
X46356701Y108564678D01*
X46537409Y108260344D01*
X46356701Y107926775D01*
X46349749Y107913924D01*
X46282014Y107786635D01*
X46226795Y107679220D01*
X46189614Y107602648D01*
X46175992Y107567887D01*
X46192270Y107562600D01*
X46260770Y107556135D01*
X46375278Y107550619D01*
X46527640Y107546332D01*
X46709701Y107543555D01*
X46913307Y107542567D01*
X47650621Y107542567D01*
X47714763Y107678154D01*
X48013952Y107678154D01*
X48029017Y107663089D01*
X48044083Y107678154D01*
X48029017Y107693219D01*
X48013952Y107678154D01*
X47714763Y107678154D01*
X47726945Y107703904D01*
X47728974Y107708284D01*
X48375518Y107708284D01*
X48390583Y107693219D01*
X48405648Y107708284D01*
X48390583Y107723350D01*
X48375518Y107708284D01*
X47728974Y107708284D01*
X47755282Y107765074D01*
X47756675Y107768545D01*
X47953691Y107768545D01*
X47968756Y107753480D01*
X47983822Y107768545D01*
X47968756Y107783611D01*
X47953691Y107768545D01*
X47756675Y107768545D01*
X47792954Y107858937D01*
X47833169Y107858937D01*
X47848234Y107843872D01*
X47863300Y107858937D01*
X48285127Y107858937D01*
X48300192Y107843872D01*
X48315257Y107858937D01*
X48300192Y107874002D01*
X48285127Y107858937D01*
X47863300Y107858937D01*
X47848234Y107874002D01*
X47833169Y107858937D01*
X47792954Y107858937D01*
X47834492Y107962432D01*
X48232253Y107962432D01*
X48239931Y107934263D01*
X48246121Y107925344D01*
X48273618Y107904133D01*
X48277739Y107906094D01*
X48270061Y107934263D01*
X48263871Y107943182D01*
X48236374Y107964394D01*
X48232253Y107962432D01*
X47834492Y107962432D01*
X47851226Y108004127D01*
X47852655Y108009589D01*
X48194735Y108009589D01*
X48209800Y107994524D01*
X48224866Y108009589D01*
X48213048Y108021407D01*
X49705630Y108021407D01*
X49714459Y107911665D01*
X49716285Y107893411D01*
X49733919Y107733180D01*
X49750313Y107623622D01*
X49767617Y107556082D01*
X49787977Y107521905D01*
X49813541Y107512436D01*
X49814070Y107512439D01*
X49832956Y107518871D01*
X49836776Y107527502D01*
X51659741Y107527502D01*
X51667660Y107499793D01*
X51712469Y107488042D01*
X51739815Y107498154D01*
X51759257Y107527914D01*
X51756334Y107537302D01*
X51729405Y107559431D01*
X52632438Y107559431D01*
X52635056Y107504904D01*
X52646200Y107458943D01*
X52653636Y107414512D01*
X52653917Y107412426D01*
X52679849Y107395786D01*
X52722202Y107392043D01*
X52744439Y107405018D01*
X52736691Y107434238D01*
X52715054Y107495410D01*
X52690706Y107541890D01*
X52655852Y107571182D01*
X52632438Y107559431D01*
X51729405Y107559431D01*
X51723044Y107564658D01*
X51680660Y107561348D01*
X51659741Y107527502D01*
X49836776Y107527502D01*
X49843756Y107543273D01*
X49846271Y107593966D01*
X49840299Y107679270D01*
X49825640Y107807505D01*
X49802092Y107986991D01*
X49800014Y108001317D01*
X49779748Y108073744D01*
X49917646Y108073744D01*
X49924590Y107994524D01*
X49925604Y107987624D01*
X49942741Y107870829D01*
X49959323Y107757589D01*
X49964041Y107726842D01*
X49981201Y107667880D01*
X50018526Y107645009D01*
X50096049Y107641176D01*
X50114836Y107641530D01*
X50208200Y107662253D01*
X50254224Y107718221D01*
X50257223Y107814062D01*
X50243094Y107908309D01*
X50224707Y108014210D01*
X50208442Y108077098D01*
X50191326Y108107276D01*
X50170386Y108115046D01*
X50162062Y108113740D01*
X50144819Y108089743D01*
X50139894Y108027399D01*
X50145991Y107916147D01*
X50147121Y107901951D01*
X50153367Y107801745D01*
X50150220Y107747664D01*
X50134958Y107727260D01*
X50104858Y107728089D01*
X50063944Y107752819D01*
X50039804Y107829064D01*
X50030281Y107915174D01*
X50015841Y108017122D01*
X49993032Y108086975D01*
X49953355Y108115046D01*
X49930188Y108108989D01*
X49917646Y108073744D01*
X49779748Y108073744D01*
X49776075Y108086870D01*
X49739524Y108115046D01*
X49721497Y108110688D01*
X49707478Y108083708D01*
X49705630Y108021407D01*
X48213048Y108021407D01*
X48209800Y108024655D01*
X48194735Y108009589D01*
X47852655Y108009589D01*
X47876297Y108099981D01*
X48134474Y108099981D01*
X48149539Y108084916D01*
X48164605Y108099981D01*
X48149539Y108115046D01*
X48134474Y108099981D01*
X47876297Y108099981D01*
X47904522Y108207897D01*
X47909003Y108283000D01*
X50367337Y108283000D01*
X50378515Y108249049D01*
X50446989Y108230037D01*
X50505747Y108212001D01*
X50538658Y108158955D01*
X50540281Y108139888D01*
X50523676Y108106342D01*
X50463331Y108098694D01*
X50420757Y108096940D01*
X50391359Y108079758D01*
X50377336Y108032086D01*
X50369993Y107939055D01*
X50373288Y107800735D01*
X50405656Y107707741D01*
X50471801Y107656729D01*
X50576240Y107641176D01*
X50701953Y107641176D01*
X50685297Y107750056D01*
X50676579Y107811899D01*
X50662011Y107926815D01*
X50657828Y107962984D01*
X50785556Y107962984D01*
X50787955Y107859443D01*
X50808677Y107761507D01*
X50846218Y107693219D01*
X50871038Y107671192D01*
X50950903Y107635852D01*
X51020110Y107653640D01*
X51068837Y107719113D01*
X51087262Y107826826D01*
X51074735Y107885649D01*
X51029465Y107904133D01*
X50976193Y107908345D01*
X50903559Y107935729D01*
X50876348Y107982682D01*
X50892775Y108010071D01*
X50951675Y108024655D01*
X51000808Y108033500D01*
X51006547Y108041464D01*
X51181464Y108041464D01*
X51185800Y107946234D01*
X51202891Y107800498D01*
X51222849Y107651667D01*
X51352906Y107645067D01*
X51426490Y107645007D01*
X51477514Y107661568D01*
X51502300Y107705826D01*
X51506327Y107788368D01*
X51495073Y107919782D01*
X51494519Y107924902D01*
X51478061Y108036428D01*
X51469999Y108059838D01*
X51603729Y108059838D01*
X51612645Y107971926D01*
X51633819Y107827528D01*
X51651794Y107727724D01*
X51668558Y107668552D01*
X51686911Y107640225D01*
X51709655Y107632958D01*
X51718480Y107633761D01*
X51740955Y107659860D01*
X51737758Y107730882D01*
X51733742Y107757601D01*
X51719086Y107861318D01*
X51705602Y107962984D01*
X51840123Y107962984D01*
X51842522Y107859443D01*
X51863244Y107761507D01*
X51900785Y107693219D01*
X51925605Y107671192D01*
X52005470Y107635852D01*
X52074677Y107653640D01*
X52123404Y107719113D01*
X52141829Y107826826D01*
X52136771Y107873292D01*
X52107597Y107898602D01*
X52036372Y107904133D01*
X51988764Y107906102D01*
X51942712Y107922860D01*
X51930915Y107964394D01*
X51947174Y108010531D01*
X52006242Y108024655D01*
X52055375Y108033500D01*
X52061700Y108042277D01*
X52236142Y108042277D01*
X52240390Y107946504D01*
X52257458Y107800004D01*
X52268859Y107724122D01*
X52287150Y107672241D01*
X52323076Y107650778D01*
X52390405Y107643529D01*
X52465856Y107649321D01*
X52503883Y107674011D01*
X52493414Y107706527D01*
X52429541Y107735353D01*
X52399274Y107745690D01*
X52368630Y107774216D01*
X52349734Y107831983D01*
X52335258Y107934467D01*
X52325355Y108005368D01*
X52323061Y108013795D01*
X52563656Y108013795D01*
X52563784Y107992576D01*
X52571531Y107852393D01*
X52589489Y107738107D01*
X52615183Y107661151D01*
X52646135Y107632958D01*
X52665307Y107639090D01*
X52677406Y107669663D01*
X52678152Y107736555D01*
X52668752Y107851404D01*
X52667614Y107862786D01*
X52659824Y107930877D01*
X52775241Y107930877D01*
X52785923Y107815770D01*
X52813558Y107723350D01*
X52841843Y107681118D01*
X52892741Y107654033D01*
X52981324Y107646123D01*
X53110989Y107644222D01*
X53090013Y107857036D01*
X53089297Y107864246D01*
X53077405Y107970916D01*
X53066125Y108051445D01*
X53063639Y108062643D01*
X53353195Y108062643D01*
X53364264Y107992449D01*
X53392788Y107881727D01*
X53439841Y107722251D01*
X53458480Y107663212D01*
X53493499Y107572499D01*
X53525633Y107525715D01*
X53560896Y107512436D01*
X53590077Y107517659D01*
X53601440Y107534583D01*
X56612164Y107534583D01*
X56628927Y107498986D01*
X56678245Y107482306D01*
X56698456Y107487535D01*
X56721663Y107527502D01*
X56711817Y107555006D01*
X56669948Y107573014D01*
X56622047Y107553429D01*
X56612164Y107534583D01*
X53601440Y107534583D01*
X53612449Y107550981D01*
X53618223Y107628538D01*
X53619802Y107689453D01*
X53626831Y107807317D01*
X53637580Y107929843D01*
X53641024Y107966904D01*
X53769207Y107966904D01*
X53773584Y107856835D01*
X53790126Y107739332D01*
X53816616Y107661270D01*
X53850542Y107632958D01*
X53865067Y107635901D01*
X53880191Y107660791D01*
X53882445Y107721093D01*
X53873220Y107828806D01*
X53870488Y107854581D01*
X53862396Y107949127D01*
X53865331Y108000038D01*
X53882226Y108020738D01*
X53916017Y108024655D01*
X53945069Y108021470D01*
X53972850Y107993567D01*
X53979788Y107922964D01*
X53981891Y107853395D01*
X53997139Y107738246D01*
X54024550Y107661109D01*
X54061049Y107632958D01*
X54069428Y107633742D01*
X54088971Y107652609D01*
X54093849Y107705977D01*
X54085829Y107806209D01*
X54077397Y107879261D01*
X54070467Y107932056D01*
X54209336Y107932056D01*
X54209863Y107826903D01*
X54213495Y107730579D01*
X54219806Y107660219D01*
X54228365Y107632958D01*
X54238709Y107627913D01*
X54250963Y107587762D01*
X54256212Y107566685D01*
X54296159Y107542567D01*
X54317236Y107547816D01*
X54341354Y107587762D01*
X54346604Y107608840D01*
X54386550Y107632958D01*
X54396453Y107633472D01*
X54429322Y107653344D01*
X54419740Y107687216D01*
X54371485Y107714619D01*
X54330949Y107739097D01*
X54310812Y107809723D01*
X54306859Y107871429D01*
X54292233Y107956861D01*
X54290931Y107962134D01*
X54492007Y107962134D01*
X54492022Y107956336D01*
X54507717Y107802673D01*
X54551968Y107698503D01*
X54623439Y107645675D01*
X54720792Y107646035D01*
X54746007Y107653776D01*
X54776901Y107678014D01*
X54790362Y107728696D01*
X54793312Y107822676D01*
X54792545Y107855808D01*
X54777322Y107969510D01*
X54746407Y108048081D01*
X54718162Y108080157D01*
X54701710Y108088088D01*
X54892859Y108088088D01*
X54896078Y108017122D01*
X54899343Y107995484D01*
X54913936Y107892393D01*
X54928416Y107782773D01*
X54945649Y107646347D01*
X55178318Y107647218D01*
X55255871Y107647810D01*
X55343029Y107651649D01*
X55390939Y107662509D01*
X55412677Y107684374D01*
X55421319Y107721225D01*
X55425993Y107816165D01*
X55417964Y107917514D01*
X55546574Y107917514D01*
X55558473Y107788396D01*
X55597482Y107690930D01*
X55661125Y107643553D01*
X55746801Y107649741D01*
X55788817Y107667433D01*
X55818265Y107696931D01*
X55830218Y107751446D01*
X55832239Y107848575D01*
X55831099Y107876529D01*
X55968705Y107876529D01*
X55969307Y107766565D01*
X55974282Y107671221D01*
X55983811Y107610360D01*
X55995823Y107583904D01*
X56034132Y107548059D01*
X56071872Y107547903D01*
X56088922Y107587762D01*
X56094172Y107608840D01*
X56134118Y107632958D01*
X56155195Y107638208D01*
X56179314Y107678154D01*
X56167789Y107704877D01*
X56117478Y107723350D01*
X56094791Y107724956D01*
X56070223Y107741778D01*
X56061846Y107789060D01*
X56064750Y107881535D01*
X56068732Y107931541D01*
X56085116Y108010461D01*
X56085862Y108011075D01*
X56247676Y108011075D01*
X56256738Y107896600D01*
X56257980Y107883767D01*
X56269865Y107777493D01*
X56281411Y107698836D01*
X56290279Y107664013D01*
X56292023Y107662612D01*
X56333654Y107652396D01*
X56406879Y107646266D01*
X56465983Y107650964D01*
X56507767Y107674412D01*
X56500388Y107706406D01*
X56439362Y107734734D01*
X56411804Y107744185D01*
X56381207Y107772701D01*
X56362117Y107830822D01*
X56347474Y107933849D01*
X56335071Y108016177D01*
X56573328Y108016177D01*
X56582219Y107901337D01*
X56594622Y107796549D01*
X56617984Y107688233D01*
X56646778Y107635946D01*
X56680230Y107641743D01*
X56681261Y107643127D01*
X56686637Y107685858D01*
X56683785Y107769855D01*
X56673199Y107878464D01*
X56658736Y107973521D01*
X56633275Y108069651D01*
X56603968Y108109279D01*
X56585198Y108108873D01*
X56573955Y108081854D01*
X56573328Y108016177D01*
X56335071Y108016177D01*
X56332470Y108033438D01*
X56310955Y108096100D01*
X56281450Y108115046D01*
X56753935Y108115046D01*
X56815041Y107971926D01*
X56838014Y107920460D01*
X56876872Y107842986D01*
X56904361Y107800182D01*
X56923577Y107776393D01*
X56925180Y107737647D01*
X56872315Y107723350D01*
X56837174Y107714961D01*
X56812054Y107678154D01*
X56814242Y107665161D01*
X56848774Y107640421D01*
X56932576Y107632958D01*
X56959573Y107633662D01*
X57026362Y107643294D01*
X57053098Y107660613D01*
X57046760Y107684305D01*
X57019404Y107750713D01*
X56977772Y107838239D01*
X56953818Y107886195D01*
X56917587Y107964325D01*
X56907622Y108005643D01*
X56922977Y108021852D01*
X56962707Y108024655D01*
X56997848Y108033043D01*
X57022968Y108069850D01*
X57017721Y108088647D01*
X56977430Y108109039D01*
X56888451Y108115046D01*
X56753935Y108115046D01*
X56281450Y108115046D01*
X56260558Y108108413D01*
X56248503Y108077734D01*
X56247676Y108011075D01*
X56085862Y108011075D01*
X56111520Y108032187D01*
X56129579Y108034146D01*
X56149183Y108069850D01*
X56136375Y108093099D01*
X56087483Y108113249D01*
X56028515Y108114380D01*
X55988268Y108092448D01*
X55979882Y108060866D01*
X55972291Y107981250D01*
X55968705Y107876529D01*
X55831099Y107876529D01*
X55829764Y107909288D01*
X55815083Y108006441D01*
X55790887Y108065911D01*
X55769065Y108084094D01*
X55699001Y108109703D01*
X55621436Y108114633D01*
X55566661Y108094959D01*
X55559266Y108076454D01*
X55550139Y108010300D01*
X55546574Y107917514D01*
X55417964Y107917514D01*
X55417675Y107921162D01*
X55399411Y108017425D01*
X55374480Y108087778D01*
X55346159Y108115046D01*
X55329147Y108111490D01*
X55314363Y108086302D01*
X55312397Y108026317D01*
X55321707Y107919198D01*
X55328823Y107845248D01*
X55331149Y107769329D01*
X55321211Y107732795D01*
X55297489Y107723350D01*
X55255911Y107748981D01*
X55226609Y107824285D01*
X55215550Y107939331D01*
X55210354Y108010418D01*
X55185165Y108087271D01*
X55142693Y108115046D01*
X55124734Y108098720D01*
X55115922Y108035556D01*
X55119296Y107919198D01*
X55122748Y107854996D01*
X55122183Y107773830D01*
X55110705Y107733962D01*
X55086285Y107723350D01*
X55048045Y107736855D01*
X55015042Y107800838D01*
X55004225Y107919198D01*
X55004225Y107919894D01*
X54998811Y108004534D01*
X54985936Y108067386D01*
X54971487Y108090618D01*
X54924310Y108115046D01*
X54915284Y108114214D01*
X54892859Y108088088D01*
X54701710Y108088088D01*
X54644398Y108115716D01*
X54570927Y108104117D01*
X54514534Y108051033D01*
X54492007Y107962134D01*
X54290931Y107962134D01*
X54289095Y107969567D01*
X54292110Y108013627D01*
X54337840Y108024655D01*
X54376172Y108033129D01*
X54401615Y108069850D01*
X54399447Y108079383D01*
X54363220Y108105201D01*
X54302868Y108116188D01*
X54245210Y108110156D01*
X54217066Y108084916D01*
X54212343Y108028904D01*
X54209336Y107932056D01*
X54070467Y107932056D01*
X54064379Y107978440D01*
X54053849Y108043696D01*
X54042367Y108075627D01*
X54003506Y108101827D01*
X53922937Y108109558D01*
X53857014Y108108856D01*
X53797916Y108094578D01*
X53773691Y108051942D01*
X53769207Y107966904D01*
X53641024Y107966904D01*
X53644536Y108004703D01*
X53645725Y108074740D01*
X53634073Y108107153D01*
X53607450Y108115046D01*
X53580163Y108106244D01*
X53557962Y108059807D01*
X53555384Y108028843D01*
X53539951Y107986557D01*
X53499157Y107977164D01*
X53456814Y108006189D01*
X53437440Y108058009D01*
X53429455Y108090124D01*
X53388478Y108115046D01*
X53379115Y108114362D01*
X53358504Y108100538D01*
X53353195Y108062643D01*
X53063639Y108062643D01*
X53057811Y108088890D01*
X53040717Y108101462D01*
X52979185Y108111572D01*
X52900080Y108107429D01*
X52829145Y108091303D01*
X52792120Y108065463D01*
X52783590Y108035513D01*
X52775241Y107930877D01*
X52659824Y107930877D01*
X52655233Y107971005D01*
X52643133Y108053233D01*
X52633785Y108092448D01*
X52630208Y108098069D01*
X52598718Y108116850D01*
X52573792Y108085683D01*
X52563656Y108013795D01*
X52323061Y108013795D01*
X52302836Y108088084D01*
X52273524Y108115046D01*
X52267789Y108114617D01*
X52245135Y108095567D01*
X52236142Y108042277D01*
X52061700Y108042277D01*
X52081568Y108069850D01*
X52057521Y108101804D01*
X51999510Y108114978D01*
X51931303Y108107689D01*
X51876681Y108078889D01*
X51857549Y108048090D01*
X51840123Y107962984D01*
X51705602Y107962984D01*
X51704416Y107971926D01*
X51696705Y108021519D01*
X51673505Y108092901D01*
X51639408Y108115046D01*
X51636628Y108114999D01*
X51610858Y108102898D01*
X51603729Y108059838D01*
X51469999Y108059838D01*
X51457247Y108096864D01*
X51429093Y108115046D01*
X51417951Y108113538D01*
X51398386Y108091400D01*
X51391095Y108033437D01*
X51393828Y107927683D01*
X51396179Y107873049D01*
X51394642Y107789594D01*
X51381661Y107746483D01*
X51354575Y107730332D01*
X51338586Y107729863D01*
X51315429Y107750758D01*
X51298749Y107809666D01*
X51284383Y107917696D01*
X51269306Y108024297D01*
X51248134Y108093472D01*
X51220451Y108115046D01*
X51212949Y108114366D01*
X51190355Y108094678D01*
X51181464Y108041464D01*
X51006547Y108041464D01*
X51027001Y108069850D01*
X51002954Y108101804D01*
X50944943Y108114978D01*
X50876736Y108107689D01*
X50822113Y108078889D01*
X50802982Y108048090D01*
X50785556Y107962984D01*
X50657828Y107962984D01*
X50647956Y108048357D01*
X50630992Y108160162D01*
X50604481Y108236839D01*
X50564322Y108281869D01*
X50521344Y108306341D01*
X50442018Y108325294D01*
X50384217Y108305872D01*
X50367337Y108283000D01*
X47909003Y108283000D01*
X47910667Y108310894D01*
X48013952Y108310894D01*
X48029017Y108295829D01*
X48044083Y108310894D01*
X48029017Y108325959D01*
X48013952Y108310894D01*
X47910667Y108310894D01*
X47914941Y108382525D01*
X47910897Y108401286D01*
X47953691Y108401286D01*
X47968756Y108386220D01*
X47983822Y108401286D01*
X47968756Y108416351D01*
X47953691Y108401286D01*
X47910897Y108401286D01*
X47882257Y108534153D01*
X47806243Y108668925D01*
X47686672Y108792982D01*
X47667380Y108807738D01*
X47636220Y108823669D01*
X47591756Y108835931D01*
X47526164Y108845270D01*
X47431617Y108852432D01*
X47300291Y108858162D01*
X47124360Y108863206D01*
X46895999Y108868308D01*
X46757125Y108871079D01*
X46569886Y108874347D01*
X46409901Y108876584D01*
X46285418Y108877697D01*
X46204686Y108877597D01*
X46175950Y108876193D01*
X45431044Y108876193D01*
X45127452Y109174458D01*
X45127452Y109068577D01*
X45127386Y109059886D01*
X45121073Y108980675D01*
X45107595Y108930567D01*
X45099019Y108924192D01*
X45039312Y108910558D01*
X44933270Y108901637D01*
X44790849Y108898439D01*
X44493960Y108898439D01*
X44397937Y108649862D01*
X44387089Y108621701D01*
X44326413Y108461787D01*
X44263372Y108292227D01*
X44201921Y108124021D01*
X44146012Y107968168D01*
X44099599Y107835667D01*
X44066634Y107737518D01*
X44051070Y107684720D01*
X44051059Y107655229D01*
X43808057Y107655229D01*
X43811317Y107671133D01*
X43794738Y107693219D01*
X43781322Y107688128D01*
X43765554Y107648023D01*
X42831509Y107648023D01*
X42831509Y107693219D01*
X43403988Y107693219D01*
X43406162Y107677268D01*
X43424075Y107673132D01*
X43427681Y107677548D01*
X43424075Y107713306D01*
X43415012Y107718020D01*
X43403988Y107693219D01*
X42831509Y107693219D01*
X42831509Y107766035D01*
X43798063Y107766035D01*
X43802888Y107736418D01*
X43816267Y107747831D01*
X43821081Y107765254D01*
X43813888Y107805581D01*
X43803602Y107805114D01*
X43798063Y107766035D01*
X42831509Y107766035D01*
X42831509Y107828806D01*
X43464249Y107828806D01*
X43479314Y107813741D01*
X43494379Y107828806D01*
X43479314Y107843872D01*
X43464249Y107828806D01*
X42831509Y107828806D01*
X42831509Y107888060D01*
X43857588Y107888060D01*
X43863472Y107889040D01*
X43885847Y107930035D01*
X43918904Y108006024D01*
X43940886Y108063344D01*
X43963088Y108132868D01*
X43966807Y108164880D01*
X43964495Y108165218D01*
X43945489Y108137219D01*
X43917575Y108075938D01*
X43888474Y108000940D01*
X43865905Y107931792D01*
X43857588Y107888060D01*
X42831509Y107888060D01*
X42831509Y108069850D01*
X43584771Y108069850D01*
X43599836Y108054785D01*
X43614901Y108069850D01*
X43599836Y108084916D01*
X43584771Y108069850D01*
X42831509Y108069850D01*
X42831509Y108190372D01*
X43645032Y108190372D01*
X43660097Y108175307D01*
X43675162Y108190372D01*
X43660097Y108205437D01*
X43645032Y108190372D01*
X42831509Y108190372D01*
X42831509Y108214827D01*
X43987165Y108214827D01*
X43994882Y108218168D01*
X44022630Y108258944D01*
X44060044Y108331919D01*
X44123373Y108468366D01*
X44193941Y108622074D01*
X44241855Y108729109D01*
X44269128Y108793992D01*
X44277772Y108821247D01*
X44276629Y108825731D01*
X44245863Y108838178D01*
X44234965Y108835812D01*
X44232576Y108808047D01*
X44237284Y108796376D01*
X44219289Y108777917D01*
X44202047Y108769258D01*
X44187380Y108723682D01*
X44184214Y108693753D01*
X44162331Y108640823D01*
X44157505Y108634479D01*
X44128468Y108581888D01*
X44090492Y108499988D01*
X44050475Y108405554D01*
X44015316Y108315365D01*
X43991913Y108246197D01*
X43987165Y108214827D01*
X42831509Y108214827D01*
X42831509Y109320265D01*
X50334000Y109320265D01*
X57836491Y109320265D01*
X57836491Y106503065D01*
G37*
D14*
G04 #@! TO.C,R405*
X83030149Y97511943D02*
X83030160Y97111944D01*
X83775985Y97513000D02*
X83775995Y97113000D01*
G04 #@! TO.C,R902*
X119610000Y33864985D02*
X120010000Y33864995D01*
X119611057Y33119149D02*
X120011056Y33119160D01*
G04 #@! TO.C,R402*
X90133149Y97511943D02*
X90133160Y97111944D01*
X90878985Y97513000D02*
X90878995Y97113000D01*
G04 #@! TO.C,R914*
X98680000Y79774985D02*
X99080000Y79774995D01*
X98681057Y79029149D02*
X99081056Y79029160D01*
G04 #@! TO.C,R901*
X119700000Y79774985D02*
X120100000Y79774995D01*
X119701057Y79029149D02*
X120101056Y79029160D01*
G04 #@! TD*
M02*
