G04 #@! TF.GenerationSoftware,KiCad,Pcbnew,8.0.9-8.0.9-0~ubuntu24.04.1*
G04 #@! TF.CreationDate,2026-07-06T14:45:12+00:00*
G04 #@! TF.ProjectId,luis48,6c756973-3438-42e6-9b69-6361645f7063,rev?*
G04 #@! TF.SameCoordinates,Original*
G04 #@! TF.FileFunction,Legend,Top*
G04 #@! TF.FilePolarity,Positive*
%FSLAX46Y46*%
G04 Gerber Fmt 4.6, Leading zero omitted, Abs format (unit mm)*
G04 Created by KiCad (PCBNEW 8.0.9-8.0.9-0~ubuntu24.04.1) date 2026-07-06 14:45:12*
%MOMM*%
%LPD*%
G01*
G04 APERTURE LIST*
%ADD10C,0.150000*%
%ADD11C,0.170000*%
%ADD12C,0.127000*%
%ADD13C,0.120000*%
%ADD14C,0.203200*%
%ADD15C,0.000000*%
%ADD16C,0.200000*%
G04 APERTURE END LIST*
D10*
X7285095Y44381181D02*
X7285095Y43571658D01*
X7285095Y43571658D02*
X7332714Y43476420D01*
X7332714Y43476420D02*
X7380333Y43428800D01*
X7380333Y43428800D02*
X7475571Y43381181D01*
X7475571Y43381181D02*
X7666047Y43381181D01*
X7666047Y43381181D02*
X7761285Y43428800D01*
X7761285Y43428800D02*
X7808904Y43476420D01*
X7808904Y43476420D02*
X7856523Y43571658D01*
X7856523Y43571658D02*
X7856523Y44381181D01*
X8285095Y44285943D02*
X8332714Y44333562D01*
X8332714Y44333562D02*
X8427952Y44381181D01*
X8427952Y44381181D02*
X8666047Y44381181D01*
X8666047Y44381181D02*
X8761285Y44333562D01*
X8761285Y44333562D02*
X8808904Y44285943D01*
X8808904Y44285943D02*
X8856523Y44190705D01*
X8856523Y44190705D02*
X8856523Y44095467D01*
X8856523Y44095467D02*
X8808904Y43952610D01*
X8808904Y43952610D02*
X8237476Y43381181D01*
X8237476Y43381181D02*
X8856523Y43381181D01*
D11*
X74073762Y46610492D02*
X74073762Y47430492D01*
X74073762Y47430492D02*
X74269000Y47430492D01*
X74269000Y47430492D02*
X74386143Y47391444D01*
X74386143Y47391444D02*
X74464238Y47313349D01*
X74464238Y47313349D02*
X74503285Y47235254D01*
X74503285Y47235254D02*
X74542333Y47079063D01*
X74542333Y47079063D02*
X74542333Y46961920D01*
X74542333Y46961920D02*
X74503285Y46805730D01*
X74503285Y46805730D02*
X74464238Y46727635D01*
X74464238Y46727635D02*
X74386143Y46649539D01*
X74386143Y46649539D02*
X74269000Y46610492D01*
X74269000Y46610492D02*
X74073762Y46610492D01*
X74815666Y47430492D02*
X75323285Y47430492D01*
X75323285Y47430492D02*
X75049952Y47118111D01*
X75049952Y47118111D02*
X75167095Y47118111D01*
X75167095Y47118111D02*
X75245190Y47079063D01*
X75245190Y47079063D02*
X75284238Y47040016D01*
X75284238Y47040016D02*
X75323285Y46961920D01*
X75323285Y46961920D02*
X75323285Y46766682D01*
X75323285Y46766682D02*
X75284238Y46688587D01*
X75284238Y46688587D02*
X75245190Y46649539D01*
X75245190Y46649539D02*
X75167095Y46610492D01*
X75167095Y46610492D02*
X74932809Y46610492D01*
X74932809Y46610492D02*
X74854714Y46649539D01*
X74854714Y46649539D02*
X74815666Y46688587D01*
X60491651Y47590644D02*
X60218318Y47981120D01*
X60023080Y47590644D02*
X60023080Y48410644D01*
X60023080Y48410644D02*
X60335461Y48410644D01*
X60335461Y48410644D02*
X60413556Y48371596D01*
X60413556Y48371596D02*
X60452603Y48332549D01*
X60452603Y48332549D02*
X60491651Y48254453D01*
X60491651Y48254453D02*
X60491651Y48137311D01*
X60491651Y48137311D02*
X60452603Y48059215D01*
X60452603Y48059215D02*
X60413556Y48020168D01*
X60413556Y48020168D02*
X60335461Y47981120D01*
X60335461Y47981120D02*
X60023080Y47981120D01*
X61272603Y47590644D02*
X60804032Y47590644D01*
X61038318Y47590644D02*
X61038318Y48410644D01*
X61038318Y48410644D02*
X60960222Y48293501D01*
X60960222Y48293501D02*
X60882127Y48215406D01*
X60882127Y48215406D02*
X60804032Y48176358D01*
X61545936Y48410644D02*
X62053555Y48410644D01*
X62053555Y48410644D02*
X61780222Y48098263D01*
X61780222Y48098263D02*
X61897365Y48098263D01*
X61897365Y48098263D02*
X61975460Y48059215D01*
X61975460Y48059215D02*
X62014508Y48020168D01*
X62014508Y48020168D02*
X62053555Y47942072D01*
X62053555Y47942072D02*
X62053555Y47746834D01*
X62053555Y47746834D02*
X62014508Y47668739D01*
X62014508Y47668739D02*
X61975460Y47629691D01*
X61975460Y47629691D02*
X61897365Y47590644D01*
X61897365Y47590644D02*
X61663079Y47590644D01*
X61663079Y47590644D02*
X61584984Y47629691D01*
X61584984Y47629691D02*
X61545936Y47668739D01*
X74817762Y36378492D02*
X74817762Y37198492D01*
X74817762Y37198492D02*
X75013000Y37198492D01*
X75013000Y37198492D02*
X75130143Y37159444D01*
X75130143Y37159444D02*
X75208238Y37081349D01*
X75208238Y37081349D02*
X75247285Y37003254D01*
X75247285Y37003254D02*
X75286333Y36847063D01*
X75286333Y36847063D02*
X75286333Y36729920D01*
X75286333Y36729920D02*
X75247285Y36573730D01*
X75247285Y36573730D02*
X75208238Y36495635D01*
X75208238Y36495635D02*
X75130143Y36417539D01*
X75130143Y36417539D02*
X75013000Y36378492D01*
X75013000Y36378492D02*
X74817762Y36378492D01*
X76028238Y37198492D02*
X75637762Y37198492D01*
X75637762Y37198492D02*
X75598714Y36808016D01*
X75598714Y36808016D02*
X75637762Y36847063D01*
X75637762Y36847063D02*
X75715857Y36886111D01*
X75715857Y36886111D02*
X75911095Y36886111D01*
X75911095Y36886111D02*
X75989190Y36847063D01*
X75989190Y36847063D02*
X76028238Y36808016D01*
X76028238Y36808016D02*
X76067285Y36729920D01*
X76067285Y36729920D02*
X76067285Y36534682D01*
X76067285Y36534682D02*
X76028238Y36456587D01*
X76028238Y36456587D02*
X75989190Y36417539D01*
X75989190Y36417539D02*
X75911095Y36378492D01*
X75911095Y36378492D02*
X75715857Y36378492D01*
X75715857Y36378492D02*
X75637762Y36417539D01*
X75637762Y36417539D02*
X75598714Y36456587D01*
X57695348Y59396809D02*
X57968681Y59006333D01*
X58163919Y59396809D02*
X58163919Y58576809D01*
X58163919Y58576809D02*
X57851538Y58576809D01*
X57851538Y58576809D02*
X57773443Y58615857D01*
X57773443Y58615857D02*
X57734396Y58654904D01*
X57734396Y58654904D02*
X57695348Y58733000D01*
X57695348Y58733000D02*
X57695348Y58850142D01*
X57695348Y58850142D02*
X57734396Y58928238D01*
X57734396Y58928238D02*
X57773443Y58967285D01*
X57773443Y58967285D02*
X57851538Y59006333D01*
X57851538Y59006333D02*
X58163919Y59006333D01*
X56914396Y59396809D02*
X57382967Y59396809D01*
X57148681Y59396809D02*
X57148681Y58576809D01*
X57148681Y58576809D02*
X57226777Y58693952D01*
X57226777Y58693952D02*
X57304872Y58772047D01*
X57304872Y58772047D02*
X57382967Y58811095D01*
X56211539Y58850142D02*
X56211539Y59396809D01*
X56406777Y58537761D02*
X56602015Y59123476D01*
X56602015Y59123476D02*
X56094396Y59123476D01*
X15622385Y74749051D02*
X14822384Y74749051D01*
X14822384Y74749051D02*
X14822384Y74939527D01*
X14822384Y74939527D02*
X14860479Y75053813D01*
X14860479Y75053813D02*
X14936670Y75130004D01*
X14936670Y75130004D02*
X15012860Y75168099D01*
X15012860Y75168099D02*
X15165241Y75206194D01*
X15165241Y75206194D02*
X15279527Y75206194D01*
X15279527Y75206194D02*
X15431908Y75168099D01*
X15431908Y75168099D02*
X15508099Y75130004D01*
X15508099Y75130004D02*
X15584290Y75053813D01*
X15584290Y75053813D02*
X15622385Y74939527D01*
X15622385Y74939527D02*
X15622385Y74749051D01*
X15622385Y75968100D02*
X15622385Y75510957D01*
X15622385Y75739528D02*
X14822384Y75739528D01*
X14822384Y75739528D02*
X14936670Y75663338D01*
X14936670Y75663338D02*
X15012860Y75587147D01*
X15012860Y75587147D02*
X15050956Y75510957D01*
X15089051Y76653815D02*
X15622385Y76653815D01*
X14784289Y76463339D02*
X15355718Y76272863D01*
X15355718Y76272863D02*
X15355718Y76768101D01*
X54787385Y55642503D02*
X53987384Y55642503D01*
X53987384Y55642503D02*
X53987384Y55832979D01*
X53987384Y55832979D02*
X54025479Y55947265D01*
X54025479Y55947265D02*
X54101670Y56023456D01*
X54101670Y56023456D02*
X54177860Y56061551D01*
X54177860Y56061551D02*
X54330241Y56099646D01*
X54330241Y56099646D02*
X54444527Y56099646D01*
X54444527Y56099646D02*
X54596908Y56061551D01*
X54596908Y56061551D02*
X54673099Y56023456D01*
X54673099Y56023456D02*
X54749290Y55947265D01*
X54749290Y55947265D02*
X54787385Y55832979D01*
X54787385Y55832979D02*
X54787385Y55642503D01*
X54787385Y56861552D02*
X54787385Y56404409D01*
X54787385Y56632980D02*
X53987384Y56632980D01*
X53987384Y56632980D02*
X54101670Y56556790D01*
X54101670Y56556790D02*
X54177860Y56480599D01*
X54177860Y56480599D02*
X54215956Y56404409D01*
X54063574Y57166315D02*
X54025479Y57204410D01*
X54025479Y57204410D02*
X53987384Y57280600D01*
X53987384Y57280600D02*
X53987384Y57471077D01*
X53987384Y57471077D02*
X54025479Y57547267D01*
X54025479Y57547267D02*
X54063574Y57585363D01*
X54063574Y57585363D02*
X54139765Y57623458D01*
X54139765Y57623458D02*
X54215956Y57623458D01*
X54215956Y57623458D02*
X54330241Y57585363D01*
X54330241Y57585363D02*
X54787385Y57128219D01*
X54787385Y57128219D02*
X54787385Y57623458D01*
D10*
X83622571Y31305943D02*
X83527333Y31353562D01*
X83527333Y31353562D02*
X83432095Y31448800D01*
X83432095Y31448800D02*
X83289238Y31591658D01*
X83289238Y31591658D02*
X83194000Y31639277D01*
X83194000Y31639277D02*
X83098762Y31639277D01*
X83146381Y31401181D02*
X83051143Y31448800D01*
X83051143Y31448800D02*
X82955905Y31544039D01*
X82955905Y31544039D02*
X82908286Y31734515D01*
X82908286Y31734515D02*
X82908286Y32067848D01*
X82908286Y32067848D02*
X82955905Y32258324D01*
X82955905Y32258324D02*
X83051143Y32353562D01*
X83051143Y32353562D02*
X83146381Y32401181D01*
X83146381Y32401181D02*
X83336857Y32401181D01*
X83336857Y32401181D02*
X83432095Y32353562D01*
X83432095Y32353562D02*
X83527333Y32258324D01*
X83527333Y32258324D02*
X83574952Y32067848D01*
X83574952Y32067848D02*
X83574952Y31734515D01*
X83574952Y31734515D02*
X83527333Y31544039D01*
X83527333Y31544039D02*
X83432095Y31448800D01*
X83432095Y31448800D02*
X83336857Y31401181D01*
X83336857Y31401181D02*
X83146381Y31401181D01*
X84527333Y31401181D02*
X83955905Y31401181D01*
X84241619Y31401181D02*
X84241619Y32401181D01*
X84241619Y32401181D02*
X84146381Y32258324D01*
X84146381Y32258324D02*
X84051143Y32163086D01*
X84051143Y32163086D02*
X83955905Y32115467D01*
X85384476Y32067848D02*
X85384476Y31401181D01*
X85146381Y32448800D02*
X84908286Y31734515D01*
X84908286Y31734515D02*
X85527333Y31734515D01*
X124798336Y58325381D02*
X124750717Y58230143D01*
X124750717Y58230143D02*
X124655479Y58134905D01*
X124655479Y58134905D02*
X124512621Y57992048D01*
X124512621Y57992048D02*
X124465002Y57896810D01*
X124465002Y57896810D02*
X124465002Y57801572D01*
X124703098Y57849191D02*
X124655479Y57753953D01*
X124655479Y57753953D02*
X124560240Y57658715D01*
X124560240Y57658715D02*
X124369764Y57611096D01*
X124369764Y57611096D02*
X124036431Y57611096D01*
X124036431Y57611096D02*
X123845955Y57658715D01*
X123845955Y57658715D02*
X123750717Y57753953D01*
X123750717Y57753953D02*
X123703098Y57849191D01*
X123703098Y57849191D02*
X123703098Y58039667D01*
X123703098Y58039667D02*
X123750717Y58134905D01*
X123750717Y58134905D02*
X123845955Y58230143D01*
X123845955Y58230143D02*
X124036431Y58277762D01*
X124036431Y58277762D02*
X124369764Y58277762D01*
X124369764Y58277762D02*
X124560240Y58230143D01*
X124560240Y58230143D02*
X124655479Y58134905D01*
X124655479Y58134905D02*
X124703098Y58039667D01*
X124703098Y58039667D02*
X124703098Y57849191D01*
X124703098Y58753953D02*
X124703098Y58944429D01*
X124703098Y58944429D02*
X124655479Y59039667D01*
X124655479Y59039667D02*
X124607859Y59087286D01*
X124607859Y59087286D02*
X124465002Y59182524D01*
X124465002Y59182524D02*
X124274526Y59230143D01*
X124274526Y59230143D02*
X123893574Y59230143D01*
X123893574Y59230143D02*
X123798336Y59182524D01*
X123798336Y59182524D02*
X123750717Y59134905D01*
X123750717Y59134905D02*
X123703098Y59039667D01*
X123703098Y59039667D02*
X123703098Y58849191D01*
X123703098Y58849191D02*
X123750717Y58753953D01*
X123750717Y58753953D02*
X123798336Y58706334D01*
X123798336Y58706334D02*
X123893574Y58658715D01*
X123893574Y58658715D02*
X124131669Y58658715D01*
X124131669Y58658715D02*
X124226907Y58706334D01*
X124226907Y58706334D02*
X124274526Y58753953D01*
X124274526Y58753953D02*
X124322145Y58849191D01*
X124322145Y58849191D02*
X124322145Y59039667D01*
X124322145Y59039667D02*
X124274526Y59134905D01*
X124274526Y59134905D02*
X124226907Y59182524D01*
X124226907Y59182524D02*
X124131669Y59230143D01*
X123703098Y59849191D02*
X123703098Y59944429D01*
X123703098Y59944429D02*
X123750717Y60039667D01*
X123750717Y60039667D02*
X123798336Y60087286D01*
X123798336Y60087286D02*
X123893574Y60134905D01*
X123893574Y60134905D02*
X124084050Y60182524D01*
X124084050Y60182524D02*
X124322145Y60182524D01*
X124322145Y60182524D02*
X124512621Y60134905D01*
X124512621Y60134905D02*
X124607859Y60087286D01*
X124607859Y60087286D02*
X124655479Y60039667D01*
X124655479Y60039667D02*
X124703098Y59944429D01*
X124703098Y59944429D02*
X124703098Y59849191D01*
X124703098Y59849191D02*
X124655479Y59753953D01*
X124655479Y59753953D02*
X124607859Y59706334D01*
X124607859Y59706334D02*
X124512621Y59658715D01*
X124512621Y59658715D02*
X124322145Y59611096D01*
X124322145Y59611096D02*
X124084050Y59611096D01*
X124084050Y59611096D02*
X123893574Y59658715D01*
X123893574Y59658715D02*
X123798336Y59706334D01*
X123798336Y59706334D02*
X123750717Y59753953D01*
X123750717Y59753953D02*
X123703098Y59849191D01*
X124036431Y61039667D02*
X124703098Y61039667D01*
X123655479Y60801572D02*
X124369764Y60563477D01*
X124369764Y60563477D02*
X124369764Y61182524D01*
D11*
X2959582Y42039535D02*
X2998630Y42000487D01*
X2998630Y42000487D02*
X3037677Y41883344D01*
X3037677Y41883344D02*
X3037677Y41805249D01*
X3037677Y41805249D02*
X2998630Y41688106D01*
X2998630Y41688106D02*
X2920534Y41610010D01*
X2920534Y41610010D02*
X2842439Y41570963D01*
X2842439Y41570963D02*
X2686248Y41531915D01*
X2686248Y41531915D02*
X2569105Y41531915D01*
X2569105Y41531915D02*
X2412915Y41570963D01*
X2412915Y41570963D02*
X2334819Y41610010D01*
X2334819Y41610010D02*
X2256724Y41688106D01*
X2256724Y41688106D02*
X2217676Y41805249D01*
X2217676Y41805249D02*
X2217676Y41883344D01*
X2217676Y41883344D02*
X2256724Y42000487D01*
X2256724Y42000487D02*
X2295772Y42039535D01*
X3037677Y42820488D02*
X3037677Y42351916D01*
X3037677Y42586202D02*
X2217676Y42586202D01*
X2217676Y42586202D02*
X2334819Y42508107D01*
X2334819Y42508107D02*
X2412915Y42430011D01*
X2412915Y42430011D02*
X2451962Y42351916D01*
D10*
X83328666Y98737181D02*
X83328666Y98022896D01*
X83328666Y98022896D02*
X83281047Y97880039D01*
X83281047Y97880039D02*
X83185809Y97784800D01*
X83185809Y97784800D02*
X83042952Y97737181D01*
X83042952Y97737181D02*
X82947714Y97737181D01*
X84233428Y98403848D02*
X84233428Y97737181D01*
X83995333Y98784800D02*
X83757238Y98070515D01*
X83757238Y98070515D02*
X84376285Y98070515D01*
X103778336Y58325381D02*
X103730717Y58230143D01*
X103730717Y58230143D02*
X103635479Y58134905D01*
X103635479Y58134905D02*
X103492621Y57992048D01*
X103492621Y57992048D02*
X103445002Y57896810D01*
X103445002Y57896810D02*
X103445002Y57801572D01*
X103683098Y57849191D02*
X103635479Y57753953D01*
X103635479Y57753953D02*
X103540240Y57658715D01*
X103540240Y57658715D02*
X103349764Y57611096D01*
X103349764Y57611096D02*
X103016431Y57611096D01*
X103016431Y57611096D02*
X102825955Y57658715D01*
X102825955Y57658715D02*
X102730717Y57753953D01*
X102730717Y57753953D02*
X102683098Y57849191D01*
X102683098Y57849191D02*
X102683098Y58039667D01*
X102683098Y58039667D02*
X102730717Y58134905D01*
X102730717Y58134905D02*
X102825955Y58230143D01*
X102825955Y58230143D02*
X103016431Y58277762D01*
X103016431Y58277762D02*
X103349764Y58277762D01*
X103349764Y58277762D02*
X103540240Y58230143D01*
X103540240Y58230143D02*
X103635479Y58134905D01*
X103635479Y58134905D02*
X103683098Y58039667D01*
X103683098Y58039667D02*
X103683098Y57849191D01*
X103683098Y58753953D02*
X103683098Y58944429D01*
X103683098Y58944429D02*
X103635479Y59039667D01*
X103635479Y59039667D02*
X103587859Y59087286D01*
X103587859Y59087286D02*
X103445002Y59182524D01*
X103445002Y59182524D02*
X103254526Y59230143D01*
X103254526Y59230143D02*
X102873574Y59230143D01*
X102873574Y59230143D02*
X102778336Y59182524D01*
X102778336Y59182524D02*
X102730717Y59134905D01*
X102730717Y59134905D02*
X102683098Y59039667D01*
X102683098Y59039667D02*
X102683098Y58849191D01*
X102683098Y58849191D02*
X102730717Y58753953D01*
X102730717Y58753953D02*
X102778336Y58706334D01*
X102778336Y58706334D02*
X102873574Y58658715D01*
X102873574Y58658715D02*
X103111669Y58658715D01*
X103111669Y58658715D02*
X103206907Y58706334D01*
X103206907Y58706334D02*
X103254526Y58753953D01*
X103254526Y58753953D02*
X103302145Y58849191D01*
X103302145Y58849191D02*
X103302145Y59039667D01*
X103302145Y59039667D02*
X103254526Y59134905D01*
X103254526Y59134905D02*
X103206907Y59182524D01*
X103206907Y59182524D02*
X103111669Y59230143D01*
X102683098Y59849191D02*
X102683098Y59944429D01*
X102683098Y59944429D02*
X102730717Y60039667D01*
X102730717Y60039667D02*
X102778336Y60087286D01*
X102778336Y60087286D02*
X102873574Y60134905D01*
X102873574Y60134905D02*
X103064050Y60182524D01*
X103064050Y60182524D02*
X103302145Y60182524D01*
X103302145Y60182524D02*
X103492621Y60134905D01*
X103492621Y60134905D02*
X103587859Y60087286D01*
X103587859Y60087286D02*
X103635479Y60039667D01*
X103635479Y60039667D02*
X103683098Y59944429D01*
X103683098Y59944429D02*
X103683098Y59849191D01*
X103683098Y59849191D02*
X103635479Y59753953D01*
X103635479Y59753953D02*
X103587859Y59706334D01*
X103587859Y59706334D02*
X103492621Y59658715D01*
X103492621Y59658715D02*
X103302145Y59611096D01*
X103302145Y59611096D02*
X103064050Y59611096D01*
X103064050Y59611096D02*
X102873574Y59658715D01*
X102873574Y59658715D02*
X102778336Y59706334D01*
X102778336Y59706334D02*
X102730717Y59753953D01*
X102730717Y59753953D02*
X102683098Y59849191D01*
X102683098Y61087286D02*
X102683098Y60611096D01*
X102683098Y60611096D02*
X103159288Y60563477D01*
X103159288Y60563477D02*
X103111669Y60611096D01*
X103111669Y60611096D02*
X103064050Y60706334D01*
X103064050Y60706334D02*
X103064050Y60944429D01*
X103064050Y60944429D02*
X103111669Y61039667D01*
X103111669Y61039667D02*
X103159288Y61087286D01*
X103159288Y61087286D02*
X103254526Y61134905D01*
X103254526Y61134905D02*
X103492621Y61134905D01*
X103492621Y61134905D02*
X103587859Y61087286D01*
X103587859Y61087286D02*
X103635479Y61039667D01*
X103635479Y61039667D02*
X103683098Y60944429D01*
X103683098Y60944429D02*
X103683098Y60706334D01*
X103683098Y60706334D02*
X103635479Y60611096D01*
X103635479Y60611096D02*
X103587859Y60563477D01*
D11*
X14567907Y74337986D02*
X14841240Y73947510D01*
X15036478Y74337986D02*
X15036478Y73517986D01*
X15036478Y73517986D02*
X14724097Y73517986D01*
X14724097Y73517986D02*
X14646002Y73557034D01*
X14646002Y73557034D02*
X14606955Y73596081D01*
X14606955Y73596081D02*
X14567907Y73674177D01*
X14567907Y73674177D02*
X14567907Y73791319D01*
X14567907Y73791319D02*
X14606955Y73869415D01*
X14606955Y73869415D02*
X14646002Y73908462D01*
X14646002Y73908462D02*
X14724097Y73947510D01*
X14724097Y73947510D02*
X15036478Y73947510D01*
X13786955Y74337986D02*
X14255526Y74337986D01*
X14021240Y74337986D02*
X14021240Y73517986D01*
X14021240Y73517986D02*
X14099336Y73635129D01*
X14099336Y73635129D02*
X14177431Y73713224D01*
X14177431Y73713224D02*
X14255526Y73752272D01*
X13084098Y73517986D02*
X13240288Y73517986D01*
X13240288Y73517986D02*
X13318384Y73557034D01*
X13318384Y73557034D02*
X13357431Y73596081D01*
X13357431Y73596081D02*
X13435526Y73713224D01*
X13435526Y73713224D02*
X13474574Y73869415D01*
X13474574Y73869415D02*
X13474574Y74181796D01*
X13474574Y74181796D02*
X13435526Y74259891D01*
X13435526Y74259891D02*
X13396479Y74298938D01*
X13396479Y74298938D02*
X13318384Y74337986D01*
X13318384Y74337986D02*
X13162193Y74337986D01*
X13162193Y74337986D02*
X13084098Y74298938D01*
X13084098Y74298938D02*
X13045050Y74259891D01*
X13045050Y74259891D02*
X13006003Y74181796D01*
X13006003Y74181796D02*
X13006003Y73986558D01*
X13006003Y73986558D02*
X13045050Y73908462D01*
X13045050Y73908462D02*
X13084098Y73869415D01*
X13084098Y73869415D02*
X13162193Y73830367D01*
X13162193Y73830367D02*
X13318384Y73830367D01*
X13318384Y73830367D02*
X13396479Y73869415D01*
X13396479Y73869415D02*
X13435526Y73908462D01*
X13435526Y73908462D02*
X13474574Y73986558D01*
D10*
X104111778Y42509381D02*
X104064159Y42414143D01*
X104064159Y42414143D02*
X103968921Y42318905D01*
X103968921Y42318905D02*
X103826063Y42176048D01*
X103826063Y42176048D02*
X103778444Y42080810D01*
X103778444Y42080810D02*
X103778444Y41985572D01*
X104016540Y42033191D02*
X103968921Y41937953D01*
X103968921Y41937953D02*
X103873682Y41842715D01*
X103873682Y41842715D02*
X103683206Y41795096D01*
X103683206Y41795096D02*
X103349873Y41795096D01*
X103349873Y41795096D02*
X103159397Y41842715D01*
X103159397Y41842715D02*
X103064159Y41937953D01*
X103064159Y41937953D02*
X103016540Y42033191D01*
X103016540Y42033191D02*
X103016540Y42223667D01*
X103016540Y42223667D02*
X103064159Y42318905D01*
X103064159Y42318905D02*
X103159397Y42414143D01*
X103159397Y42414143D02*
X103349873Y42461762D01*
X103349873Y42461762D02*
X103683206Y42461762D01*
X103683206Y42461762D02*
X103873682Y42414143D01*
X103873682Y42414143D02*
X103968921Y42318905D01*
X103968921Y42318905D02*
X104016540Y42223667D01*
X104016540Y42223667D02*
X104016540Y42033191D01*
X104016540Y42937953D02*
X104016540Y43128429D01*
X104016540Y43128429D02*
X103968921Y43223667D01*
X103968921Y43223667D02*
X103921301Y43271286D01*
X103921301Y43271286D02*
X103778444Y43366524D01*
X103778444Y43366524D02*
X103587968Y43414143D01*
X103587968Y43414143D02*
X103207016Y43414143D01*
X103207016Y43414143D02*
X103111778Y43366524D01*
X103111778Y43366524D02*
X103064159Y43318905D01*
X103064159Y43318905D02*
X103016540Y43223667D01*
X103016540Y43223667D02*
X103016540Y43033191D01*
X103016540Y43033191D02*
X103064159Y42937953D01*
X103064159Y42937953D02*
X103111778Y42890334D01*
X103111778Y42890334D02*
X103207016Y42842715D01*
X103207016Y42842715D02*
X103445111Y42842715D01*
X103445111Y42842715D02*
X103540349Y42890334D01*
X103540349Y42890334D02*
X103587968Y42937953D01*
X103587968Y42937953D02*
X103635587Y43033191D01*
X103635587Y43033191D02*
X103635587Y43223667D01*
X103635587Y43223667D02*
X103587968Y43318905D01*
X103587968Y43318905D02*
X103540349Y43366524D01*
X103540349Y43366524D02*
X103445111Y43414143D01*
X104016540Y44366524D02*
X104016540Y43795096D01*
X104016540Y44080810D02*
X103016540Y44080810D01*
X103016540Y44080810D02*
X103159397Y43985572D01*
X103159397Y43985572D02*
X103254635Y43890334D01*
X103254635Y43890334D02*
X103302254Y43795096D01*
X103016540Y45271286D02*
X103016540Y44795096D01*
X103016540Y44795096D02*
X103492730Y44747477D01*
X103492730Y44747477D02*
X103445111Y44795096D01*
X103445111Y44795096D02*
X103397492Y44890334D01*
X103397492Y44890334D02*
X103397492Y45128429D01*
X103397492Y45128429D02*
X103445111Y45223667D01*
X103445111Y45223667D02*
X103492730Y45271286D01*
X103492730Y45271286D02*
X103587968Y45318905D01*
X103587968Y45318905D02*
X103826063Y45318905D01*
X103826063Y45318905D02*
X103921301Y45271286D01*
X103921301Y45271286D02*
X103968921Y45223667D01*
X103968921Y45223667D02*
X104016540Y45128429D01*
X104016540Y45128429D02*
X104016540Y44890334D01*
X104016540Y44890334D02*
X103968921Y44795096D01*
X103968921Y44795096D02*
X103921301Y44747477D01*
D11*
X13409466Y48310577D02*
X13448514Y48349624D01*
X13448514Y48349624D02*
X13565657Y48388672D01*
X13565657Y48388672D02*
X13643752Y48388672D01*
X13643752Y48388672D02*
X13760895Y48349624D01*
X13760895Y48349624D02*
X13838991Y48271529D01*
X13838991Y48271529D02*
X13878038Y48193434D01*
X13878038Y48193434D02*
X13917086Y48037243D01*
X13917086Y48037243D02*
X13917086Y47920100D01*
X13917086Y47920100D02*
X13878038Y47763909D01*
X13878038Y47763909D02*
X13838991Y47685814D01*
X13838991Y47685814D02*
X13760895Y47607719D01*
X13760895Y47607719D02*
X13643752Y47568671D01*
X13643752Y47568671D02*
X13565657Y47568671D01*
X13565657Y47568671D02*
X13448514Y47607719D01*
X13448514Y47607719D02*
X13409466Y47646766D01*
X12667561Y47568671D02*
X13058037Y47568671D01*
X13058037Y47568671D02*
X13097085Y47959148D01*
X13097085Y47959148D02*
X13058037Y47920100D01*
X13058037Y47920100D02*
X12979942Y47881052D01*
X12979942Y47881052D02*
X12784704Y47881052D01*
X12784704Y47881052D02*
X12706608Y47920100D01*
X12706608Y47920100D02*
X12667561Y47959148D01*
X12667561Y47959148D02*
X12628513Y48037243D01*
X12628513Y48037243D02*
X12628513Y48232481D01*
X12628513Y48232481D02*
X12667561Y48310577D01*
X12667561Y48310577D02*
X12706608Y48349624D01*
X12706608Y48349624D02*
X12784704Y48388672D01*
X12784704Y48388672D02*
X12979942Y48388672D01*
X12979942Y48388672D02*
X13058037Y48349624D01*
X13058037Y48349624D02*
X13097085Y48310577D01*
D10*
X125131778Y42509381D02*
X125084159Y42414143D01*
X125084159Y42414143D02*
X124988921Y42318905D01*
X124988921Y42318905D02*
X124846063Y42176048D01*
X124846063Y42176048D02*
X124798444Y42080810D01*
X124798444Y42080810D02*
X124798444Y41985572D01*
X125036540Y42033191D02*
X124988921Y41937953D01*
X124988921Y41937953D02*
X124893682Y41842715D01*
X124893682Y41842715D02*
X124703206Y41795096D01*
X124703206Y41795096D02*
X124369873Y41795096D01*
X124369873Y41795096D02*
X124179397Y41842715D01*
X124179397Y41842715D02*
X124084159Y41937953D01*
X124084159Y41937953D02*
X124036540Y42033191D01*
X124036540Y42033191D02*
X124036540Y42223667D01*
X124036540Y42223667D02*
X124084159Y42318905D01*
X124084159Y42318905D02*
X124179397Y42414143D01*
X124179397Y42414143D02*
X124369873Y42461762D01*
X124369873Y42461762D02*
X124703206Y42461762D01*
X124703206Y42461762D02*
X124893682Y42414143D01*
X124893682Y42414143D02*
X124988921Y42318905D01*
X124988921Y42318905D02*
X125036540Y42223667D01*
X125036540Y42223667D02*
X125036540Y42033191D01*
X125036540Y42937953D02*
X125036540Y43128429D01*
X125036540Y43128429D02*
X124988921Y43223667D01*
X124988921Y43223667D02*
X124941301Y43271286D01*
X124941301Y43271286D02*
X124798444Y43366524D01*
X124798444Y43366524D02*
X124607968Y43414143D01*
X124607968Y43414143D02*
X124227016Y43414143D01*
X124227016Y43414143D02*
X124131778Y43366524D01*
X124131778Y43366524D02*
X124084159Y43318905D01*
X124084159Y43318905D02*
X124036540Y43223667D01*
X124036540Y43223667D02*
X124036540Y43033191D01*
X124036540Y43033191D02*
X124084159Y42937953D01*
X124084159Y42937953D02*
X124131778Y42890334D01*
X124131778Y42890334D02*
X124227016Y42842715D01*
X124227016Y42842715D02*
X124465111Y42842715D01*
X124465111Y42842715D02*
X124560349Y42890334D01*
X124560349Y42890334D02*
X124607968Y42937953D01*
X124607968Y42937953D02*
X124655587Y43033191D01*
X124655587Y43033191D02*
X124655587Y43223667D01*
X124655587Y43223667D02*
X124607968Y43318905D01*
X124607968Y43318905D02*
X124560349Y43366524D01*
X124560349Y43366524D02*
X124465111Y43414143D01*
X124036540Y44033191D02*
X124036540Y44128429D01*
X124036540Y44128429D02*
X124084159Y44223667D01*
X124084159Y44223667D02*
X124131778Y44271286D01*
X124131778Y44271286D02*
X124227016Y44318905D01*
X124227016Y44318905D02*
X124417492Y44366524D01*
X124417492Y44366524D02*
X124655587Y44366524D01*
X124655587Y44366524D02*
X124846063Y44318905D01*
X124846063Y44318905D02*
X124941301Y44271286D01*
X124941301Y44271286D02*
X124988921Y44223667D01*
X124988921Y44223667D02*
X125036540Y44128429D01*
X125036540Y44128429D02*
X125036540Y44033191D01*
X125036540Y44033191D02*
X124988921Y43937953D01*
X124988921Y43937953D02*
X124941301Y43890334D01*
X124941301Y43890334D02*
X124846063Y43842715D01*
X124846063Y43842715D02*
X124655587Y43795096D01*
X124655587Y43795096D02*
X124417492Y43795096D01*
X124417492Y43795096D02*
X124227016Y43842715D01*
X124227016Y43842715D02*
X124131778Y43890334D01*
X124131778Y43890334D02*
X124084159Y43937953D01*
X124084159Y43937953D02*
X124036540Y44033191D01*
X124036540Y45223667D02*
X124036540Y45033191D01*
X124036540Y45033191D02*
X124084159Y44937953D01*
X124084159Y44937953D02*
X124131778Y44890334D01*
X124131778Y44890334D02*
X124274635Y44795096D01*
X124274635Y44795096D02*
X124465111Y44747477D01*
X124465111Y44747477D02*
X124846063Y44747477D01*
X124846063Y44747477D02*
X124941301Y44795096D01*
X124941301Y44795096D02*
X124988921Y44842715D01*
X124988921Y44842715D02*
X125036540Y44937953D01*
X125036540Y44937953D02*
X125036540Y45128429D01*
X125036540Y45128429D02*
X124988921Y45223667D01*
X124988921Y45223667D02*
X124941301Y45271286D01*
X124941301Y45271286D02*
X124846063Y45318905D01*
X124846063Y45318905D02*
X124607968Y45318905D01*
X124607968Y45318905D02*
X124512730Y45271286D01*
X124512730Y45271286D02*
X124465111Y45223667D01*
X124465111Y45223667D02*
X124417492Y45128429D01*
X124417492Y45128429D02*
X124417492Y44937953D01*
X124417492Y44937953D02*
X124465111Y44842715D01*
X124465111Y44842715D02*
X124512730Y44795096D01*
X124512730Y44795096D02*
X124607968Y44747477D01*
X125010057Y73372381D02*
X124962438Y73277143D01*
X124962438Y73277143D02*
X124867200Y73181905D01*
X124867200Y73181905D02*
X124724342Y73039048D01*
X124724342Y73039048D02*
X124676723Y72943810D01*
X124676723Y72943810D02*
X124676723Y72848572D01*
X124914819Y72896191D02*
X124867200Y72800953D01*
X124867200Y72800953D02*
X124771961Y72705715D01*
X124771961Y72705715D02*
X124581485Y72658096D01*
X124581485Y72658096D02*
X124248152Y72658096D01*
X124248152Y72658096D02*
X124057676Y72705715D01*
X124057676Y72705715D02*
X123962438Y72800953D01*
X123962438Y72800953D02*
X123914819Y72896191D01*
X123914819Y72896191D02*
X123914819Y73086667D01*
X123914819Y73086667D02*
X123962438Y73181905D01*
X123962438Y73181905D02*
X124057676Y73277143D01*
X124057676Y73277143D02*
X124248152Y73324762D01*
X124248152Y73324762D02*
X124581485Y73324762D01*
X124581485Y73324762D02*
X124771961Y73277143D01*
X124771961Y73277143D02*
X124867200Y73181905D01*
X124867200Y73181905D02*
X124914819Y73086667D01*
X124914819Y73086667D02*
X124914819Y72896191D01*
X124914819Y73800953D02*
X124914819Y73991429D01*
X124914819Y73991429D02*
X124867200Y74086667D01*
X124867200Y74086667D02*
X124819580Y74134286D01*
X124819580Y74134286D02*
X124676723Y74229524D01*
X124676723Y74229524D02*
X124486247Y74277143D01*
X124486247Y74277143D02*
X124105295Y74277143D01*
X124105295Y74277143D02*
X124010057Y74229524D01*
X124010057Y74229524D02*
X123962438Y74181905D01*
X123962438Y74181905D02*
X123914819Y74086667D01*
X123914819Y74086667D02*
X123914819Y73896191D01*
X123914819Y73896191D02*
X123962438Y73800953D01*
X123962438Y73800953D02*
X124010057Y73753334D01*
X124010057Y73753334D02*
X124105295Y73705715D01*
X124105295Y73705715D02*
X124343390Y73705715D01*
X124343390Y73705715D02*
X124438628Y73753334D01*
X124438628Y73753334D02*
X124486247Y73800953D01*
X124486247Y73800953D02*
X124533866Y73896191D01*
X124533866Y73896191D02*
X124533866Y74086667D01*
X124533866Y74086667D02*
X124486247Y74181905D01*
X124486247Y74181905D02*
X124438628Y74229524D01*
X124438628Y74229524D02*
X124343390Y74277143D01*
X123914819Y74896191D02*
X123914819Y74991429D01*
X123914819Y74991429D02*
X123962438Y75086667D01*
X123962438Y75086667D02*
X124010057Y75134286D01*
X124010057Y75134286D02*
X124105295Y75181905D01*
X124105295Y75181905D02*
X124295771Y75229524D01*
X124295771Y75229524D02*
X124533866Y75229524D01*
X124533866Y75229524D02*
X124724342Y75181905D01*
X124724342Y75181905D02*
X124819580Y75134286D01*
X124819580Y75134286D02*
X124867200Y75086667D01*
X124867200Y75086667D02*
X124914819Y74991429D01*
X124914819Y74991429D02*
X124914819Y74896191D01*
X124914819Y74896191D02*
X124867200Y74800953D01*
X124867200Y74800953D02*
X124819580Y74753334D01*
X124819580Y74753334D02*
X124724342Y74705715D01*
X124724342Y74705715D02*
X124533866Y74658096D01*
X124533866Y74658096D02*
X124295771Y74658096D01*
X124295771Y74658096D02*
X124105295Y74705715D01*
X124105295Y74705715D02*
X124010057Y74753334D01*
X124010057Y74753334D02*
X123962438Y74800953D01*
X123962438Y74800953D02*
X123914819Y74896191D01*
X124914819Y76181905D02*
X124914819Y75610477D01*
X124914819Y75896191D02*
X123914819Y75896191D01*
X123914819Y75896191D02*
X124057676Y75800953D01*
X124057676Y75800953D02*
X124152914Y75705715D01*
X124152914Y75705715D02*
X124200533Y75610477D01*
X103900057Y27462381D02*
X103852438Y27367143D01*
X103852438Y27367143D02*
X103757200Y27271905D01*
X103757200Y27271905D02*
X103614342Y27129048D01*
X103614342Y27129048D02*
X103566723Y27033810D01*
X103566723Y27033810D02*
X103566723Y26938572D01*
X103804819Y26986191D02*
X103757200Y26890953D01*
X103757200Y26890953D02*
X103661961Y26795715D01*
X103661961Y26795715D02*
X103471485Y26748096D01*
X103471485Y26748096D02*
X103138152Y26748096D01*
X103138152Y26748096D02*
X102947676Y26795715D01*
X102947676Y26795715D02*
X102852438Y26890953D01*
X102852438Y26890953D02*
X102804819Y26986191D01*
X102804819Y26986191D02*
X102804819Y27176667D01*
X102804819Y27176667D02*
X102852438Y27271905D01*
X102852438Y27271905D02*
X102947676Y27367143D01*
X102947676Y27367143D02*
X103138152Y27414762D01*
X103138152Y27414762D02*
X103471485Y27414762D01*
X103471485Y27414762D02*
X103661961Y27367143D01*
X103661961Y27367143D02*
X103757200Y27271905D01*
X103757200Y27271905D02*
X103804819Y27176667D01*
X103804819Y27176667D02*
X103804819Y26986191D01*
X103804819Y27890953D02*
X103804819Y28081429D01*
X103804819Y28081429D02*
X103757200Y28176667D01*
X103757200Y28176667D02*
X103709580Y28224286D01*
X103709580Y28224286D02*
X103566723Y28319524D01*
X103566723Y28319524D02*
X103376247Y28367143D01*
X103376247Y28367143D02*
X102995295Y28367143D01*
X102995295Y28367143D02*
X102900057Y28319524D01*
X102900057Y28319524D02*
X102852438Y28271905D01*
X102852438Y28271905D02*
X102804819Y28176667D01*
X102804819Y28176667D02*
X102804819Y27986191D01*
X102804819Y27986191D02*
X102852438Y27890953D01*
X102852438Y27890953D02*
X102900057Y27843334D01*
X102900057Y27843334D02*
X102995295Y27795715D01*
X102995295Y27795715D02*
X103233390Y27795715D01*
X103233390Y27795715D02*
X103328628Y27843334D01*
X103328628Y27843334D02*
X103376247Y27890953D01*
X103376247Y27890953D02*
X103423866Y27986191D01*
X103423866Y27986191D02*
X103423866Y28176667D01*
X103423866Y28176667D02*
X103376247Y28271905D01*
X103376247Y28271905D02*
X103328628Y28319524D01*
X103328628Y28319524D02*
X103233390Y28367143D01*
X103804819Y29319524D02*
X103804819Y28748096D01*
X103804819Y29033810D02*
X102804819Y29033810D01*
X102804819Y29033810D02*
X102947676Y28938572D01*
X102947676Y28938572D02*
X103042914Y28843334D01*
X103042914Y28843334D02*
X103090533Y28748096D01*
X102804819Y29652858D02*
X102804819Y30271905D01*
X102804819Y30271905D02*
X103185771Y29938572D01*
X103185771Y29938572D02*
X103185771Y30081429D01*
X103185771Y30081429D02*
X103233390Y30176667D01*
X103233390Y30176667D02*
X103281009Y30224286D01*
X103281009Y30224286D02*
X103376247Y30271905D01*
X103376247Y30271905D02*
X103614342Y30271905D01*
X103614342Y30271905D02*
X103709580Y30224286D01*
X103709580Y30224286D02*
X103757200Y30176667D01*
X103757200Y30176667D02*
X103804819Y30081429D01*
X103804819Y30081429D02*
X103804819Y29795715D01*
X103804819Y29795715D02*
X103757200Y29700477D01*
X103757200Y29700477D02*
X103709580Y29652858D01*
D12*
X71132143Y23602242D02*
X70878143Y23602242D01*
X70878143Y23203099D02*
X70878143Y23965099D01*
X70878143Y23965099D02*
X71241000Y23965099D01*
X71930429Y23203099D02*
X71495000Y23203099D01*
X71712715Y23203099D02*
X71712715Y23965099D01*
X71712715Y23965099D02*
X71640143Y23856242D01*
X71640143Y23856242D02*
X71567572Y23783670D01*
X71567572Y23783670D02*
X71495000Y23747384D01*
X72402143Y23965099D02*
X72474714Y23965099D01*
X72474714Y23965099D02*
X72547286Y23928813D01*
X72547286Y23928813D02*
X72583572Y23892527D01*
X72583572Y23892527D02*
X72619857Y23819956D01*
X72619857Y23819956D02*
X72656143Y23674813D01*
X72656143Y23674813D02*
X72656143Y23493384D01*
X72656143Y23493384D02*
X72619857Y23348242D01*
X72619857Y23348242D02*
X72583572Y23275670D01*
X72583572Y23275670D02*
X72547286Y23239384D01*
X72547286Y23239384D02*
X72474714Y23203099D01*
X72474714Y23203099D02*
X72402143Y23203099D01*
X72402143Y23203099D02*
X72329572Y23239384D01*
X72329572Y23239384D02*
X72293286Y23275670D01*
X72293286Y23275670D02*
X72257000Y23348242D01*
X72257000Y23348242D02*
X72220714Y23493384D01*
X72220714Y23493384D02*
X72220714Y23674813D01*
X72220714Y23674813D02*
X72257000Y23819956D01*
X72257000Y23819956D02*
X72293286Y23892527D01*
X72293286Y23892527D02*
X72329572Y23928813D01*
X72329572Y23928813D02*
X72402143Y23965099D01*
D11*
X66076873Y55933586D02*
X66876873Y55933586D01*
X66876873Y55933586D02*
X66876873Y55743110D01*
X66876873Y55743110D02*
X66838778Y55628824D01*
X66838778Y55628824D02*
X66762588Y55552634D01*
X66762588Y55552634D02*
X66686397Y55514539D01*
X66686397Y55514539D02*
X66534016Y55476443D01*
X66534016Y55476443D02*
X66419730Y55476443D01*
X66419730Y55476443D02*
X66267349Y55514539D01*
X66267349Y55514539D02*
X66191159Y55552634D01*
X66191159Y55552634D02*
X66114969Y55628824D01*
X66114969Y55628824D02*
X66076873Y55743110D01*
X66076873Y55743110D02*
X66076873Y55933586D01*
X66076873Y54714539D02*
X66076873Y55171682D01*
X66076873Y54943110D02*
X66876873Y54943110D01*
X66876873Y54943110D02*
X66762588Y55019301D01*
X66762588Y55019301D02*
X66686397Y55095491D01*
X66686397Y55095491D02*
X66648302Y55171682D01*
X66876873Y54219300D02*
X66876873Y54143110D01*
X66876873Y54143110D02*
X66838778Y54066919D01*
X66838778Y54066919D02*
X66800683Y54028824D01*
X66800683Y54028824D02*
X66724492Y53990729D01*
X66724492Y53990729D02*
X66572111Y53952634D01*
X66572111Y53952634D02*
X66381635Y53952634D01*
X66381635Y53952634D02*
X66229254Y53990729D01*
X66229254Y53990729D02*
X66153064Y54028824D01*
X66153064Y54028824D02*
X66114969Y54066919D01*
X66114969Y54066919D02*
X66076873Y54143110D01*
X66076873Y54143110D02*
X66076873Y54219300D01*
X66076873Y54219300D02*
X66114969Y54295491D01*
X66114969Y54295491D02*
X66153064Y54333586D01*
X66153064Y54333586D02*
X66229254Y54371681D01*
X66229254Y54371681D02*
X66381635Y54409777D01*
X66381635Y54409777D02*
X66572111Y54409777D01*
X66572111Y54409777D02*
X66724492Y54371681D01*
X66724492Y54371681D02*
X66800683Y54333586D01*
X66800683Y54333586D02*
X66838778Y54295491D01*
X66838778Y54295491D02*
X66876873Y54219300D01*
X89910092Y101538014D02*
X89636759Y101928490D01*
X89441521Y101538014D02*
X89441521Y102358014D01*
X89441521Y102358014D02*
X89753902Y102358014D01*
X89753902Y102358014D02*
X89831997Y102318966D01*
X89831997Y102318966D02*
X89871044Y102279919D01*
X89871044Y102279919D02*
X89910092Y102201823D01*
X89910092Y102201823D02*
X89910092Y102084681D01*
X89910092Y102084681D02*
X89871044Y102006585D01*
X89871044Y102006585D02*
X89831997Y101967538D01*
X89831997Y101967538D02*
X89753902Y101928490D01*
X89753902Y101928490D02*
X89441521Y101928490D01*
X90691044Y101538014D02*
X90222473Y101538014D01*
X90456759Y101538014D02*
X90456759Y102358014D01*
X90456759Y102358014D02*
X90378663Y102240871D01*
X90378663Y102240871D02*
X90300568Y102162776D01*
X90300568Y102162776D02*
X90222473Y102123728D01*
X90964377Y102358014D02*
X91511044Y102358014D01*
X91511044Y102358014D02*
X91159615Y101538014D01*
D10*
X12699819Y44373406D02*
X11699819Y44373406D01*
X11699819Y44373406D02*
X11699819Y44611501D01*
X11699819Y44611501D02*
X11747438Y44754358D01*
X11747438Y44754358D02*
X11842676Y44849596D01*
X11842676Y44849596D02*
X11937914Y44897215D01*
X11937914Y44897215D02*
X12128390Y44944834D01*
X12128390Y44944834D02*
X12271247Y44944834D01*
X12271247Y44944834D02*
X12461723Y44897215D01*
X12461723Y44897215D02*
X12556961Y44849596D01*
X12556961Y44849596D02*
X12652200Y44754358D01*
X12652200Y44754358D02*
X12699819Y44611501D01*
X12699819Y44611501D02*
X12699819Y44373406D01*
X12699819Y45897215D02*
X12699819Y45325787D01*
X12699819Y45611501D02*
X11699819Y45611501D01*
X11699819Y45611501D02*
X11842676Y45516263D01*
X11842676Y45516263D02*
X11937914Y45421025D01*
X11937914Y45421025D02*
X11985533Y45325787D01*
D11*
X14617907Y72181058D02*
X14891240Y71790582D01*
X15086478Y72181058D02*
X15086478Y71361058D01*
X15086478Y71361058D02*
X14774097Y71361058D01*
X14774097Y71361058D02*
X14696002Y71400106D01*
X14696002Y71400106D02*
X14656955Y71439153D01*
X14656955Y71439153D02*
X14617907Y71517249D01*
X14617907Y71517249D02*
X14617907Y71634391D01*
X14617907Y71634391D02*
X14656955Y71712487D01*
X14656955Y71712487D02*
X14696002Y71751534D01*
X14696002Y71751534D02*
X14774097Y71790582D01*
X14774097Y71790582D02*
X15086478Y71790582D01*
X13836955Y72181058D02*
X14305526Y72181058D01*
X14071240Y72181058D02*
X14071240Y71361058D01*
X14071240Y71361058D02*
X14149336Y71478201D01*
X14149336Y71478201D02*
X14227431Y71556296D01*
X14227431Y71556296D02*
X14305526Y71595344D01*
X13095050Y71361058D02*
X13485526Y71361058D01*
X13485526Y71361058D02*
X13524574Y71751534D01*
X13524574Y71751534D02*
X13485526Y71712487D01*
X13485526Y71712487D02*
X13407431Y71673439D01*
X13407431Y71673439D02*
X13212193Y71673439D01*
X13212193Y71673439D02*
X13134098Y71712487D01*
X13134098Y71712487D02*
X13095050Y71751534D01*
X13095050Y71751534D02*
X13056003Y71829630D01*
X13056003Y71829630D02*
X13056003Y72024868D01*
X13056003Y72024868D02*
X13095050Y72102963D01*
X13095050Y72102963D02*
X13134098Y72142010D01*
X13134098Y72142010D02*
X13212193Y72181058D01*
X13212193Y72181058D02*
X13407431Y72181058D01*
X13407431Y72181058D02*
X13485526Y72142010D01*
X13485526Y72142010D02*
X13524574Y72102963D01*
X88676057Y35888093D02*
X88285581Y35614760D01*
X88676057Y35419522D02*
X87856057Y35419522D01*
X87856057Y35419522D02*
X87856057Y35731903D01*
X87856057Y35731903D02*
X87895105Y35809998D01*
X87895105Y35809998D02*
X87934152Y35849045D01*
X87934152Y35849045D02*
X88012248Y35888093D01*
X88012248Y35888093D02*
X88129390Y35888093D01*
X88129390Y35888093D02*
X88207486Y35849045D01*
X88207486Y35849045D02*
X88246533Y35809998D01*
X88246533Y35809998D02*
X88285581Y35731903D01*
X88285581Y35731903D02*
X88285581Y35419522D01*
X88676057Y36669045D02*
X88676057Y36200474D01*
X88676057Y36434760D02*
X87856057Y36434760D01*
X87856057Y36434760D02*
X87973200Y36356664D01*
X87973200Y36356664D02*
X88051295Y36278569D01*
X88051295Y36278569D02*
X88090343Y36200474D01*
X88676057Y37449997D02*
X88676057Y36981426D01*
X88676057Y37215712D02*
X87856057Y37215712D01*
X87856057Y37215712D02*
X87973200Y37137616D01*
X87973200Y37137616D02*
X88051295Y37059521D01*
X88051295Y37059521D02*
X88090343Y36981426D01*
X40175508Y23301763D02*
X39355508Y23301763D01*
X39355508Y23301763D02*
X39355508Y23497001D01*
X39355508Y23497001D02*
X39394556Y23614144D01*
X39394556Y23614144D02*
X39472651Y23692239D01*
X39472651Y23692239D02*
X39550746Y23731286D01*
X39550746Y23731286D02*
X39706937Y23770334D01*
X39706937Y23770334D02*
X39824080Y23770334D01*
X39824080Y23770334D02*
X39980270Y23731286D01*
X39980270Y23731286D02*
X40058365Y23692239D01*
X40058365Y23692239D02*
X40136461Y23614144D01*
X40136461Y23614144D02*
X40175508Y23497001D01*
X40175508Y23497001D02*
X40175508Y23301763D01*
X39433603Y24082715D02*
X39394556Y24121763D01*
X39394556Y24121763D02*
X39355508Y24199858D01*
X39355508Y24199858D02*
X39355508Y24395096D01*
X39355508Y24395096D02*
X39394556Y24473191D01*
X39394556Y24473191D02*
X39433603Y24512239D01*
X39433603Y24512239D02*
X39511699Y24551286D01*
X39511699Y24551286D02*
X39589794Y24551286D01*
X39589794Y24551286D02*
X39706937Y24512239D01*
X39706937Y24512239D02*
X40175508Y24043667D01*
X40175508Y24043667D02*
X40175508Y24551286D01*
D10*
X15928571Y1902943D02*
X15833333Y1950562D01*
X15833333Y1950562D02*
X15738095Y2045800D01*
X15738095Y2045800D02*
X15595238Y2188658D01*
X15595238Y2188658D02*
X15500000Y2236277D01*
X15500000Y2236277D02*
X15404762Y2236277D01*
X15452381Y1998181D02*
X15357143Y2045800D01*
X15357143Y2045800D02*
X15261905Y2141039D01*
X15261905Y2141039D02*
X15214286Y2331515D01*
X15214286Y2331515D02*
X15214286Y2664848D01*
X15214286Y2664848D02*
X15261905Y2855324D01*
X15261905Y2855324D02*
X15357143Y2950562D01*
X15357143Y2950562D02*
X15452381Y2998181D01*
X15452381Y2998181D02*
X15642857Y2998181D01*
X15642857Y2998181D02*
X15738095Y2950562D01*
X15738095Y2950562D02*
X15833333Y2855324D01*
X15833333Y2855324D02*
X15880952Y2664848D01*
X15880952Y2664848D02*
X15880952Y2331515D01*
X15880952Y2331515D02*
X15833333Y2141039D01*
X15833333Y2141039D02*
X15738095Y2045800D01*
X15738095Y2045800D02*
X15642857Y1998181D01*
X15642857Y1998181D02*
X15452381Y1998181D01*
X16833333Y1998181D02*
X16261905Y1998181D01*
X16547619Y1998181D02*
X16547619Y2998181D01*
X16547619Y2998181D02*
X16452381Y2855324D01*
X16452381Y2855324D02*
X16357143Y2760086D01*
X16357143Y2760086D02*
X16261905Y2712467D01*
X17214286Y2902943D02*
X17261905Y2950562D01*
X17261905Y2950562D02*
X17357143Y2998181D01*
X17357143Y2998181D02*
X17595238Y2998181D01*
X17595238Y2998181D02*
X17690476Y2950562D01*
X17690476Y2950562D02*
X17738095Y2902943D01*
X17738095Y2902943D02*
X17785714Y2807705D01*
X17785714Y2807705D02*
X17785714Y2712467D01*
X17785714Y2712467D02*
X17738095Y2569610D01*
X17738095Y2569610D02*
X17166667Y1998181D01*
X17166667Y1998181D02*
X17785714Y1998181D01*
D11*
X87857057Y44789093D02*
X87466581Y44515760D01*
X87857057Y44320522D02*
X87037057Y44320522D01*
X87037057Y44320522D02*
X87037057Y44632903D01*
X87037057Y44632903D02*
X87076105Y44710998D01*
X87076105Y44710998D02*
X87115152Y44750045D01*
X87115152Y44750045D02*
X87193248Y44789093D01*
X87193248Y44789093D02*
X87310390Y44789093D01*
X87310390Y44789093D02*
X87388486Y44750045D01*
X87388486Y44750045D02*
X87427533Y44710998D01*
X87427533Y44710998D02*
X87466581Y44632903D01*
X87466581Y44632903D02*
X87466581Y44320522D01*
X87857057Y45570045D02*
X87857057Y45101474D01*
X87857057Y45335760D02*
X87037057Y45335760D01*
X87037057Y45335760D02*
X87154200Y45257664D01*
X87154200Y45257664D02*
X87232295Y45179569D01*
X87232295Y45179569D02*
X87271343Y45101474D01*
X87857057Y45960521D02*
X87857057Y46116712D01*
X87857057Y46116712D02*
X87818010Y46194807D01*
X87818010Y46194807D02*
X87778962Y46233855D01*
X87778962Y46233855D02*
X87661819Y46311950D01*
X87661819Y46311950D02*
X87505629Y46350997D01*
X87505629Y46350997D02*
X87193248Y46350997D01*
X87193248Y46350997D02*
X87115152Y46311950D01*
X87115152Y46311950D02*
X87076105Y46272902D01*
X87076105Y46272902D02*
X87037057Y46194807D01*
X87037057Y46194807D02*
X87037057Y46038616D01*
X87037057Y46038616D02*
X87076105Y45960521D01*
X87076105Y45960521D02*
X87115152Y45921474D01*
X87115152Y45921474D02*
X87193248Y45882426D01*
X87193248Y45882426D02*
X87388486Y45882426D01*
X87388486Y45882426D02*
X87466581Y45921474D01*
X87466581Y45921474D02*
X87505629Y45960521D01*
X87505629Y45960521D02*
X87544676Y46038616D01*
X87544676Y46038616D02*
X87544676Y46194807D01*
X87544676Y46194807D02*
X87505629Y46272902D01*
X87505629Y46272902D02*
X87466581Y46311950D01*
X87466581Y46311950D02*
X87388486Y46350997D01*
X66214873Y53850586D02*
X67014873Y53850586D01*
X67014873Y53850586D02*
X67014873Y53660110D01*
X67014873Y53660110D02*
X66976778Y53545824D01*
X66976778Y53545824D02*
X66900588Y53469634D01*
X66900588Y53469634D02*
X66824397Y53431539D01*
X66824397Y53431539D02*
X66672016Y53393443D01*
X66672016Y53393443D02*
X66557730Y53393443D01*
X66557730Y53393443D02*
X66405349Y53431539D01*
X66405349Y53431539D02*
X66329159Y53469634D01*
X66329159Y53469634D02*
X66252969Y53545824D01*
X66252969Y53545824D02*
X66214873Y53660110D01*
X66214873Y53660110D02*
X66214873Y53850586D01*
X66214873Y53012491D02*
X66214873Y52860110D01*
X66214873Y52860110D02*
X66252969Y52783920D01*
X66252969Y52783920D02*
X66291064Y52745824D01*
X66291064Y52745824D02*
X66405349Y52669634D01*
X66405349Y52669634D02*
X66557730Y52631539D01*
X66557730Y52631539D02*
X66862492Y52631539D01*
X66862492Y52631539D02*
X66938683Y52669634D01*
X66938683Y52669634D02*
X66976778Y52707729D01*
X66976778Y52707729D02*
X67014873Y52783920D01*
X67014873Y52783920D02*
X67014873Y52936301D01*
X67014873Y52936301D02*
X66976778Y53012491D01*
X66976778Y53012491D02*
X66938683Y53050586D01*
X66938683Y53050586D02*
X66862492Y53088682D01*
X66862492Y53088682D02*
X66672016Y53088682D01*
X66672016Y53088682D02*
X66595826Y53050586D01*
X66595826Y53050586D02*
X66557730Y53012491D01*
X66557730Y53012491D02*
X66519635Y52936301D01*
X66519635Y52936301D02*
X66519635Y52783920D01*
X66519635Y52783920D02*
X66557730Y52707729D01*
X66557730Y52707729D02*
X66595826Y52669634D01*
X66595826Y52669634D02*
X66672016Y52631539D01*
D10*
X93260057Y73352381D02*
X93212438Y73257143D01*
X93212438Y73257143D02*
X93117200Y73161905D01*
X93117200Y73161905D02*
X92974342Y73019048D01*
X92974342Y73019048D02*
X92926723Y72923810D01*
X92926723Y72923810D02*
X92926723Y72828572D01*
X93164819Y72876191D02*
X93117200Y72780953D01*
X93117200Y72780953D02*
X93021961Y72685715D01*
X93021961Y72685715D02*
X92831485Y72638096D01*
X92831485Y72638096D02*
X92498152Y72638096D01*
X92498152Y72638096D02*
X92307676Y72685715D01*
X92307676Y72685715D02*
X92212438Y72780953D01*
X92212438Y72780953D02*
X92164819Y72876191D01*
X92164819Y72876191D02*
X92164819Y73066667D01*
X92164819Y73066667D02*
X92212438Y73161905D01*
X92212438Y73161905D02*
X92307676Y73257143D01*
X92307676Y73257143D02*
X92498152Y73304762D01*
X92498152Y73304762D02*
X92831485Y73304762D01*
X92831485Y73304762D02*
X93021961Y73257143D01*
X93021961Y73257143D02*
X93117200Y73161905D01*
X93117200Y73161905D02*
X93164819Y73066667D01*
X93164819Y73066667D02*
X93164819Y72876191D01*
X93164819Y73780953D02*
X93164819Y73971429D01*
X93164819Y73971429D02*
X93117200Y74066667D01*
X93117200Y74066667D02*
X93069580Y74114286D01*
X93069580Y74114286D02*
X92926723Y74209524D01*
X92926723Y74209524D02*
X92736247Y74257143D01*
X92736247Y74257143D02*
X92355295Y74257143D01*
X92355295Y74257143D02*
X92260057Y74209524D01*
X92260057Y74209524D02*
X92212438Y74161905D01*
X92212438Y74161905D02*
X92164819Y74066667D01*
X92164819Y74066667D02*
X92164819Y73876191D01*
X92164819Y73876191D02*
X92212438Y73780953D01*
X92212438Y73780953D02*
X92260057Y73733334D01*
X92260057Y73733334D02*
X92355295Y73685715D01*
X92355295Y73685715D02*
X92593390Y73685715D01*
X92593390Y73685715D02*
X92688628Y73733334D01*
X92688628Y73733334D02*
X92736247Y73780953D01*
X92736247Y73780953D02*
X92783866Y73876191D01*
X92783866Y73876191D02*
X92783866Y74066667D01*
X92783866Y74066667D02*
X92736247Y74161905D01*
X92736247Y74161905D02*
X92688628Y74209524D01*
X92688628Y74209524D02*
X92593390Y74257143D01*
X93164819Y75209524D02*
X93164819Y74638096D01*
X93164819Y74923810D02*
X92164819Y74923810D01*
X92164819Y74923810D02*
X92307676Y74828572D01*
X92307676Y74828572D02*
X92402914Y74733334D01*
X92402914Y74733334D02*
X92450533Y74638096D01*
X92164819Y76066667D02*
X92164819Y75876191D01*
X92164819Y75876191D02*
X92212438Y75780953D01*
X92212438Y75780953D02*
X92260057Y75733334D01*
X92260057Y75733334D02*
X92402914Y75638096D01*
X92402914Y75638096D02*
X92593390Y75590477D01*
X92593390Y75590477D02*
X92974342Y75590477D01*
X92974342Y75590477D02*
X93069580Y75638096D01*
X93069580Y75638096D02*
X93117200Y75685715D01*
X93117200Y75685715D02*
X93164819Y75780953D01*
X93164819Y75780953D02*
X93164819Y75971429D01*
X93164819Y75971429D02*
X93117200Y76066667D01*
X93117200Y76066667D02*
X93069580Y76114286D01*
X93069580Y76114286D02*
X92974342Y76161905D01*
X92974342Y76161905D02*
X92736247Y76161905D01*
X92736247Y76161905D02*
X92641009Y76114286D01*
X92641009Y76114286D02*
X92593390Y76066667D01*
X92593390Y76066667D02*
X92545771Y75971429D01*
X92545771Y75971429D02*
X92545771Y75780953D01*
X92545771Y75780953D02*
X92593390Y75685715D01*
X92593390Y75685715D02*
X92641009Y75638096D01*
X92641009Y75638096D02*
X92736247Y75590477D01*
X82955571Y40231943D02*
X82860333Y40279562D01*
X82860333Y40279562D02*
X82765095Y40374800D01*
X82765095Y40374800D02*
X82622238Y40517658D01*
X82622238Y40517658D02*
X82527000Y40565277D01*
X82527000Y40565277D02*
X82431762Y40565277D01*
X82479381Y40327181D02*
X82384143Y40374800D01*
X82384143Y40374800D02*
X82288905Y40470039D01*
X82288905Y40470039D02*
X82241286Y40660515D01*
X82241286Y40660515D02*
X82241286Y40993848D01*
X82241286Y40993848D02*
X82288905Y41184324D01*
X82288905Y41184324D02*
X82384143Y41279562D01*
X82384143Y41279562D02*
X82479381Y41327181D01*
X82479381Y41327181D02*
X82669857Y41327181D01*
X82669857Y41327181D02*
X82765095Y41279562D01*
X82765095Y41279562D02*
X82860333Y41184324D01*
X82860333Y41184324D02*
X82907952Y40993848D01*
X82907952Y40993848D02*
X82907952Y40660515D01*
X82907952Y40660515D02*
X82860333Y40470039D01*
X82860333Y40470039D02*
X82765095Y40374800D01*
X82765095Y40374800D02*
X82669857Y40327181D01*
X82669857Y40327181D02*
X82479381Y40327181D01*
X83860333Y40327181D02*
X83288905Y40327181D01*
X83574619Y40327181D02*
X83574619Y41327181D01*
X83574619Y41327181D02*
X83479381Y41184324D01*
X83479381Y41184324D02*
X83384143Y41089086D01*
X83384143Y41089086D02*
X83288905Y41041467D01*
X84812714Y40327181D02*
X84241286Y40327181D01*
X84527000Y40327181D02*
X84527000Y41327181D01*
X84527000Y41327181D02*
X84431762Y41184324D01*
X84431762Y41184324D02*
X84336524Y41089086D01*
X84336524Y41089086D02*
X84241286Y41041467D01*
X114350057Y73472381D02*
X114302438Y73377143D01*
X114302438Y73377143D02*
X114207200Y73281905D01*
X114207200Y73281905D02*
X114064342Y73139048D01*
X114064342Y73139048D02*
X114016723Y73043810D01*
X114016723Y73043810D02*
X114016723Y72948572D01*
X114254819Y72996191D02*
X114207200Y72900953D01*
X114207200Y72900953D02*
X114111961Y72805715D01*
X114111961Y72805715D02*
X113921485Y72758096D01*
X113921485Y72758096D02*
X113588152Y72758096D01*
X113588152Y72758096D02*
X113397676Y72805715D01*
X113397676Y72805715D02*
X113302438Y72900953D01*
X113302438Y72900953D02*
X113254819Y72996191D01*
X113254819Y72996191D02*
X113254819Y73186667D01*
X113254819Y73186667D02*
X113302438Y73281905D01*
X113302438Y73281905D02*
X113397676Y73377143D01*
X113397676Y73377143D02*
X113588152Y73424762D01*
X113588152Y73424762D02*
X113921485Y73424762D01*
X113921485Y73424762D02*
X114111961Y73377143D01*
X114111961Y73377143D02*
X114207200Y73281905D01*
X114207200Y73281905D02*
X114254819Y73186667D01*
X114254819Y73186667D02*
X114254819Y72996191D01*
X114254819Y73900953D02*
X114254819Y74091429D01*
X114254819Y74091429D02*
X114207200Y74186667D01*
X114207200Y74186667D02*
X114159580Y74234286D01*
X114159580Y74234286D02*
X114016723Y74329524D01*
X114016723Y74329524D02*
X113826247Y74377143D01*
X113826247Y74377143D02*
X113445295Y74377143D01*
X113445295Y74377143D02*
X113350057Y74329524D01*
X113350057Y74329524D02*
X113302438Y74281905D01*
X113302438Y74281905D02*
X113254819Y74186667D01*
X113254819Y74186667D02*
X113254819Y73996191D01*
X113254819Y73996191D02*
X113302438Y73900953D01*
X113302438Y73900953D02*
X113350057Y73853334D01*
X113350057Y73853334D02*
X113445295Y73805715D01*
X113445295Y73805715D02*
X113683390Y73805715D01*
X113683390Y73805715D02*
X113778628Y73853334D01*
X113778628Y73853334D02*
X113826247Y73900953D01*
X113826247Y73900953D02*
X113873866Y73996191D01*
X113873866Y73996191D02*
X113873866Y74186667D01*
X113873866Y74186667D02*
X113826247Y74281905D01*
X113826247Y74281905D02*
X113778628Y74329524D01*
X113778628Y74329524D02*
X113683390Y74377143D01*
X114254819Y75329524D02*
X114254819Y74758096D01*
X114254819Y75043810D02*
X113254819Y75043810D01*
X113254819Y75043810D02*
X113397676Y74948572D01*
X113397676Y74948572D02*
X113492914Y74853334D01*
X113492914Y74853334D02*
X113540533Y74758096D01*
X113350057Y75710477D02*
X113302438Y75758096D01*
X113302438Y75758096D02*
X113254819Y75853334D01*
X113254819Y75853334D02*
X113254819Y76091429D01*
X113254819Y76091429D02*
X113302438Y76186667D01*
X113302438Y76186667D02*
X113350057Y76234286D01*
X113350057Y76234286D02*
X113445295Y76281905D01*
X113445295Y76281905D02*
X113540533Y76281905D01*
X113540533Y76281905D02*
X113683390Y76234286D01*
X113683390Y76234286D02*
X114254819Y75662858D01*
X114254819Y75662858D02*
X114254819Y76281905D01*
D11*
X88733057Y27707093D02*
X88342581Y27433760D01*
X88733057Y27238522D02*
X87913057Y27238522D01*
X87913057Y27238522D02*
X87913057Y27550903D01*
X87913057Y27550903D02*
X87952105Y27628998D01*
X87952105Y27628998D02*
X87991152Y27668045D01*
X87991152Y27668045D02*
X88069248Y27707093D01*
X88069248Y27707093D02*
X88186390Y27707093D01*
X88186390Y27707093D02*
X88264486Y27668045D01*
X88264486Y27668045D02*
X88303533Y27628998D01*
X88303533Y27628998D02*
X88342581Y27550903D01*
X88342581Y27550903D02*
X88342581Y27238522D01*
X88733057Y28488045D02*
X88733057Y28019474D01*
X88733057Y28253760D02*
X87913057Y28253760D01*
X87913057Y28253760D02*
X88030200Y28175664D01*
X88030200Y28175664D02*
X88108295Y28097569D01*
X88108295Y28097569D02*
X88147343Y28019474D01*
X87991152Y28800426D02*
X87952105Y28839474D01*
X87952105Y28839474D02*
X87913057Y28917569D01*
X87913057Y28917569D02*
X87913057Y29112807D01*
X87913057Y29112807D02*
X87952105Y29190902D01*
X87952105Y29190902D02*
X87991152Y29229950D01*
X87991152Y29229950D02*
X88069248Y29268997D01*
X88069248Y29268997D02*
X88147343Y29268997D01*
X88147343Y29268997D02*
X88264486Y29229950D01*
X88264486Y29229950D02*
X88733057Y28761378D01*
X88733057Y28761378D02*
X88733057Y29268997D01*
X10647582Y41471534D02*
X10686630Y41432486D01*
X10686630Y41432486D02*
X10725677Y41315343D01*
X10725677Y41315343D02*
X10725677Y41237248D01*
X10725677Y41237248D02*
X10686630Y41120105D01*
X10686630Y41120105D02*
X10608534Y41042009D01*
X10608534Y41042009D02*
X10530439Y41002962D01*
X10530439Y41002962D02*
X10374248Y40963914D01*
X10374248Y40963914D02*
X10257105Y40963914D01*
X10257105Y40963914D02*
X10100915Y41002962D01*
X10100915Y41002962D02*
X10022819Y41042009D01*
X10022819Y41042009D02*
X9944724Y41120105D01*
X9944724Y41120105D02*
X9905676Y41237248D01*
X9905676Y41237248D02*
X9905676Y41315343D01*
X9905676Y41315343D02*
X9944724Y41432486D01*
X9944724Y41432486D02*
X9983772Y41471534D01*
X9905676Y41744867D02*
X9905676Y42252487D01*
X9905676Y42252487D02*
X10218058Y41979153D01*
X10218058Y41979153D02*
X10218058Y42096296D01*
X10218058Y42096296D02*
X10257105Y42174392D01*
X10257105Y42174392D02*
X10296153Y42213439D01*
X10296153Y42213439D02*
X10374248Y42252487D01*
X10374248Y42252487D02*
X10569487Y42252487D01*
X10569487Y42252487D02*
X10647582Y42213439D01*
X10647582Y42213439D02*
X10686630Y42174392D01*
X10686630Y42174392D02*
X10725677Y42096296D01*
X10725677Y42096296D02*
X10725677Y41862010D01*
X10725677Y41862010D02*
X10686630Y41783915D01*
X10686630Y41783915D02*
X10647582Y41744867D01*
D10*
X114260057Y27562381D02*
X114212438Y27467143D01*
X114212438Y27467143D02*
X114117200Y27371905D01*
X114117200Y27371905D02*
X113974342Y27229048D01*
X113974342Y27229048D02*
X113926723Y27133810D01*
X113926723Y27133810D02*
X113926723Y27038572D01*
X114164819Y27086191D02*
X114117200Y26990953D01*
X114117200Y26990953D02*
X114021961Y26895715D01*
X114021961Y26895715D02*
X113831485Y26848096D01*
X113831485Y26848096D02*
X113498152Y26848096D01*
X113498152Y26848096D02*
X113307676Y26895715D01*
X113307676Y26895715D02*
X113212438Y26990953D01*
X113212438Y26990953D02*
X113164819Y27086191D01*
X113164819Y27086191D02*
X113164819Y27276667D01*
X113164819Y27276667D02*
X113212438Y27371905D01*
X113212438Y27371905D02*
X113307676Y27467143D01*
X113307676Y27467143D02*
X113498152Y27514762D01*
X113498152Y27514762D02*
X113831485Y27514762D01*
X113831485Y27514762D02*
X114021961Y27467143D01*
X114021961Y27467143D02*
X114117200Y27371905D01*
X114117200Y27371905D02*
X114164819Y27276667D01*
X114164819Y27276667D02*
X114164819Y27086191D01*
X114164819Y27990953D02*
X114164819Y28181429D01*
X114164819Y28181429D02*
X114117200Y28276667D01*
X114117200Y28276667D02*
X114069580Y28324286D01*
X114069580Y28324286D02*
X113926723Y28419524D01*
X113926723Y28419524D02*
X113736247Y28467143D01*
X113736247Y28467143D02*
X113355295Y28467143D01*
X113355295Y28467143D02*
X113260057Y28419524D01*
X113260057Y28419524D02*
X113212438Y28371905D01*
X113212438Y28371905D02*
X113164819Y28276667D01*
X113164819Y28276667D02*
X113164819Y28086191D01*
X113164819Y28086191D02*
X113212438Y27990953D01*
X113212438Y27990953D02*
X113260057Y27943334D01*
X113260057Y27943334D02*
X113355295Y27895715D01*
X113355295Y27895715D02*
X113593390Y27895715D01*
X113593390Y27895715D02*
X113688628Y27943334D01*
X113688628Y27943334D02*
X113736247Y27990953D01*
X113736247Y27990953D02*
X113783866Y28086191D01*
X113783866Y28086191D02*
X113783866Y28276667D01*
X113783866Y28276667D02*
X113736247Y28371905D01*
X113736247Y28371905D02*
X113688628Y28419524D01*
X113688628Y28419524D02*
X113593390Y28467143D01*
X113164819Y29086191D02*
X113164819Y29181429D01*
X113164819Y29181429D02*
X113212438Y29276667D01*
X113212438Y29276667D02*
X113260057Y29324286D01*
X113260057Y29324286D02*
X113355295Y29371905D01*
X113355295Y29371905D02*
X113545771Y29419524D01*
X113545771Y29419524D02*
X113783866Y29419524D01*
X113783866Y29419524D02*
X113974342Y29371905D01*
X113974342Y29371905D02*
X114069580Y29324286D01*
X114069580Y29324286D02*
X114117200Y29276667D01*
X114117200Y29276667D02*
X114164819Y29181429D01*
X114164819Y29181429D02*
X114164819Y29086191D01*
X114164819Y29086191D02*
X114117200Y28990953D01*
X114117200Y28990953D02*
X114069580Y28943334D01*
X114069580Y28943334D02*
X113974342Y28895715D01*
X113974342Y28895715D02*
X113783866Y28848096D01*
X113783866Y28848096D02*
X113545771Y28848096D01*
X113545771Y28848096D02*
X113355295Y28895715D01*
X113355295Y28895715D02*
X113260057Y28943334D01*
X113260057Y28943334D02*
X113212438Y28990953D01*
X113212438Y28990953D02*
X113164819Y29086191D01*
X113164819Y29752858D02*
X113164819Y30371905D01*
X113164819Y30371905D02*
X113545771Y30038572D01*
X113545771Y30038572D02*
X113545771Y30181429D01*
X113545771Y30181429D02*
X113593390Y30276667D01*
X113593390Y30276667D02*
X113641009Y30324286D01*
X113641009Y30324286D02*
X113736247Y30371905D01*
X113736247Y30371905D02*
X113974342Y30371905D01*
X113974342Y30371905D02*
X114069580Y30324286D01*
X114069580Y30324286D02*
X114117200Y30276667D01*
X114117200Y30276667D02*
X114164819Y30181429D01*
X114164819Y30181429D02*
X114164819Y29895715D01*
X114164819Y29895715D02*
X114117200Y29800477D01*
X114117200Y29800477D02*
X114069580Y29752858D01*
X114471778Y42609381D02*
X114424159Y42514143D01*
X114424159Y42514143D02*
X114328921Y42418905D01*
X114328921Y42418905D02*
X114186063Y42276048D01*
X114186063Y42276048D02*
X114138444Y42180810D01*
X114138444Y42180810D02*
X114138444Y42085572D01*
X114376540Y42133191D02*
X114328921Y42037953D01*
X114328921Y42037953D02*
X114233682Y41942715D01*
X114233682Y41942715D02*
X114043206Y41895096D01*
X114043206Y41895096D02*
X113709873Y41895096D01*
X113709873Y41895096D02*
X113519397Y41942715D01*
X113519397Y41942715D02*
X113424159Y42037953D01*
X113424159Y42037953D02*
X113376540Y42133191D01*
X113376540Y42133191D02*
X113376540Y42323667D01*
X113376540Y42323667D02*
X113424159Y42418905D01*
X113424159Y42418905D02*
X113519397Y42514143D01*
X113519397Y42514143D02*
X113709873Y42561762D01*
X113709873Y42561762D02*
X114043206Y42561762D01*
X114043206Y42561762D02*
X114233682Y42514143D01*
X114233682Y42514143D02*
X114328921Y42418905D01*
X114328921Y42418905D02*
X114376540Y42323667D01*
X114376540Y42323667D02*
X114376540Y42133191D01*
X114376540Y43037953D02*
X114376540Y43228429D01*
X114376540Y43228429D02*
X114328921Y43323667D01*
X114328921Y43323667D02*
X114281301Y43371286D01*
X114281301Y43371286D02*
X114138444Y43466524D01*
X114138444Y43466524D02*
X113947968Y43514143D01*
X113947968Y43514143D02*
X113567016Y43514143D01*
X113567016Y43514143D02*
X113471778Y43466524D01*
X113471778Y43466524D02*
X113424159Y43418905D01*
X113424159Y43418905D02*
X113376540Y43323667D01*
X113376540Y43323667D02*
X113376540Y43133191D01*
X113376540Y43133191D02*
X113424159Y43037953D01*
X113424159Y43037953D02*
X113471778Y42990334D01*
X113471778Y42990334D02*
X113567016Y42942715D01*
X113567016Y42942715D02*
X113805111Y42942715D01*
X113805111Y42942715D02*
X113900349Y42990334D01*
X113900349Y42990334D02*
X113947968Y43037953D01*
X113947968Y43037953D02*
X113995587Y43133191D01*
X113995587Y43133191D02*
X113995587Y43323667D01*
X113995587Y43323667D02*
X113947968Y43418905D01*
X113947968Y43418905D02*
X113900349Y43466524D01*
X113900349Y43466524D02*
X113805111Y43514143D01*
X114376540Y44466524D02*
X114376540Y43895096D01*
X114376540Y44180810D02*
X113376540Y44180810D01*
X113376540Y44180810D02*
X113519397Y44085572D01*
X113519397Y44085572D02*
X113614635Y43990334D01*
X113614635Y43990334D02*
X113662254Y43895096D01*
X114376540Y45418905D02*
X114376540Y44847477D01*
X114376540Y45133191D02*
X113376540Y45133191D01*
X113376540Y45133191D02*
X113519397Y45037953D01*
X113519397Y45037953D02*
X113614635Y44942715D01*
X113614635Y44942715D02*
X113662254Y44847477D01*
X124920057Y27462381D02*
X124872438Y27367143D01*
X124872438Y27367143D02*
X124777200Y27271905D01*
X124777200Y27271905D02*
X124634342Y27129048D01*
X124634342Y27129048D02*
X124586723Y27033810D01*
X124586723Y27033810D02*
X124586723Y26938572D01*
X124824819Y26986191D02*
X124777200Y26890953D01*
X124777200Y26890953D02*
X124681961Y26795715D01*
X124681961Y26795715D02*
X124491485Y26748096D01*
X124491485Y26748096D02*
X124158152Y26748096D01*
X124158152Y26748096D02*
X123967676Y26795715D01*
X123967676Y26795715D02*
X123872438Y26890953D01*
X123872438Y26890953D02*
X123824819Y26986191D01*
X123824819Y26986191D02*
X123824819Y27176667D01*
X123824819Y27176667D02*
X123872438Y27271905D01*
X123872438Y27271905D02*
X123967676Y27367143D01*
X123967676Y27367143D02*
X124158152Y27414762D01*
X124158152Y27414762D02*
X124491485Y27414762D01*
X124491485Y27414762D02*
X124681961Y27367143D01*
X124681961Y27367143D02*
X124777200Y27271905D01*
X124777200Y27271905D02*
X124824819Y27176667D01*
X124824819Y27176667D02*
X124824819Y26986191D01*
X124824819Y27890953D02*
X124824819Y28081429D01*
X124824819Y28081429D02*
X124777200Y28176667D01*
X124777200Y28176667D02*
X124729580Y28224286D01*
X124729580Y28224286D02*
X124586723Y28319524D01*
X124586723Y28319524D02*
X124396247Y28367143D01*
X124396247Y28367143D02*
X124015295Y28367143D01*
X124015295Y28367143D02*
X123920057Y28319524D01*
X123920057Y28319524D02*
X123872438Y28271905D01*
X123872438Y28271905D02*
X123824819Y28176667D01*
X123824819Y28176667D02*
X123824819Y27986191D01*
X123824819Y27986191D02*
X123872438Y27890953D01*
X123872438Y27890953D02*
X123920057Y27843334D01*
X123920057Y27843334D02*
X124015295Y27795715D01*
X124015295Y27795715D02*
X124253390Y27795715D01*
X124253390Y27795715D02*
X124348628Y27843334D01*
X124348628Y27843334D02*
X124396247Y27890953D01*
X124396247Y27890953D02*
X124443866Y27986191D01*
X124443866Y27986191D02*
X124443866Y28176667D01*
X124443866Y28176667D02*
X124396247Y28271905D01*
X124396247Y28271905D02*
X124348628Y28319524D01*
X124348628Y28319524D02*
X124253390Y28367143D01*
X123824819Y28986191D02*
X123824819Y29081429D01*
X123824819Y29081429D02*
X123872438Y29176667D01*
X123872438Y29176667D02*
X123920057Y29224286D01*
X123920057Y29224286D02*
X124015295Y29271905D01*
X124015295Y29271905D02*
X124205771Y29319524D01*
X124205771Y29319524D02*
X124443866Y29319524D01*
X124443866Y29319524D02*
X124634342Y29271905D01*
X124634342Y29271905D02*
X124729580Y29224286D01*
X124729580Y29224286D02*
X124777200Y29176667D01*
X124777200Y29176667D02*
X124824819Y29081429D01*
X124824819Y29081429D02*
X124824819Y28986191D01*
X124824819Y28986191D02*
X124777200Y28890953D01*
X124777200Y28890953D02*
X124729580Y28843334D01*
X124729580Y28843334D02*
X124634342Y28795715D01*
X124634342Y28795715D02*
X124443866Y28748096D01*
X124443866Y28748096D02*
X124205771Y28748096D01*
X124205771Y28748096D02*
X124015295Y28795715D01*
X124015295Y28795715D02*
X123920057Y28843334D01*
X123920057Y28843334D02*
X123872438Y28890953D01*
X123872438Y28890953D02*
X123824819Y28986191D01*
X123920057Y29700477D02*
X123872438Y29748096D01*
X123872438Y29748096D02*
X123824819Y29843334D01*
X123824819Y29843334D02*
X123824819Y30081429D01*
X123824819Y30081429D02*
X123872438Y30176667D01*
X123872438Y30176667D02*
X123920057Y30224286D01*
X123920057Y30224286D02*
X124015295Y30271905D01*
X124015295Y30271905D02*
X124110533Y30271905D01*
X124110533Y30271905D02*
X124253390Y30224286D01*
X124253390Y30224286D02*
X124824819Y29652858D01*
X124824819Y29652858D02*
X124824819Y30271905D01*
X84098761Y23110943D02*
X84003523Y23158562D01*
X84003523Y23158562D02*
X83908285Y23253800D01*
X83908285Y23253800D02*
X83765428Y23396658D01*
X83765428Y23396658D02*
X83670190Y23444277D01*
X83670190Y23444277D02*
X83574952Y23444277D01*
X83622571Y23206181D02*
X83527333Y23253800D01*
X83527333Y23253800D02*
X83432095Y23349039D01*
X83432095Y23349039D02*
X83384476Y23539515D01*
X83384476Y23539515D02*
X83384476Y23872848D01*
X83384476Y23872848D02*
X83432095Y24063324D01*
X83432095Y24063324D02*
X83527333Y24158562D01*
X83527333Y24158562D02*
X83622571Y24206181D01*
X83622571Y24206181D02*
X83813047Y24206181D01*
X83813047Y24206181D02*
X83908285Y24158562D01*
X83908285Y24158562D02*
X84003523Y24063324D01*
X84003523Y24063324D02*
X84051142Y23872848D01*
X84051142Y23872848D02*
X84051142Y23539515D01*
X84051142Y23539515D02*
X84003523Y23349039D01*
X84003523Y23349039D02*
X83908285Y23253800D01*
X83908285Y23253800D02*
X83813047Y23206181D01*
X83813047Y23206181D02*
X83622571Y23206181D01*
X84527333Y23206181D02*
X84717809Y23206181D01*
X84717809Y23206181D02*
X84813047Y23253800D01*
X84813047Y23253800D02*
X84860666Y23301420D01*
X84860666Y23301420D02*
X84955904Y23444277D01*
X84955904Y23444277D02*
X85003523Y23634753D01*
X85003523Y23634753D02*
X85003523Y24015705D01*
X85003523Y24015705D02*
X84955904Y24110943D01*
X84955904Y24110943D02*
X84908285Y24158562D01*
X84908285Y24158562D02*
X84813047Y24206181D01*
X84813047Y24206181D02*
X84622571Y24206181D01*
X84622571Y24206181D02*
X84527333Y24158562D01*
X84527333Y24158562D02*
X84479714Y24110943D01*
X84479714Y24110943D02*
X84432095Y24015705D01*
X84432095Y24015705D02*
X84432095Y23777610D01*
X84432095Y23777610D02*
X84479714Y23682372D01*
X84479714Y23682372D02*
X84527333Y23634753D01*
X84527333Y23634753D02*
X84622571Y23587134D01*
X84622571Y23587134D02*
X84813047Y23587134D01*
X84813047Y23587134D02*
X84908285Y23634753D01*
X84908285Y23634753D02*
X84955904Y23682372D01*
X84955904Y23682372D02*
X85003523Y23777610D01*
X103990057Y73372381D02*
X103942438Y73277143D01*
X103942438Y73277143D02*
X103847200Y73181905D01*
X103847200Y73181905D02*
X103704342Y73039048D01*
X103704342Y73039048D02*
X103656723Y72943810D01*
X103656723Y72943810D02*
X103656723Y72848572D01*
X103894819Y72896191D02*
X103847200Y72800953D01*
X103847200Y72800953D02*
X103751961Y72705715D01*
X103751961Y72705715D02*
X103561485Y72658096D01*
X103561485Y72658096D02*
X103228152Y72658096D01*
X103228152Y72658096D02*
X103037676Y72705715D01*
X103037676Y72705715D02*
X102942438Y72800953D01*
X102942438Y72800953D02*
X102894819Y72896191D01*
X102894819Y72896191D02*
X102894819Y73086667D01*
X102894819Y73086667D02*
X102942438Y73181905D01*
X102942438Y73181905D02*
X103037676Y73277143D01*
X103037676Y73277143D02*
X103228152Y73324762D01*
X103228152Y73324762D02*
X103561485Y73324762D01*
X103561485Y73324762D02*
X103751961Y73277143D01*
X103751961Y73277143D02*
X103847200Y73181905D01*
X103847200Y73181905D02*
X103894819Y73086667D01*
X103894819Y73086667D02*
X103894819Y72896191D01*
X103894819Y73800953D02*
X103894819Y73991429D01*
X103894819Y73991429D02*
X103847200Y74086667D01*
X103847200Y74086667D02*
X103799580Y74134286D01*
X103799580Y74134286D02*
X103656723Y74229524D01*
X103656723Y74229524D02*
X103466247Y74277143D01*
X103466247Y74277143D02*
X103085295Y74277143D01*
X103085295Y74277143D02*
X102990057Y74229524D01*
X102990057Y74229524D02*
X102942438Y74181905D01*
X102942438Y74181905D02*
X102894819Y74086667D01*
X102894819Y74086667D02*
X102894819Y73896191D01*
X102894819Y73896191D02*
X102942438Y73800953D01*
X102942438Y73800953D02*
X102990057Y73753334D01*
X102990057Y73753334D02*
X103085295Y73705715D01*
X103085295Y73705715D02*
X103323390Y73705715D01*
X103323390Y73705715D02*
X103418628Y73753334D01*
X103418628Y73753334D02*
X103466247Y73800953D01*
X103466247Y73800953D02*
X103513866Y73896191D01*
X103513866Y73896191D02*
X103513866Y74086667D01*
X103513866Y74086667D02*
X103466247Y74181905D01*
X103466247Y74181905D02*
X103418628Y74229524D01*
X103418628Y74229524D02*
X103323390Y74277143D01*
X103894819Y75229524D02*
X103894819Y74658096D01*
X103894819Y74943810D02*
X102894819Y74943810D01*
X102894819Y74943810D02*
X103037676Y74848572D01*
X103037676Y74848572D02*
X103132914Y74753334D01*
X103132914Y74753334D02*
X103180533Y74658096D01*
X103228152Y76086667D02*
X103894819Y76086667D01*
X102847200Y75848572D02*
X103561485Y75610477D01*
X103561485Y75610477D02*
X103561485Y76229524D01*
D11*
X21441985Y6496093D02*
X21051509Y6222760D01*
X21441985Y6027522D02*
X20621985Y6027522D01*
X20621985Y6027522D02*
X20621985Y6339903D01*
X20621985Y6339903D02*
X20661033Y6417998D01*
X20661033Y6417998D02*
X20700080Y6457045D01*
X20700080Y6457045D02*
X20778176Y6496093D01*
X20778176Y6496093D02*
X20895318Y6496093D01*
X20895318Y6496093D02*
X20973414Y6457045D01*
X20973414Y6457045D02*
X21012461Y6417998D01*
X21012461Y6417998D02*
X21051509Y6339903D01*
X21051509Y6339903D02*
X21051509Y6027522D01*
X21441985Y6886569D02*
X21441985Y7042760D01*
X21441985Y7042760D02*
X21402938Y7120855D01*
X21402938Y7120855D02*
X21363890Y7159903D01*
X21363890Y7159903D02*
X21246747Y7237998D01*
X21246747Y7237998D02*
X21090557Y7277045D01*
X21090557Y7277045D02*
X20778176Y7277045D01*
X20778176Y7277045D02*
X20700080Y7237998D01*
X20700080Y7237998D02*
X20661033Y7198950D01*
X20661033Y7198950D02*
X20621985Y7120855D01*
X20621985Y7120855D02*
X20621985Y6964664D01*
X20621985Y6964664D02*
X20661033Y6886569D01*
X20661033Y6886569D02*
X20700080Y6847522D01*
X20700080Y6847522D02*
X20778176Y6808474D01*
X20778176Y6808474D02*
X20973414Y6808474D01*
X20973414Y6808474D02*
X21051509Y6847522D01*
X21051509Y6847522D02*
X21090557Y6886569D01*
X21090557Y6886569D02*
X21129604Y6964664D01*
X21129604Y6964664D02*
X21129604Y7120855D01*
X21129604Y7120855D02*
X21090557Y7198950D01*
X21090557Y7198950D02*
X21051509Y7237998D01*
X21051509Y7237998D02*
X20973414Y7277045D01*
X59438195Y51259504D02*
X58638194Y51259504D01*
X58638194Y51259504D02*
X58638194Y51449980D01*
X58638194Y51449980D02*
X58676289Y51564266D01*
X58676289Y51564266D02*
X58752480Y51640457D01*
X58752480Y51640457D02*
X58828670Y51678552D01*
X58828670Y51678552D02*
X58981051Y51716647D01*
X58981051Y51716647D02*
X59095337Y51716647D01*
X59095337Y51716647D02*
X59247718Y51678552D01*
X59247718Y51678552D02*
X59323909Y51640457D01*
X59323909Y51640457D02*
X59400100Y51564266D01*
X59400100Y51564266D02*
X59438195Y51449980D01*
X59438195Y51449980D02*
X59438195Y51259504D01*
X59438195Y52478553D02*
X59438195Y52021410D01*
X59438195Y52249981D02*
X58638194Y52249981D01*
X58638194Y52249981D02*
X58752480Y52173791D01*
X58752480Y52173791D02*
X58828670Y52097600D01*
X58828670Y52097600D02*
X58866766Y52021410D01*
X59438195Y53240459D02*
X59438195Y52783316D01*
X59438195Y53011887D02*
X58638194Y53011887D01*
X58638194Y53011887D02*
X58752480Y52935697D01*
X58752480Y52935697D02*
X58828670Y52859506D01*
X58828670Y52859506D02*
X58866766Y52783316D01*
D10*
X8184819Y41316334D02*
X8184819Y40840144D01*
X8184819Y40840144D02*
X7184819Y40840144D01*
X8184819Y42173477D02*
X8184819Y41602049D01*
X8184819Y41887763D02*
X7184819Y41887763D01*
X7184819Y41887763D02*
X7327676Y41792525D01*
X7327676Y41792525D02*
X7422914Y41697287D01*
X7422914Y41697287D02*
X7470533Y41602049D01*
D11*
X14520652Y42417288D02*
X14481604Y42378240D01*
X14481604Y42378240D02*
X14364461Y42339193D01*
X14364461Y42339193D02*
X14286366Y42339193D01*
X14286366Y42339193D02*
X14169223Y42378240D01*
X14169223Y42378240D02*
X14091128Y42456336D01*
X14091128Y42456336D02*
X14052080Y42534431D01*
X14052080Y42534431D02*
X14013032Y42690622D01*
X14013032Y42690622D02*
X14013032Y42807765D01*
X14013032Y42807765D02*
X14052080Y42963955D01*
X14052080Y42963955D02*
X14091128Y43042051D01*
X14091128Y43042051D02*
X14169223Y43120146D01*
X14169223Y43120146D02*
X14286366Y43159194D01*
X14286366Y43159194D02*
X14364461Y43159194D01*
X14364461Y43159194D02*
X14481604Y43120146D01*
X14481604Y43120146D02*
X14520652Y43081098D01*
X14833033Y43081098D02*
X14872081Y43120146D01*
X14872081Y43120146D02*
X14950176Y43159194D01*
X14950176Y43159194D02*
X15145415Y43159194D01*
X15145415Y43159194D02*
X15223510Y43120146D01*
X15223510Y43120146D02*
X15262558Y43081098D01*
X15262558Y43081098D02*
X15301605Y43003003D01*
X15301605Y43003003D02*
X15301605Y42924908D01*
X15301605Y42924908D02*
X15262558Y42807765D01*
X15262558Y42807765D02*
X14793986Y42339193D01*
X14793986Y42339193D02*
X15301605Y42339193D01*
D10*
X5404819Y41711334D02*
X5404819Y41235144D01*
X5404819Y41235144D02*
X4404819Y41235144D01*
X4500057Y41997049D02*
X4452438Y42044668D01*
X4452438Y42044668D02*
X4404819Y42139906D01*
X4404819Y42139906D02*
X4404819Y42378001D01*
X4404819Y42378001D02*
X4452438Y42473239D01*
X4452438Y42473239D02*
X4500057Y42520858D01*
X4500057Y42520858D02*
X4595295Y42568477D01*
X4595295Y42568477D02*
X4690533Y42568477D01*
X4690533Y42568477D02*
X4833390Y42520858D01*
X4833390Y42520858D02*
X5404819Y41949430D01*
X5404819Y41949430D02*
X5404819Y42568477D01*
D11*
X75236762Y30270492D02*
X75236762Y31090492D01*
X75236762Y31090492D02*
X75432000Y31090492D01*
X75432000Y31090492D02*
X75549143Y31051444D01*
X75549143Y31051444D02*
X75627238Y30973349D01*
X75627238Y30973349D02*
X75666285Y30895254D01*
X75666285Y30895254D02*
X75705333Y30739063D01*
X75705333Y30739063D02*
X75705333Y30621920D01*
X75705333Y30621920D02*
X75666285Y30465730D01*
X75666285Y30465730D02*
X75627238Y30387635D01*
X75627238Y30387635D02*
X75549143Y30309539D01*
X75549143Y30309539D02*
X75432000Y30270492D01*
X75432000Y30270492D02*
X75236762Y30270492D01*
X76408190Y30817159D02*
X76408190Y30270492D01*
X76212952Y31129539D02*
X76017714Y30543825D01*
X76017714Y30543825D02*
X76525333Y30543825D01*
D10*
X31820571Y23702742D02*
X31220571Y23702742D01*
X31220571Y23702742D02*
X31649142Y23902742D01*
X31649142Y23902742D02*
X31220571Y24102742D01*
X31220571Y24102742D02*
X31820571Y24102742D01*
X31220571Y24331313D02*
X31220571Y24702741D01*
X31220571Y24702741D02*
X31449142Y24502741D01*
X31449142Y24502741D02*
X31449142Y24588456D01*
X31449142Y24588456D02*
X31477714Y24645598D01*
X31477714Y24645598D02*
X31506285Y24674170D01*
X31506285Y24674170D02*
X31563428Y24702741D01*
X31563428Y24702741D02*
X31706285Y24702741D01*
X31706285Y24702741D02*
X31763428Y24674170D01*
X31763428Y24674170D02*
X31792000Y24645598D01*
X31792000Y24645598D02*
X31820571Y24588456D01*
X31820571Y24588456D02*
X31820571Y24417027D01*
X31820571Y24417027D02*
X31792000Y24359884D01*
X31792000Y24359884D02*
X31763428Y24331313D01*
D11*
X13605347Y50637713D02*
X13644395Y50676760D01*
X13644395Y50676760D02*
X13761538Y50715808D01*
X13761538Y50715808D02*
X13839633Y50715808D01*
X13839633Y50715808D02*
X13956776Y50676760D01*
X13956776Y50676760D02*
X14034872Y50598665D01*
X14034872Y50598665D02*
X14073919Y50520570D01*
X14073919Y50520570D02*
X14112967Y50364379D01*
X14112967Y50364379D02*
X14112967Y50247236D01*
X14112967Y50247236D02*
X14073919Y50091045D01*
X14073919Y50091045D02*
X14034872Y50012950D01*
X14034872Y50012950D02*
X13956776Y49934855D01*
X13956776Y49934855D02*
X13839633Y49895807D01*
X13839633Y49895807D02*
X13761538Y49895807D01*
X13761538Y49895807D02*
X13644395Y49934855D01*
X13644395Y49934855D02*
X13605347Y49973902D01*
X12902489Y50169141D02*
X12902489Y50715808D01*
X13097728Y49856759D02*
X13292966Y50442474D01*
X13292966Y50442474D02*
X12785346Y50442474D01*
X16833290Y71264051D02*
X16033289Y71264051D01*
X16033289Y71264051D02*
X16033289Y71454527D01*
X16033289Y71454527D02*
X16071384Y71568813D01*
X16071384Y71568813D02*
X16147575Y71645004D01*
X16147575Y71645004D02*
X16223765Y71683099D01*
X16223765Y71683099D02*
X16376146Y71721194D01*
X16376146Y71721194D02*
X16490432Y71721194D01*
X16490432Y71721194D02*
X16642813Y71683099D01*
X16642813Y71683099D02*
X16719004Y71645004D01*
X16719004Y71645004D02*
X16795195Y71568813D01*
X16795195Y71568813D02*
X16833290Y71454527D01*
X16833290Y71454527D02*
X16833290Y71264051D01*
X16833290Y72483100D02*
X16833290Y72025957D01*
X16833290Y72254528D02*
X16033289Y72254528D01*
X16033289Y72254528D02*
X16147575Y72178338D01*
X16147575Y72178338D02*
X16223765Y72102147D01*
X16223765Y72102147D02*
X16261861Y72025957D01*
X16033289Y72749767D02*
X16033289Y73245006D01*
X16033289Y73245006D02*
X16338051Y72978339D01*
X16338051Y72978339D02*
X16338051Y73092625D01*
X16338051Y73092625D02*
X16376146Y73168815D01*
X16376146Y73168815D02*
X16414242Y73206911D01*
X16414242Y73206911D02*
X16490432Y73245006D01*
X16490432Y73245006D02*
X16680909Y73245006D01*
X16680909Y73245006D02*
X16757099Y73206911D01*
X16757099Y73206911D02*
X16795195Y73168815D01*
X16795195Y73168815D02*
X16833290Y73092625D01*
X16833290Y73092625D02*
X16833290Y72864053D01*
X16833290Y72864053D02*
X16795195Y72787863D01*
X16795195Y72787863D02*
X16757099Y72749767D01*
D13*
G04 #@! TO.C,U2*
X8047000Y49796000D02*
X6097000Y49796000D01*
X8047000Y49796000D02*
X9997000Y49796000D01*
X8047000Y44676000D02*
X6097000Y44676000D01*
X8047000Y44676000D02*
X9997000Y44676000D01*
X10987000Y44441000D02*
X10507000Y44441000D01*
X10747000Y44771000D01*
X10987000Y44441000D01*
G36*
X10987000Y44441000D02*
G01*
X10507000Y44441000D01*
X10747000Y44771000D01*
X10987000Y44441000D01*
G37*
G04 #@! TO.C,D3*
X72429000Y45981000D02*
X72429000Y43981000D01*
X72429000Y45981000D02*
X76329000Y45981000D01*
X72429000Y43981000D02*
X76329000Y43981000D01*
D11*
X74129000Y44981000D02*
X74329000Y44981000D01*
X74329000Y44981000D02*
X75029000Y45331000D01*
X74329000Y44981000D02*
X75029000Y44631000D01*
X74329000Y44631000D02*
X74329000Y45331000D01*
X75029000Y44981000D02*
X75329000Y44981000D01*
X75029000Y44631000D02*
X75029000Y45331000D01*
D14*
G04 #@! TO.C,R13*
X60595944Y48873612D02*
X60995943Y48873601D01*
X60597000Y49619447D02*
X60997000Y49619437D01*
D13*
G04 #@! TO.C,D5*
X73173000Y35749000D02*
X73173000Y33749000D01*
X73173000Y35749000D02*
X77073000Y35749000D01*
X73173000Y33749000D02*
X77073000Y33749000D01*
D11*
X74873000Y34749000D02*
X75073000Y34749000D01*
X75073000Y34749000D02*
X75773000Y35099000D01*
X75073000Y34749000D02*
X75773000Y34399000D01*
X75073000Y34399000D02*
X75073000Y35099000D01*
X75773000Y34749000D02*
X76073000Y34749000D01*
X75773000Y34399000D02*
X75773000Y35099000D01*
D15*
G04 #@! TO.C,G\u002A\u002A\u002A*
G36*
X54672790Y104198083D02*
G01*
X54657725Y104183018D01*
X54642660Y104198083D01*
X54657725Y104213148D01*
X54672790Y104198083D01*
G37*
G36*
X54702921Y106548261D02*
G01*
X54687856Y106533196D01*
X54672790Y106548261D01*
X54687856Y106563326D01*
X54702921Y106548261D01*
G37*
G36*
X54853573Y105855260D02*
G01*
X54838508Y105840195D01*
X54823443Y105855260D01*
X54838508Y105870325D01*
X54853573Y105855260D01*
G37*
G36*
X56571011Y107693219D02*
G01*
X56555946Y107678154D01*
X56540881Y107693219D01*
X56555946Y107708285D01*
X56571011Y107693219D01*
G37*
G36*
X56508576Y107694105D02*
G01*
X56510750Y107678154D01*
X56499726Y107653353D01*
X56490663Y107658067D01*
X56487057Y107693825D01*
X56490663Y107698241D01*
X56508576Y107694105D01*
G37*
G36*
X56074066Y104360685D02*
G01*
X56071921Y104354969D01*
X56048052Y104318073D01*
X56034481Y104317808D01*
X56037861Y104349681D01*
X56055054Y104371835D01*
X56080388Y104390876D01*
X56074066Y104360685D01*
G37*
G36*
X47178840Y107866470D02*
G01*
X47180224Y107823304D01*
X47168556Y107768546D01*
X47153283Y107722734D01*
X47146337Y107729081D01*
X47143172Y107791144D01*
X47146216Y107867338D01*
X47160849Y107888502D01*
X47178840Y107866470D01*
G37*
G36*
X48727053Y107812572D02*
G01*
X48731415Y107776424D01*
X48703406Y107727657D01*
X48659977Y107712875D01*
X48624428Y107734122D01*
X48616563Y107766336D01*
X48636414Y107817849D01*
X48679033Y107828807D01*
X48727053Y107812572D01*
G37*
G36*
X49781620Y107812572D02*
G01*
X49785982Y107776424D01*
X49757973Y107727657D01*
X49714544Y107712875D01*
X49678995Y107734122D01*
X49671130Y107766336D01*
X49690981Y107817849D01*
X49733600Y107828807D01*
X49781620Y107812572D01*
G37*
G36*
X54969004Y105854557D02*
G01*
X54974095Y105841140D01*
X54952009Y105824562D01*
X54928900Y105829299D01*
X54889255Y105850685D01*
X54883704Y105858483D01*
X54908308Y105869016D01*
X54928900Y105870325D01*
X54969004Y105854557D01*
G37*
G36*
X45151557Y105311179D02*
G01*
X45151557Y105173859D01*
X45023762Y105183124D01*
X44930107Y105201636D01*
X44885538Y105246429D01*
X44883220Y105327588D01*
X44893353Y105375555D01*
X44914964Y105423646D01*
X44960122Y105444494D01*
X45031609Y105448498D01*
X45151557Y105448498D01*
X45151557Y105311179D01*
G37*
G36*
X49942304Y106503065D02*
G01*
X49942304Y106352413D01*
X49840614Y106352413D01*
X49768680Y106359945D01*
X49734518Y106392989D01*
X49721741Y106438324D01*
X49712357Y106552459D01*
X49740885Y106622236D01*
X49809697Y106651961D01*
X49840362Y106653718D01*
X49942304Y106653718D01*
X49942304Y106503065D01*
G37*
G36*
X45043169Y107991298D02*
G01*
X45049280Y107927353D01*
X45035311Y107845957D01*
X45008053Y107768800D01*
X44974298Y107717571D01*
X44954547Y107708285D01*
X44922898Y107734097D01*
X44910676Y107800037D01*
X44918877Y107888862D01*
X44939898Y107962432D01*
X44976786Y108026069D01*
X45014160Y108033637D01*
X45043169Y107991298D01*
G37*
G36*
X46066754Y108027413D02*
G01*
X46083571Y107967208D01*
X46085602Y107921662D01*
X46076704Y107797763D01*
X46049116Y107727927D01*
X46007052Y107708285D01*
X45979212Y107734199D01*
X45965868Y107798229D01*
X45967832Y107879802D01*
X45985915Y107958346D01*
X45996270Y107981440D01*
X46036294Y108033067D01*
X46066754Y108027413D01*
G37*
G36*
X47791269Y107966673D02*
G01*
X47800858Y107897531D01*
X47790498Y107816851D01*
X47765917Y107746866D01*
X47732844Y107709811D01*
X47724697Y107708285D01*
X47696804Y107722214D01*
X47686316Y107772404D01*
X47688399Y107849049D01*
X47703517Y107939918D01*
X47730387Y107994995D01*
X47762049Y108006324D01*
X47791269Y107966673D01*
G37*
G36*
X50180313Y108005590D02*
G01*
X50206314Y107956825D01*
X50213017Y107896600D01*
X50202835Y107793818D01*
X50176229Y107730660D01*
X50137644Y107716130D01*
X50126456Y107721268D01*
X50102345Y107765557D01*
X50093355Y107842692D01*
X50101121Y107926786D01*
X50111245Y107961930D01*
X50144937Y108009658D01*
X50180313Y108005590D01*
G37*
G36*
X48501639Y106607246D02*
G01*
X48504650Y106604934D01*
X48518605Y106563230D01*
X48525874Y106487328D01*
X48526171Y106467913D01*
X48526171Y106352413D01*
X48388852Y106352413D01*
X48251532Y106352413D01*
X48260797Y106480467D01*
X48270087Y106561191D01*
X48292537Y106599765D01*
X48343422Y106614261D01*
X48376596Y106617489D01*
X48453376Y106617932D01*
X48501639Y106607246D01*
G37*
G36*
X50731295Y105432157D02*
G01*
X50734306Y105429845D01*
X50748174Y105388218D01*
X50755489Y105312114D01*
X50755827Y105291092D01*
X50755827Y105173859D01*
X50627773Y105183124D01*
X50547571Y105191628D01*
X50510669Y105212953D01*
X50500251Y105264140D01*
X50499718Y105312911D01*
X50503317Y105390485D01*
X50524377Y105426546D01*
X50578296Y105439809D01*
X50606252Y105442400D01*
X50683032Y105442843D01*
X50731295Y105432157D01*
G37*
G36*
X54622178Y107173840D02*
G01*
X54628453Y107164547D01*
X54636036Y107118097D01*
X54633277Y107035739D01*
X54627851Y106987014D01*
X54620972Y106883140D01*
X54634282Y106826506D01*
X54640279Y106820907D01*
X54666081Y106776277D01*
X54671296Y106708801D01*
X54655379Y106651512D01*
X54643283Y106639037D01*
X54592005Y106639175D01*
X54514378Y106675562D01*
X54432009Y106735810D01*
X54396148Y106785042D01*
X54402638Y106843434D01*
X54454319Y106921112D01*
X54497754Y106970088D01*
X54565959Y107059422D01*
X54588409Y107138562D01*
X54585967Y107173469D01*
X54594547Y107195329D01*
X54622178Y107173840D01*
G37*
G36*
X54615834Y106133967D02*
G01*
X54623149Y106084489D01*
X54623828Y106078810D01*
X54648977Y106036201D01*
X54680323Y106007694D01*
X54723144Y105960477D01*
X54733051Y105931108D01*
X54742040Y105908212D01*
X54777891Y105930291D01*
X54778247Y105930586D01*
X54815686Y105950754D01*
X54823443Y105934275D01*
X54801417Y105902126D01*
X54791534Y105900455D01*
X54772683Y105882410D01*
X54776511Y105873135D01*
X54766915Y105857692D01*
X54733432Y105861495D01*
X54692241Y105884570D01*
X54689973Y105903881D01*
X54688781Y105929949D01*
X54682101Y105931533D01*
X54638005Y105958186D01*
X54598796Y106016871D01*
X54578975Y106080536D01*
X54584467Y106113683D01*
X54609233Y106139336D01*
X54615834Y106133967D01*
G37*
G36*
X54841135Y106581432D02*
G01*
X54908549Y106528922D01*
X54921675Y106516911D01*
X54976596Y106450659D01*
X55003638Y106387974D01*
X55004226Y106380264D01*
X55021202Y106307522D01*
X55062267Y106234332D01*
X55112629Y106182890D01*
X55143278Y106171630D01*
X55181099Y106189063D01*
X55185009Y106201760D01*
X55209252Y106228857D01*
X55227995Y106231891D01*
X55269608Y106205682D01*
X55286552Y106135158D01*
X55280261Y106056952D01*
X55268638Y106017447D01*
X55241859Y105999626D01*
X55184009Y105998993D01*
X55105847Y106007695D01*
X55001971Y106015247D01*
X54949553Y106006100D01*
X54943965Y105996830D01*
X54967770Y105959429D01*
X54981628Y105952287D01*
X55009266Y105932254D01*
X54991863Y105917136D01*
X54944542Y105915263D01*
X54922343Y105919631D01*
X54873114Y105952437D01*
X54869805Y105996904D01*
X54870809Y106035985D01*
X54842479Y106046948D01*
X54777122Y106037820D01*
X54700082Y106027586D01*
X54677758Y106039852D01*
X54707164Y106079754D01*
X54736320Y106107947D01*
X54799849Y106167133D01*
X54736320Y106235324D01*
X54672790Y106303515D01*
X54672790Y106237572D01*
X54662096Y106183080D01*
X54625573Y106178138D01*
X54568181Y106212480D01*
X54538376Y106239340D01*
X54535722Y106268854D01*
X54564383Y106316538D01*
X54612660Y106378198D01*
X54676321Y106448644D01*
X54730774Y106493925D01*
X54753159Y106503065D01*
X54788699Y106527291D01*
X54793312Y106548261D01*
X54804420Y106587464D01*
X54841135Y106581432D01*
G37*
G36*
X57836491Y108175307D02*
G01*
X57836491Y108054785D01*
X57836491Y107872995D01*
X57836491Y107813741D01*
X57836491Y107750970D01*
X57836491Y107678154D01*
X57836491Y107632958D01*
X57836491Y107530557D01*
X57836491Y106978899D01*
X57836491Y106488000D01*
X57836491Y104663029D01*
X57836491Y104132800D01*
X57836491Y104053073D01*
X57836491Y103844379D01*
X57836491Y103670800D01*
X50334000Y103670800D01*
X42831509Y103670800D01*
X42831509Y103833379D01*
X54289254Y103833379D01*
X54329581Y103826186D01*
X54347005Y103831000D01*
X54351711Y103836517D01*
X54431747Y103836517D01*
X54446812Y103821452D01*
X54458990Y103833630D01*
X54732035Y103833630D01*
X54740584Y103830813D01*
X54817002Y103826127D01*
X54846041Y103830813D01*
X54848796Y103833379D01*
X54952125Y103833379D01*
X54992452Y103826186D01*
X55009875Y103831000D01*
X55021288Y103844379D01*
X54991671Y103849204D01*
X54952592Y103843664D01*
X54952405Y103839546D01*
X54952125Y103833379D01*
X54848796Y103833379D01*
X54855418Y103839546D01*
X54813755Y103844301D01*
X54793312Y103844592D01*
X54738495Y103841451D01*
X54734420Y103836517D01*
X54732035Y103833630D01*
X54458990Y103833630D01*
X54461877Y103836517D01*
X54446812Y103851582D01*
X54439609Y103844379D01*
X54431747Y103836517D01*
X54351711Y103836517D01*
X54358417Y103844379D01*
X54328801Y103849204D01*
X54289721Y103843664D01*
X54289254Y103833379D01*
X42831509Y103833379D01*
X42831509Y105069626D01*
X43102684Y105069626D01*
X43128838Y105060469D01*
X43189401Y105056802D01*
X43238954Y105062376D01*
X43274568Y105087738D01*
X43307306Y105145847D01*
X43343728Y105237585D01*
X43381235Y105330566D01*
X43412779Y105395812D01*
X43430413Y105418368D01*
X43450215Y105392557D01*
X43483245Y105325125D01*
X43519591Y105237585D01*
X43560569Y105138798D01*
X43593884Y105084334D01*
X43630802Y105061305D01*
X43677623Y105056802D01*
X43740069Y105061486D01*
X43765554Y105072536D01*
X43752890Y105104723D01*
X43719018Y105177490D01*
X43670118Y105277739D01*
X43645032Y105327976D01*
X43581181Y105463521D01*
X43543931Y105568833D01*
X43531335Y105640832D01*
X43886076Y105640832D01*
X43886076Y105418368D01*
X44022609Y105418368D01*
X44120335Y105426512D01*
X44169995Y105453070D01*
X44177652Y105466604D01*
X44173090Y105515460D01*
X44137846Y105551678D01*
X44094285Y105552283D01*
X44094270Y105552274D01*
X44077444Y105568059D01*
X44062784Y105619070D01*
X44054706Y105680315D01*
X44057625Y105726802D01*
X44062009Y105734909D01*
X44099434Y105745056D01*
X44170563Y105749762D01*
X44178083Y105749803D01*
X44254363Y105739589D01*
X44296862Y105698789D01*
X44311277Y105666944D01*
X44325868Y105595872D01*
X44331655Y105495817D01*
X44329330Y105387256D01*
X44319588Y105290667D01*
X44303119Y105226527D01*
X44296012Y105215651D01*
X44255616Y105203405D01*
X44174029Y105194986D01*
X44086976Y105192419D01*
X43983979Y105190315D01*
X43926654Y105180782D01*
X43900467Y105158928D01*
X43891791Y105126714D01*
X43893743Y105085724D01*
X43909953Y105072536D01*
X43923816Y105061257D01*
X43996010Y105044230D01*
X44026281Y105039469D01*
X44192867Y105035573D01*
X44330977Y105075279D01*
X44432613Y105155533D01*
X44466041Y105207454D01*
X44506171Y105335436D01*
X44515687Y105481910D01*
X44497125Y105628658D01*
X44453021Y105757466D01*
X44385910Y105850116D01*
X44375377Y105858746D01*
X44312479Y105882232D01*
X44212433Y105895966D01*
X44097743Y105898734D01*
X43990914Y105889323D01*
X43953870Y105881465D01*
X43918946Y105867193D01*
X43898621Y105838484D01*
X43888997Y105781505D01*
X43886178Y105682425D01*
X43886076Y105640832D01*
X43531335Y105640832D01*
X43527226Y105664321D01*
X43524510Y105734069D01*
X43523010Y105829048D01*
X43513146Y105878571D01*
X43486878Y105897438D01*
X43436163Y105900455D01*
X44663551Y105900455D01*
X44728397Y105802531D01*
X44795452Y105697467D01*
X44829741Y105627088D01*
X44833594Y105577092D01*
X44809344Y105533180D01*
X44777820Y105499327D01*
X44765478Y105481910D01*
X44718438Y105415525D01*
X44699701Y105311216D01*
X44699599Y105300389D01*
X44723462Y105177833D01*
X44794624Y105092144D01*
X44912450Y105043676D01*
X45076304Y105032778D01*
X45169750Y105040824D01*
X45332340Y105061138D01*
X45332340Y105480797D01*
X45332340Y105826704D01*
X45513123Y105826704D01*
X45518561Y105783303D01*
X45544861Y105759811D01*
X45607002Y105748383D01*
X45671308Y105743845D01*
X45763306Y105736583D01*
X45810238Y105722214D01*
X45827248Y105691213D01*
X45829493Y105644346D01*
X45825408Y105589540D01*
X45802558Y105561527D01*
X45745044Y105549247D01*
X45686373Y105544771D01*
X45599492Y105535984D01*
X45557233Y105518269D01*
X45543954Y105482570D01*
X45543253Y105461913D01*
X45548288Y105418377D01*
X45573586Y105396523D01*
X45634434Y105388972D01*
X45695907Y105388237D01*
X45785589Y105386405D01*
X45829453Y105375335D01*
X45841939Y105346670D01*
X45839027Y105305378D01*
X45828577Y105256687D01*
X45800998Y105230622D01*
X45740220Y105218372D01*
X45671308Y105213412D01*
X45578891Y105205556D01*
X45531753Y105190580D01*
X45514915Y105160638D01*
X45513123Y105130553D01*
X45515876Y105093971D01*
X45532331Y105072065D01*
X45574537Y105061138D01*
X45574776Y105061076D01*
X45655503Y105057243D01*
X45754166Y105056802D01*
X45995210Y105056802D01*
X46206124Y105056802D01*
X46300109Y105056802D01*
X46394095Y105056802D01*
X46381575Y105343041D01*
X46378078Y105465950D01*
X46378908Y105562437D01*
X46383756Y105619447D01*
X46388326Y105629281D01*
X46406900Y105603164D01*
X46441778Y105532664D01*
X46487409Y105429553D01*
X46523277Y105343041D01*
X46638958Y105056802D01*
X46753976Y105056802D01*
X46868994Y105056802D01*
X46868994Y105132128D01*
X47049777Y105132128D01*
X47052129Y105095652D01*
X47067137Y105073390D01*
X47106733Y105061834D01*
X47182847Y105057474D01*
X47305887Y105056802D01*
X47561996Y105056802D01*
X48074214Y105056802D01*
X48148449Y105056802D01*
X48182590Y105059088D01*
X48204643Y105073378D01*
X48217761Y105110824D01*
X48225098Y105182575D01*
X48229810Y105299781D01*
X48231308Y105349697D01*
X48239932Y105642591D01*
X48361551Y105357229D01*
X48483171Y105071867D01*
X48606659Y105062772D01*
X48730147Y105053676D01*
X48730563Y105132128D01*
X48887737Y105132128D01*
X48890089Y105095652D01*
X48905097Y105073390D01*
X48944693Y105061834D01*
X49020807Y105057474D01*
X49143846Y105056802D01*
X49399955Y105056802D01*
X49399955Y105130553D01*
X49580738Y105130553D01*
X49583492Y105093971D01*
X49599946Y105072065D01*
X49642392Y105061076D01*
X49723119Y105057243D01*
X49821782Y105056802D01*
X50062826Y105056802D01*
X50062826Y105478629D01*
X50062826Y105886437D01*
X50273739Y105886437D01*
X50288573Y105855375D01*
X50326845Y105789934D01*
X50364131Y105729885D01*
X50423287Y105632042D01*
X50449331Y105573710D01*
X50444676Y105545721D01*
X50414418Y105538890D01*
X50363304Y105512039D01*
X50344738Y105478629D01*
X50325078Y105443250D01*
X50303610Y105350168D01*
X50302772Y105250437D01*
X50326436Y105161701D01*
X50330085Y105154510D01*
X50396426Y105089800D01*
X50505414Y105048572D01*
X50642801Y105034440D01*
X50762219Y105044842D01*
X50855604Y105064018D01*
X50903108Y105086166D01*
X50918858Y105119809D01*
X50919393Y105139661D01*
X50918072Y105196280D01*
X50916136Y105297953D01*
X50913862Y105429479D01*
X50911860Y105553955D01*
X50910679Y105630027D01*
X51117393Y105630027D01*
X51117393Y105418368D01*
X51268045Y105418368D01*
X51358671Y105421680D01*
X51403850Y105435386D01*
X51418208Y105465139D01*
X51418698Y105476598D01*
X51393442Y105531940D01*
X51358437Y105553955D01*
X51310361Y105593545D01*
X51298176Y105661442D01*
X51304361Y105721050D01*
X51335113Y105745338D01*
X51402573Y105749803D01*
X51481876Y105737816D01*
X51532539Y105695759D01*
X51559772Y105614485D01*
X51568791Y105484848D01*
X51568889Y105458012D01*
X51564083Y105330553D01*
X51543764Y105252015D01*
X51497850Y105211304D01*
X51416260Y105197325D01*
X51332178Y105197514D01*
X51230265Y105197823D01*
X51173253Y105188505D01*
X51146024Y105165320D01*
X51137682Y105142943D01*
X51137816Y105139661D01*
X51139735Y105092724D01*
X51182113Y105061115D01*
X51271687Y105045205D01*
X51376473Y105041822D01*
X51525767Y105055009D01*
X51631643Y105100096D01*
X51633927Y105102809D01*
X52925222Y105102809D01*
X52940158Y105072547D01*
X52980014Y105004057D01*
X53037363Y104909952D01*
X53062700Y104869298D01*
X53221973Y104615229D01*
X53353206Y104407291D01*
X53460762Y104240806D01*
X53549002Y104111098D01*
X53622289Y104013487D01*
X53684983Y103943296D01*
X53741446Y103895847D01*
X53796041Y103866462D01*
X53853128Y103850463D01*
X53917070Y103843173D01*
X53992228Y103839913D01*
X54023543Y103838800D01*
X54119958Y103838535D01*
X54184349Y103845000D01*
X54202697Y103856552D01*
X54212311Y103878279D01*
X54233484Y103881713D01*
X54275628Y103902059D01*
X54344984Y103955891D01*
X54427908Y104032400D01*
X54443825Y104048357D01*
X54511063Y104111733D01*
X55130077Y104111733D01*
X55134791Y104102670D01*
X55170549Y104099064D01*
X55174965Y104102670D01*
X55172151Y104114856D01*
X55200074Y104114856D01*
X55291070Y104102670D01*
X55380857Y104090646D01*
X55585763Y104064455D01*
X55738040Y104048114D01*
X55844434Y104041175D01*
X55911693Y104043187D01*
X55945622Y104053073D01*
X55936940Y104066280D01*
X55878351Y104079666D01*
X55780196Y104092154D01*
X55652816Y104102670D01*
X55506552Y104110138D01*
X55365792Y104113378D01*
X55200074Y104114856D01*
X55172151Y104114856D01*
X55170829Y104120582D01*
X55154878Y104122757D01*
X55130077Y104111733D01*
X54511063Y104111733D01*
X54526439Y104126226D01*
X54547079Y104141863D01*
X54889034Y104141863D01*
X54893747Y104132800D01*
X54929505Y104129194D01*
X54933921Y104132800D01*
X54929785Y104150713D01*
X54913834Y104152887D01*
X54889034Y104141863D01*
X54547079Y104141863D01*
X54590005Y104174384D01*
X54624902Y104185747D01*
X54627326Y104183453D01*
X54663698Y104165308D01*
X54675364Y104169543D01*
X54690292Y104206122D01*
X54686265Y104215722D01*
X54650011Y104230856D01*
X54640578Y104226927D01*
X54615058Y104220280D01*
X54625221Y104255164D01*
X54671959Y104333974D01*
X54691860Y104364447D01*
X54743718Y104441188D01*
X54773577Y104475518D01*
X54792560Y104475367D01*
X54811255Y104449537D01*
X54814730Y104429017D01*
X54790435Y104439302D01*
X54765670Y104448239D01*
X54771491Y104438159D01*
X54817894Y104413828D01*
X54861882Y104403704D01*
X54927679Y104394084D01*
X55027752Y104378369D01*
X55109682Y104365027D01*
X55317820Y104332417D01*
X55523095Y104303544D01*
X55708168Y104280667D01*
X55855704Y104266049D01*
X55884834Y104263941D01*
X55973245Y104254450D01*
X56034549Y104240917D01*
X56047881Y104234103D01*
X56077448Y104243361D01*
X56128935Y104305395D01*
X56200518Y104417593D01*
X56290376Y104577344D01*
X56300109Y104595483D01*
X56399798Y104781970D01*
X56516370Y104722500D01*
X56632941Y104663029D01*
X56612803Y104746926D01*
X56597442Y104806267D01*
X56569434Y104910199D01*
X56532434Y105045302D01*
X56490101Y105198154D01*
X56479108Y105237585D01*
X56434594Y105397469D01*
X56393043Y105547498D01*
X56358609Y105672618D01*
X56335446Y105757777D01*
X56332530Y105768695D01*
X56299510Y105893043D01*
X55689647Y105716005D01*
X55506489Y105662769D01*
X55342443Y105614961D01*
X55206513Y105575215D01*
X55107709Y105546168D01*
X55055037Y105530454D01*
X55049537Y105528720D01*
X55051996Y105509926D01*
X55096860Y105476749D01*
X55109682Y105469523D01*
X55182016Y105430014D01*
X55227742Y105396847D01*
X55246780Y105358976D01*
X55239047Y105305356D01*
X55204462Y105224943D01*
X55142943Y105106692D01*
X55106491Y105038269D01*
X55037754Y104911737D01*
X54977636Y104806165D01*
X54932399Y104732202D01*
X54908306Y104700500D01*
X54907722Y104700195D01*
X54896407Y104671174D01*
X54900360Y104662532D01*
X54895409Y104636663D01*
X54885482Y104634975D01*
X54857488Y104610476D01*
X54853573Y104588001D01*
X54868027Y104556706D01*
X54883359Y104559436D01*
X54900327Y104554516D01*
X54894639Y104529620D01*
X54887135Y104511937D01*
X54877978Y104503267D01*
X54863582Y104508623D01*
X54840361Y104533020D01*
X54804728Y104581474D01*
X54753097Y104658998D01*
X54681881Y104770608D01*
X54587495Y104921317D01*
X54466351Y105116141D01*
X54408247Y105209723D01*
X54023345Y105829667D01*
X53838894Y105508394D01*
X53828319Y105489975D01*
X53735667Y105335722D01*
X53658269Y105221393D01*
X53600014Y105152408D01*
X53573030Y105134084D01*
X53517631Y105127017D01*
X53418670Y105121418D01*
X53292845Y105118071D01*
X53218994Y105117474D01*
X53094240Y105115942D01*
X52995794Y105112150D01*
X52936575Y105106743D01*
X52925222Y105102809D01*
X51633927Y105102809D01*
X51703175Y105185077D01*
X51749432Y105317950D01*
X51762114Y105381755D01*
X51766703Y105508394D01*
X51744166Y105640921D01*
X51700319Y105757842D01*
X51640975Y105837662D01*
X51638174Y105839926D01*
X51547627Y105881402D01*
X51424672Y105900413D01*
X51293468Y105895263D01*
X51194681Y105871071D01*
X51154151Y105851481D01*
X51130992Y105821322D01*
X51120377Y105765539D01*
X51117479Y105669077D01*
X51117393Y105630027D01*
X50910679Y105630027D01*
X50906480Y105900455D01*
X50831153Y105900455D01*
X50786448Y105895571D01*
X50764146Y105870644D01*
X50756541Y105810263D01*
X50755827Y105749803D01*
X50753179Y105660200D01*
X50740484Y105615492D01*
X50710619Y105600385D01*
X50685651Y105599151D01*
X50636380Y105612545D01*
X50592305Y105660657D01*
X50544914Y105749803D01*
X50500267Y105837255D01*
X50462014Y105882309D01*
X50414594Y105898686D01*
X50374046Y105900455D01*
X50306369Y105896761D01*
X50274170Y105887736D01*
X50273739Y105886437D01*
X50062826Y105886437D01*
X50062826Y105900455D01*
X49821782Y105900455D01*
X49702218Y105899613D01*
X49630623Y105894578D01*
X49594707Y105881592D01*
X49582180Y105856892D01*
X49580738Y105826704D01*
X49586177Y105783303D01*
X49612477Y105759811D01*
X49674618Y105748383D01*
X49738923Y105743845D01*
X49830922Y105736583D01*
X49877853Y105722214D01*
X49894863Y105691213D01*
X49897108Y105644346D01*
X49893024Y105589540D01*
X49870174Y105561527D01*
X49812660Y105549247D01*
X49753989Y105544771D01*
X49667011Y105535897D01*
X49624710Y105518074D01*
X49611503Y105482460D01*
X49611374Y105478629D01*
X49610869Y105463563D01*
X49617413Y105419372D01*
X49647436Y105396158D01*
X49716521Y105385079D01*
X49753989Y105382355D01*
X49840784Y105373651D01*
X49883007Y105356031D01*
X49896346Y105320232D01*
X49897108Y105297846D01*
X49891920Y105253572D01*
X49866349Y105229670D01*
X49805385Y105218126D01*
X49738923Y105213412D01*
X49646507Y105205556D01*
X49599369Y105190580D01*
X49582531Y105160638D01*
X49580738Y105130553D01*
X49399955Y105130553D01*
X49399955Y105478629D01*
X49399955Y105900455D01*
X49143846Y105900455D01*
X49019826Y105899764D01*
X48944136Y105895350D01*
X48904845Y105883704D01*
X48890022Y105861317D01*
X48887737Y105825129D01*
X48892039Y105781988D01*
X48914775Y105759525D01*
X48970692Y105751037D01*
X49053455Y105749803D01*
X49219172Y105749803D01*
X49219172Y105644346D01*
X49219172Y105538890D01*
X49068520Y105538890D01*
X48979109Y105536447D01*
X48934504Y105523984D01*
X48919295Y105493794D01*
X48917868Y105463563D01*
X48919130Y105452008D01*
X48922752Y105418858D01*
X48947679Y105396556D01*
X49008060Y105388951D01*
X49068520Y105388237D01*
X49157703Y105386262D01*
X49202175Y105374120D01*
X49217481Y105342483D01*
X49219172Y105297846D01*
X49216390Y105246170D01*
X49198153Y105219274D01*
X49149630Y105209065D01*
X49055989Y105207454D01*
X49053455Y105207454D01*
X48958545Y105205499D01*
X48909126Y105195164D01*
X48890452Y105169747D01*
X48887737Y105132128D01*
X48730563Y105132128D01*
X48732259Y105452008D01*
X48731929Y105601800D01*
X48729532Y105729814D01*
X48725448Y105824009D01*
X48720057Y105872341D01*
X48718884Y105875397D01*
X48680199Y105894345D01*
X48625744Y105900455D01*
X48548091Y105900455D01*
X48563063Y105614216D01*
X48567635Y105491337D01*
X48567693Y105394862D01*
X48563423Y105337837D01*
X48558991Y105327976D01*
X48539765Y105353797D01*
X48503106Y105423431D01*
X48454928Y105525139D01*
X48418582Y105606683D01*
X48362771Y105732951D01*
X48322296Y105814260D01*
X48288732Y105861031D01*
X48253655Y105883684D01*
X48208641Y105892639D01*
X48185715Y105894742D01*
X48074214Y105904093D01*
X48074214Y105480448D01*
X48074214Y105478629D01*
X48074214Y105056802D01*
X47561996Y105056802D01*
X47561996Y105478629D01*
X47561996Y105900455D01*
X47305887Y105900455D01*
X47181867Y105899764D01*
X47106176Y105895350D01*
X47066885Y105883704D01*
X47052063Y105861317D01*
X47049777Y105825129D01*
X47054079Y105781988D01*
X47076815Y105759525D01*
X47132732Y105751037D01*
X47215495Y105749803D01*
X47381213Y105749803D01*
X47381213Y105644346D01*
X47381213Y105538890D01*
X47230560Y105538890D01*
X47141150Y105536447D01*
X47096545Y105523984D01*
X47081335Y105493794D01*
X47080619Y105478629D01*
X47079908Y105463563D01*
X47084792Y105418858D01*
X47109719Y105396556D01*
X47170100Y105388951D01*
X47230560Y105388237D01*
X47319743Y105386262D01*
X47364215Y105374120D01*
X47379521Y105342483D01*
X47381213Y105297846D01*
X47378430Y105246170D01*
X47360194Y105219274D01*
X47311671Y105209065D01*
X47218029Y105207454D01*
X47215495Y105207454D01*
X47120585Y105205499D01*
X47071166Y105195164D01*
X47052492Y105169747D01*
X47049777Y105132128D01*
X46868994Y105132128D01*
X46868994Y105478629D01*
X46868994Y105900455D01*
X46793668Y105900455D01*
X46718342Y105900455D01*
X46718196Y105591618D01*
X46718050Y105282781D01*
X46582609Y105583126D01*
X46527901Y105705171D01*
X46483781Y105804980D01*
X46455303Y105871030D01*
X46447168Y105891963D01*
X46420402Y105897284D01*
X46353548Y105900241D01*
X46326646Y105900455D01*
X46206124Y105900455D01*
X46206124Y105478629D01*
X46206124Y105056802D01*
X45995210Y105056802D01*
X45995210Y105478629D01*
X45995210Y105900455D01*
X45754166Y105900455D01*
X45634602Y105899613D01*
X45563008Y105894578D01*
X45527091Y105881592D01*
X45514564Y105856892D01*
X45513123Y105826704D01*
X45332340Y105826704D01*
X45332340Y105900455D01*
X45241948Y105900455D01*
X45188439Y105897164D01*
X45161755Y105876927D01*
X45152572Y105824199D01*
X45151557Y105749803D01*
X45148385Y105659442D01*
X45134919Y105614376D01*
X45105236Y105599796D01*
X45091287Y105599151D01*
X45036166Y105625379D01*
X44973304Y105706235D01*
X44948167Y105749369D01*
X44896187Y105836203D01*
X44853119Y105881398D01*
X44802877Y105898146D01*
X44764434Y105900021D01*
X44663551Y105900455D01*
X43436163Y105900455D01*
X43434119Y105900455D01*
X43381746Y105897485D01*
X43354919Y105878506D01*
X43345095Y105828414D01*
X43343728Y105740677D01*
X43336423Y105639855D01*
X43310746Y105536837D01*
X43261046Y105412457D01*
X43223206Y105331674D01*
X43170399Y105221173D01*
X43129353Y105132796D01*
X43105941Y105079319D01*
X43102684Y105069626D01*
X42831509Y105069626D01*
X42831509Y106219459D01*
X44424985Y106219459D01*
X44466383Y106212544D01*
X44517706Y106212678D01*
X44551178Y106218583D01*
X44576868Y106238831D01*
X44599436Y106283748D01*
X44623539Y106363660D01*
X44653836Y106488891D01*
X44665716Y106540728D01*
X44696993Y106670917D01*
X44725344Y106776119D01*
X44747360Y106844440D01*
X44758567Y106864631D01*
X44772704Y106837256D01*
X44794458Y106763999D01*
X44820097Y106658162D01*
X44832187Y106602109D01*
X44866993Y106440520D01*
X44895336Y106329093D01*
X44921400Y106258674D01*
X44949370Y106220113D01*
X44983430Y106204257D01*
X45015224Y106201760D01*
X45072639Y106215098D01*
X45091296Y106241003D01*
X45083258Y106285101D01*
X45061752Y106372892D01*
X45030689Y106490457D01*
X44993981Y106623880D01*
X44955539Y106759243D01*
X44919275Y106882628D01*
X44889100Y106980117D01*
X44868927Y107037792D01*
X44865138Y107045704D01*
X44822006Y107068513D01*
X44751579Y107074600D01*
X44684402Y107064141D01*
X44653817Y107044465D01*
X44634764Y106998688D01*
X44605969Y106911908D01*
X44570945Y106796786D01*
X44533205Y106665986D01*
X44496260Y106532170D01*
X44463623Y106408000D01*
X44438806Y106306138D01*
X44425321Y106239248D01*
X44424985Y106219459D01*
X42831509Y106219459D01*
X42831509Y106488000D01*
X42831509Y107079182D01*
X45241948Y107079182D01*
X45241948Y106660558D01*
X45243096Y106507792D01*
X45246244Y106377504D01*
X45250953Y106281103D01*
X45255527Y106241003D01*
X45256782Y106229997D01*
X45258758Y106225124D01*
X45298024Y106218105D01*
X45336057Y106224133D01*
X45364229Y106236039D01*
X45381308Y106261726D01*
X45389336Y106313132D01*
X45390355Y106402196D01*
X45387041Y106522228D01*
X45384454Y106644234D01*
X45385326Y106739695D01*
X45389383Y106795455D01*
X45392931Y106804438D01*
X45410350Y106778522D01*
X45445741Y106708336D01*
X45493658Y106605137D01*
X45539485Y106501451D01*
X45670645Y106198532D01*
X45780199Y106207679D01*
X45889754Y106216826D01*
X45898231Y106606928D01*
X45900248Y106756974D01*
X45899678Y106887011D01*
X45897948Y106944223D01*
X46088823Y106944223D01*
X46090129Y106850904D01*
X46091753Y106812123D01*
X46094168Y106756974D01*
X46100667Y106608522D01*
X46243787Y106599338D01*
X46330933Y106596890D01*
X46373466Y106607701D01*
X46386490Y106636964D01*
X46386907Y106648553D01*
X46361118Y106703663D01*
X46326646Y106722709D01*
X46280566Y106755147D01*
X46266400Y106828172D01*
X46266385Y106831680D01*
X46272085Y106894483D01*
X46301453Y106920076D01*
X46370781Y106924892D01*
X46449292Y106913261D01*
X46499758Y106872226D01*
X46527352Y106792570D01*
X46537244Y106665080D01*
X46537559Y106627720D01*
X46529279Y106493236D01*
X46498944Y106408927D01*
X46438314Y106366313D01*
X46339145Y106356914D01*
X46278715Y106361368D01*
X46186609Y106368665D01*
X46137849Y106362470D01*
X46116089Y106337573D01*
X46108323Y106307033D01*
X46111006Y106255690D01*
X46148458Y106223524D01*
X46229142Y106206893D01*
X46352127Y106202172D01*
X46492826Y106222792D01*
X46527404Y106240109D01*
X47194187Y106240109D01*
X47271926Y106225248D01*
X47335470Y106219467D01*
X47365439Y106226161D01*
X47372032Y106261089D01*
X47377273Y106342775D01*
X47380502Y106457718D01*
X47381213Y106549593D01*
X47384160Y106709648D01*
X47395676Y106818274D01*
X47419774Y106884129D01*
X47460466Y106915875D01*
X47521765Y106922169D01*
X47552641Y106919537D01*
X47637322Y106909827D01*
X47645939Y106579499D01*
X47651925Y106422269D01*
X47662481Y106315661D01*
X47681038Y106250050D01*
X47711029Y106215808D01*
X47755886Y106203308D01*
X47780442Y106202222D01*
X47803611Y106207838D01*
X47818853Y106231954D01*
X47827784Y106284746D01*
X47832016Y106376389D01*
X47833163Y106517058D01*
X47833170Y106534692D01*
X47829670Y106726236D01*
X47815898Y106865939D01*
X47786950Y106961982D01*
X47737919Y107022547D01*
X47698142Y107040424D01*
X48067501Y107040424D01*
X48087636Y106983602D01*
X48135664Y106908098D01*
X48186142Y106831133D01*
X48218477Y106774917D01*
X48224866Y106758082D01*
X48203584Y106727190D01*
X48152115Y106680502D01*
X48149540Y106678465D01*
X48098739Y106623835D01*
X48077194Y106551266D01*
X48076439Y106534692D01*
X48074214Y106485813D01*
X48090006Y106365110D01*
X48140981Y106280653D01*
X48232537Y106229016D01*
X48370069Y106206772D01*
X48512361Y106207602D01*
X48691889Y106216826D01*
X48691949Y106623587D01*
X48691236Y106774916D01*
X48689239Y106904454D01*
X48687690Y106954063D01*
X48862244Y106954063D01*
X48883104Y106933804D01*
X48939306Y106926043D01*
X49021229Y106924892D01*
X49189042Y106924892D01*
X49189042Y106819435D01*
X49189042Y106713979D01*
X49038389Y106713979D01*
X48948979Y106711536D01*
X48904374Y106699073D01*
X48889164Y106668883D01*
X48887737Y106638652D01*
X48889363Y106623587D01*
X48892540Y106594156D01*
X48917165Y106571828D01*
X48976934Y106564101D01*
X49040299Y106563326D01*
X49192860Y106563326D01*
X49183418Y106465402D01*
X49174668Y106407415D01*
X49152021Y106378515D01*
X49098923Y106368578D01*
X49023324Y106367478D01*
X48933914Y106365036D01*
X48889309Y106352572D01*
X48874099Y106322382D01*
X48872672Y106292152D01*
X48875180Y106255226D01*
X48890775Y106232814D01*
X48931566Y106221173D01*
X49009661Y106216562D01*
X49121248Y106215333D01*
X49369825Y106213840D01*
X49369825Y106499863D01*
X49539019Y106499863D01*
X49544240Y106399402D01*
X49565782Y106334565D01*
X49612467Y106281183D01*
X49621820Y106272983D01*
X49677497Y106233565D01*
X49741741Y106211810D01*
X49834228Y106202918D01*
X49913854Y106201760D01*
X50123087Y106201760D01*
X50123087Y106615703D01*
X52099706Y106615703D01*
X52120302Y106543144D01*
X52164406Y106439337D01*
X52227848Y106314237D01*
X52296649Y106193961D01*
X52364893Y106080705D01*
X52264836Y105997174D01*
X52164779Y105913643D01*
X52733316Y105751807D01*
X52910466Y105701255D01*
X53068572Y105655897D01*
X53198165Y105618469D01*
X53289778Y105591708D01*
X53333943Y105578348D01*
X53335516Y105577808D01*
X53356614Y105600963D01*
X53389250Y105677409D01*
X53431447Y105801708D01*
X53481227Y105968424D01*
X53493419Y106011756D01*
X53542398Y106187193D01*
X53591138Y106361001D01*
X53634849Y106516159D01*
X53646165Y106556048D01*
X54045446Y106556048D01*
X54055176Y106366527D01*
X54112890Y106183595D01*
X54202044Y106040649D01*
X54235452Y106005649D01*
X54269084Y106002867D01*
X54326559Y106032125D01*
X54339284Y106039612D01*
X54401277Y106088113D01*
X54431615Y106135134D01*
X54432208Y106140463D01*
X54439427Y106170099D01*
X54456428Y106153134D01*
X54477933Y106101312D01*
X54498661Y106026380D01*
X54509615Y105968249D01*
X54530646Y105885145D01*
X54559361Y105842727D01*
X54568244Y105840195D01*
X54614397Y105816391D01*
X54622790Y105802531D01*
X54643920Y105783191D01*
X54672790Y105810064D01*
X54704874Y105837421D01*
X54722791Y105817597D01*
X54763756Y105789528D01*
X54843816Y105781979D01*
X54945752Y105794016D01*
X55052346Y105824703D01*
X55081987Y105837101D01*
X55249593Y105943015D01*
X55376408Y106083609D01*
X55461336Y106248819D01*
X55474962Y106307217D01*
X55765752Y106307217D01*
X56115653Y106288705D01*
X56258701Y106281010D01*
X56382443Y106274120D01*
X56472788Y106268833D01*
X56513915Y106266107D01*
X56548942Y106239117D01*
X56604075Y106168765D01*
X56671855Y106065274D01*
X56720162Y105983314D01*
X56787172Y105866378D01*
X56844421Y105768974D01*
X56884754Y105703131D01*
X56899580Y105681716D01*
X56921783Y105697184D01*
X56966339Y105756214D01*
X57026789Y105849438D01*
X57096677Y105967489D01*
X57096942Y105967956D01*
X57239854Y106219754D01*
X57355068Y106425443D01*
X57444822Y106591213D01*
X57511355Y106723253D01*
X57556904Y106827755D01*
X57583707Y106910907D01*
X57594002Y106978899D01*
X57590027Y107037923D01*
X57574020Y107094168D01*
X57548219Y107153824D01*
X57535370Y107180622D01*
X57477763Y107276815D01*
X57410216Y107358704D01*
X57382211Y107383331D01*
X57328612Y107429831D01*
X57307387Y107462434D01*
X57308179Y107465576D01*
X57294235Y107483467D01*
X57269333Y107488432D01*
X57216366Y107496025D01*
X57123230Y107512396D01*
X57008785Y107534207D01*
X56992838Y107537365D01*
X56860141Y107560401D01*
X56729699Y107577535D01*
X56629995Y107585043D01*
X56493131Y107587763D01*
X56129441Y106947490D01*
X55834688Y106428579D01*
X55765752Y106307217D01*
X55474962Y106307217D01*
X55503280Y106428579D01*
X55501143Y106612826D01*
X55453829Y106791495D01*
X55360241Y106954521D01*
X55219283Y107091839D01*
X55218747Y107092232D01*
X55030986Y107195388D01*
X54832092Y107240016D01*
X54626943Y107225681D01*
X54439982Y107161527D01*
X54280968Y107054897D01*
X54160661Y106911157D01*
X54140766Y106868515D01*
X54081381Y106741233D01*
X54045446Y106556048D01*
X53646165Y106556048D01*
X53668744Y106635641D01*
X53676630Y106663192D01*
X53735603Y106868515D01*
X53595639Y106786492D01*
X53516972Y106745864D01*
X53462097Y106727807D01*
X53446258Y106731821D01*
X53412715Y106806631D01*
X53363609Y106891442D01*
X53309231Y106971430D01*
X53259868Y107031771D01*
X53225807Y107057643D01*
X53220671Y107056860D01*
X53201266Y107054588D01*
X53208038Y107070004D01*
X53212576Y107105450D01*
X53193558Y107166830D01*
X53147911Y107260938D01*
X53072562Y107394566D01*
X53024838Y107474912D01*
X52920691Y107648301D01*
X52870777Y107587763D01*
X52814994Y107520108D01*
X52730887Y107418963D01*
X52636700Y107306921D01*
X52593787Y107256327D01*
X52504947Y107150223D01*
X52410721Y107034993D01*
X52370801Y106985153D01*
X52299096Y106896452D01*
X52232551Y106817008D01*
X52202577Y106782849D01*
X52158983Y106726209D01*
X52141830Y106687436D01*
X52118168Y106652414D01*
X52106791Y106647060D01*
X52103876Y106634160D01*
X52099706Y106615703D01*
X50123087Y106615703D01*
X50123087Y106634160D01*
X50123087Y106855006D01*
X51992880Y106855006D01*
X51995120Y106837737D01*
X52016408Y106842950D01*
X52062462Y106889697D01*
X52125095Y106969060D01*
X52157825Y107014939D01*
X52229399Y107117128D01*
X52290562Y107202388D01*
X52331309Y107256848D01*
X52339110Y107266305D01*
X52376688Y107313796D01*
X52426931Y107383954D01*
X52479606Y107461470D01*
X52524477Y107531041D01*
X52551310Y107577359D01*
X52554055Y107587763D01*
X52532159Y107565176D01*
X52481579Y107503588D01*
X52409720Y107412258D01*
X52323987Y107300445D01*
X52319096Y107293990D01*
X52231694Y107180106D01*
X52156561Y107085073D01*
X52101522Y107018591D01*
X52074400Y106990358D01*
X52074036Y106990175D01*
X52053038Y106955477D01*
X52051438Y106939957D01*
X52029618Y106895381D01*
X52016788Y106888233D01*
X51992880Y106855006D01*
X50123087Y106855006D01*
X50123087Y107066560D01*
X50040228Y107063520D01*
X49986875Y107055202D01*
X49960806Y107023950D01*
X49949547Y106952483D01*
X49948287Y106936169D01*
X49939864Y106859963D01*
X49917801Y106821500D01*
X49864868Y106804337D01*
X49801792Y106796369D01*
X49670940Y106765195D01*
X49588172Y106702090D01*
X49565528Y106645911D01*
X49546846Y106599561D01*
X49539019Y106499863D01*
X49369825Y106499863D01*
X49369825Y106645911D01*
X49369825Y107077982D01*
X49121248Y107069230D01*
X48998773Y107063731D01*
X48924026Y107055356D01*
X48884480Y107040391D01*
X48867607Y107015122D01*
X48863044Y106992686D01*
X48862244Y106954063D01*
X48687690Y106954063D01*
X48686245Y107000331D01*
X48682540Y107050675D01*
X48681573Y107054670D01*
X48647486Y107070363D01*
X48606187Y107069735D01*
X48565547Y107053999D01*
X48542016Y107011189D01*
X48527804Y106925765D01*
X48526171Y106910088D01*
X48506242Y106802199D01*
X48473554Y106752739D01*
X48427549Y106761706D01*
X48367671Y106829094D01*
X48318719Y106908334D01*
X48257171Y107006823D01*
X48206906Y107059141D01*
X48157896Y107075484D01*
X48154304Y107075544D01*
X48089404Y107068200D01*
X48067501Y107040424D01*
X47698142Y107040424D01*
X47663901Y107055813D01*
X47559988Y107069964D01*
X47510947Y107072049D01*
X47398000Y107059902D01*
X47307842Y107009399D01*
X47300340Y107003090D01*
X47263967Y106969153D01*
X47239473Y106933410D01*
X47224001Y106883323D01*
X47214692Y106806352D01*
X47208688Y106689958D01*
X47205341Y106591113D01*
X47205147Y106585373D01*
X47194187Y106240109D01*
X46527404Y106240109D01*
X46607962Y106280454D01*
X46682585Y106367460D01*
X46685644Y106373875D01*
X46708638Y106465274D01*
X46717737Y106591113D01*
X46713551Y106727343D01*
X46696691Y106849915D01*
X46671569Y106927943D01*
X46619467Y106999259D01*
X46559262Y107044780D01*
X46558579Y107045059D01*
X46458125Y107067347D01*
X46331966Y107072216D01*
X46212099Y107059618D01*
X46161508Y107045634D01*
X46119908Y107026175D01*
X46097215Y106997509D01*
X46088823Y106944223D01*
X45897948Y106944223D01*
X45896740Y106984199D01*
X45891654Y107035696D01*
X45890833Y107038401D01*
X45852424Y107067188D01*
X45807030Y107070125D01*
X45776028Y107062259D01*
X45755720Y107041694D01*
X45743291Y106997098D01*
X45735928Y106917140D01*
X45730820Y106790488D01*
X45729840Y106759174D01*
X45720578Y106457869D01*
X45591514Y106759174D01*
X45534146Y106891493D01*
X45492584Y106978358D01*
X45459107Y107029792D01*
X45425993Y107055820D01*
X45385521Y107066463D01*
X45352199Y107069831D01*
X45241948Y107079182D01*
X42831509Y107079182D01*
X42831509Y107389953D01*
X47923561Y107389953D01*
X47945798Y107376978D01*
X47988151Y107380721D01*
X48014083Y107397361D01*
X48014364Y107399447D01*
X48021800Y107443878D01*
X48032944Y107489839D01*
X48034049Y107512849D01*
X48908743Y107512849D01*
X48928185Y107483089D01*
X48955531Y107472977D01*
X49000340Y107484728D01*
X49008259Y107512437D01*
X48987340Y107546283D01*
X48944956Y107549593D01*
X48938595Y107544366D01*
X48911666Y107522237D01*
X48908743Y107512849D01*
X48034049Y107512849D01*
X48035562Y107544366D01*
X48012148Y107556117D01*
X47977294Y107526825D01*
X47952946Y107480345D01*
X47931309Y107419173D01*
X47923561Y107389953D01*
X42831509Y107389953D01*
X42831509Y107512437D01*
X43946337Y107512437D01*
X43969544Y107472470D01*
X43989755Y107467241D01*
X44039073Y107483921D01*
X44055836Y107519518D01*
X44045953Y107538364D01*
X43998052Y107557949D01*
X43956183Y107539941D01*
X43946337Y107512437D01*
X42831509Y107512437D01*
X42831509Y107645548D01*
X43614902Y107645548D01*
X43641638Y107628229D01*
X43708427Y107618597D01*
X43735424Y107617893D01*
X43819226Y107625356D01*
X43853758Y107650096D01*
X43855946Y107663089D01*
X43850688Y107670793D01*
X43981363Y107670793D01*
X43986739Y107628062D01*
X43987770Y107626678D01*
X44021222Y107620881D01*
X44042405Y107659347D01*
X44160233Y107659347D01*
X44202017Y107635899D01*
X44261121Y107631201D01*
X44334346Y107637331D01*
X44375977Y107647547D01*
X44377721Y107648948D01*
X44381322Y107663089D01*
X44488686Y107663089D01*
X44512805Y107623143D01*
X44533882Y107617893D01*
X44573828Y107593775D01*
X44579078Y107572697D01*
X44596128Y107532838D01*
X44633868Y107532994D01*
X44672177Y107568839D01*
X44684189Y107595295D01*
X44693718Y107656156D01*
X44698693Y107751500D01*
X44699142Y107833510D01*
X44835761Y107833510D01*
X44837782Y107736381D01*
X44849735Y107681866D01*
X44879183Y107652368D01*
X44921199Y107634676D01*
X45006875Y107628488D01*
X45070518Y107675865D01*
X45109527Y107773331D01*
X45112086Y107801100D01*
X45242007Y107801100D01*
X45246681Y107706160D01*
X45255323Y107669309D01*
X45277061Y107647444D01*
X45324971Y107636584D01*
X45412129Y107632745D01*
X45489682Y107632153D01*
X45722351Y107631282D01*
X45739584Y107767708D01*
X45744855Y107807611D01*
X45874688Y107807611D01*
X45877638Y107713631D01*
X45891099Y107662949D01*
X45921993Y107638711D01*
X45947208Y107630970D01*
X46044561Y107630610D01*
X46054936Y107638279D01*
X46238678Y107638279D01*
X46271547Y107618407D01*
X46281450Y107617893D01*
X46321396Y107593775D01*
X46326646Y107572697D01*
X46350764Y107532751D01*
X46371841Y107527502D01*
X46411788Y107551620D01*
X46417037Y107572697D01*
X46429291Y107612848D01*
X46439635Y107617893D01*
X46448194Y107645154D01*
X46452298Y107690912D01*
X46574151Y107690912D01*
X46579029Y107637544D01*
X46598572Y107618677D01*
X46606951Y107617893D01*
X46643450Y107646044D01*
X46670861Y107723181D01*
X46686109Y107838330D01*
X46688212Y107907899D01*
X46695150Y107978502D01*
X46722931Y108006405D01*
X46751983Y108009590D01*
X46785774Y108005673D01*
X46802669Y107984973D01*
X46805604Y107934062D01*
X46797512Y107839516D01*
X46794780Y107813741D01*
X46785555Y107706028D01*
X46787809Y107645726D01*
X46802933Y107620836D01*
X46817458Y107617893D01*
X46851384Y107646205D01*
X46877874Y107724267D01*
X46894416Y107841770D01*
X46898793Y107951839D01*
X46894309Y108036877D01*
X46881356Y108059675D01*
X47022275Y108059675D01*
X47023464Y107989638D01*
X47026976Y107951839D01*
X47030420Y107914778D01*
X47041169Y107792252D01*
X47048198Y107674388D01*
X47049777Y107613473D01*
X47055551Y107535916D01*
X47066560Y107519518D01*
X47077923Y107502594D01*
X47107104Y107497371D01*
X47142367Y107510650D01*
X47174501Y107557434D01*
X47182788Y107578901D01*
X50821729Y107578901D01*
X50824244Y107528208D01*
X50831224Y107512437D01*
X50835044Y107503806D01*
X50853930Y107497374D01*
X50854459Y107497371D01*
X50880023Y107506840D01*
X50900383Y107541017D01*
X50917687Y107608557D01*
X50925847Y107663089D01*
X52623917Y107663089D01*
X52638983Y107648024D01*
X52654048Y107663089D01*
X52638983Y107678154D01*
X52623917Y107663089D01*
X50925847Y107663089D01*
X50930356Y107693219D01*
X52262352Y107693219D01*
X52277417Y107678154D01*
X52292482Y107693219D01*
X52277417Y107708285D01*
X52262352Y107693219D01*
X50930356Y107693219D01*
X50934081Y107718115D01*
X50937973Y107753480D01*
X52684178Y107753480D01*
X52699244Y107738415D01*
X52714309Y107753480D01*
X52699244Y107768546D01*
X52684178Y107753480D01*
X50937973Y107753480D01*
X50947921Y107843872D01*
X52352743Y107843872D01*
X52367808Y107828807D01*
X52382873Y107843872D01*
X52804700Y107843872D01*
X52819766Y107828807D01*
X52834831Y107843872D01*
X52819766Y107858937D01*
X52804700Y107843872D01*
X52382873Y107843872D01*
X52367808Y107858937D01*
X52352743Y107843872D01*
X50947921Y107843872D01*
X50951715Y107878346D01*
X50952984Y107891029D01*
X52390261Y107891029D01*
X52394382Y107889068D01*
X52421879Y107910279D01*
X52428069Y107919198D01*
X52435747Y107947367D01*
X52431626Y107949329D01*
X52404129Y107928117D01*
X52397939Y107919198D01*
X52390261Y107891029D01*
X50952984Y107891029D01*
X50953541Y107896600D01*
X50961419Y107994524D01*
X52443134Y107994524D01*
X52458200Y107979459D01*
X52473265Y107994524D01*
X52458200Y108009590D01*
X52454952Y108006342D01*
X52443134Y107994524D01*
X50961419Y107994524D01*
X50962370Y108006342D01*
X50960522Y108068643D01*
X50952066Y108084916D01*
X52503395Y108084916D01*
X52518461Y108069851D01*
X52533526Y108084916D01*
X52518461Y108099981D01*
X52503395Y108084916D01*
X50952066Y108084916D01*
X50946503Y108095623D01*
X50928476Y108099981D01*
X50891925Y108071805D01*
X50888252Y108058679D01*
X50867986Y107986252D01*
X50865908Y107971926D01*
X50842360Y107792440D01*
X50827701Y107664205D01*
X50821729Y107578901D01*
X47182788Y107578901D01*
X47202189Y107629157D01*
X47557011Y107629157D01*
X47686676Y107631058D01*
X47775259Y107638968D01*
X47826157Y107666053D01*
X47854442Y107708285D01*
X47858390Y107721490D01*
X47989848Y107721490D01*
X47990594Y107654598D01*
X48002693Y107624025D01*
X48021865Y107617893D01*
X48052817Y107646086D01*
X48057111Y107658946D01*
X48164117Y107658946D01*
X48202144Y107634256D01*
X48277595Y107628464D01*
X48344924Y107635713D01*
X48380850Y107657176D01*
X48399141Y107709057D01*
X48410542Y107784939D01*
X48413667Y107811761D01*
X48526171Y107811761D01*
X48544596Y107704048D01*
X48593323Y107638575D01*
X48662530Y107620787D01*
X48716786Y107644795D01*
X48927045Y107644795D01*
X48949520Y107618696D01*
X48958345Y107617893D01*
X48981089Y107625160D01*
X48999442Y107653487D01*
X49016206Y107712659D01*
X49027128Y107773303D01*
X49161673Y107773303D01*
X49165700Y107690761D01*
X49190486Y107646503D01*
X49241510Y107629942D01*
X49315094Y107630002D01*
X49445151Y107636602D01*
X49465109Y107785433D01*
X49468197Y107811761D01*
X49580738Y107811761D01*
X49599163Y107704048D01*
X49647890Y107638575D01*
X49717097Y107620787D01*
X49729129Y107626111D01*
X49966047Y107626111D01*
X50091760Y107626111D01*
X50196199Y107641664D01*
X50262344Y107692676D01*
X50294712Y107785670D01*
X50295029Y107798997D01*
X50410777Y107798997D01*
X50413776Y107703156D01*
X50459800Y107647188D01*
X50553164Y107626465D01*
X50571951Y107626111D01*
X50649474Y107629944D01*
X50686799Y107652815D01*
X50703959Y107711777D01*
X50708677Y107742524D01*
X50725259Y107855764D01*
X50742396Y107972559D01*
X50743410Y107979459D01*
X50750354Y108058679D01*
X50737812Y108093924D01*
X50714645Y108099981D01*
X50674968Y108071910D01*
X50652159Y108002057D01*
X50637719Y107900109D01*
X50628196Y107813999D01*
X50604056Y107737754D01*
X50563142Y107713024D01*
X50533042Y107712195D01*
X50517780Y107732599D01*
X50514633Y107786680D01*
X50520879Y107886886D01*
X50522009Y107901082D01*
X50528106Y108012334D01*
X50523181Y108074678D01*
X50505938Y108098675D01*
X50497614Y108099981D01*
X50476674Y108092211D01*
X50459558Y108062033D01*
X50443293Y107999145D01*
X50424906Y107893244D01*
X50410777Y107798997D01*
X50295029Y107798997D01*
X50298007Y107923990D01*
X50290664Y108017021D01*
X50276641Y108064693D01*
X50247243Y108081875D01*
X50204669Y108083629D01*
X50144324Y108091277D01*
X50127719Y108124823D01*
X50129342Y108143890D01*
X50162253Y108196936D01*
X50221011Y108214972D01*
X50289485Y108233984D01*
X50300663Y108267935D01*
X50283783Y108290807D01*
X50268837Y108295829D01*
X52623917Y108295829D01*
X52638983Y108280764D01*
X52654048Y108295829D01*
X52638983Y108310894D01*
X52623917Y108295829D01*
X50268837Y108295829D01*
X50225982Y108310229D01*
X50146656Y108291276D01*
X50103678Y108266804D01*
X50063519Y108221774D01*
X50037008Y108145097D01*
X50020044Y108033292D01*
X50010172Y107947919D01*
X50005989Y107911750D01*
X49991421Y107796834D01*
X49982703Y107734991D01*
X49966047Y107626111D01*
X49729129Y107626111D01*
X49796962Y107656127D01*
X49821782Y107678154D01*
X49859323Y107746442D01*
X49880045Y107844378D01*
X49882444Y107947919D01*
X49865018Y108033025D01*
X49845887Y108063824D01*
X49791264Y108092624D01*
X49723057Y108099913D01*
X49665046Y108086739D01*
X49640999Y108054785D01*
X49661453Y108026399D01*
X49667192Y108018435D01*
X49716325Y108009590D01*
X49775225Y107995006D01*
X49791652Y107967617D01*
X49764441Y107920664D01*
X49691807Y107893280D01*
X49638535Y107889068D01*
X49593265Y107870584D01*
X49580738Y107811761D01*
X49468197Y107811761D01*
X49482200Y107931169D01*
X49486536Y108026399D01*
X49477645Y108079613D01*
X49455051Y108099301D01*
X49447549Y108099981D01*
X49419866Y108078407D01*
X49398694Y108009232D01*
X49383617Y107902631D01*
X49369251Y107794601D01*
X49352571Y107735693D01*
X49329414Y107714798D01*
X49313425Y107715267D01*
X49286339Y107731418D01*
X49273358Y107774529D01*
X49271821Y107857984D01*
X49274172Y107912618D01*
X49276905Y108018372D01*
X49269614Y108076335D01*
X49250049Y108098473D01*
X49238907Y108099981D01*
X49210753Y108081799D01*
X49198001Y108044773D01*
X49189939Y108021363D01*
X49173481Y107909837D01*
X49172927Y107904717D01*
X49161673Y107773303D01*
X49027128Y107773303D01*
X49034181Y107812463D01*
X49055355Y107956861D01*
X49064271Y108044773D01*
X49057142Y108087833D01*
X49031372Y108099934D01*
X49028592Y108099981D01*
X48994495Y108077836D01*
X48971295Y108006454D01*
X48963584Y107956861D01*
X48962398Y107947919D01*
X48948914Y107846253D01*
X48934258Y107742536D01*
X48930242Y107715817D01*
X48927045Y107644795D01*
X48716786Y107644795D01*
X48742395Y107656127D01*
X48767215Y107678154D01*
X48804756Y107746442D01*
X48825478Y107844378D01*
X48827877Y107947919D01*
X48810451Y108033025D01*
X48791319Y108063824D01*
X48736697Y108092624D01*
X48668490Y108099913D01*
X48610479Y108086739D01*
X48586432Y108054785D01*
X48606300Y108027212D01*
X48612625Y108018435D01*
X48661758Y108009590D01*
X48720826Y107995466D01*
X48737085Y107949329D01*
X48725288Y107907795D01*
X48679236Y107891037D01*
X48631628Y107889068D01*
X48560403Y107883537D01*
X48531229Y107858227D01*
X48526171Y107811761D01*
X48413667Y107811761D01*
X48427610Y107931439D01*
X48431858Y108027212D01*
X48422865Y108080502D01*
X48400211Y108099552D01*
X48394476Y108099981D01*
X48365164Y108073019D01*
X48344939Y107998730D01*
X48342645Y107990303D01*
X48332742Y107919402D01*
X48318266Y107816918D01*
X48299370Y107759151D01*
X48268726Y107730625D01*
X48238459Y107720288D01*
X48174586Y107691462D01*
X48164117Y107658946D01*
X48057111Y107658946D01*
X48078511Y107723042D01*
X48096469Y107837328D01*
X48104216Y107977511D01*
X48104344Y107998730D01*
X48094208Y108070618D01*
X48069282Y108101785D01*
X48037792Y108083004D01*
X48034215Y108077383D01*
X48024867Y108038168D01*
X48012767Y107955940D01*
X48008176Y107915812D01*
X48000386Y107847721D01*
X47999248Y107836339D01*
X47989848Y107721490D01*
X47858390Y107721490D01*
X47882077Y107800705D01*
X47892759Y107915812D01*
X47884410Y108020448D01*
X47875880Y108050398D01*
X47838855Y108076238D01*
X47767920Y108092364D01*
X47688815Y108096507D01*
X47627283Y108086397D01*
X47610189Y108073825D01*
X47604361Y108047578D01*
X47601875Y108036380D01*
X47590595Y107955851D01*
X47578703Y107849181D01*
X47577987Y107841971D01*
X47557011Y107629157D01*
X47202189Y107629157D01*
X47209520Y107648147D01*
X47228159Y107707186D01*
X47275212Y107866662D01*
X47303736Y107977384D01*
X47314805Y108047578D01*
X47309496Y108085473D01*
X47288885Y108099297D01*
X47279522Y108099981D01*
X47238545Y108075059D01*
X47230560Y108042944D01*
X47211186Y107991124D01*
X47168843Y107962099D01*
X47128049Y107971492D01*
X47112616Y108013778D01*
X47110038Y108044742D01*
X47087837Y108091179D01*
X47060550Y108099981D01*
X47033927Y108092088D01*
X47022275Y108059675D01*
X46881356Y108059675D01*
X46870084Y108079513D01*
X46810986Y108093791D01*
X46745063Y108094493D01*
X46664494Y108086762D01*
X46625633Y108060562D01*
X46614151Y108028631D01*
X46603621Y107963375D01*
X46597533Y107916991D01*
X46590603Y107864196D01*
X46582171Y107791144D01*
X46574151Y107690912D01*
X46452298Y107690912D01*
X46454505Y107715514D01*
X46458137Y107811838D01*
X46458664Y107916991D01*
X46455657Y108013839D01*
X46450934Y108069851D01*
X46422790Y108095091D01*
X46365132Y108101123D01*
X46304780Y108090136D01*
X46268553Y108064318D01*
X46266385Y108054785D01*
X46291828Y108018064D01*
X46330160Y108009590D01*
X46375890Y107998562D01*
X46378905Y107954502D01*
X46377069Y107947069D01*
X46375767Y107941796D01*
X46361141Y107856364D01*
X46357188Y107794658D01*
X46337051Y107724032D01*
X46296515Y107699554D01*
X46248260Y107672151D01*
X46238678Y107638279D01*
X46054936Y107638279D01*
X46116032Y107683438D01*
X46160283Y107787608D01*
X46175978Y107941271D01*
X46175993Y107947069D01*
X46153466Y108035968D01*
X46097073Y108089052D01*
X46023602Y108100651D01*
X45966290Y108073023D01*
X45949838Y108065092D01*
X45921593Y108033016D01*
X45890678Y107954445D01*
X45875455Y107840743D01*
X45874688Y107807611D01*
X45744855Y107807611D01*
X45754064Y107877328D01*
X45768657Y107980419D01*
X45771922Y108002057D01*
X45775141Y108073023D01*
X45752716Y108099149D01*
X45743690Y108099981D01*
X45696513Y108075553D01*
X45682064Y108052321D01*
X45669189Y107989469D01*
X45663775Y107904829D01*
X45663775Y107904133D01*
X45652958Y107785773D01*
X45619955Y107721790D01*
X45581715Y107708285D01*
X45557295Y107718897D01*
X45545817Y107758765D01*
X45545252Y107839931D01*
X45548704Y107904133D01*
X45552078Y108020491D01*
X45543266Y108083655D01*
X45525307Y108099981D01*
X45482835Y108072206D01*
X45457646Y107995353D01*
X45452450Y107924266D01*
X45441391Y107809220D01*
X45412089Y107733916D01*
X45370511Y107708285D01*
X45346789Y107717730D01*
X45336851Y107754264D01*
X45339177Y107830183D01*
X45346293Y107904133D01*
X45355603Y108011252D01*
X45353637Y108071237D01*
X45338853Y108096425D01*
X45321841Y108099981D01*
X45293520Y108072713D01*
X45268589Y108002360D01*
X45250325Y107906097D01*
X45250036Y107902449D01*
X45242007Y107801100D01*
X45112086Y107801100D01*
X45121426Y107902449D01*
X45117861Y107995235D01*
X45108734Y108061389D01*
X45101339Y108079894D01*
X45046564Y108099568D01*
X44968999Y108094638D01*
X44898935Y108069029D01*
X44877113Y108050846D01*
X44852917Y107991376D01*
X44838236Y107894223D01*
X44836901Y107861464D01*
X44835761Y107833510D01*
X44699142Y107833510D01*
X44699295Y107861464D01*
X44695709Y107966185D01*
X44688118Y108045801D01*
X44679732Y108077383D01*
X44639485Y108099315D01*
X44580517Y108098184D01*
X44531625Y108078034D01*
X44518817Y108054785D01*
X44538421Y108019081D01*
X44556480Y108017122D01*
X44582138Y107996010D01*
X44582884Y107995396D01*
X44599268Y107916476D01*
X44603250Y107866470D01*
X44606154Y107773995D01*
X44597777Y107726713D01*
X44573209Y107709891D01*
X44550522Y107708285D01*
X44500211Y107689812D01*
X44488686Y107663089D01*
X44381322Y107663089D01*
X44386589Y107683771D01*
X44398135Y107762428D01*
X44410020Y107868702D01*
X44411262Y107881535D01*
X44420324Y107996010D01*
X44419497Y108062669D01*
X44407442Y108093348D01*
X44386550Y108099981D01*
X44357045Y108081035D01*
X44335530Y108018373D01*
X44332929Y108001112D01*
X44320526Y107918784D01*
X44305883Y107815757D01*
X44286793Y107757636D01*
X44256196Y107729120D01*
X44228638Y107719669D01*
X44167612Y107691341D01*
X44160233Y107659347D01*
X44042405Y107659347D01*
X44050016Y107673168D01*
X44073378Y107781484D01*
X44085781Y107886272D01*
X44094672Y108001112D01*
X44094045Y108066789D01*
X44082802Y108093808D01*
X44064032Y108094214D01*
X44034725Y108054586D01*
X44009264Y107958456D01*
X43994801Y107863399D01*
X43984215Y107754790D01*
X43981363Y107670793D01*
X43850688Y107670793D01*
X43830826Y107699896D01*
X43795685Y107708285D01*
X43742820Y107722582D01*
X43744423Y107761328D01*
X43763639Y107785117D01*
X43791128Y107827921D01*
X43829986Y107905395D01*
X43852959Y107956861D01*
X43914065Y108099981D01*
X43779549Y108099981D01*
X43690570Y108093974D01*
X43650279Y108073582D01*
X43645032Y108054785D01*
X43670152Y108017978D01*
X43705293Y108009590D01*
X43745023Y108006787D01*
X43760378Y107990578D01*
X43750413Y107949260D01*
X43714182Y107871130D01*
X43690228Y107823174D01*
X43648596Y107735648D01*
X43621240Y107669240D01*
X43614902Y107645548D01*
X42831509Y107645548D01*
X42831509Y108367460D01*
X52753059Y108367460D01*
X52757333Y108295829D01*
X52758997Y108267935D01*
X52763478Y108192832D01*
X52791703Y108084916D01*
X52815345Y107994524D01*
X52816774Y107989062D01*
X52833508Y107947367D01*
X52875046Y107843872D01*
X52911325Y107753480D01*
X52912718Y107750009D01*
X52939026Y107693219D01*
X52941055Y107688839D01*
X52953237Y107663089D01*
X53017379Y107527502D01*
X53754693Y107527502D01*
X53958299Y107528490D01*
X54140360Y107531267D01*
X54292722Y107535554D01*
X54407230Y107541070D01*
X54475730Y107547535D01*
X54492008Y107552822D01*
X54478386Y107587583D01*
X54441205Y107664155D01*
X54385986Y107771570D01*
X54318251Y107898859D01*
X54311299Y107911710D01*
X54130591Y108245279D01*
X54151522Y108280529D01*
X54637245Y108280529D01*
X54758354Y108137527D01*
X54822933Y108065422D01*
X54919582Y107962721D01*
X55037255Y107840929D01*
X55164906Y107711550D01*
X55223206Y107653379D01*
X55566949Y107312234D01*
X55557297Y107465064D01*
X55547646Y107617893D01*
X56051796Y107621463D01*
X56221813Y107622392D01*
X56371784Y107622693D01*
X56490886Y107622385D01*
X56568292Y107621488D01*
X56592065Y107620497D01*
X56616941Y107640164D01*
X56616935Y107656068D01*
X56856683Y107656068D01*
X56859943Y107640164D01*
X56861420Y107632958D01*
X56882806Y107593314D01*
X56890605Y107587763D01*
X56897396Y107603625D01*
X57299962Y107603625D01*
X57303342Y107571751D01*
X57320534Y107549597D01*
X57345868Y107530557D01*
X57339546Y107560748D01*
X57337401Y107566464D01*
X57313532Y107603360D01*
X57299962Y107603625D01*
X56897396Y107603625D01*
X56901138Y107612367D01*
X56902446Y107632958D01*
X56890838Y107662483D01*
X57240319Y107662483D01*
X57243925Y107658067D01*
X57261838Y107662203D01*
X57264012Y107678154D01*
X57252988Y107702955D01*
X57243925Y107698241D01*
X57240319Y107662483D01*
X56890838Y107662483D01*
X56886678Y107673063D01*
X56873262Y107678154D01*
X56856683Y107656068D01*
X56616935Y107656068D01*
X56616930Y107669655D01*
X56601366Y107722453D01*
X56592050Y107750189D01*
X56846919Y107750189D01*
X56851733Y107732766D01*
X56865112Y107721353D01*
X56869937Y107750970D01*
X56864398Y107790049D01*
X56854112Y107790516D01*
X56846919Y107750189D01*
X56592050Y107750189D01*
X56570705Y107813741D01*
X57173621Y107813741D01*
X57188686Y107798676D01*
X57203751Y107813741D01*
X57188686Y107828807D01*
X57173621Y107813741D01*
X56570705Y107813741D01*
X56568401Y107820602D01*
X56521988Y107953103D01*
X56466079Y108108956D01*
X56451152Y108149815D01*
X56701193Y108149815D01*
X56704912Y108117803D01*
X56727114Y108048279D01*
X56749096Y107990959D01*
X56782153Y107914970D01*
X56804528Y107873975D01*
X56810412Y107872995D01*
X56802095Y107916727D01*
X56779526Y107985875D01*
X56752787Y108054785D01*
X57053099Y108054785D01*
X57068164Y108039720D01*
X57083229Y108054785D01*
X57068164Y108069851D01*
X57053099Y108054785D01*
X56752787Y108054785D01*
X56750425Y108060873D01*
X56722511Y108122154D01*
X56703505Y108150153D01*
X56701193Y108149815D01*
X56451152Y108149815D01*
X56441839Y108175307D01*
X56992838Y108175307D01*
X57007903Y108160242D01*
X57022968Y108175307D01*
X57007903Y108190372D01*
X56992838Y108175307D01*
X56441839Y108175307D01*
X56404628Y108277162D01*
X56341587Y108446722D01*
X56280911Y108606636D01*
X56270063Y108634797D01*
X56203859Y108806182D01*
X56390228Y108806182D01*
X56398872Y108778927D01*
X56426145Y108714044D01*
X56474059Y108607009D01*
X56544627Y108453301D01*
X56607956Y108316854D01*
X56645370Y108243879D01*
X56673118Y108203103D01*
X56680835Y108199762D01*
X56676087Y108231132D01*
X56652684Y108300300D01*
X56617525Y108390489D01*
X56577508Y108484923D01*
X56539532Y108566823D01*
X56510495Y108619414D01*
X56505669Y108625758D01*
X56483786Y108678688D01*
X56480620Y108708617D01*
X56465953Y108754193D01*
X56448711Y108762852D01*
X56430716Y108781311D01*
X56435424Y108792982D01*
X56433035Y108820747D01*
X56422137Y108823113D01*
X56391371Y108810666D01*
X56390228Y108806182D01*
X56203859Y108806182D01*
X56174040Y108883374D01*
X55877151Y108883374D01*
X55734730Y108886572D01*
X55628688Y108895493D01*
X55568981Y108909127D01*
X55560405Y108915502D01*
X55546927Y108965610D01*
X55540614Y109044821D01*
X55540548Y109053512D01*
X55540548Y109159393D01*
X55236956Y108861128D01*
X55204594Y108829334D01*
X55078111Y108705352D01*
X54956952Y108587088D01*
X54852117Y108485246D01*
X54774605Y108410529D01*
X54752942Y108389903D01*
X54637245Y108280529D01*
X54151522Y108280529D01*
X54311299Y108549613D01*
X54381883Y108669054D01*
X54439566Y108767742D01*
X54478300Y108835260D01*
X54492050Y108861128D01*
X54463314Y108862532D01*
X54382582Y108862632D01*
X54258099Y108861519D01*
X54098114Y108859282D01*
X53910875Y108856014D01*
X53772001Y108853243D01*
X53543640Y108848141D01*
X53367709Y108843097D01*
X53236383Y108837367D01*
X53141836Y108830205D01*
X53076244Y108820866D01*
X53031780Y108808604D01*
X53000620Y108792673D01*
X52981328Y108777917D01*
X52861757Y108653860D01*
X52785743Y108519088D01*
X52757103Y108386221D01*
X52753059Y108367460D01*
X42831509Y108367460D01*
X42831509Y108386221D01*
X52684178Y108386221D01*
X52699244Y108371155D01*
X52714309Y108386221D01*
X52699244Y108401286D01*
X52684178Y108386221D01*
X42831509Y108386221D01*
X42831509Y109305200D01*
X50334000Y109305200D01*
X57836491Y109305200D01*
X57836491Y108199762D01*
X57836491Y108175307D01*
G37*
D14*
G04 #@! TO.C,R14*
X57574000Y57524529D02*
X57174000Y57524539D01*
X57575056Y58270364D02*
X57175057Y58270375D01*
G04 #@! TO.C,M5*
D16*
X18879000Y10757000D02*
X4979000Y10757000D01*
X4979000Y38257000D01*
X18879000Y38257000D01*
X18879000Y10757000D01*
G04 #@! TO.C,D14*
X16244092Y74275997D02*
X16244092Y75250994D01*
X16514096Y75811000D02*
X17484095Y75811000D01*
X16514096Y73790999D02*
X16514096Y75811000D01*
X16514096Y73790999D02*
X17484095Y73790999D01*
X19054096Y75811000D02*
X20134094Y75811000D01*
X19054096Y73790999D02*
X20134097Y73790999D01*
X20134097Y75811000D02*
X20434096Y75571001D01*
X20134097Y73790999D02*
X20434096Y74030999D01*
X20221287Y74825996D02*
X20646288Y74825996D01*
X20421282Y74576001D02*
X20421282Y75051002D01*
G04 #@! TO.C,D12*
X55409092Y55169449D02*
X55409092Y56144446D01*
X55679096Y56704452D02*
X56649095Y56704452D01*
X55679096Y54684451D02*
X55679096Y56704452D01*
X55679096Y54684451D02*
X56649095Y54684451D01*
X58219096Y56704452D02*
X59299094Y56704452D01*
X58219096Y54684451D02*
X59299097Y54684451D01*
X59299097Y56704452D02*
X59599096Y56464453D01*
X59299097Y54684451D02*
X59599096Y54924451D01*
X59386287Y55719448D02*
X59811288Y55719448D01*
X59586282Y55469453D02*
X59586282Y55944454D01*
G04 #@! TO.C,M9*
X26914998Y100614996D02*
X67715001Y100614996D01*
X26914998Y60714997D02*
X26914998Y100614996D01*
X26914998Y60714997D02*
X69014998Y60714997D01*
X67715001Y100614996D02*
X69015001Y100614996D01*
X69014998Y60714997D02*
X69015001Y100614996D01*
D13*
G04 #@! TO.C,Q14*
X81084000Y39806000D02*
X87504000Y39806000D01*
X81084000Y32906000D02*
X87504000Y32906000D01*
X87504000Y39806000D02*
X87504000Y39536000D01*
X87504000Y32906000D02*
X87504000Y33176000D01*
X89574000Y32746000D02*
X88894000Y32746000D01*
X89234000Y33216000D01*
X89574000Y32746000D01*
G36*
X89574000Y32746000D02*
G01*
X88894000Y32746000D01*
X89234000Y33216000D01*
X89574000Y32746000D01*
G37*
G04 #@! TO.C,Q904*
X116298279Y62683000D02*
X116568279Y62683000D01*
X116298279Y56263000D02*
X116298279Y62683000D01*
X123198279Y62683000D02*
X122928279Y62683000D01*
X123198279Y56263000D02*
X123198279Y62683000D01*
X123358279Y64073000D02*
X122888279Y64413000D01*
X123358279Y64753000D01*
X123358279Y64073000D01*
G36*
X123358279Y64073000D02*
G01*
X122888279Y64413000D01*
X123358279Y64753000D01*
X123358279Y64073000D01*
G37*
D16*
G04 #@! TO.C,C1*
X3537014Y41972001D02*
X4286999Y41972001D01*
D10*
G04 #@! TO.C,J4*
X79762000Y103092000D02*
X79762000Y102492000D01*
X79762000Y98992000D02*
X79762000Y99592000D01*
X85762000Y103392000D02*
X84762000Y103392000D01*
X87562000Y103092000D02*
X79762000Y103092000D01*
X87562000Y102492000D02*
X87562000Y103092000D01*
X87562000Y99592000D02*
X87562000Y98992000D01*
X87562000Y98992000D02*
X79762000Y98992000D01*
D13*
G04 #@! TO.C,Q905*
X95278279Y62683000D02*
X95548279Y62683000D01*
X95278279Y56263000D02*
X95278279Y62683000D01*
X102178279Y62683000D02*
X101908279Y62683000D01*
X102178279Y56263000D02*
X102178279Y62683000D01*
X102338279Y64073000D02*
X101868279Y64413000D01*
X102338279Y64753000D01*
X102338279Y64073000D01*
G36*
X102338279Y64073000D02*
G01*
X101868279Y64413000D01*
X102338279Y64753000D01*
X102338279Y64073000D01*
G37*
D14*
G04 #@! TO.C,R16*
X14308000Y74726005D02*
X13908000Y74726015D01*
X14309056Y75471840D02*
X13909057Y75471851D01*
D13*
G04 #@! TO.C,Q915*
X95611721Y46867000D02*
X95881721Y46867000D01*
X95611721Y40447000D02*
X95611721Y46867000D01*
X102511721Y46867000D02*
X102241721Y46867000D01*
X102511721Y40447000D02*
X102511721Y46867000D01*
X102671721Y48257000D02*
X102201721Y48597000D01*
X102671721Y48937000D01*
X102671721Y48257000D01*
G36*
X102671721Y48257000D02*
G01*
X102201721Y48597000D01*
X102671721Y48937000D01*
X102671721Y48257000D01*
G37*
D16*
G04 #@! TO.C,M1*
X50839747Y25197400D02*
X50839747Y24897402D01*
X50839749Y44047402D02*
X50839744Y42497402D01*
X50839749Y40497400D02*
X50839749Y39397397D01*
X50839749Y37797402D02*
X50839749Y35097402D01*
X50839749Y31597400D02*
X50839749Y26797400D01*
X66139746Y24897404D02*
X50839747Y24897402D01*
X67639746Y45497402D02*
X52239746Y45497402D01*
X67639746Y45497402D02*
X67639746Y45197402D01*
X67639746Y43597402D02*
X67639746Y33197400D01*
X67639746Y31497402D02*
X67639746Y28297399D01*
G04 #@! TO.C,C5*
X13477000Y48888008D02*
X13477000Y49637993D01*
D13*
G04 #@! TO.C,Q906*
X116631721Y46867000D02*
X116901721Y46867000D01*
X116631721Y40447000D02*
X116631721Y46867000D01*
X123531721Y46867000D02*
X123261721Y46867000D01*
X123531721Y40447000D02*
X123531721Y46867000D01*
X123691721Y48257000D02*
X123221721Y48597000D01*
X123691721Y48937000D01*
X123691721Y48257000D01*
G36*
X123691721Y48257000D02*
G01*
X123221721Y48597000D01*
X123691721Y48937000D01*
X123691721Y48257000D01*
G37*
G04 #@! TO.C,Q901*
X116510000Y77730000D02*
X116780000Y77730000D01*
X116510000Y71310000D02*
X116510000Y77730000D01*
X123410000Y77730000D02*
X123140000Y77730000D01*
X123410000Y71310000D02*
X123410000Y77730000D01*
X123570000Y79120000D02*
X123100000Y79460000D01*
X123570000Y79800000D01*
X123570000Y79120000D01*
G36*
X123570000Y79120000D02*
G01*
X123100000Y79460000D01*
X123570000Y79800000D01*
X123570000Y79120000D01*
G37*
G04 #@! TO.C,Q913*
X95400000Y31820000D02*
X95670000Y31820000D01*
X95400000Y25400000D02*
X95400000Y31820000D01*
X102300000Y31820000D02*
X102030000Y31820000D01*
X102300000Y25400000D02*
X102300000Y31820000D01*
X102460000Y33210000D02*
X101990000Y33550000D01*
X102460000Y33890000D01*
X102460000Y33210000D01*
G36*
X102460000Y33210000D02*
G01*
X101990000Y33550000D01*
X102460000Y33890000D01*
X102460000Y33210000D01*
G37*
G04 #@! TO.C,F10*
X70749000Y25149010D02*
X70749000Y29999010D01*
X72749000Y25149010D02*
X72749000Y29999010D01*
X70749000Y29999010D02*
G75*
G02*
X72749000Y29999010I1000000J0D01*
G01*
X72749000Y25099010D02*
G75*
G02*
X70749000Y25099010I-1000000J0D01*
G01*
D11*
G04 #@! TO.C,D10*
X62395000Y56044452D02*
X62395000Y55344452D01*
X62395000Y55694452D02*
X62095000Y55694452D01*
X63095000Y56044452D02*
X63095000Y55344452D01*
X63095000Y55694452D02*
X62395000Y56044452D01*
X63095000Y55694452D02*
X62395000Y55344452D01*
X63295000Y55694452D02*
X63095000Y55694452D01*
D10*
X64295000Y56244452D02*
X64295997Y55848447D01*
X64295000Y55540457D02*
X64295000Y55094452D01*
X64422997Y56269447D02*
X61495000Y56269447D01*
X64422997Y56269447D02*
X64422997Y55848447D01*
X64422997Y55948452D02*
X64295000Y55948452D01*
X64422997Y55540457D02*
X64422997Y55094452D01*
X64422997Y55440452D02*
X64295997Y55440452D01*
X64422997Y55094452D02*
X61494999Y55094452D01*
D14*
G04 #@! TO.C,R17*
X90168944Y100404160D02*
X90568943Y100404149D01*
X90170000Y101149995D02*
X90570000Y101149985D01*
D16*
G04 #@! TO.C,M4*
X77899629Y87663290D02*
X77899629Y93403997D01*
X78258920Y87303999D02*
X77899629Y87663290D01*
X78495981Y93403997D02*
X77899629Y93403997D01*
X78495981Y93403997D02*
X79245982Y94153998D01*
X79245982Y94153998D02*
X79245982Y95153999D01*
X81120979Y95153999D02*
X79245982Y95153999D01*
X91320601Y87303999D02*
X78258920Y87303999D01*
X91320601Y87303999D02*
X91570600Y87553999D01*
X91320979Y95153999D02*
X81120979Y95153999D01*
X91570600Y94904378D02*
X91320979Y95153999D01*
X91570600Y87553999D02*
X91570600Y94904378D01*
D13*
G04 #@! TO.C,D1*
X13085000Y45111500D02*
X13085000Y45761500D01*
X13085000Y45111500D02*
X13085000Y44461500D01*
X16205000Y45111500D02*
X16205000Y45761500D01*
X16205000Y45111500D02*
X16205000Y44461500D01*
X13135000Y43949000D02*
X12805000Y43709000D01*
X12805000Y44189000D01*
X13135000Y43949000D01*
G36*
X13135000Y43949000D02*
G01*
X12805000Y43709000D01*
X12805000Y44189000D01*
X13135000Y43949000D01*
G37*
D14*
G04 #@! TO.C,R15*
X14358000Y72569077D02*
X13958000Y72569087D01*
X14359056Y73314912D02*
X13959057Y73314923D01*
G04 #@! TO.C,R11*
X89064077Y36148000D02*
X89064087Y36548000D01*
X89809912Y36146944D02*
X89809923Y36546943D01*
D13*
G04 #@! TO.C,D2*
X36805000Y26157000D02*
X36805000Y22257000D01*
D11*
X37455000Y24257000D02*
X38155000Y24257000D01*
X37455000Y23557000D02*
X38155000Y23557000D01*
X37805000Y24457000D02*
X37805000Y24257000D01*
X37805000Y24257000D02*
X37455000Y23557000D01*
X37805000Y24257000D02*
X38155000Y23557000D01*
X37805000Y23557000D02*
X37805000Y23257000D01*
D13*
X38805000Y26157000D02*
X36805000Y26157000D01*
X38805000Y26157000D02*
X38805000Y22257000D01*
D16*
G04 #@! TO.C,M7*
X74820001Y73325060D02*
X75179292Y73684351D01*
X74820001Y60263379D02*
X74820001Y73325060D01*
X74820001Y60263379D02*
X75070001Y60013380D01*
X75070001Y60013380D02*
X82420380Y60013380D01*
X75179292Y73684351D02*
X80919999Y73684351D01*
X80919999Y73087999D02*
X80919999Y73684351D01*
X80919999Y73087999D02*
X81670000Y72337998D01*
X81670000Y72337998D02*
X82670001Y72337998D01*
X82420380Y60013380D02*
X82670001Y60263001D01*
X82670001Y70463001D02*
X82670001Y72337998D01*
X82670001Y60263001D02*
X82670001Y70463001D01*
G04 #@! TO.C,M6*
X2871858Y72738499D02*
X2833011Y83913499D01*
X8569339Y72738499D02*
X2871858Y72738499D01*
X8569339Y72738499D02*
X8844343Y73013503D01*
X9719337Y73013503D02*
X8844343Y73013503D01*
X9719337Y73013503D02*
X9719340Y73013505D01*
X9719340Y83913499D02*
X2833011Y83913499D01*
X9719340Y73013505D02*
X9719340Y83913499D01*
D13*
G04 #@! TO.C,Q12*
X13390000Y10403000D02*
X19810000Y10403000D01*
X13390000Y3503000D02*
X19810000Y3503000D01*
X19810000Y10403000D02*
X19810000Y10133000D01*
X19810000Y3503000D02*
X19810000Y3773000D01*
X21880000Y3343000D02*
X21200000Y3343000D01*
X21540000Y3813000D01*
X21880000Y3343000D01*
G36*
X21880000Y3343000D02*
G01*
X21200000Y3343000D01*
X21540000Y3813000D01*
X21880000Y3343000D01*
G37*
D14*
G04 #@! TO.C,R19*
X88245077Y45049000D02*
X88245087Y45449000D01*
X88990912Y45047944D02*
X88990923Y45447943D01*
D11*
G04 #@! TO.C,D9*
X62533000Y53961452D02*
X62533000Y53261452D01*
X62533000Y53611452D02*
X62233000Y53611452D01*
X63233000Y53961452D02*
X63233000Y53261452D01*
X63233000Y53611452D02*
X62533000Y53961452D01*
X63233000Y53611452D02*
X62533000Y53261452D01*
X63433000Y53611452D02*
X63233000Y53611452D01*
D10*
X64433000Y54161452D02*
X64433997Y53765447D01*
X64433000Y53457457D02*
X64433000Y53011452D01*
X64560997Y54186447D02*
X61633000Y54186447D01*
X64560997Y54186447D02*
X64560997Y53765447D01*
X64560997Y53865452D02*
X64433000Y53865452D01*
X64560997Y53457457D02*
X64560997Y53011452D01*
X64560997Y53357452D02*
X64433997Y53357452D01*
X64560997Y53011452D02*
X61632999Y53011452D01*
D13*
G04 #@! TO.C,Q916*
X84760000Y77710000D02*
X85030000Y77710000D01*
X84760000Y71290000D02*
X84760000Y77710000D01*
X91660000Y77710000D02*
X91390000Y77710000D01*
X91660000Y71290000D02*
X91660000Y77710000D01*
X91820000Y79100000D02*
X91350000Y79440000D01*
X91820000Y79780000D01*
X91820000Y79100000D01*
G36*
X91820000Y79100000D02*
G01*
X91350000Y79440000D01*
X91820000Y79780000D01*
X91820000Y79100000D01*
G37*
G04 #@! TO.C,Q11*
X80417000Y48732000D02*
X86837000Y48732000D01*
X80417000Y41832000D02*
X86837000Y41832000D01*
X86837000Y48732000D02*
X86837000Y48462000D01*
X86837000Y41832000D02*
X86837000Y42102000D01*
X88907000Y41672000D02*
X88227000Y41672000D01*
X88567000Y42142000D01*
X88907000Y41672000D01*
G36*
X88907000Y41672000D02*
G01*
X88227000Y41672000D01*
X88567000Y42142000D01*
X88907000Y41672000D01*
G37*
G04 #@! TO.C,Q912*
X105850000Y77830000D02*
X106120000Y77830000D01*
X105850000Y71410000D02*
X105850000Y77830000D01*
X112750000Y77830000D02*
X112480000Y77830000D01*
X112750000Y71410000D02*
X112750000Y77830000D01*
X112910000Y79220000D02*
X112440000Y79560000D01*
X112910000Y79900000D01*
X112910000Y79220000D01*
G36*
X112910000Y79220000D02*
G01*
X112440000Y79560000D01*
X112910000Y79900000D01*
X112910000Y79220000D01*
G37*
D14*
G04 #@! TO.C,R12*
X89121077Y27967000D02*
X89121087Y28367000D01*
X89866912Y27965944D02*
X89866923Y28365943D01*
D16*
G04 #@! TO.C,C3*
X11225014Y41404000D02*
X11974999Y41404000D01*
D13*
G04 #@! TO.C,Q903*
X105760000Y31920000D02*
X106030000Y31920000D01*
X105760000Y25500000D02*
X105760000Y31920000D01*
X112660000Y31920000D02*
X112390000Y31920000D01*
X112660000Y25500000D02*
X112660000Y31920000D01*
X112820000Y33310000D02*
X112350000Y33650000D01*
X112820000Y33990000D01*
X112820000Y33310000D01*
G36*
X112820000Y33310000D02*
G01*
X112350000Y33650000D01*
X112820000Y33990000D01*
X112820000Y33310000D01*
G37*
G04 #@! TO.C,Q911*
X105971721Y46967000D02*
X106241721Y46967000D01*
X105971721Y40547000D02*
X105971721Y46967000D01*
X112871721Y46967000D02*
X112601721Y46967000D01*
X112871721Y40547000D02*
X112871721Y46967000D01*
X113031721Y48357000D02*
X112561721Y48697000D01*
X113031721Y49037000D01*
X113031721Y48357000D01*
G36*
X113031721Y48357000D02*
G01*
X112561721Y48697000D01*
X113031721Y49037000D01*
X113031721Y48357000D01*
G37*
G04 #@! TO.C,Q902*
X116420000Y31820000D02*
X116690000Y31820000D01*
X116420000Y25400000D02*
X116420000Y31820000D01*
X123320000Y31820000D02*
X123050000Y31820000D01*
X123320000Y25400000D02*
X123320000Y31820000D01*
X123480000Y33210000D02*
X123010000Y33550000D01*
X123480000Y33890000D01*
X123480000Y33210000D01*
G36*
X123480000Y33210000D02*
G01*
X123010000Y33550000D01*
X123480000Y33890000D01*
X123480000Y33210000D01*
G37*
G04 #@! TO.C,Q9*
X81084000Y31611000D02*
X87504000Y31611000D01*
X81084000Y24711000D02*
X87504000Y24711000D01*
X87504000Y31611000D02*
X87504000Y31341000D01*
X87504000Y24711000D02*
X87504000Y24981000D01*
X89574000Y24551000D02*
X88894000Y24551000D01*
X89234000Y25021000D01*
X89574000Y24551000D01*
G36*
X89574000Y24551000D02*
G01*
X88894000Y24551000D01*
X89234000Y25021000D01*
X89574000Y24551000D01*
G37*
G04 #@! TO.C,Q914*
X95490000Y77730000D02*
X95760000Y77730000D01*
X95490000Y71310000D02*
X95490000Y77730000D01*
X102390000Y77730000D02*
X102120000Y77730000D01*
X102390000Y71310000D02*
X102390000Y77730000D01*
X102550000Y79120000D02*
X102080000Y79460000D01*
X102550000Y79800000D01*
X102550000Y79120000D01*
G36*
X102550000Y79120000D02*
G01*
X102080000Y79460000D01*
X102550000Y79800000D01*
X102550000Y79120000D01*
G37*
D14*
G04 #@! TO.C,R9*
X21830005Y6756000D02*
X21830015Y7156000D01*
X22575840Y6754944D02*
X22575851Y7154943D01*
D16*
G04 #@! TO.C,D11*
X60059902Y50786450D02*
X60059902Y51761447D01*
X60329906Y52321453D02*
X61299905Y52321453D01*
X60329906Y50301452D02*
X60329906Y52321453D01*
X60329906Y50301452D02*
X61299905Y50301452D01*
X62869906Y52321453D02*
X63949904Y52321453D01*
X62869906Y50301452D02*
X63949907Y50301452D01*
X63949907Y52321453D02*
X64249906Y52081454D01*
X63949907Y50301452D02*
X64249906Y50541452D01*
X64037097Y51336449D02*
X64462098Y51336449D01*
X64237092Y51086454D02*
X64237092Y51561455D01*
G04 #@! TO.C,M8*
X21529216Y37770242D02*
X21529216Y23370242D01*
X21529216Y23370242D02*
X27929216Y23370242D01*
X31129216Y38370242D02*
X26029216Y38370242D01*
X31129216Y23370242D02*
X29829216Y23370242D01*
X31129216Y23370242D02*
X31129216Y38370242D01*
D13*
G04 #@! TO.C,L1*
X8650000Y41320221D02*
X8650000Y41645779D01*
X9670000Y41320221D02*
X9670000Y41645779D01*
D16*
G04 #@! TO.C,C2*
X14625000Y42099993D02*
X14625000Y41350008D01*
D13*
G04 #@! TO.C,L2*
X5671000Y41622221D02*
X5671000Y41947779D01*
X6691000Y41622221D02*
X6691000Y41947779D01*
G04 #@! TO.C,D4*
X73592000Y29641000D02*
X73592000Y27641000D01*
X73592000Y29641000D02*
X77492000Y29641000D01*
X73592000Y27641000D02*
X77492000Y27641000D01*
D11*
X75292000Y28641000D02*
X75492000Y28641000D01*
X75492000Y28641000D02*
X76192000Y28991000D01*
X75492000Y28641000D02*
X76192000Y28291000D01*
X75492000Y28291000D02*
X75492000Y28991000D01*
X76192000Y28641000D02*
X76492000Y28641000D01*
X76192000Y28291000D02*
X76192000Y28991000D01*
D16*
G04 #@! TO.C,M3*
X32739997Y23661000D02*
X32739997Y32761000D01*
X35840000Y23661000D02*
X34839998Y23661000D01*
X35840000Y23661000D02*
X35840000Y32761000D01*
G04 #@! TO.C,C4*
X13544000Y50973014D02*
X13544000Y51722999D01*
G04 #@! TO.C,D13*
X17454997Y70790997D02*
X17454997Y71765994D01*
X17725001Y72326000D02*
X18695000Y72326000D01*
X17725001Y70305999D02*
X17725001Y72326000D01*
X17725001Y70305999D02*
X18695000Y70305999D01*
X20265001Y72326000D02*
X21344999Y72326000D01*
X20265001Y70305999D02*
X21345002Y70305999D01*
X21345002Y72326000D02*
X21645001Y72086001D01*
X21345002Y70305999D02*
X21645001Y70545999D01*
X21432192Y71340996D02*
X21857193Y71340996D01*
X21632187Y71091001D02*
X21632187Y71566002D01*
G04 #@! TD*
M02*
