G04 #@! TF.GenerationSoftware,KiCad,Pcbnew,8.0.9-8.0.9-0~ubuntu24.04.1*
G04 #@! TF.CreationDate,2026-07-06T14:45:12+00:00*
G04 #@! TF.ProjectId,luis48,6c756973-3438-42e6-9b69-6361645f7063,rev?*
G04 #@! TF.SameCoordinates,Original*
G04 #@! TF.FileFunction,Soldermask,Top*
G04 #@! TF.FilePolarity,Negative*
%FSLAX46Y46*%
G04 Gerber Fmt 4.6, Leading zero omitted, Abs format (unit mm)*
G04 Created by KiCad (PCBNEW 8.0.9-8.0.9-0~ubuntu24.04.1) date 2026-07-06 14:45:12*
%MOMM*%
%LPD*%
G01*
G04 APERTURE LIST*
%ADD10R,1.100000X1.100000*%
%ADD11C,1.100000*%
%ADD12O,1.100000X2.400000*%
%ADD13C,1.500000*%
%ADD14C,0.600000*%
%ADD15C,1.524000*%
%ADD16C,4.000000*%
%ADD17C,2.200000*%
%ADD18C,1.600000*%
%ADD19O,0.399999X0.200000*%
%ADD20O,0.200000X0.399999*%
%ADD21C,0.599999*%
%ADD22O,0.250000X0.499999*%
%ADD23O,0.499999X0.250000*%
G04 APERTURE END LIST*
G04 #@! TO.C,U2*
G36*
G01*
X11497000Y45481000D02*
X11497000Y45181000D01*
G75*
G02*
X11347000Y45031000I-150000J0D01*
G01*
X9697000Y45031000D01*
G75*
G02*
X9547000Y45181000I0J150000D01*
G01*
X9547000Y45481000D01*
G75*
G02*
X9697000Y45631000I150000J0D01*
G01*
X11347000Y45631000D01*
G75*
G02*
X11497000Y45481000I0J-150000D01*
G01*
G37*
G36*
G01*
X11497000Y46751000D02*
X11497000Y46451000D01*
G75*
G02*
X11347000Y46301000I-150000J0D01*
G01*
X9697000Y46301000D01*
G75*
G02*
X9547000Y46451000I0J150000D01*
G01*
X9547000Y46751000D01*
G75*
G02*
X9697000Y46901000I150000J0D01*
G01*
X11347000Y46901000D01*
G75*
G02*
X11497000Y46751000I0J-150000D01*
G01*
G37*
G36*
G01*
X11497000Y48021000D02*
X11497000Y47721000D01*
G75*
G02*
X11347000Y47571000I-150000J0D01*
G01*
X9697000Y47571000D01*
G75*
G02*
X9547000Y47721000I0J150000D01*
G01*
X9547000Y48021000D01*
G75*
G02*
X9697000Y48171000I150000J0D01*
G01*
X11347000Y48171000D01*
G75*
G02*
X11497000Y48021000I0J-150000D01*
G01*
G37*
G36*
G01*
X11497000Y49291000D02*
X11497000Y48991000D01*
G75*
G02*
X11347000Y48841000I-150000J0D01*
G01*
X9697000Y48841000D01*
G75*
G02*
X9547000Y48991000I0J150000D01*
G01*
X9547000Y49291000D01*
G75*
G02*
X9697000Y49441000I150000J0D01*
G01*
X11347000Y49441000D01*
G75*
G02*
X11497000Y49291000I0J-150000D01*
G01*
G37*
G36*
G01*
X6547000Y49291000D02*
X6547000Y48991000D01*
G75*
G02*
X6397000Y48841000I-150000J0D01*
G01*
X4747000Y48841000D01*
G75*
G02*
X4597000Y48991000I0J150000D01*
G01*
X4597000Y49291000D01*
G75*
G02*
X4747000Y49441000I150000J0D01*
G01*
X6397000Y49441000D01*
G75*
G02*
X6547000Y49291000I0J-150000D01*
G01*
G37*
G36*
G01*
X6547000Y48021000D02*
X6547000Y47721000D01*
G75*
G02*
X6397000Y47571000I-150000J0D01*
G01*
X4747000Y47571000D01*
G75*
G02*
X4597000Y47721000I0J150000D01*
G01*
X4597000Y48021000D01*
G75*
G02*
X4747000Y48171000I150000J0D01*
G01*
X6397000Y48171000D01*
G75*
G02*
X6547000Y48021000I0J-150000D01*
G01*
G37*
G36*
G01*
X6547000Y46751000D02*
X6547000Y46451000D01*
G75*
G02*
X6397000Y46301000I-150000J0D01*
G01*
X4747000Y46301000D01*
G75*
G02*
X4597000Y46451000I0J150000D01*
G01*
X4597000Y46751000D01*
G75*
G02*
X4747000Y46901000I150000J0D01*
G01*
X6397000Y46901000D01*
G75*
G02*
X6547000Y46751000I0J-150000D01*
G01*
G37*
G36*
G01*
X6547000Y45481000D02*
X6547000Y45181000D01*
G75*
G02*
X6397000Y45031000I-150000J0D01*
G01*
X4747000Y45031000D01*
G75*
G02*
X4597000Y45181000I0J150000D01*
G01*
X4597000Y45481000D01*
G75*
G02*
X4747000Y45631000I150000J0D01*
G01*
X6397000Y45631000D01*
G75*
G02*
X6547000Y45481000I0J-150000D01*
G01*
G37*
G04 #@! TD*
G04 #@! TO.C,D3*
G36*
G01*
X72579000Y44471000D02*
X72579000Y45491000D01*
G75*
G02*
X72669000Y45581000I90000J0D01*
G01*
X73389000Y45581000D01*
G75*
G02*
X73479000Y45491000I0J-90000D01*
G01*
X73479000Y44471000D01*
G75*
G02*
X73389000Y44381000I-90000J0D01*
G01*
X72669000Y44381000D01*
G75*
G02*
X72579000Y44471000I0J90000D01*
G01*
G37*
G36*
G01*
X75879000Y44471000D02*
X75879000Y45491000D01*
G75*
G02*
X75969000Y45581000I90000J0D01*
G01*
X76689000Y45581000D01*
G75*
G02*
X76779000Y45491000I0J-90000D01*
G01*
X76779000Y44471000D01*
G75*
G02*
X76689000Y44381000I-90000J0D01*
G01*
X75969000Y44381000D01*
G75*
G02*
X75879000Y44471000I0J90000D01*
G01*
G37*
G04 #@! TD*
G04 #@! TO.C,R13*
G36*
G01*
X59647000Y48854452D02*
X59647000Y49634452D01*
G75*
G02*
X59717000Y49704452I70000J0D01*
G01*
X60277000Y49704452D01*
G75*
G02*
X60347000Y49634452I0J-70000D01*
G01*
X60347000Y48854452D01*
G75*
G02*
X60277000Y48784452I-70000J0D01*
G01*
X59717000Y48784452D01*
G75*
G02*
X59647000Y48854452I0J70000D01*
G01*
G37*
G36*
G01*
X61247000Y48854452D02*
X61247000Y49634452D01*
G75*
G02*
X61317000Y49704452I70000J0D01*
G01*
X61877000Y49704452D01*
G75*
G02*
X61947000Y49634452I0J-70000D01*
G01*
X61947000Y48854452D01*
G75*
G02*
X61877000Y48784452I-70000J0D01*
G01*
X61317000Y48784452D01*
G75*
G02*
X61247000Y48854452I0J70000D01*
G01*
G37*
G04 #@! TD*
G04 #@! TO.C,D5*
G36*
G01*
X73323000Y34239000D02*
X73323000Y35259000D01*
G75*
G02*
X73413000Y35349000I90000J0D01*
G01*
X74133000Y35349000D01*
G75*
G02*
X74223000Y35259000I0J-90000D01*
G01*
X74223000Y34239000D01*
G75*
G02*
X74133000Y34149000I-90000J0D01*
G01*
X73413000Y34149000D01*
G75*
G02*
X73323000Y34239000I0J90000D01*
G01*
G37*
G36*
G01*
X76623000Y34239000D02*
X76623000Y35259000D01*
G75*
G02*
X76713000Y35349000I90000J0D01*
G01*
X77433000Y35349000D01*
G75*
G02*
X77523000Y35259000I0J-90000D01*
G01*
X77523000Y34239000D01*
G75*
G02*
X77433000Y34149000I-90000J0D01*
G01*
X76713000Y34149000D01*
G75*
G02*
X76623000Y34239000I0J90000D01*
G01*
G37*
G04 #@! TD*
G04 #@! TO.C,R14*
G36*
G01*
X58524000Y58289524D02*
X58524000Y57509524D01*
G75*
G02*
X58454000Y57439524I-70000J0D01*
G01*
X57894000Y57439524D01*
G75*
G02*
X57824000Y57509524I0J70000D01*
G01*
X57824000Y58289524D01*
G75*
G02*
X57894000Y58359524I70000J0D01*
G01*
X58454000Y58359524D01*
G75*
G02*
X58524000Y58289524I0J-70000D01*
G01*
G37*
G36*
G01*
X56924000Y58289524D02*
X56924000Y57509524D01*
G75*
G02*
X56854000Y57439524I-70000J0D01*
G01*
X56294000Y57439524D01*
G75*
G02*
X56224000Y57509524I0J70000D01*
G01*
X56224000Y58289524D01*
G75*
G02*
X56294000Y58359524I70000J0D01*
G01*
X56854000Y58359524D01*
G75*
G02*
X56924000Y58289524I0J-70000D01*
G01*
G37*
G04 #@! TD*
G04 #@! TO.C,D14*
G36*
G01*
X18694116Y74181000D02*
X18694116Y75421000D01*
G75*
G02*
X18824116Y75551000I130000J0D01*
G01*
X19864116Y75551000D01*
G75*
G02*
X19994116Y75421000I0J-130000D01*
G01*
X19994116Y74181000D01*
G75*
G02*
X19864116Y74051000I-130000J0D01*
G01*
X18824116Y74051000D01*
G75*
G02*
X18694116Y74181000I0J130000D01*
G01*
G37*
G36*
G01*
X16794095Y74181000D02*
X16794095Y75421000D01*
G75*
G02*
X16924095Y75551000I130000J0D01*
G01*
X17964095Y75551000D01*
G75*
G02*
X18094095Y75421000I0J-130000D01*
G01*
X18094095Y74181000D01*
G75*
G02*
X17964095Y74051000I-130000J0D01*
G01*
X16924095Y74051000D01*
G75*
G02*
X16794095Y74181000I0J130000D01*
G01*
G37*
G04 #@! TD*
G04 #@! TO.C,D12*
G36*
G01*
X57859116Y55074452D02*
X57859116Y56314452D01*
G75*
G02*
X57989116Y56444452I130000J0D01*
G01*
X59029116Y56444452D01*
G75*
G02*
X59159116Y56314452I0J-130000D01*
G01*
X59159116Y55074452D01*
G75*
G02*
X59029116Y54944452I-130000J0D01*
G01*
X57989116Y54944452D01*
G75*
G02*
X57859116Y55074452I0J130000D01*
G01*
G37*
G36*
G01*
X55959095Y55074452D02*
X55959095Y56314452D01*
G75*
G02*
X56089095Y56444452I130000J0D01*
G01*
X57129095Y56444452D01*
G75*
G02*
X57259095Y56314452I0J-130000D01*
G01*
X57259095Y55074452D01*
G75*
G02*
X57129095Y54944452I-130000J0D01*
G01*
X56089095Y54944452D01*
G75*
G02*
X55959095Y55074452I0J130000D01*
G01*
G37*
G04 #@! TD*
G04 #@! TO.C,Q14*
G36*
G01*
X90334000Y34426000D02*
X90334000Y33726000D01*
G75*
G02*
X90084000Y33476000I-250000J0D01*
G01*
X88384000Y33476000D01*
G75*
G02*
X88134000Y33726000I0J250000D01*
G01*
X88134000Y34426000D01*
G75*
G02*
X88384000Y34676000I250000J0D01*
G01*
X90084000Y34676000D01*
G75*
G02*
X90334000Y34426000I0J-250000D01*
G01*
G37*
G36*
G01*
X86134000Y39006003D02*
X86134000Y33705997D01*
G75*
G02*
X85884003Y33456000I-249997J0D01*
G01*
X79983997Y33456000D01*
G75*
G02*
X79734000Y33705997I0J249997D01*
G01*
X79734000Y39006003D01*
G75*
G02*
X79983997Y39256000I249997J0D01*
G01*
X85884003Y39256000D01*
G75*
G02*
X86134000Y39006003I0J-249997D01*
G01*
G37*
G36*
G01*
X90334000Y38986000D02*
X90334000Y38286000D01*
G75*
G02*
X90084000Y38036000I-250000J0D01*
G01*
X88384000Y38036000D01*
G75*
G02*
X88134000Y38286000I0J250000D01*
G01*
X88134000Y38986000D01*
G75*
G02*
X88384000Y39236000I250000J0D01*
G01*
X90084000Y39236000D01*
G75*
G02*
X90334000Y38986000I0J-250000D01*
G01*
G37*
G04 #@! TD*
G04 #@! TO.C,Q904*
G36*
G01*
X121678279Y65513000D02*
X122378279Y65513000D01*
G75*
G02*
X122628279Y65263000I0J-250000D01*
G01*
X122628279Y63563000D01*
G75*
G02*
X122378279Y63313000I-250000J0D01*
G01*
X121678279Y63313000D01*
G75*
G02*
X121428279Y63563000I0J250000D01*
G01*
X121428279Y65263000D01*
G75*
G02*
X121678279Y65513000I250000J0D01*
G01*
G37*
G36*
G01*
X117098276Y61313000D02*
X122398282Y61313000D01*
G75*
G02*
X122648279Y61063003I0J-249997D01*
G01*
X122648279Y55162997D01*
G75*
G02*
X122398282Y54913000I-249997J0D01*
G01*
X117098276Y54913000D01*
G75*
G02*
X116848279Y55162997I0J249997D01*
G01*
X116848279Y61063003D01*
G75*
G02*
X117098276Y61313000I249997J0D01*
G01*
G37*
G36*
G01*
X117118279Y65513000D02*
X117818279Y65513000D01*
G75*
G02*
X118068279Y65263000I0J-250000D01*
G01*
X118068279Y63563000D01*
G75*
G02*
X117818279Y63313000I-250000J0D01*
G01*
X117118279Y63313000D01*
G75*
G02*
X116868279Y63563000I0J250000D01*
G01*
X116868279Y65263000D01*
G75*
G02*
X117118279Y65513000I250000J0D01*
G01*
G37*
G04 #@! TD*
G04 #@! TO.C,C1*
G36*
G01*
X4227000Y40757000D02*
X3547000Y40757000D01*
G75*
G02*
X3462000Y40842000I0J85000D01*
G01*
X3462000Y41522000D01*
G75*
G02*
X3547000Y41607000I85000J0D01*
G01*
X4227000Y41607000D01*
G75*
G02*
X4312000Y41522000I0J-85000D01*
G01*
X4312000Y40842000D01*
G75*
G02*
X4227000Y40757000I-85000J0D01*
G01*
G37*
G36*
G01*
X4227000Y42337002D02*
X3547000Y42337002D01*
G75*
G02*
X3462000Y42422002I0J85000D01*
G01*
X3462000Y43102002D01*
G75*
G02*
X3547000Y43187002I85000J0D01*
G01*
X4227000Y43187002D01*
G75*
G02*
X4312000Y43102002I0J-85000D01*
G01*
X4312000Y42422002D01*
G75*
G02*
X4227000Y42337002I-85000J0D01*
G01*
G37*
G04 #@! TD*
D10*
G04 #@! TO.C,J4*
X85262000Y101892000D03*
D11*
X84462000Y100142000D03*
X83662000Y101892000D03*
X82862000Y100142000D03*
X82062000Y101892000D03*
D12*
X87312000Y101017000D03*
X80012000Y101017000D03*
G04 #@! TD*
G04 #@! TO.C,Q905*
G36*
G01*
X100658279Y65513000D02*
X101358279Y65513000D01*
G75*
G02*
X101608279Y65263000I0J-250000D01*
G01*
X101608279Y63563000D01*
G75*
G02*
X101358279Y63313000I-250000J0D01*
G01*
X100658279Y63313000D01*
G75*
G02*
X100408279Y63563000I0J250000D01*
G01*
X100408279Y65263000D01*
G75*
G02*
X100658279Y65513000I250000J0D01*
G01*
G37*
G36*
G01*
X96078276Y61313000D02*
X101378282Y61313000D01*
G75*
G02*
X101628279Y61063003I0J-249997D01*
G01*
X101628279Y55162997D01*
G75*
G02*
X101378282Y54913000I-249997J0D01*
G01*
X96078276Y54913000D01*
G75*
G02*
X95828279Y55162997I0J249997D01*
G01*
X95828279Y61063003D01*
G75*
G02*
X96078276Y61313000I249997J0D01*
G01*
G37*
G36*
G01*
X96098279Y65513000D02*
X96798279Y65513000D01*
G75*
G02*
X97048279Y65263000I0J-250000D01*
G01*
X97048279Y63563000D01*
G75*
G02*
X96798279Y63313000I-250000J0D01*
G01*
X96098279Y63313000D01*
G75*
G02*
X95848279Y63563000I0J250000D01*
G01*
X95848279Y65263000D01*
G75*
G02*
X96098279Y65513000I250000J0D01*
G01*
G37*
G04 #@! TD*
G04 #@! TO.C,R16*
G36*
G01*
X15258000Y75491000D02*
X15258000Y74711000D01*
G75*
G02*
X15188000Y74641000I-70000J0D01*
G01*
X14628000Y74641000D01*
G75*
G02*
X14558000Y74711000I0J70000D01*
G01*
X14558000Y75491000D01*
G75*
G02*
X14628000Y75561000I70000J0D01*
G01*
X15188000Y75561000D01*
G75*
G02*
X15258000Y75491000I0J-70000D01*
G01*
G37*
G36*
G01*
X13658000Y75491000D02*
X13658000Y74711000D01*
G75*
G02*
X13588000Y74641000I-70000J0D01*
G01*
X13028000Y74641000D01*
G75*
G02*
X12958000Y74711000I0J70000D01*
G01*
X12958000Y75491000D01*
G75*
G02*
X13028000Y75561000I70000J0D01*
G01*
X13588000Y75561000D01*
G75*
G02*
X13658000Y75491000I0J-70000D01*
G01*
G37*
G04 #@! TD*
G04 #@! TO.C,Q915*
G36*
G01*
X100991721Y49697000D02*
X101691721Y49697000D01*
G75*
G02*
X101941721Y49447000I0J-250000D01*
G01*
X101941721Y47747000D01*
G75*
G02*
X101691721Y47497000I-250000J0D01*
G01*
X100991721Y47497000D01*
G75*
G02*
X100741721Y47747000I0J250000D01*
G01*
X100741721Y49447000D01*
G75*
G02*
X100991721Y49697000I250000J0D01*
G01*
G37*
G36*
G01*
X96411718Y45497000D02*
X101711724Y45497000D01*
G75*
G02*
X101961721Y45247003I0J-249997D01*
G01*
X101961721Y39346997D01*
G75*
G02*
X101711724Y39097000I-249997J0D01*
G01*
X96411718Y39097000D01*
G75*
G02*
X96161721Y39346997I0J249997D01*
G01*
X96161721Y45247003D01*
G75*
G02*
X96411718Y45497000I249997J0D01*
G01*
G37*
G36*
G01*
X96431721Y49697000D02*
X97131721Y49697000D01*
G75*
G02*
X97381721Y49447000I0J-250000D01*
G01*
X97381721Y47747000D01*
G75*
G02*
X97131721Y47497000I-250000J0D01*
G01*
X96431721Y47497000D01*
G75*
G02*
X96181721Y47747000I0J250000D01*
G01*
X96181721Y49447000D01*
G75*
G02*
X96431721Y49697000I250000J0D01*
G01*
G37*
G04 #@! TD*
D13*
G04 #@! TO.C,M1*
X51489750Y25997402D03*
X51489750Y32397399D03*
X51489750Y34297402D03*
X51489750Y38597402D03*
D14*
X51039751Y40997399D03*
X51039751Y41997400D03*
D13*
X51489750Y44847402D03*
X66989747Y25547400D03*
X66989747Y27397399D03*
X66989747Y32347402D03*
X66989747Y44397400D03*
G04 #@! TD*
G04 #@! TO.C,C5*
G36*
G01*
X14692001Y49577994D02*
X14692001Y48897994D01*
G75*
G02*
X14607001Y48812994I-85000J0D01*
G01*
X13927001Y48812994D01*
G75*
G02*
X13842001Y48897994I0J85000D01*
G01*
X13842001Y49577994D01*
G75*
G02*
X13927001Y49662994I85000J0D01*
G01*
X14607001Y49662994D01*
G75*
G02*
X14692001Y49577994I0J-85000D01*
G01*
G37*
G36*
G01*
X13111999Y49577994D02*
X13111999Y48897994D01*
G75*
G02*
X13026999Y48812994I-85000J0D01*
G01*
X12346999Y48812994D01*
G75*
G02*
X12261999Y48897994I0J85000D01*
G01*
X12261999Y49577994D01*
G75*
G02*
X12346999Y49662994I85000J0D01*
G01*
X13026999Y49662994D01*
G75*
G02*
X13111999Y49577994I0J-85000D01*
G01*
G37*
G04 #@! TD*
G04 #@! TO.C,Q906*
G36*
G01*
X122011721Y49697000D02*
X122711721Y49697000D01*
G75*
G02*
X122961721Y49447000I0J-250000D01*
G01*
X122961721Y47747000D01*
G75*
G02*
X122711721Y47497000I-250000J0D01*
G01*
X122011721Y47497000D01*
G75*
G02*
X121761721Y47747000I0J250000D01*
G01*
X121761721Y49447000D01*
G75*
G02*
X122011721Y49697000I250000J0D01*
G01*
G37*
G36*
G01*
X117431718Y45497000D02*
X122731724Y45497000D01*
G75*
G02*
X122981721Y45247003I0J-249997D01*
G01*
X122981721Y39346997D01*
G75*
G02*
X122731724Y39097000I-249997J0D01*
G01*
X117431718Y39097000D01*
G75*
G02*
X117181721Y39346997I0J249997D01*
G01*
X117181721Y45247003D01*
G75*
G02*
X117431718Y45497000I249997J0D01*
G01*
G37*
G36*
G01*
X117451721Y49697000D02*
X118151721Y49697000D01*
G75*
G02*
X118401721Y49447000I0J-250000D01*
G01*
X118401721Y47747000D01*
G75*
G02*
X118151721Y47497000I-250000J0D01*
G01*
X117451721Y47497000D01*
G75*
G02*
X117201721Y47747000I0J250000D01*
G01*
X117201721Y49447000D01*
G75*
G02*
X117451721Y49697000I250000J0D01*
G01*
G37*
G04 #@! TD*
G04 #@! TO.C,Q901*
G36*
G01*
X121890000Y80560000D02*
X122590000Y80560000D01*
G75*
G02*
X122840000Y80310000I0J-250000D01*
G01*
X122840000Y78610000D01*
G75*
G02*
X122590000Y78360000I-250000J0D01*
G01*
X121890000Y78360000D01*
G75*
G02*
X121640000Y78610000I0J250000D01*
G01*
X121640000Y80310000D01*
G75*
G02*
X121890000Y80560000I250000J0D01*
G01*
G37*
G36*
G01*
X117309997Y76360000D02*
X122610003Y76360000D01*
G75*
G02*
X122860000Y76110003I0J-249997D01*
G01*
X122860000Y70209997D01*
G75*
G02*
X122610003Y69960000I-249997J0D01*
G01*
X117309997Y69960000D01*
G75*
G02*
X117060000Y70209997I0J249997D01*
G01*
X117060000Y76110003D01*
G75*
G02*
X117309997Y76360000I249997J0D01*
G01*
G37*
G36*
G01*
X117330000Y80560000D02*
X118030000Y80560000D01*
G75*
G02*
X118280000Y80310000I0J-250000D01*
G01*
X118280000Y78610000D01*
G75*
G02*
X118030000Y78360000I-250000J0D01*
G01*
X117330000Y78360000D01*
G75*
G02*
X117080000Y78610000I0J250000D01*
G01*
X117080000Y80310000D01*
G75*
G02*
X117330000Y80560000I250000J0D01*
G01*
G37*
G04 #@! TD*
G04 #@! TO.C,Q913*
G36*
G01*
X100780000Y34650000D02*
X101480000Y34650000D01*
G75*
G02*
X101730000Y34400000I0J-250000D01*
G01*
X101730000Y32700000D01*
G75*
G02*
X101480000Y32450000I-250000J0D01*
G01*
X100780000Y32450000D01*
G75*
G02*
X100530000Y32700000I0J250000D01*
G01*
X100530000Y34400000D01*
G75*
G02*
X100780000Y34650000I250000J0D01*
G01*
G37*
G36*
G01*
X96199997Y30450000D02*
X101500003Y30450000D01*
G75*
G02*
X101750000Y30200003I0J-249997D01*
G01*
X101750000Y24299997D01*
G75*
G02*
X101500003Y24050000I-249997J0D01*
G01*
X96199997Y24050000D01*
G75*
G02*
X95950000Y24299997I0J249997D01*
G01*
X95950000Y30200003D01*
G75*
G02*
X96199997Y30450000I249997J0D01*
G01*
G37*
G36*
G01*
X96220000Y34650000D02*
X96920000Y34650000D01*
G75*
G02*
X97170000Y34400000I0J-250000D01*
G01*
X97170000Y32700000D01*
G75*
G02*
X96920000Y32450000I-250000J0D01*
G01*
X96220000Y32450000D01*
G75*
G02*
X95970000Y32700000I0J250000D01*
G01*
X95970000Y34400000D01*
G75*
G02*
X96220000Y34650000I250000J0D01*
G01*
G37*
G04 #@! TD*
D15*
G04 #@! TO.C,F10*
X71749000Y25099010D03*
G36*
G01*
X72649000Y26444000D02*
X72649000Y25754000D01*
G75*
G02*
X72419000Y25524000I-230000J0D01*
G01*
X71079000Y25524000D01*
G75*
G02*
X70849000Y25754000I0J230000D01*
G01*
X70849000Y26444000D01*
G75*
G02*
X71079000Y26674000I230000J0D01*
G01*
X72419000Y26674000D01*
G75*
G02*
X72649000Y26444000I0J-230000D01*
G01*
G37*
G36*
G01*
X72649000Y29344020D02*
X72649000Y28654020D01*
G75*
G02*
X72419000Y28424020I-230000J0D01*
G01*
X71079000Y28424020D01*
G75*
G02*
X70849000Y28654020I0J230000D01*
G01*
X70849000Y29344020D01*
G75*
G02*
X71079000Y29574020I230000J0D01*
G01*
X72419000Y29574020D01*
G75*
G02*
X72649000Y29344020I0J-230000D01*
G01*
G37*
X71749000Y29999010D03*
G04 #@! TD*
G04 #@! TO.C,D10*
G36*
G01*
X64035000Y55394452D02*
X63555000Y55394452D01*
G75*
G02*
X63495000Y55454452I0J60000D01*
G01*
X63495000Y55934452D01*
G75*
G02*
X63555000Y55994452I60000J0D01*
G01*
X64035000Y55994452D01*
G75*
G02*
X64095000Y55934452I0J-60000D01*
G01*
X64095000Y55454452D01*
G75*
G02*
X64035000Y55394452I-60000J0D01*
G01*
G37*
G36*
G01*
X61835000Y55394452D02*
X61355000Y55394452D01*
G75*
G02*
X61295000Y55454452I0J60000D01*
G01*
X61295000Y55934452D01*
G75*
G02*
X61355000Y55994452I60000J0D01*
G01*
X61835000Y55994452D01*
G75*
G02*
X61895000Y55934452I0J-60000D01*
G01*
X61895000Y55454452D01*
G75*
G02*
X61835000Y55394452I-60000J0D01*
G01*
G37*
G04 #@! TD*
G04 #@! TO.C,R17*
G36*
G01*
X89220000Y100385000D02*
X89220000Y101165000D01*
G75*
G02*
X89290000Y101235000I70000J0D01*
G01*
X89850000Y101235000D01*
G75*
G02*
X89920000Y101165000I0J-70000D01*
G01*
X89920000Y100385000D01*
G75*
G02*
X89850000Y100315000I-70000J0D01*
G01*
X89290000Y100315000D01*
G75*
G02*
X89220000Y100385000I0J70000D01*
G01*
G37*
G36*
G01*
X90820000Y100385000D02*
X90820000Y101165000D01*
G75*
G02*
X90890000Y101235000I70000J0D01*
G01*
X91450000Y101235000D01*
G75*
G02*
X91520000Y101165000I0J-70000D01*
G01*
X91520000Y100385000D01*
G75*
G02*
X91450000Y100315000I-70000J0D01*
G01*
X90890000Y100315000D01*
G75*
G02*
X90820000Y100385000I0J70000D01*
G01*
G37*
G04 #@! TD*
D16*
G04 #@! TO.C,U1*
X89432399Y11914599D03*
D17*
X85332399Y15764599D03*
X42732399Y15764599D03*
D16*
X38632399Y11914599D03*
D18*
X78882399Y7164599D03*
X78882399Y9664599D03*
X78882399Y12164599D03*
X78882399Y14664599D03*
X75182399Y7164599D03*
X75182399Y9664599D03*
X75182399Y12164599D03*
X75182399Y14664599D03*
X71682399Y7164599D03*
X71682399Y9664599D03*
X71682399Y12164599D03*
X71682399Y14664599D03*
X69182399Y7164599D03*
X69182399Y9664599D03*
X69182399Y12164599D03*
X69182399Y14664599D03*
X66682399Y7164599D03*
X66682399Y9664599D03*
X66682399Y12164599D03*
X66682399Y14664599D03*
X64182399Y7164599D03*
X64182399Y9664599D03*
X64182399Y12164599D03*
X64182399Y14664599D03*
X61682399Y7164599D03*
X61682399Y9664599D03*
X61682399Y12164599D03*
X61682399Y14664599D03*
X59182399Y7164599D03*
X59182399Y9664599D03*
X59182399Y12164599D03*
X59182399Y14664599D03*
X56682399Y7164599D03*
X56682399Y9664599D03*
X56682399Y12164599D03*
X56682399Y14664599D03*
X54182399Y7164599D03*
X54182399Y9664599D03*
X54182399Y12164599D03*
X54182399Y14664599D03*
X51682399Y7164599D03*
X51682399Y9664599D03*
X51682399Y12164599D03*
X51682399Y14664599D03*
X49182399Y7164599D03*
X49182399Y9664599D03*
X49182399Y12164599D03*
X49182399Y14664599D03*
G04 #@! TD*
D19*
G04 #@! TO.C,M4*
X91395602Y95053946D03*
X91395602Y94293967D03*
X91395602Y93118974D03*
X91395602Y91943987D03*
X91395602Y91104075D03*
X91395602Y90354003D03*
X91395602Y89178992D03*
X91395602Y88003995D03*
D14*
X81295995Y93043998D03*
X81721003Y94879008D03*
X82271000Y92829000D03*
X83145959Y93043995D03*
X83995982Y93119002D03*
X84320998Y94879008D03*
X85620965Y93569008D03*
X86270982Y94879008D03*
X79095979Y88953993D03*
X79395981Y93028999D03*
G04 #@! TD*
G04 #@! TO.C,D1*
G36*
G01*
X13845000Y43436500D02*
X13545000Y43436500D01*
G75*
G02*
X13395000Y43586500I0J150000D01*
G01*
X13395000Y44761500D01*
G75*
G02*
X13545000Y44911500I150000J0D01*
G01*
X13845000Y44911500D01*
G75*
G02*
X13995000Y44761500I0J-150000D01*
G01*
X13995000Y43586500D01*
G75*
G02*
X13845000Y43436500I-150000J0D01*
G01*
G37*
G36*
G01*
X15745000Y43436500D02*
X15445000Y43436500D01*
G75*
G02*
X15295000Y43586500I0J150000D01*
G01*
X15295000Y44761500D01*
G75*
G02*
X15445000Y44911500I150000J0D01*
G01*
X15745000Y44911500D01*
G75*
G02*
X15895000Y44761500I0J-150000D01*
G01*
X15895000Y43586500D01*
G75*
G02*
X15745000Y43436500I-150000J0D01*
G01*
G37*
G36*
G01*
X14795000Y45311500D02*
X14495000Y45311500D01*
G75*
G02*
X14345000Y45461500I0J150000D01*
G01*
X14345000Y46636500D01*
G75*
G02*
X14495000Y46786500I150000J0D01*
G01*
X14795000Y46786500D01*
G75*
G02*
X14945000Y46636500I0J-150000D01*
G01*
X14945000Y45461500D01*
G75*
G02*
X14795000Y45311500I-150000J0D01*
G01*
G37*
G04 #@! TD*
G04 #@! TO.C,R15*
G36*
G01*
X15308000Y73334072D02*
X15308000Y72554072D01*
G75*
G02*
X15238000Y72484072I-70000J0D01*
G01*
X14678000Y72484072D01*
G75*
G02*
X14608000Y72554072I0J70000D01*
G01*
X14608000Y73334072D01*
G75*
G02*
X14678000Y73404072I70000J0D01*
G01*
X15238000Y73404072D01*
G75*
G02*
X15308000Y73334072I0J-70000D01*
G01*
G37*
G36*
G01*
X13708000Y73334072D02*
X13708000Y72554072D01*
G75*
G02*
X13638000Y72484072I-70000J0D01*
G01*
X13078000Y72484072D01*
G75*
G02*
X13008000Y72554072I0J70000D01*
G01*
X13008000Y73334072D01*
G75*
G02*
X13078000Y73404072I70000J0D01*
G01*
X13638000Y73404072D01*
G75*
G02*
X13708000Y73334072I0J-70000D01*
G01*
G37*
G04 #@! TD*
G04 #@! TO.C,R11*
G36*
G01*
X89829072Y35198000D02*
X89049072Y35198000D01*
G75*
G02*
X88979072Y35268000I0J70000D01*
G01*
X88979072Y35828000D01*
G75*
G02*
X89049072Y35898000I70000J0D01*
G01*
X89829072Y35898000D01*
G75*
G02*
X89899072Y35828000I0J-70000D01*
G01*
X89899072Y35268000D01*
G75*
G02*
X89829072Y35198000I-70000J0D01*
G01*
G37*
G36*
G01*
X89829072Y36798000D02*
X89049072Y36798000D01*
G75*
G02*
X88979072Y36868000I0J70000D01*
G01*
X88979072Y37428000D01*
G75*
G02*
X89049072Y37498000I70000J0D01*
G01*
X89829072Y37498000D01*
G75*
G02*
X89899072Y37428000I0J-70000D01*
G01*
X89899072Y36868000D01*
G75*
G02*
X89829072Y36798000I-70000J0D01*
G01*
G37*
G04 #@! TD*
G04 #@! TO.C,D2*
G36*
G01*
X37295000Y26007000D02*
X38315000Y26007000D01*
G75*
G02*
X38405000Y25917000I0J-90000D01*
G01*
X38405000Y25197000D01*
G75*
G02*
X38315000Y25107000I-90000J0D01*
G01*
X37295000Y25107000D01*
G75*
G02*
X37205000Y25197000I0J90000D01*
G01*
X37205000Y25917000D01*
G75*
G02*
X37295000Y26007000I90000J0D01*
G01*
G37*
G36*
G01*
X37295000Y22707000D02*
X38315000Y22707000D01*
G75*
G02*
X38405000Y22617000I0J-90000D01*
G01*
X38405000Y21897000D01*
G75*
G02*
X38315000Y21807000I-90000J0D01*
G01*
X37295000Y21807000D01*
G75*
G02*
X37205000Y21897000I0J90000D01*
G01*
X37205000Y22617000D01*
G75*
G02*
X37295000Y22707000I90000J0D01*
G01*
G37*
G04 #@! TD*
D20*
G04 #@! TO.C,M7*
X82569948Y60188378D03*
X81809969Y60188378D03*
X80634976Y60188378D03*
X79459989Y60188378D03*
X78620077Y60188378D03*
X77870005Y60188378D03*
X76694994Y60188378D03*
X75519997Y60188378D03*
D21*
X80560000Y70287985D03*
X82395010Y69862977D03*
X80345002Y69312980D03*
X80559997Y68438021D03*
X80635004Y67587998D03*
X82395010Y67262982D03*
X81085010Y65963015D03*
X82395010Y65312998D03*
X76469995Y72488001D03*
X80545001Y72187999D03*
G04 #@! TD*
D22*
G04 #@! TO.C,M6*
X9544334Y83638495D03*
D23*
X9494336Y73288501D03*
X9494336Y73788502D03*
D21*
X8444338Y80338499D03*
X7919338Y79463497D03*
X7169340Y80638501D03*
X3619339Y80563498D03*
G04 #@! TD*
G04 #@! TO.C,Q12*
G36*
G01*
X22640000Y5023000D02*
X22640000Y4323000D01*
G75*
G02*
X22390000Y4073000I-250000J0D01*
G01*
X20690000Y4073000D01*
G75*
G02*
X20440000Y4323000I0J250000D01*
G01*
X20440000Y5023000D01*
G75*
G02*
X20690000Y5273000I250000J0D01*
G01*
X22390000Y5273000D01*
G75*
G02*
X22640000Y5023000I0J-250000D01*
G01*
G37*
G36*
G01*
X18440000Y9603003D02*
X18440000Y4302997D01*
G75*
G02*
X18190003Y4053000I-249997J0D01*
G01*
X12289997Y4053000D01*
G75*
G02*
X12040000Y4302997I0J249997D01*
G01*
X12040000Y9603003D01*
G75*
G02*
X12289997Y9853000I249997J0D01*
G01*
X18190003Y9853000D01*
G75*
G02*
X18440000Y9603003I0J-249997D01*
G01*
G37*
G36*
G01*
X22640000Y9583000D02*
X22640000Y8883000D01*
G75*
G02*
X22390000Y8633000I-250000J0D01*
G01*
X20690000Y8633000D01*
G75*
G02*
X20440000Y8883000I0J250000D01*
G01*
X20440000Y9583000D01*
G75*
G02*
X20690000Y9833000I250000J0D01*
G01*
X22390000Y9833000D01*
G75*
G02*
X22640000Y9583000I0J-250000D01*
G01*
G37*
G04 #@! TD*
G04 #@! TO.C,R19*
G36*
G01*
X89010072Y44099000D02*
X88230072Y44099000D01*
G75*
G02*
X88160072Y44169000I0J70000D01*
G01*
X88160072Y44729000D01*
G75*
G02*
X88230072Y44799000I70000J0D01*
G01*
X89010072Y44799000D01*
G75*
G02*
X89080072Y44729000I0J-70000D01*
G01*
X89080072Y44169000D01*
G75*
G02*
X89010072Y44099000I-70000J0D01*
G01*
G37*
G36*
G01*
X89010072Y45699000D02*
X88230072Y45699000D01*
G75*
G02*
X88160072Y45769000I0J70000D01*
G01*
X88160072Y46329000D01*
G75*
G02*
X88230072Y46399000I70000J0D01*
G01*
X89010072Y46399000D01*
G75*
G02*
X89080072Y46329000I0J-70000D01*
G01*
X89080072Y45769000D01*
G75*
G02*
X89010072Y45699000I-70000J0D01*
G01*
G37*
G04 #@! TD*
G04 #@! TO.C,D9*
G36*
G01*
X64173000Y53311452D02*
X63693000Y53311452D01*
G75*
G02*
X63633000Y53371452I0J60000D01*
G01*
X63633000Y53851452D01*
G75*
G02*
X63693000Y53911452I60000J0D01*
G01*
X64173000Y53911452D01*
G75*
G02*
X64233000Y53851452I0J-60000D01*
G01*
X64233000Y53371452D01*
G75*
G02*
X64173000Y53311452I-60000J0D01*
G01*
G37*
G36*
G01*
X61973000Y53311452D02*
X61493000Y53311452D01*
G75*
G02*
X61433000Y53371452I0J60000D01*
G01*
X61433000Y53851452D01*
G75*
G02*
X61493000Y53911452I60000J0D01*
G01*
X61973000Y53911452D01*
G75*
G02*
X62033000Y53851452I0J-60000D01*
G01*
X62033000Y53371452D01*
G75*
G02*
X61973000Y53311452I-60000J0D01*
G01*
G37*
G04 #@! TD*
G04 #@! TO.C,Q916*
G36*
G01*
X90140000Y80540000D02*
X90840000Y80540000D01*
G75*
G02*
X91090000Y80290000I0J-250000D01*
G01*
X91090000Y78590000D01*
G75*
G02*
X90840000Y78340000I-250000J0D01*
G01*
X90140000Y78340000D01*
G75*
G02*
X89890000Y78590000I0J250000D01*
G01*
X89890000Y80290000D01*
G75*
G02*
X90140000Y80540000I250000J0D01*
G01*
G37*
G36*
G01*
X85559997Y76340000D02*
X90860003Y76340000D01*
G75*
G02*
X91110000Y76090003I0J-249997D01*
G01*
X91110000Y70189997D01*
G75*
G02*
X90860003Y69940000I-249997J0D01*
G01*
X85559997Y69940000D01*
G75*
G02*
X85310000Y70189997I0J249997D01*
G01*
X85310000Y76090003D01*
G75*
G02*
X85559997Y76340000I249997J0D01*
G01*
G37*
G36*
G01*
X85580000Y80540000D02*
X86280000Y80540000D01*
G75*
G02*
X86530000Y80290000I0J-250000D01*
G01*
X86530000Y78590000D01*
G75*
G02*
X86280000Y78340000I-250000J0D01*
G01*
X85580000Y78340000D01*
G75*
G02*
X85330000Y78590000I0J250000D01*
G01*
X85330000Y80290000D01*
G75*
G02*
X85580000Y80540000I250000J0D01*
G01*
G37*
G04 #@! TD*
G04 #@! TO.C,Q11*
G36*
G01*
X89667000Y43352000D02*
X89667000Y42652000D01*
G75*
G02*
X89417000Y42402000I-250000J0D01*
G01*
X87717000Y42402000D01*
G75*
G02*
X87467000Y42652000I0J250000D01*
G01*
X87467000Y43352000D01*
G75*
G02*
X87717000Y43602000I250000J0D01*
G01*
X89417000Y43602000D01*
G75*
G02*
X89667000Y43352000I0J-250000D01*
G01*
G37*
G36*
G01*
X85467000Y47932003D02*
X85467000Y42631997D01*
G75*
G02*
X85217003Y42382000I-249997J0D01*
G01*
X79316997Y42382000D01*
G75*
G02*
X79067000Y42631997I0J249997D01*
G01*
X79067000Y47932003D01*
G75*
G02*
X79316997Y48182000I249997J0D01*
G01*
X85217003Y48182000D01*
G75*
G02*
X85467000Y47932003I0J-249997D01*
G01*
G37*
G36*
G01*
X89667000Y47912000D02*
X89667000Y47212000D01*
G75*
G02*
X89417000Y46962000I-250000J0D01*
G01*
X87717000Y46962000D01*
G75*
G02*
X87467000Y47212000I0J250000D01*
G01*
X87467000Y47912000D01*
G75*
G02*
X87717000Y48162000I250000J0D01*
G01*
X89417000Y48162000D01*
G75*
G02*
X89667000Y47912000I0J-250000D01*
G01*
G37*
G04 #@! TD*
G04 #@! TO.C,Q912*
G36*
G01*
X111230000Y80660000D02*
X111930000Y80660000D01*
G75*
G02*
X112180000Y80410000I0J-250000D01*
G01*
X112180000Y78710000D01*
G75*
G02*
X111930000Y78460000I-250000J0D01*
G01*
X111230000Y78460000D01*
G75*
G02*
X110980000Y78710000I0J250000D01*
G01*
X110980000Y80410000D01*
G75*
G02*
X111230000Y80660000I250000J0D01*
G01*
G37*
G36*
G01*
X106649997Y76460000D02*
X111950003Y76460000D01*
G75*
G02*
X112200000Y76210003I0J-249997D01*
G01*
X112200000Y70309997D01*
G75*
G02*
X111950003Y70060000I-249997J0D01*
G01*
X106649997Y70060000D01*
G75*
G02*
X106400000Y70309997I0J249997D01*
G01*
X106400000Y76210003D01*
G75*
G02*
X106649997Y76460000I249997J0D01*
G01*
G37*
G36*
G01*
X106670000Y80660000D02*
X107370000Y80660000D01*
G75*
G02*
X107620000Y80410000I0J-250000D01*
G01*
X107620000Y78710000D01*
G75*
G02*
X107370000Y78460000I-250000J0D01*
G01*
X106670000Y78460000D01*
G75*
G02*
X106420000Y78710000I0J250000D01*
G01*
X106420000Y80410000D01*
G75*
G02*
X106670000Y80660000I250000J0D01*
G01*
G37*
G04 #@! TD*
G04 #@! TO.C,R12*
G36*
G01*
X89886072Y27017000D02*
X89106072Y27017000D01*
G75*
G02*
X89036072Y27087000I0J70000D01*
G01*
X89036072Y27647000D01*
G75*
G02*
X89106072Y27717000I70000J0D01*
G01*
X89886072Y27717000D01*
G75*
G02*
X89956072Y27647000I0J-70000D01*
G01*
X89956072Y27087000D01*
G75*
G02*
X89886072Y27017000I-70000J0D01*
G01*
G37*
G36*
G01*
X89886072Y28617000D02*
X89106072Y28617000D01*
G75*
G02*
X89036072Y28687000I0J70000D01*
G01*
X89036072Y29247000D01*
G75*
G02*
X89106072Y29317000I70000J0D01*
G01*
X89886072Y29317000D01*
G75*
G02*
X89956072Y29247000I0J-70000D01*
G01*
X89956072Y28687000D01*
G75*
G02*
X89886072Y28617000I-70000J0D01*
G01*
G37*
G04 #@! TD*
G04 #@! TO.C,C3*
G36*
G01*
X11915000Y40188999D02*
X11235000Y40188999D01*
G75*
G02*
X11150000Y40273999I0J85000D01*
G01*
X11150000Y40953999D01*
G75*
G02*
X11235000Y41038999I85000J0D01*
G01*
X11915000Y41038999D01*
G75*
G02*
X12000000Y40953999I0J-85000D01*
G01*
X12000000Y40273999D01*
G75*
G02*
X11915000Y40188999I-85000J0D01*
G01*
G37*
G36*
G01*
X11915000Y41769001D02*
X11235000Y41769001D01*
G75*
G02*
X11150000Y41854001I0J85000D01*
G01*
X11150000Y42534001D01*
G75*
G02*
X11235000Y42619001I85000J0D01*
G01*
X11915000Y42619001D01*
G75*
G02*
X12000000Y42534001I0J-85000D01*
G01*
X12000000Y41854001D01*
G75*
G02*
X11915000Y41769001I-85000J0D01*
G01*
G37*
G04 #@! TD*
G04 #@! TO.C,Q903*
G36*
G01*
X111140000Y34750000D02*
X111840000Y34750000D01*
G75*
G02*
X112090000Y34500000I0J-250000D01*
G01*
X112090000Y32800000D01*
G75*
G02*
X111840000Y32550000I-250000J0D01*
G01*
X111140000Y32550000D01*
G75*
G02*
X110890000Y32800000I0J250000D01*
G01*
X110890000Y34500000D01*
G75*
G02*
X111140000Y34750000I250000J0D01*
G01*
G37*
G36*
G01*
X106559997Y30550000D02*
X111860003Y30550000D01*
G75*
G02*
X112110000Y30300003I0J-249997D01*
G01*
X112110000Y24399997D01*
G75*
G02*
X111860003Y24150000I-249997J0D01*
G01*
X106559997Y24150000D01*
G75*
G02*
X106310000Y24399997I0J249997D01*
G01*
X106310000Y30300003D01*
G75*
G02*
X106559997Y30550000I249997J0D01*
G01*
G37*
G36*
G01*
X106580000Y34750000D02*
X107280000Y34750000D01*
G75*
G02*
X107530000Y34500000I0J-250000D01*
G01*
X107530000Y32800000D01*
G75*
G02*
X107280000Y32550000I-250000J0D01*
G01*
X106580000Y32550000D01*
G75*
G02*
X106330000Y32800000I0J250000D01*
G01*
X106330000Y34500000D01*
G75*
G02*
X106580000Y34750000I250000J0D01*
G01*
G37*
G04 #@! TD*
G04 #@! TO.C,Q911*
G36*
G01*
X111351721Y49797000D02*
X112051721Y49797000D01*
G75*
G02*
X112301721Y49547000I0J-250000D01*
G01*
X112301721Y47847000D01*
G75*
G02*
X112051721Y47597000I-250000J0D01*
G01*
X111351721Y47597000D01*
G75*
G02*
X111101721Y47847000I0J250000D01*
G01*
X111101721Y49547000D01*
G75*
G02*
X111351721Y49797000I250000J0D01*
G01*
G37*
G36*
G01*
X106771718Y45597000D02*
X112071724Y45597000D01*
G75*
G02*
X112321721Y45347003I0J-249997D01*
G01*
X112321721Y39446997D01*
G75*
G02*
X112071724Y39197000I-249997J0D01*
G01*
X106771718Y39197000D01*
G75*
G02*
X106521721Y39446997I0J249997D01*
G01*
X106521721Y45347003D01*
G75*
G02*
X106771718Y45597000I249997J0D01*
G01*
G37*
G36*
G01*
X106791721Y49797000D02*
X107491721Y49797000D01*
G75*
G02*
X107741721Y49547000I0J-250000D01*
G01*
X107741721Y47847000D01*
G75*
G02*
X107491721Y47597000I-250000J0D01*
G01*
X106791721Y47597000D01*
G75*
G02*
X106541721Y47847000I0J250000D01*
G01*
X106541721Y49547000D01*
G75*
G02*
X106791721Y49797000I250000J0D01*
G01*
G37*
G04 #@! TD*
G04 #@! TO.C,Q902*
G36*
G01*
X121800000Y34650000D02*
X122500000Y34650000D01*
G75*
G02*
X122750000Y34400000I0J-250000D01*
G01*
X122750000Y32700000D01*
G75*
G02*
X122500000Y32450000I-250000J0D01*
G01*
X121800000Y32450000D01*
G75*
G02*
X121550000Y32700000I0J250000D01*
G01*
X121550000Y34400000D01*
G75*
G02*
X121800000Y34650000I250000J0D01*
G01*
G37*
G36*
G01*
X117219997Y30450000D02*
X122520003Y30450000D01*
G75*
G02*
X122770000Y30200003I0J-249997D01*
G01*
X122770000Y24299997D01*
G75*
G02*
X122520003Y24050000I-249997J0D01*
G01*
X117219997Y24050000D01*
G75*
G02*
X116970000Y24299997I0J249997D01*
G01*
X116970000Y30200003D01*
G75*
G02*
X117219997Y30450000I249997J0D01*
G01*
G37*
G36*
G01*
X117240000Y34650000D02*
X117940000Y34650000D01*
G75*
G02*
X118190000Y34400000I0J-250000D01*
G01*
X118190000Y32700000D01*
G75*
G02*
X117940000Y32450000I-250000J0D01*
G01*
X117240000Y32450000D01*
G75*
G02*
X116990000Y32700000I0J250000D01*
G01*
X116990000Y34400000D01*
G75*
G02*
X117240000Y34650000I250000J0D01*
G01*
G37*
G04 #@! TD*
G04 #@! TO.C,Q9*
G36*
G01*
X90334000Y26231000D02*
X90334000Y25531000D01*
G75*
G02*
X90084000Y25281000I-250000J0D01*
G01*
X88384000Y25281000D01*
G75*
G02*
X88134000Y25531000I0J250000D01*
G01*
X88134000Y26231000D01*
G75*
G02*
X88384000Y26481000I250000J0D01*
G01*
X90084000Y26481000D01*
G75*
G02*
X90334000Y26231000I0J-250000D01*
G01*
G37*
G36*
G01*
X86134000Y30811003D02*
X86134000Y25510997D01*
G75*
G02*
X85884003Y25261000I-249997J0D01*
G01*
X79983997Y25261000D01*
G75*
G02*
X79734000Y25510997I0J249997D01*
G01*
X79734000Y30811003D01*
G75*
G02*
X79983997Y31061000I249997J0D01*
G01*
X85884003Y31061000D01*
G75*
G02*
X86134000Y30811003I0J-249997D01*
G01*
G37*
G36*
G01*
X90334000Y30791000D02*
X90334000Y30091000D01*
G75*
G02*
X90084000Y29841000I-250000J0D01*
G01*
X88384000Y29841000D01*
G75*
G02*
X88134000Y30091000I0J250000D01*
G01*
X88134000Y30791000D01*
G75*
G02*
X88384000Y31041000I250000J0D01*
G01*
X90084000Y31041000D01*
G75*
G02*
X90334000Y30791000I0J-250000D01*
G01*
G37*
G04 #@! TD*
G04 #@! TO.C,Q914*
G36*
G01*
X100870000Y80560000D02*
X101570000Y80560000D01*
G75*
G02*
X101820000Y80310000I0J-250000D01*
G01*
X101820000Y78610000D01*
G75*
G02*
X101570000Y78360000I-250000J0D01*
G01*
X100870000Y78360000D01*
G75*
G02*
X100620000Y78610000I0J250000D01*
G01*
X100620000Y80310000D01*
G75*
G02*
X100870000Y80560000I250000J0D01*
G01*
G37*
G36*
G01*
X96289997Y76360000D02*
X101590003Y76360000D01*
G75*
G02*
X101840000Y76110003I0J-249997D01*
G01*
X101840000Y70209997D01*
G75*
G02*
X101590003Y69960000I-249997J0D01*
G01*
X96289997Y69960000D01*
G75*
G02*
X96040000Y70209997I0J249997D01*
G01*
X96040000Y76110003D01*
G75*
G02*
X96289997Y76360000I249997J0D01*
G01*
G37*
G36*
G01*
X96310000Y80560000D02*
X97010000Y80560000D01*
G75*
G02*
X97260000Y80310000I0J-250000D01*
G01*
X97260000Y78610000D01*
G75*
G02*
X97010000Y78360000I-250000J0D01*
G01*
X96310000Y78360000D01*
G75*
G02*
X96060000Y78610000I0J250000D01*
G01*
X96060000Y80310000D01*
G75*
G02*
X96310000Y80560000I250000J0D01*
G01*
G37*
G04 #@! TD*
G04 #@! TO.C,R9*
G36*
G01*
X22595000Y5806000D02*
X21815000Y5806000D01*
G75*
G02*
X21745000Y5876000I0J70000D01*
G01*
X21745000Y6436000D01*
G75*
G02*
X21815000Y6506000I70000J0D01*
G01*
X22595000Y6506000D01*
G75*
G02*
X22665000Y6436000I0J-70000D01*
G01*
X22665000Y5876000D01*
G75*
G02*
X22595000Y5806000I-70000J0D01*
G01*
G37*
G36*
G01*
X22595000Y7406000D02*
X21815000Y7406000D01*
G75*
G02*
X21745000Y7476000I0J70000D01*
G01*
X21745000Y8036000D01*
G75*
G02*
X21815000Y8106000I70000J0D01*
G01*
X22595000Y8106000D01*
G75*
G02*
X22665000Y8036000I0J-70000D01*
G01*
X22665000Y7476000D01*
G75*
G02*
X22595000Y7406000I-70000J0D01*
G01*
G37*
G04 #@! TD*
G04 #@! TO.C,D11*
G36*
G01*
X62509926Y50691453D02*
X62509926Y51931453D01*
G75*
G02*
X62639926Y52061453I130000J0D01*
G01*
X63679926Y52061453D01*
G75*
G02*
X63809926Y51931453I0J-130000D01*
G01*
X63809926Y50691453D01*
G75*
G02*
X63679926Y50561453I-130000J0D01*
G01*
X62639926Y50561453D01*
G75*
G02*
X62509926Y50691453I0J130000D01*
G01*
G37*
G36*
G01*
X60609905Y50691453D02*
X60609905Y51931453D01*
G75*
G02*
X60739905Y52061453I130000J0D01*
G01*
X61779905Y52061453D01*
G75*
G02*
X61909905Y51931453I0J-130000D01*
G01*
X61909905Y50691453D01*
G75*
G02*
X61779905Y50561453I-130000J0D01*
G01*
X60739905Y50561453D01*
G75*
G02*
X60609905Y50691453I0J130000D01*
G01*
G37*
G04 #@! TD*
D14*
G04 #@! TO.C,M8*
X24329216Y38070242D03*
X25529216Y38070242D03*
X23129216Y38070242D03*
X21929216Y38070242D03*
X28389216Y23645242D03*
X29389216Y23645242D03*
G04 #@! TD*
G04 #@! TO.C,L1*
G36*
G01*
X9416250Y40258000D02*
X8903750Y40258000D01*
G75*
G02*
X8685000Y40476750I0J218750D01*
G01*
X8685000Y40914250D01*
G75*
G02*
X8903750Y41133000I218750J0D01*
G01*
X9416250Y41133000D01*
G75*
G02*
X9635000Y40914250I0J-218750D01*
G01*
X9635000Y40476750D01*
G75*
G02*
X9416250Y40258000I-218750J0D01*
G01*
G37*
G36*
G01*
X9416250Y41833000D02*
X8903750Y41833000D01*
G75*
G02*
X8685000Y42051750I0J218750D01*
G01*
X8685000Y42489250D01*
G75*
G02*
X8903750Y42708000I218750J0D01*
G01*
X9416250Y42708000D01*
G75*
G02*
X9635000Y42489250I0J-218750D01*
G01*
X9635000Y42051750D01*
G75*
G02*
X9416250Y41833000I-218750J0D01*
G01*
G37*
G04 #@! TD*
G04 #@! TO.C,C2*
G36*
G01*
X13409999Y41410007D02*
X13409999Y42090007D01*
G75*
G02*
X13494999Y42175007I85000J0D01*
G01*
X14174999Y42175007D01*
G75*
G02*
X14259999Y42090007I0J-85000D01*
G01*
X14259999Y41410007D01*
G75*
G02*
X14174999Y41325007I-85000J0D01*
G01*
X13494999Y41325007D01*
G75*
G02*
X13409999Y41410007I0J85000D01*
G01*
G37*
G36*
G01*
X14990001Y41410007D02*
X14990001Y42090007D01*
G75*
G02*
X15075001Y42175007I85000J0D01*
G01*
X15755001Y42175007D01*
G75*
G02*
X15840001Y42090007I0J-85000D01*
G01*
X15840001Y41410007D01*
G75*
G02*
X15755001Y41325007I-85000J0D01*
G01*
X15075001Y41325007D01*
G75*
G02*
X14990001Y41410007I0J85000D01*
G01*
G37*
G04 #@! TD*
G04 #@! TO.C,L2*
G36*
G01*
X6437250Y40560000D02*
X5924750Y40560000D01*
G75*
G02*
X5706000Y40778750I0J218750D01*
G01*
X5706000Y41216250D01*
G75*
G02*
X5924750Y41435000I218750J0D01*
G01*
X6437250Y41435000D01*
G75*
G02*
X6656000Y41216250I0J-218750D01*
G01*
X6656000Y40778750D01*
G75*
G02*
X6437250Y40560000I-218750J0D01*
G01*
G37*
G36*
G01*
X6437250Y42135000D02*
X5924750Y42135000D01*
G75*
G02*
X5706000Y42353750I0J218750D01*
G01*
X5706000Y42791250D01*
G75*
G02*
X5924750Y43010000I218750J0D01*
G01*
X6437250Y43010000D01*
G75*
G02*
X6656000Y42791250I0J-218750D01*
G01*
X6656000Y42353750D01*
G75*
G02*
X6437250Y42135000I-218750J0D01*
G01*
G37*
G04 #@! TD*
G04 #@! TO.C,D4*
G36*
G01*
X73742000Y28131000D02*
X73742000Y29151000D01*
G75*
G02*
X73832000Y29241000I90000J0D01*
G01*
X74552000Y29241000D01*
G75*
G02*
X74642000Y29151000I0J-90000D01*
G01*
X74642000Y28131000D01*
G75*
G02*
X74552000Y28041000I-90000J0D01*
G01*
X73832000Y28041000D01*
G75*
G02*
X73742000Y28131000I0J90000D01*
G01*
G37*
G36*
G01*
X77042000Y28131000D02*
X77042000Y29151000D01*
G75*
G02*
X77132000Y29241000I90000J0D01*
G01*
X77852000Y29241000D01*
G75*
G02*
X77942000Y29151000I0J-90000D01*
G01*
X77942000Y28131000D01*
G75*
G02*
X77852000Y28041000I-90000J0D01*
G01*
X77132000Y28041000D01*
G75*
G02*
X77042000Y28131000I0J90000D01*
G01*
G37*
G04 #@! TD*
G04 #@! TO.C,M3*
X33340000Y32561000D03*
X34290000Y32561000D03*
X35239998Y32561000D03*
X34240000Y23861000D03*
X33340000Y23861000D03*
G04 #@! TD*
G04 #@! TO.C,C4*
G36*
G01*
X14759001Y51663000D02*
X14759001Y50983000D01*
G75*
G02*
X14674001Y50898000I-85000J0D01*
G01*
X13994001Y50898000D01*
G75*
G02*
X13909001Y50983000I0J85000D01*
G01*
X13909001Y51663000D01*
G75*
G02*
X13994001Y51748000I85000J0D01*
G01*
X14674001Y51748000D01*
G75*
G02*
X14759001Y51663000I0J-85000D01*
G01*
G37*
G36*
G01*
X13178999Y51663000D02*
X13178999Y50983000D01*
G75*
G02*
X13093999Y50898000I-85000J0D01*
G01*
X12413999Y50898000D01*
G75*
G02*
X12328999Y50983000I0J85000D01*
G01*
X12328999Y51663000D01*
G75*
G02*
X12413999Y51748000I85000J0D01*
G01*
X13093999Y51748000D01*
G75*
G02*
X13178999Y51663000I0J-85000D01*
G01*
G37*
G04 #@! TD*
G04 #@! TO.C,D13*
G36*
G01*
X19905021Y70696000D02*
X19905021Y71936000D01*
G75*
G02*
X20035021Y72066000I130000J0D01*
G01*
X21075021Y72066000D01*
G75*
G02*
X21205021Y71936000I0J-130000D01*
G01*
X21205021Y70696000D01*
G75*
G02*
X21075021Y70566000I-130000J0D01*
G01*
X20035021Y70566000D01*
G75*
G02*
X19905021Y70696000I0J130000D01*
G01*
G37*
G36*
G01*
X18005000Y70696000D02*
X18005000Y71936000D01*
G75*
G02*
X18135000Y72066000I130000J0D01*
G01*
X19175000Y72066000D01*
G75*
G02*
X19305000Y71936000I0J-130000D01*
G01*
X19305000Y70696000D01*
G75*
G02*
X19175000Y70566000I-130000J0D01*
G01*
X18135000Y70566000D01*
G75*
G02*
X18005000Y70696000I0J130000D01*
G01*
G37*
G04 #@! TD*
M02*
