G04 #@! TF.GenerationSoftware,KiCad,Pcbnew,8.0.9-8.0.9-0~ubuntu24.04.1*
G04 #@! TF.CreationDate,2026-07-05T21:41:08+00:00*
G04 #@! TF.ProjectId,luis48,6c756973-3438-42e6-9b69-6361645f7063,rev?*
G04 #@! TF.SameCoordinates,Original*
G04 #@! TF.FileFunction,Soldermask,Bot*
G04 #@! TF.FilePolarity,Negative*
%FSLAX46Y46*%
G04 Gerber Fmt 4.6, Leading zero omitted, Abs format (unit mm)*
G04 Created by KiCad (PCBNEW 8.0.9-8.0.9-0~ubuntu24.04.1) date 2026-07-05 21:41:08*
%MOMM*%
%LPD*%
G01*
G04 APERTURE LIST*
%ADD10C,4.150013*%
%ADD11C,2.350013*%
%ADD12C,1.800000*%
%ADD13C,0.599999*%
G04 APERTURE END LIST*
D10*
G04 #@! TO.C,U2*
X44199898Y18500000D03*
D11*
X48299974Y22349885D03*
X90899924Y22349885D03*
D10*
X95000000Y18500000D03*
D12*
X84450089Y21349885D03*
X80750063Y21349885D03*
X77249936Y21349885D03*
X74750063Y21349885D03*
X72249936Y21349885D03*
X69750063Y21349885D03*
X67249936Y21349885D03*
X64749809Y21349885D03*
X62249936Y21349885D03*
X59749809Y21349885D03*
X57249936Y21349885D03*
X54749809Y21349885D03*
X84450089Y18849885D03*
X80750063Y18849936D03*
X77249936Y18849936D03*
X74750063Y18849936D03*
X72249936Y18849936D03*
X69750063Y18849936D03*
X67249936Y18849936D03*
X64749809Y18849936D03*
X62249936Y18849936D03*
X59749809Y18849936D03*
X57249936Y18849936D03*
X54749809Y18849936D03*
X84450089Y16349885D03*
X80750063Y16349936D03*
X77249936Y16349936D03*
X74750063Y16349936D03*
X72249936Y16349936D03*
X69750063Y16349936D03*
X67249936Y16349936D03*
X64749809Y16349936D03*
X62249936Y16349936D03*
X59749809Y16349936D03*
X57249936Y16349936D03*
X54749809Y16349936D03*
X84450089Y13849885D03*
X80750063Y13849936D03*
X77249936Y13849936D03*
X74750063Y13849936D03*
X72249936Y13849936D03*
X69750063Y13849936D03*
X67249936Y13849936D03*
X64749809Y13849936D03*
X62249936Y13849936D03*
X59749809Y13849936D03*
X57249936Y13849936D03*
X54749809Y13849936D03*
G04 #@! TD*
D13*
G04 #@! TO.C,M1*
X28990052Y48099607D03*
X30825062Y47674599D03*
X28775054Y47124602D03*
X28990049Y46249643D03*
X29065056Y45399620D03*
X30825062Y45074604D03*
X29515062Y43774637D03*
X30825062Y43124620D03*
X24900047Y50299623D03*
X28975053Y49999621D03*
G04 #@! TD*
M02*
