G04 #@! TF.GenerationSoftware,KiCad,Pcbnew,8.0.9-8.0.9-0~ubuntu24.04.1*
G04 #@! TF.CreationDate,2026-07-05T23:25:51+00:00*
G04 #@! TF.ProjectId,luis48,6c756973-3438-42e6-9b69-6361645f7063,rev?*
G04 #@! TF.SameCoordinates,Original*
G04 #@! TF.FileFunction,Copper,L1,Top*
G04 #@! TF.FilePolarity,Positive*
%FSLAX46Y46*%
G04 Gerber Fmt 4.6, Leading zero omitted, Abs format (unit mm)*
G04 Created by KiCad (PCBNEW 8.0.9-8.0.9-0~ubuntu24.04.1) date 2026-07-05 23:25:51*
%MOMM*%
%LPD*%
G01*
G04 APERTURE LIST*
G04 #@! TA.AperFunction,SMDPad,CuDef*
%ADD10R,3.000000X1.600000*%
G04 #@! TD*
G04 #@! TA.AperFunction,SMDPad,CuDef*
%ADD11R,6.200000X5.800000*%
G04 #@! TD*
G04 #@! TA.AperFunction,ComponentPad*
%ADD12C,1.800000*%
G04 #@! TD*
G04 #@! TA.AperFunction,SMDPad,CuDef*
%ADD13O,0.250000X10.200000*%
G04 #@! TD*
G04 #@! TA.AperFunction,SMDPad,CuDef*
%ADD14O,5.800001X0.250000*%
G04 #@! TD*
G04 #@! TA.AperFunction,SMDPad,CuDef*
%ADD15O,0.200000X0.399999*%
G04 #@! TD*
G04 #@! TA.AperFunction,ComponentPad*
%ADD16C,0.599999*%
G04 #@! TD*
G04 APERTURE END LIST*
D10*
G04 #@! TO.P,U1,1,G*
G04 #@! TO.N,unconnected-(U1-G-Pad1)*
X34049608Y50103792D03*
G04 #@! TO.P,U1,3,E*
G04 #@! TO.N,unconnected-(U1-E-Pad3)*
X34049608Y45523654D03*
D11*
G04 #@! TO.P,U1,4,C*
G04 #@! TO.N,unconnected-(U1-C-Pad4)*
X41229440Y47839123D03*
G04 #@! TD*
D12*
G04 #@! TO.P,U2,1,1*
G04 #@! TO.N,unconnected-(U2-Pad1)*
X90350064Y13980987D03*
G04 #@! TO.P,U2,2,2*
G04 #@! TO.N,unconnected-(U2-Pad2)*
X86650038Y13980987D03*
G04 #@! TO.P,U2,3,3*
G04 #@! TO.N,unconnected-(U2-Pad3)*
X83149911Y13980987D03*
G04 #@! TO.P,U2,4,4*
G04 #@! TO.N,unconnected-(U2-Pad4)*
X80650038Y13980987D03*
G04 #@! TO.P,U2,5,5*
G04 #@! TO.N,unconnected-(U2-Pad5)*
X78149911Y13980987D03*
G04 #@! TO.P,U2,6,6*
G04 #@! TO.N,unconnected-(U2-Pad6)*
X75650038Y13980987D03*
G04 #@! TO.P,U2,7,7*
G04 #@! TO.N,unconnected-(U2-Pad7)*
X73149911Y13980987D03*
G04 #@! TO.P,U2,8,8*
G04 #@! TO.N,unconnected-(U2-Pad8)*
X70649784Y13980987D03*
G04 #@! TO.P,U2,9,9*
G04 #@! TO.N,unconnected-(U2-Pad9)*
X68149911Y13980987D03*
G04 #@! TO.P,U2,10,10*
G04 #@! TO.N,unconnected-(U2-Pad10)*
X65649784Y13980987D03*
G04 #@! TO.P,U2,11,11*
G04 #@! TO.N,unconnected-(U2-Pad11)*
X63149911Y13980987D03*
G04 #@! TO.P,U2,12,12*
G04 #@! TO.N,unconnected-(U2-Pad12)*
X60649784Y13980987D03*
G04 #@! TO.P,U2,13,13*
G04 #@! TO.N,unconnected-(U2-Pad13)*
X90350064Y11480987D03*
G04 #@! TO.P,U2,14,14*
G04 #@! TO.N,unconnected-(U2-Pad14)*
X86650038Y11481038D03*
G04 #@! TO.P,U2,15,15*
G04 #@! TO.N,unconnected-(U2-Pad15)*
X83149911Y11481038D03*
G04 #@! TO.P,U2,16,16*
G04 #@! TO.N,unconnected-(U2-Pad16)*
X80650038Y11481038D03*
G04 #@! TO.P,U2,17,17*
G04 #@! TO.N,unconnected-(U2-Pad17)*
X78149911Y11481038D03*
G04 #@! TO.P,U2,18,18*
G04 #@! TO.N,unconnected-(U2-Pad18)*
X75650038Y11481038D03*
G04 #@! TO.P,U2,19,19*
G04 #@! TO.N,unconnected-(U2-Pad19)*
X73149911Y11481038D03*
G04 #@! TO.P,U2,20,20*
G04 #@! TO.N,unconnected-(U2-Pad20)*
X70649784Y11481038D03*
G04 #@! TO.P,U2,21,21*
G04 #@! TO.N,unconnected-(U2-Pad21)*
X68149911Y11481038D03*
G04 #@! TO.P,U2,22,22*
G04 #@! TO.N,unconnected-(U2-Pad22)*
X65649784Y11481038D03*
G04 #@! TO.P,U2,23,23*
G04 #@! TO.N,unconnected-(U2-Pad23)*
X63149911Y11481038D03*
G04 #@! TO.P,U2,24,24*
G04 #@! TO.N,unconnected-(U2-Pad24)*
X60649784Y11481038D03*
G04 #@! TO.P,U2,25,25*
G04 #@! TO.N,unconnected-(U2-Pad25)*
X90350064Y8980987D03*
G04 #@! TO.P,U2,26,26*
G04 #@! TO.N,unconnected-(U2-Pad26)*
X86650038Y8981038D03*
G04 #@! TO.P,U2,27,27*
G04 #@! TO.N,unconnected-(U2-Pad27)*
X83149911Y8981038D03*
G04 #@! TO.P,U2,28,28*
G04 #@! TO.N,unconnected-(U2-Pad28)*
X80650038Y8981038D03*
G04 #@! TO.P,U2,29,29*
G04 #@! TO.N,unconnected-(U2-Pad29)*
X78149911Y8981038D03*
G04 #@! TO.P,U2,30,30*
G04 #@! TO.N,unconnected-(U2-Pad30)*
X75650038Y8981038D03*
G04 #@! TO.P,U2,31,31*
G04 #@! TO.N,unconnected-(U2-Pad31)*
X73149911Y8981038D03*
G04 #@! TO.P,U2,32,32*
G04 #@! TO.N,unconnected-(U2-Pad32)*
X70649784Y8981038D03*
G04 #@! TO.P,U2,33,33*
G04 #@! TO.N,unconnected-(U2-Pad33)*
X68149911Y8981038D03*
G04 #@! TO.P,U2,34,34*
G04 #@! TO.N,unconnected-(U2-Pad34)*
X65649784Y8981038D03*
G04 #@! TO.P,U2,35,35*
G04 #@! TO.N,unconnected-(U2-Pad35)*
X63149911Y8981038D03*
G04 #@! TO.P,U2,36,36*
G04 #@! TO.N,unconnected-(U2-Pad36)*
X60649784Y8981038D03*
G04 #@! TO.P,U2,37,37*
G04 #@! TO.N,unconnected-(U2-Pad37)*
X90350064Y6480987D03*
G04 #@! TO.P,U2,38,38*
G04 #@! TO.N,unconnected-(U2-Pad38)*
X86650038Y6481038D03*
G04 #@! TO.P,U2,39,39*
G04 #@! TO.N,unconnected-(U2-Pad39)*
X83149911Y6481038D03*
G04 #@! TO.P,U2,40,40*
G04 #@! TO.N,unconnected-(U2-Pad40)*
X80650038Y6481038D03*
G04 #@! TO.P,U2,41,41*
G04 #@! TO.N,unconnected-(U2-Pad41)*
X78149911Y6481038D03*
G04 #@! TO.P,U2,42,42*
G04 #@! TO.N,unconnected-(U2-Pad42)*
X75650038Y6481038D03*
G04 #@! TO.P,U2,43,43*
G04 #@! TO.N,unconnected-(U2-Pad43)*
X73149911Y6481038D03*
G04 #@! TO.P,U2,44,44*
G04 #@! TO.N,unconnected-(U2-Pad44)*
X70649784Y6481038D03*
G04 #@! TO.P,U2,45,45*
G04 #@! TO.N,unconnected-(U2-Pad45)*
X68149911Y6481038D03*
G04 #@! TO.P,U2,46,46*
G04 #@! TO.N,unconnected-(U2-Pad46)*
X65649784Y6481038D03*
G04 #@! TO.P,U2,47,47*
G04 #@! TO.N,unconnected-(U2-Pad47)*
X63149911Y6481038D03*
G04 #@! TO.P,U2,48,48*
G04 #@! TO.N,unconnected-(U2-Pad48)*
X60649784Y6481038D03*
G04 #@! TD*
D13*
G04 #@! TO.P,M1,G,GND*
G04 #@! TO.N,unconnected-(M1-GND-PadG)*
X23375052Y46124622D03*
G04 #@! TA.AperFunction,SMDPad,CuDef*
G36*
G01*
X23295247Y50994808D02*
X23295247Y50994808D01*
G75*
G02*
X23295247Y51171584I88388J88388D01*
G01*
X23578089Y51454426D01*
G75*
G02*
X23754865Y51454426I88388J-88388D01*
G01*
X23754865Y51454426D01*
G75*
G02*
X23754865Y51277650I-88388J-88388D01*
G01*
X23472023Y50994808D01*
G75*
G02*
X23295247Y50994808I-88388J88388D01*
G01*
G37*
G04 #@! TD.AperFunction*
D14*
X26487552Y51374617D03*
D15*
G04 #@! TO.P,M1,S1,OUT_IGN8*
G04 #@! TO.N,unconnected-(M1-OUT_IGN8-PadS1)*
X31000000Y38000000D03*
G04 #@! TO.P,M1,S2,OUT_IGN7*
G04 #@! TO.N,unconnected-(M1-OUT_IGN7-PadS2)*
X30240021Y38000000D03*
G04 #@! TO.P,M1,S3,OUT_IGN6*
G04 #@! TO.N,unconnected-(M1-OUT_IGN6-PadS3)*
X29065028Y38000000D03*
G04 #@! TO.P,M1,S4,OUT_IGN5*
G04 #@! TO.N,unconnected-(M1-OUT_IGN5-PadS4)*
X27890041Y38000000D03*
G04 #@! TO.P,M1,S5,OUT_IGN4*
G04 #@! TO.N,unconnected-(M1-OUT_IGN4-PadS5)*
X27050129Y38000000D03*
G04 #@! TO.P,M1,S6,OUT_IGN3*
G04 #@! TO.N,unconnected-(M1-OUT_IGN3-PadS6)*
X26300057Y38000000D03*
G04 #@! TO.P,M1,S7,OUT_IGN2*
G04 #@! TO.N,unconnected-(M1-OUT_IGN2-PadS7)*
X25125046Y38000000D03*
G04 #@! TO.P,M1,S8,OUT_IGN1*
G04 #@! TO.N,unconnected-(M1-OUT_IGN1-PadS8)*
X23950049Y38000000D03*
D16*
G04 #@! TO.P,M1,V1,IGN8*
G04 #@! TO.N,unconnected-(M1-IGN8-PadV1)*
X28990052Y48099607D03*
G04 #@! TO.P,M1,V2,IGN7*
G04 #@! TO.N,unconnected-(M1-IGN7-PadV2)*
X30825062Y47674599D03*
G04 #@! TO.P,M1,V3,IGN6*
G04 #@! TO.N,unconnected-(M1-IGN6-PadV3)*
X28775054Y47124602D03*
G04 #@! TO.P,M1,V4,IGN5*
G04 #@! TO.N,unconnected-(M1-IGN5-PadV4)*
X28990049Y46249643D03*
G04 #@! TO.P,M1,V5,IGN4*
G04 #@! TO.N,unconnected-(M1-IGN4-PadV5)*
X29065056Y45399620D03*
G04 #@! TO.P,M1,V6,IGN3*
G04 #@! TO.N,unconnected-(M1-IGN3-PadV6)*
X30825062Y45074604D03*
G04 #@! TO.P,M1,V7,IGN2*
G04 #@! TO.N,unconnected-(M1-IGN2-PadV7)*
X29515062Y43774637D03*
G04 #@! TO.P,M1,V8,IGN1*
G04 #@! TO.N,unconnected-(M1-IGN1-PadV8)*
X30825062Y43124620D03*
G04 #@! TO.P,M1,V9,VCC*
G04 #@! TO.N,unconnected-(M1-VCC-PadV9)*
X24900047Y50299623D03*
G04 #@! TO.P,M1,V10,V33*
G04 #@! TO.N,unconnected-(M1-V33-PadV10)*
X28975053Y49999621D03*
G04 #@! TD*
M02*
