G04 #@! TF.GenerationSoftware,KiCad,Pcbnew,8.0.9-8.0.9-0~ubuntu24.04.1*
G04 #@! TF.CreationDate,2026-07-06T14:45:12+00:00*
G04 #@! TF.ProjectId,luis48,6c756973-3438-42e6-9b69-6361645f7063,rev?*
G04 #@! TF.SameCoordinates,Original*
G04 #@! TF.FileFunction,Paste,Bot*
G04 #@! TF.FilePolarity,Positive*
%FSLAX46Y46*%
G04 Gerber Fmt 4.6, Leading zero omitted, Abs format (unit mm)*
G04 Created by KiCad (PCBNEW 8.0.9-8.0.9-0~ubuntu24.04.1) date 2026-07-06 14:45:12*
%MOMM*%
%LPD*%
G01*
G04 APERTURE LIST*
G04 APERTURE END LIST*
G04 #@! TO.C,R906*
G36*
G01*
X121171721Y48927000D02*
X121171721Y48147000D01*
G75*
G02*
X121101721Y48077000I-70000J0D01*
G01*
X120541721Y48077000D01*
G75*
G02*
X120471721Y48147000I0J70000D01*
G01*
X120471721Y48927000D01*
G75*
G02*
X120541721Y48997000I70000J0D01*
G01*
X121101721Y48997000D01*
G75*
G02*
X121171721Y48927000I0J-70000D01*
G01*
G37*
G36*
G01*
X119571721Y48927000D02*
X119571721Y48147000D01*
G75*
G02*
X119501721Y48077000I-70000J0D01*
G01*
X118941721Y48077000D01*
G75*
G02*
X118871721Y48147000I0J70000D01*
G01*
X118871721Y48927000D01*
G75*
G02*
X118941721Y48997000I70000J0D01*
G01*
X119501721Y48997000D01*
G75*
G02*
X119571721Y48927000I0J-70000D01*
G01*
G37*
G04 #@! TD*
G04 #@! TO.C,R903*
G36*
G01*
X110300000Y33980000D02*
X110300000Y33200000D01*
G75*
G02*
X110230000Y33130000I-70000J0D01*
G01*
X109670000Y33130000D01*
G75*
G02*
X109600000Y33200000I0J70000D01*
G01*
X109600000Y33980000D01*
G75*
G02*
X109670000Y34050000I70000J0D01*
G01*
X110230000Y34050000D01*
G75*
G02*
X110300000Y33980000I0J-70000D01*
G01*
G37*
G36*
G01*
X108700000Y33980000D02*
X108700000Y33200000D01*
G75*
G02*
X108630000Y33130000I-70000J0D01*
G01*
X108070000Y33130000D01*
G75*
G02*
X108000000Y33200000I0J70000D01*
G01*
X108000000Y33980000D01*
G75*
G02*
X108070000Y34050000I70000J0D01*
G01*
X108630000Y34050000D01*
G75*
G02*
X108700000Y33980000I0J-70000D01*
G01*
G37*
G04 #@! TD*
G04 #@! TO.C,R404*
G36*
G01*
X85198000Y96163000D02*
X84418000Y96163000D01*
G75*
G02*
X84348000Y96233000I0J70000D01*
G01*
X84348000Y96793000D01*
G75*
G02*
X84418000Y96863000I70000J0D01*
G01*
X85198000Y96863000D01*
G75*
G02*
X85268000Y96793000I0J-70000D01*
G01*
X85268000Y96233000D01*
G75*
G02*
X85198000Y96163000I-70000J0D01*
G01*
G37*
G36*
G01*
X85198000Y97763000D02*
X84418000Y97763000D01*
G75*
G02*
X84348000Y97833000I0J70000D01*
G01*
X84348000Y98393000D01*
G75*
G02*
X84418000Y98463000I70000J0D01*
G01*
X85198000Y98463000D01*
G75*
G02*
X85268000Y98393000I0J-70000D01*
G01*
X85268000Y97833000D01*
G75*
G02*
X85198000Y97763000I-70000J0D01*
G01*
G37*
G04 #@! TD*
G04 #@! TO.C,R406*
G36*
G01*
X82452000Y96011000D02*
X81672000Y96011000D01*
G75*
G02*
X81602000Y96081000I0J70000D01*
G01*
X81602000Y96641000D01*
G75*
G02*
X81672000Y96711000I70000J0D01*
G01*
X82452000Y96711000D01*
G75*
G02*
X82522000Y96641000I0J-70000D01*
G01*
X82522000Y96081000D01*
G75*
G02*
X82452000Y96011000I-70000J0D01*
G01*
G37*
G36*
G01*
X82452000Y97611000D02*
X81672000Y97611000D01*
G75*
G02*
X81602000Y97681000I0J70000D01*
G01*
X81602000Y98241000D01*
G75*
G02*
X81672000Y98311000I70000J0D01*
G01*
X82452000Y98311000D01*
G75*
G02*
X82522000Y98241000I0J-70000D01*
G01*
X82522000Y97681000D01*
G75*
G02*
X82452000Y97611000I-70000J0D01*
G01*
G37*
G04 #@! TD*
G04 #@! TO.C,R905*
G36*
G01*
X99673000Y64388000D02*
X99673000Y63608000D01*
G75*
G02*
X99603000Y63538000I-70000J0D01*
G01*
X99043000Y63538000D01*
G75*
G02*
X98973000Y63608000I0J70000D01*
G01*
X98973000Y64388000D01*
G75*
G02*
X99043000Y64458000I70000J0D01*
G01*
X99603000Y64458000D01*
G75*
G02*
X99673000Y64388000I0J-70000D01*
G01*
G37*
G36*
G01*
X98073000Y64388000D02*
X98073000Y63608000D01*
G75*
G02*
X98003000Y63538000I-70000J0D01*
G01*
X97443000Y63538000D01*
G75*
G02*
X97373000Y63608000I0J70000D01*
G01*
X97373000Y64388000D01*
G75*
G02*
X97443000Y64458000I70000J0D01*
G01*
X98003000Y64458000D01*
G75*
G02*
X98073000Y64388000I0J-70000D01*
G01*
G37*
G04 #@! TD*
G04 #@! TO.C,R913*
G36*
G01*
X99864000Y33271000D02*
X99864000Y32491000D01*
G75*
G02*
X99794000Y32421000I-70000J0D01*
G01*
X99234000Y32421000D01*
G75*
G02*
X99164000Y32491000I0J70000D01*
G01*
X99164000Y33271000D01*
G75*
G02*
X99234000Y33341000I70000J0D01*
G01*
X99794000Y33341000D01*
G75*
G02*
X99864000Y33271000I0J-70000D01*
G01*
G37*
G36*
G01*
X98264000Y33271000D02*
X98264000Y32491000D01*
G75*
G02*
X98194000Y32421000I-70000J0D01*
G01*
X97634000Y32421000D01*
G75*
G02*
X97564000Y32491000I0J70000D01*
G01*
X97564000Y33271000D01*
G75*
G02*
X97634000Y33341000I70000J0D01*
G01*
X98194000Y33341000D01*
G75*
G02*
X98264000Y33271000I0J-70000D01*
G01*
G37*
G04 #@! TD*
G04 #@! TO.C,R904*
G36*
G01*
X120838279Y64743000D02*
X120838279Y63963000D01*
G75*
G02*
X120768279Y63893000I-70000J0D01*
G01*
X120208279Y63893000D01*
G75*
G02*
X120138279Y63963000I0J70000D01*
G01*
X120138279Y64743000D01*
G75*
G02*
X120208279Y64813000I70000J0D01*
G01*
X120768279Y64813000D01*
G75*
G02*
X120838279Y64743000I0J-70000D01*
G01*
G37*
G36*
G01*
X119238279Y64743000D02*
X119238279Y63963000D01*
G75*
G02*
X119168279Y63893000I-70000J0D01*
G01*
X118608279Y63893000D01*
G75*
G02*
X118538279Y63963000I0J70000D01*
G01*
X118538279Y64743000D01*
G75*
G02*
X118608279Y64813000I70000J0D01*
G01*
X119168279Y64813000D01*
G75*
G02*
X119238279Y64743000I0J-70000D01*
G01*
G37*
G04 #@! TD*
G04 #@! TO.C,R403*
G36*
G01*
X86995000Y96163000D02*
X86215000Y96163000D01*
G75*
G02*
X86145000Y96233000I0J70000D01*
G01*
X86145000Y96793000D01*
G75*
G02*
X86215000Y96863000I70000J0D01*
G01*
X86995000Y96863000D01*
G75*
G02*
X87065000Y96793000I0J-70000D01*
G01*
X87065000Y96233000D01*
G75*
G02*
X86995000Y96163000I-70000J0D01*
G01*
G37*
G36*
G01*
X86995000Y97763000D02*
X86215000Y97763000D01*
G75*
G02*
X86145000Y97833000I0J70000D01*
G01*
X86145000Y98393000D01*
G75*
G02*
X86215000Y98463000I70000J0D01*
G01*
X86995000Y98463000D01*
G75*
G02*
X87065000Y98393000I0J-70000D01*
G01*
X87065000Y97833000D01*
G75*
G02*
X86995000Y97763000I-70000J0D01*
G01*
G37*
G04 #@! TD*
G04 #@! TO.C,R911*
G36*
G01*
X110511721Y49024928D02*
X110511721Y48244928D01*
G75*
G02*
X110441721Y48174928I-70000J0D01*
G01*
X109881721Y48174928D01*
G75*
G02*
X109811721Y48244928I0J70000D01*
G01*
X109811721Y49024928D01*
G75*
G02*
X109881721Y49094928I70000J0D01*
G01*
X110441721Y49094928D01*
G75*
G02*
X110511721Y49024928I0J-70000D01*
G01*
G37*
G36*
G01*
X108911721Y49024928D02*
X108911721Y48244928D01*
G75*
G02*
X108841721Y48174928I-70000J0D01*
G01*
X108281721Y48174928D01*
G75*
G02*
X108211721Y48244928I0J70000D01*
G01*
X108211721Y49024928D01*
G75*
G02*
X108281721Y49094928I70000J0D01*
G01*
X108841721Y49094928D01*
G75*
G02*
X108911721Y49024928I0J-70000D01*
G01*
G37*
G04 #@! TD*
G04 #@! TO.C,R916*
G36*
G01*
X89300000Y79770000D02*
X89300000Y78990000D01*
G75*
G02*
X89230000Y78920000I-70000J0D01*
G01*
X88670000Y78920000D01*
G75*
G02*
X88600000Y78990000I0J70000D01*
G01*
X88600000Y79770000D01*
G75*
G02*
X88670000Y79840000I70000J0D01*
G01*
X89230000Y79840000D01*
G75*
G02*
X89300000Y79770000I0J-70000D01*
G01*
G37*
G36*
G01*
X87700000Y79770000D02*
X87700000Y78990000D01*
G75*
G02*
X87630000Y78920000I-70000J0D01*
G01*
X87070000Y78920000D01*
G75*
G02*
X87000000Y78990000I0J70000D01*
G01*
X87000000Y79770000D01*
G75*
G02*
X87070000Y79840000I70000J0D01*
G01*
X87630000Y79840000D01*
G75*
G02*
X87700000Y79770000I0J-70000D01*
G01*
G37*
G04 #@! TD*
G04 #@! TO.C,R912*
G36*
G01*
X110390000Y79890000D02*
X110390000Y79110000D01*
G75*
G02*
X110320000Y79040000I-70000J0D01*
G01*
X109760000Y79040000D01*
G75*
G02*
X109690000Y79110000I0J70000D01*
G01*
X109690000Y79890000D01*
G75*
G02*
X109760000Y79960000I70000J0D01*
G01*
X110320000Y79960000D01*
G75*
G02*
X110390000Y79890000I0J-70000D01*
G01*
G37*
G36*
G01*
X108790000Y79890000D02*
X108790000Y79110000D01*
G75*
G02*
X108720000Y79040000I-70000J0D01*
G01*
X108160000Y79040000D01*
G75*
G02*
X108090000Y79110000I0J70000D01*
G01*
X108090000Y79890000D01*
G75*
G02*
X108160000Y79960000I70000J0D01*
G01*
X108720000Y79960000D01*
G75*
G02*
X108790000Y79890000I0J-70000D01*
G01*
G37*
G04 #@! TD*
G04 #@! TO.C,R915*
G36*
G01*
X100163000Y48580000D02*
X100163000Y47800000D01*
G75*
G02*
X100093000Y47730000I-70000J0D01*
G01*
X99533000Y47730000D01*
G75*
G02*
X99463000Y47800000I0J70000D01*
G01*
X99463000Y48580000D01*
G75*
G02*
X99533000Y48650000I70000J0D01*
G01*
X100093000Y48650000D01*
G75*
G02*
X100163000Y48580000I0J-70000D01*
G01*
G37*
G36*
G01*
X98563000Y48580000D02*
X98563000Y47800000D01*
G75*
G02*
X98493000Y47730000I-70000J0D01*
G01*
X97933000Y47730000D01*
G75*
G02*
X97863000Y47800000I0J70000D01*
G01*
X97863000Y48580000D01*
G75*
G02*
X97933000Y48650000I70000J0D01*
G01*
X98493000Y48650000D01*
G75*
G02*
X98563000Y48580000I0J-70000D01*
G01*
G37*
G04 #@! TD*
G04 #@! TO.C,R401*
G36*
G01*
X89352000Y96163000D02*
X88572000Y96163000D01*
G75*
G02*
X88502000Y96233000I0J70000D01*
G01*
X88502000Y96793000D01*
G75*
G02*
X88572000Y96863000I70000J0D01*
G01*
X89352000Y96863000D01*
G75*
G02*
X89422000Y96793000I0J-70000D01*
G01*
X89422000Y96233000D01*
G75*
G02*
X89352000Y96163000I-70000J0D01*
G01*
G37*
G36*
G01*
X89352000Y97763000D02*
X88572000Y97763000D01*
G75*
G02*
X88502000Y97833000I0J70000D01*
G01*
X88502000Y98393000D01*
G75*
G02*
X88572000Y98463000I70000J0D01*
G01*
X89352000Y98463000D01*
G75*
G02*
X89422000Y98393000I0J-70000D01*
G01*
X89422000Y97833000D01*
G75*
G02*
X89352000Y97763000I-70000J0D01*
G01*
G37*
G04 #@! TD*
G04 #@! TO.C,R405*
G36*
G01*
X83791000Y96163000D02*
X83011000Y96163000D01*
G75*
G02*
X82941000Y96233000I0J70000D01*
G01*
X82941000Y96793000D01*
G75*
G02*
X83011000Y96863000I70000J0D01*
G01*
X83791000Y96863000D01*
G75*
G02*
X83861000Y96793000I0J-70000D01*
G01*
X83861000Y96233000D01*
G75*
G02*
X83791000Y96163000I-70000J0D01*
G01*
G37*
G36*
G01*
X83791000Y97763000D02*
X83011000Y97763000D01*
G75*
G02*
X82941000Y97833000I0J70000D01*
G01*
X82941000Y98393000D01*
G75*
G02*
X83011000Y98463000I70000J0D01*
G01*
X83791000Y98463000D01*
G75*
G02*
X83861000Y98393000I0J-70000D01*
G01*
X83861000Y97833000D01*
G75*
G02*
X83791000Y97763000I-70000J0D01*
G01*
G37*
G04 #@! TD*
G04 #@! TO.C,R902*
G36*
G01*
X120960000Y33880000D02*
X120960000Y33100000D01*
G75*
G02*
X120890000Y33030000I-70000J0D01*
G01*
X120330000Y33030000D01*
G75*
G02*
X120260000Y33100000I0J70000D01*
G01*
X120260000Y33880000D01*
G75*
G02*
X120330000Y33950000I70000J0D01*
G01*
X120890000Y33950000D01*
G75*
G02*
X120960000Y33880000I0J-70000D01*
G01*
G37*
G36*
G01*
X119360000Y33880000D02*
X119360000Y33100000D01*
G75*
G02*
X119290000Y33030000I-70000J0D01*
G01*
X118730000Y33030000D01*
G75*
G02*
X118660000Y33100000I0J70000D01*
G01*
X118660000Y33880000D01*
G75*
G02*
X118730000Y33950000I70000J0D01*
G01*
X119290000Y33950000D01*
G75*
G02*
X119360000Y33880000I0J-70000D01*
G01*
G37*
G04 #@! TD*
G04 #@! TO.C,R402*
G36*
G01*
X90894000Y96163000D02*
X90114000Y96163000D01*
G75*
G02*
X90044000Y96233000I0J70000D01*
G01*
X90044000Y96793000D01*
G75*
G02*
X90114000Y96863000I70000J0D01*
G01*
X90894000Y96863000D01*
G75*
G02*
X90964000Y96793000I0J-70000D01*
G01*
X90964000Y96233000D01*
G75*
G02*
X90894000Y96163000I-70000J0D01*
G01*
G37*
G36*
G01*
X90894000Y97763000D02*
X90114000Y97763000D01*
G75*
G02*
X90044000Y97833000I0J70000D01*
G01*
X90044000Y98393000D01*
G75*
G02*
X90114000Y98463000I70000J0D01*
G01*
X90894000Y98463000D01*
G75*
G02*
X90964000Y98393000I0J-70000D01*
G01*
X90964000Y97833000D01*
G75*
G02*
X90894000Y97763000I-70000J0D01*
G01*
G37*
G04 #@! TD*
G04 #@! TO.C,R914*
G36*
G01*
X100030000Y79790000D02*
X100030000Y79010000D01*
G75*
G02*
X99960000Y78940000I-70000J0D01*
G01*
X99400000Y78940000D01*
G75*
G02*
X99330000Y79010000I0J70000D01*
G01*
X99330000Y79790000D01*
G75*
G02*
X99400000Y79860000I70000J0D01*
G01*
X99960000Y79860000D01*
G75*
G02*
X100030000Y79790000I0J-70000D01*
G01*
G37*
G36*
G01*
X98430000Y79790000D02*
X98430000Y79010000D01*
G75*
G02*
X98360000Y78940000I-70000J0D01*
G01*
X97800000Y78940000D01*
G75*
G02*
X97730000Y79010000I0J70000D01*
G01*
X97730000Y79790000D01*
G75*
G02*
X97800000Y79860000I70000J0D01*
G01*
X98360000Y79860000D01*
G75*
G02*
X98430000Y79790000I0J-70000D01*
G01*
G37*
G04 #@! TD*
G04 #@! TO.C,R901*
G36*
G01*
X121050000Y79790000D02*
X121050000Y79010000D01*
G75*
G02*
X120980000Y78940000I-70000J0D01*
G01*
X120420000Y78940000D01*
G75*
G02*
X120350000Y79010000I0J70000D01*
G01*
X120350000Y79790000D01*
G75*
G02*
X120420000Y79860000I70000J0D01*
G01*
X120980000Y79860000D01*
G75*
G02*
X121050000Y79790000I0J-70000D01*
G01*
G37*
G36*
G01*
X119450000Y79790000D02*
X119450000Y79010000D01*
G75*
G02*
X119380000Y78940000I-70000J0D01*
G01*
X118820000Y78940000D01*
G75*
G02*
X118750000Y79010000I0J70000D01*
G01*
X118750000Y79790000D01*
G75*
G02*
X118820000Y79860000I70000J0D01*
G01*
X119380000Y79860000D01*
G75*
G02*
X119450000Y79790000I0J-70000D01*
G01*
G37*
G04 #@! TD*
M02*
