G04 #@! TF.GenerationSoftware,KiCad,Pcbnew,8.0.9-8.0.9-0~ubuntu24.04.1*
G04 #@! TF.CreationDate,2026-07-06T02:30:03+00:00*
G04 #@! TF.ProjectId,luis48,6c756973-3438-42e6-9b69-6361645f7063,rev?*
G04 #@! TF.SameCoordinates,Original*
G04 #@! TF.FileFunction,Soldermask,Bot*
G04 #@! TF.FilePolarity,Negative*
%FSLAX46Y46*%
G04 Gerber Fmt 4.6, Leading zero omitted, Abs format (unit mm)*
G04 Created by KiCad (PCBNEW 8.0.9-8.0.9-0~ubuntu24.04.1) date 2026-07-06 02:30:03*
%MOMM*%
%LPD*%
G01*
G04 APERTURE LIST*
%ADD10C,4.150013*%
%ADD11C,2.350013*%
%ADD12C,1.800000*%
%ADD13C,0.599999*%
G04 APERTURE END LIST*
D10*
G04 #@! TO.C,U2*
X50099873Y11631102D03*
D11*
X54199949Y15480987D03*
X96799899Y15480987D03*
D10*
X100899975Y11631102D03*
D12*
X90350064Y14480987D03*
X86650038Y14480987D03*
X83149911Y14480987D03*
X80650038Y14480987D03*
X78149911Y14480987D03*
X75650038Y14480987D03*
X73149911Y14480987D03*
X70649784Y14480987D03*
X68149911Y14480987D03*
X65649784Y14480987D03*
X63149911Y14480987D03*
X60649784Y14480987D03*
X90350064Y11980987D03*
X86650038Y11981038D03*
X83149911Y11981038D03*
X80650038Y11981038D03*
X78149911Y11981038D03*
X75650038Y11981038D03*
X73149911Y11981038D03*
X70649784Y11981038D03*
X68149911Y11981038D03*
X65649784Y11981038D03*
X63149911Y11981038D03*
X60649784Y11981038D03*
X90350064Y9480987D03*
X86650038Y9481038D03*
X83149911Y9481038D03*
X80650038Y9481038D03*
X78149911Y9481038D03*
X75650038Y9481038D03*
X73149911Y9481038D03*
X70649784Y9481038D03*
X68149911Y9481038D03*
X65649784Y9481038D03*
X63149911Y9481038D03*
X60649784Y9481038D03*
X90350064Y6980987D03*
X86650038Y6981038D03*
X83149911Y6981038D03*
X80650038Y6981038D03*
X78149911Y6981038D03*
X75650038Y6981038D03*
X73149911Y6981038D03*
X70649784Y6981038D03*
X68149911Y6981038D03*
X65649784Y6981038D03*
X63149911Y6981038D03*
X60649784Y6981038D03*
G04 #@! TD*
D13*
G04 #@! TO.C,M1*
X29794889Y36063131D03*
X31629899Y35638123D03*
X29579891Y35088126D03*
X29794886Y34213167D03*
X29869893Y33363144D03*
X31629899Y33038128D03*
X30319899Y31738161D03*
X31629899Y31088144D03*
X25704884Y38263147D03*
X29779890Y37963145D03*
G04 #@! TD*
M02*
