G04 #@! TF.GenerationSoftware,KiCad,Pcbnew,8.0.9-8.0.9-0~ubuntu24.04.1*
G04 #@! TF.CreationDate,2026-07-06T02:55:58+00:00*
G04 #@! TF.ProjectId,luis48,6c756973-3438-42e6-9b69-6361645f7063,rev?*
G04 #@! TF.SameCoordinates,Original*
G04 #@! TF.FileFunction,Soldermask,Top*
G04 #@! TF.FilePolarity,Negative*
%FSLAX46Y46*%
G04 Gerber Fmt 4.6, Leading zero omitted, Abs format (unit mm)*
G04 Created by KiCad (PCBNEW 8.0.9-8.0.9-0~ubuntu24.04.1) date 2026-07-06 02:55:58*
%MOMM*%
%LPD*%
G01*
G04 APERTURE LIST*
%ADD10R,3.000000X1.600000*%
%ADD11R,6.200000X5.800000*%
%ADD12C,4.150013*%
%ADD13C,2.350013*%
%ADD14C,1.800000*%
%ADD15O,0.200000X0.399999*%
%ADD16C,0.599999*%
G04 APERTURE END LIST*
D10*
G04 #@! TO.C,U1*
X34049608Y50103792D03*
X34049608Y45523654D03*
D11*
X41229440Y47839123D03*
G04 #@! TD*
D12*
G04 #@! TO.C,U2*
X38099873Y12150115D03*
D13*
X42199949Y16000000D03*
X84799899Y16000000D03*
D12*
X88899975Y12150115D03*
D14*
X78350064Y15000000D03*
X74650038Y15000000D03*
X71149911Y15000000D03*
X68650038Y15000000D03*
X66149911Y15000000D03*
X63650038Y15000000D03*
X61149911Y15000000D03*
X58649784Y15000000D03*
X56149911Y15000000D03*
X53649784Y15000000D03*
X51149911Y15000000D03*
X48649784Y15000000D03*
X78350064Y12500000D03*
X74650038Y12500051D03*
X71149911Y12500051D03*
X68650038Y12500051D03*
X66149911Y12500051D03*
X63650038Y12500051D03*
X61149911Y12500051D03*
X58649784Y12500051D03*
X56149911Y12500051D03*
X53649784Y12500051D03*
X51149911Y12500051D03*
X48649784Y12500051D03*
X78350064Y10000000D03*
X74650038Y10000051D03*
X71149911Y10000051D03*
X68650038Y10000051D03*
X66149911Y10000051D03*
X63650038Y10000051D03*
X61149911Y10000051D03*
X58649784Y10000051D03*
X56149911Y10000051D03*
X53649784Y10000051D03*
X51149911Y10000051D03*
X48649784Y10000051D03*
X78350064Y7500000D03*
X74650038Y7500051D03*
X71149911Y7500051D03*
X68650038Y7500051D03*
X66149911Y7500051D03*
X63650038Y7500051D03*
X61149911Y7500051D03*
X58649784Y7500051D03*
X56149911Y7500051D03*
X53649784Y7500051D03*
X51149911Y7500051D03*
X48649784Y7500051D03*
G04 #@! TD*
D15*
G04 #@! TO.C,M1*
X31804837Y25963524D03*
X31044858Y25963524D03*
X29869865Y25963524D03*
X28694878Y25963524D03*
X27854966Y25963524D03*
X27104894Y25963524D03*
X25929883Y25963524D03*
X24754886Y25963524D03*
D16*
X29794889Y36063131D03*
X31629899Y35638123D03*
X29579891Y35088126D03*
X29794886Y34213167D03*
X29869893Y33363144D03*
X31629899Y33038128D03*
X30319899Y31738161D03*
X31629899Y31088144D03*
X25704884Y38263147D03*
X29779890Y37963145D03*
G04 #@! TD*
M02*
