M48
INCH,TZ
T01C0.011800
T02C0.042600
T03C0.047200
T04C0.092500
T05C0.163400
%
T01
X9803Y19803
X11329Y18553
X11408Y19685
X11413Y18209
X11413Y18937
X11443Y17874
X11620Y17234
X12136Y18770
X12136Y17746
X12136Y16978
X11620Y17234
X12136Y16978
X12136Y17746
X11443Y17874
X11414Y18208
X11329Y18553
X11414Y18937
X11408Y19685
X12136Y18769
X9803Y19803
T02
X30413Y8405
T03
X21555Y8405
X21555Y7421
X21555Y6437
X21555Y5453
X22539Y8405
X22539Y7421
X22539Y6437
X22539Y5453
X23524Y8405
X23524Y7421
X23524Y6437
X23524Y5453
X24508Y8405
X24508Y7421
X24508Y6437
X24508Y5453
X25492Y8405
X25492Y7421
X25492Y6437
X25492Y5453
X26476Y8405
X26476Y7421
X26476Y6437
X26476Y5453
X27461Y8405
X27461Y7421
X27461Y6437
X27461Y5453
X28445Y8405
X28445Y7421
X28445Y6437
X28445Y5453
X29429Y8405
X29429Y7421
X29429Y6437
X29429Y5453
X30413Y7421
X30413Y6437
X30413Y5453
X31791Y8405
X31791Y7421
X31791Y6437
X31791Y5453
X33248Y8405
X33248Y7421
X33248Y6437
X33248Y5453
T04
X19016Y8799
X35787Y8799
T05
X17402Y7283
X37402Y7283
M30
