G75*
G70*
%OFA0B0*%
%FSLAX25Y25*%
%IPPOS*%
%LPD*%
%AMOC8*
5,1,8,0,0,1.08239X$1,22.5*
%
%ADD12C,0.07087*%
%ADD16C,0.02362*%
X0000000Y0000000D02*
%LPD*%
G01*
D12*
X0332481Y0084055D03*
X0317914Y0084055D03*
X0304134Y0084055D03*
X0294292Y0084055D03*
X0284449Y0084055D03*
X0274607Y0084055D03*
X0264764Y0084055D03*
X0254921Y0084055D03*
X0245078Y0084055D03*
X0235235Y0084055D03*
X0225393Y0084055D03*
X0215550Y0084055D03*
X0332481Y0074212D03*
X0317914Y0074212D03*
X0304134Y0074212D03*
X0294292Y0074212D03*
X0284449Y0074212D03*
X0274607Y0074212D03*
X0264764Y0074212D03*
X0254921Y0074212D03*
X0245078Y0074212D03*
X0235235Y0074212D03*
X0225393Y0074212D03*
X0215550Y0074212D03*
X0332481Y0064370D03*
X0317914Y0064370D03*
X0304134Y0064370D03*
X0294292Y0064370D03*
X0284449Y0064370D03*
X0274607Y0064370D03*
X0264764Y0064370D03*
X0254921Y0064370D03*
X0245078Y0064370D03*
X0235235Y0064370D03*
X0225393Y0064370D03*
X0215550Y0064370D03*
X0332481Y0054527D03*
X0317914Y0054527D03*
X0304134Y0054527D03*
X0294292Y0054527D03*
X0284449Y0054527D03*
X0274607Y0054527D03*
X0264764Y0054527D03*
X0254921Y0054527D03*
X0245078Y0054527D03*
X0235235Y0054527D03*
X0225393Y0054527D03*
X0215550Y0054527D03*
D16*
X0114134Y0189369D03*
X0121359Y0187695D03*
X0113288Y0185530D03*
X0114134Y0182085D03*
X0114429Y0178739D03*
X0121359Y0177459D03*
X0116201Y0172341D03*
X0121359Y0169782D03*
X0098032Y0198030D03*
X0114075Y0196849D03*
X0091437Y0148522D02*
G01*
G75*
D16*
X0098031Y0198030D02*
D03*
X0114075Y0196849D02*
D03*
X0121358Y0169782D02*
D03*
X0116201Y0172341D02*
D03*
X0114429Y0178739D02*
D03*
X0121358Y0177459D02*
D03*
X0114134Y0182085D02*
D03*
X0113287Y0185530D02*
D03*
X0121358Y0187695D02*
D03*
X0114134Y0189368D02*
D03*
M02*
