M48
INCH,TZ
T01C0.011800
%
T01
X15384Y26192
X15384Y25798
X21063Y28735
X21063Y28263
X21063Y27790
X21063Y27318
X15512Y27298
X15512Y25330
X15551Y28637
X16378Y27220
X16535Y26157
X16653Y25330
X16890Y28637
X17283Y27731
X17323Y26747
X17874Y26117
X17913Y25330
X18307Y28637
X18543Y27928
X18622Y25330
X18708Y27237
X19134Y25684
X19645Y26550
X19882Y25605
X20039Y28637
X20354Y25330
X20672Y27812
X20945Y26944
X20945Y25605
X15384Y26192
X15384Y25798
X21063Y28735
X21063Y28263
X21063Y27791
X21063Y27318
M30
