G75*
G70*
%OFA0B0*%
%FSLAX25Y25*%
%IPPOS*%
%LPD*%
%AMOC8*
5,1,8,0,0,1.08239X$1,22.5*
%
%ADD10C,0.02362*%
%ADD18R,0.05512X0.01181*%
X0000000Y0000000D02*
%LPD*%
G01*
D10*
X0210630Y0277904D03*
X0210630Y0273179D03*
X0210630Y0282628D03*
X0210630Y0287352D03*
X0153839Y0261919D03*
X0153839Y0257982D03*
X0152362Y0250738D02*
%LPD*%
G01*
D10*
X0210630Y0277903D03*
X0210630Y0273179D03*
X0210630Y0282628D03*
X0210630Y0287352D03*
X0153838Y0261919D03*
X0153838Y0257982D03*
D18*
X0186220Y0263730D03*
X0186220Y0261762D03*
X0186220Y0259793D03*
X0186220Y0257825D03*
X0186220Y0255856D03*
X0203543Y0255856D03*
X0203543Y0257825D03*
X0203543Y0259793D03*
X0203543Y0261762D03*
X0203543Y0263730D03*
G36*
G01*
X0193740Y0276919D02*
X0196811Y0276919D01*
G75*
G02*
X0197086Y0276644I0000000J-000276D01*
G01*
X0197086Y0274439D01*
G75*
G02*
X0196811Y0274163I-000276J0000000D01*
G01*
X0193740Y0274163D01*
G75*
G02*
X0193464Y0274439I0000000J0000276D01*
G01*
X0193464Y0276644D01*
G75*
G02*
X0193740Y0276919I0000276J0000000D01*
G01*
G37*
G36*
G01*
X0193740Y0270620D02*
X0196811Y0270620D01*
G75*
G02*
X0197086Y0270344I0000000J-000276D01*
G01*
X0197086Y0268140D01*
G75*
G02*
X0196811Y0267864I-000276J0000000D01*
G01*
X0193740Y0267864D01*
G75*
G02*
X0193464Y0268140I0000000J0000276D01*
G01*
X0193464Y0270344D01*
G75*
G02*
X0193740Y0270620I0000276J0000000D01*
G01*
G37*
G36*
G01*
X0208071Y0283573D02*
X0208071Y0280502D01*
G75*
G02*
X0207795Y0280226I-000276J0000000D01*
G01*
X0205590Y0280226D01*
G75*
G02*
X0205315Y0280502I0000000J0000276D01*
G01*
X0205315Y0283573D01*
G75*
G02*
X0205590Y0283848I0000276J0000000D01*
G01*
X0207795Y0283848D01*
G75*
G02*
X0208071Y0283573I0000000J-000276D01*
G01*
G37*
G36*
G01*
X0201771Y0283573D02*
X0201771Y0280502D01*
G75*
G02*
X0201496Y0280226I-000276J0000000D01*
G01*
X0199291Y0280226D01*
G75*
G02*
X0199016Y0280502I0000000J0000276D01*
G01*
X0199016Y0283573D01*
G75*
G02*
X0199291Y0283848I0000276J0000000D01*
G01*
X0201496Y0283848D01*
G75*
G02*
X0201771Y0283573I0000000J-000276D01*
G01*
G37*
G36*
G01*
X0187834Y0276919D02*
X0190905Y0276919D01*
G75*
G02*
X0191181Y0276644I0000000J-000276D01*
G01*
X0191181Y0274439D01*
G75*
G02*
X0190905Y0274163I-000276J0000000D01*
G01*
X0187834Y0274163D01*
G75*
G02*
X0187559Y0274439I0000000J0000276D01*
G01*
X0187559Y0276644D01*
G75*
G02*
X0187834Y0276919I0000276J0000000D01*
G01*
G37*
G36*
G01*
X0187834Y0270620D02*
X0190905Y0270620D01*
G75*
G02*
X0191181Y0270344I0000000J-000276D01*
G01*
X0191181Y0268140D01*
G75*
G02*
X0190905Y0267864I-000276J0000000D01*
G01*
X0187834Y0267864D01*
G75*
G02*
X0187559Y0268140I0000000J0000276D01*
G01*
X0187559Y0270344D01*
G75*
G02*
X0187834Y0270620I0000276J0000000D01*
G01*
G37*
G36*
G01*
X0177185Y0280659D02*
X0179901Y0280659D01*
G75*
G02*
X0180807Y0279754I0000000J-000906D01*
G01*
X0180807Y0274478D01*
G75*
G02*
X0179901Y0273573I-000906J0000000D01*
G01*
X0177185Y0273573D01*
G75*
G02*
X0176279Y0274478I0000000J0000906D01*
G01*
X0176279Y0279754D01*
G75*
G02*
X0177185Y0280659I0000906J0000000D01*
G01*
G37*
G36*
G01*
X0165767Y0280659D02*
X0168484Y0280659D01*
G75*
G02*
X0169390Y0279754I0000000J-000906D01*
G01*
X0169390Y0274478D01*
G75*
G02*
X0168484Y0273573I-000906J0000000D01*
G01*
X0165767Y0273573D01*
G75*
G02*
X0164862Y0274478I0000000J0000906D01*
G01*
X0164862Y0279754D01*
G75*
G02*
X0165767Y0280659I0000906J0000000D01*
G01*
G37*
G36*
G01*
X0177185Y0270817D02*
X0179901Y0270817D01*
G75*
G02*
X0180807Y0269911I0000000J-000906D01*
G01*
X0180807Y0264636D01*
G75*
G02*
X0179901Y0263730I-000906J0000000D01*
G01*
X0177185Y0263730D01*
G75*
G02*
X0176279Y0264636I0000000J0000906D01*
G01*
X0176279Y0269911D01*
G75*
G02*
X0177185Y0270817I0000906J0000000D01*
G01*
G37*
G36*
G01*
X0165767Y0270817D02*
X0168484Y0270817D01*
G75*
G02*
X0169390Y0269911I0000000J-000906D01*
G01*
X0169390Y0264636D01*
G75*
G02*
X0168484Y0263730I-000906J0000000D01*
G01*
X0165767Y0263730D01*
G75*
G02*
X0164862Y0264636I0000000J0000906D01*
G01*
X0164862Y0269911D01*
G75*
G02*
X0165767Y0270817I0000906J0000000D01*
G01*
G37*
G36*
G01*
X0155118Y0277136D02*
X0155118Y0279852D01*
G75*
G02*
X0156023Y0280758I0000906J0000000D01*
G01*
X0161299Y0280758D01*
G75*
G02*
X0162205Y0279852I0000000J-000906D01*
G01*
X0162205Y0277136D01*
G75*
G02*
X0161299Y0276230I-000906J0000000D01*
G01*
X0156023Y0276230D01*
G75*
G02*
X0155118Y0277136I0000000J0000906D01*
G01*
G37*
G36*
G01*
X0155118Y0265718D02*
X0155118Y0268435D01*
G75*
G02*
X0156023Y0269340I0000906J0000000D01*
G01*
X0161299Y0269340D01*
G75*
G02*
X0162205Y0268435I0000000J-000906D01*
G01*
X0162205Y0265718D01*
G75*
G02*
X0161299Y0264813I-000906J0000000D01*
G01*
X0156023Y0264813D01*
G75*
G02*
X0155118Y0265718I0000000J0000906D01*
G01*
G37*
G36*
G01*
X0170492Y0261368D02*
X0173208Y0261368D01*
G75*
G02*
X0174114Y0260462I0000000J-000906D01*
G01*
X0174114Y0255187D01*
G75*
G02*
X0173208Y0254281I-000906J0000000D01*
G01*
X0170492Y0254281D01*
G75*
G02*
X0169586Y0255187I0000000J0000906D01*
G01*
X0169586Y0260462D01*
G75*
G02*
X0170492Y0261368I0000906J0000000D01*
G01*
G37*
G36*
G01*
X0159075Y0261368D02*
X0161791Y0261368D01*
G75*
G02*
X0162697Y0260462I0000000J-000906D01*
G01*
X0162697Y0255187D01*
G75*
G02*
X0161791Y0254281I-000906J0000000D01*
G01*
X0159075Y0254281D01*
G75*
G02*
X0158169Y0255187I0000000J0000906D01*
G01*
X0158169Y0260462D01*
G75*
G02*
X0159075Y0261368I0000906J0000000D01*
G01*
G37*
G36*
G01*
X0196161Y0283243D02*
X0196161Y0281225D01*
G75*
G02*
X0195300Y0280364I-000861J0000000D01*
G01*
X0193578Y0280364D01*
G75*
G02*
X0192716Y0281225I0000000J0000861D01*
G01*
X0192716Y0283243D01*
G75*
G02*
X0193578Y0284104I0000861J0000000D01*
G01*
X0195300Y0284104D01*
G75*
G02*
X0196161Y0283243I0000000J-000861D01*
G01*
G37*
G36*
G01*
X0189960Y0283243D02*
X0189960Y0281225D01*
G75*
G02*
X0189099Y0280364I-000861J0000000D01*
G01*
X0187377Y0280364D01*
G75*
G02*
X0186516Y0281225I0000000J0000861D01*
G01*
X0186516Y0283243D01*
G75*
G02*
X0187377Y0284104I0000861J0000000D01*
G01*
X0189099Y0284104D01*
G75*
G02*
X0189960Y0283243I0000000J-000861D01*
G01*
G37*
G36*
G01*
X0202106Y0276281D02*
X0202106Y0273604D01*
G75*
G02*
X0201771Y0273269I-000335J0000000D01*
G01*
X0199094Y0273269D01*
G75*
G02*
X0198760Y0273604I0000000J0000335D01*
G01*
X0198760Y0276281D01*
G75*
G02*
X0199094Y0276616I0000335J0000000D01*
G01*
X0201771Y0276616D01*
G75*
G02*
X0202106Y0276281I0000000J-000335D01*
G01*
G37*
G36*
G01*
X0208327Y0276281D02*
X0208327Y0273604D01*
G75*
G02*
X0207992Y0273269I-000335J0000000D01*
G01*
X0205315Y0273269D01*
G75*
G02*
X0204980Y0273604I0000000J0000335D01*
G01*
X0204980Y0276281D01*
G75*
G02*
X0205315Y0276616I0000335J0000000D01*
G01*
X0207992Y0276616D01*
G75*
G02*
X0208327Y0276281I0000000J-000335D01*
G01*
G37*
G36*
G01*
X0208327Y0270974D02*
X0208327Y0268297D01*
G75*
G02*
X0207992Y0267962I-000335J0000000D01*
G01*
X0205315Y0267962D01*
G75*
G02*
X0204980Y0268297I0000000J0000335D01*
G01*
X0204980Y0270974D01*
G75*
G02*
X0205315Y0271309I0000335J0000000D01*
G01*
X0207992Y0271309D01*
G75*
G02*
X0208327Y0270974I0000000J-000335D01*
G01*
G37*
G36*
G01*
X0202106Y0270974D02*
X0202106Y0268297D01*
G75*
G02*
X0201771Y0267962I-000335J0000000D01*
G01*
X0199094Y0267962D01*
G75*
G02*
X0198760Y0268297I0000000J0000335D01*
G01*
X0198760Y0270974D01*
G75*
G02*
X0199094Y0271309I0000335J0000000D01*
G01*
X0201771Y0271309D01*
G75*
G02*
X0202106Y0270974I0000000J-000335D01*
G01*
G37*
G36*
G01*
X0182913Y0277175D02*
X0185590Y0277175D01*
G75*
G02*
X0185925Y0276840I0000000J-000335D01*
G01*
X0185925Y0274163D01*
G75*
G02*
X0185590Y0273829I-000335J0000000D01*
G01*
X0182913Y0273829D01*
G75*
G02*
X0182579Y0274163I0000000J0000335D01*
G01*
X0182579Y0276840D01*
G75*
G02*
X0182913Y0277175I0000335J0000000D01*
G01*
G37*
G36*
G01*
X0182913Y0270955D02*
X0185590Y0270955D01*
G75*
G02*
X0185925Y0270620I0000000J-000335D01*
G01*
X0185925Y0267943D01*
G75*
G02*
X0185590Y0267608I-000335J0000000D01*
G01*
X0182913Y0267608D01*
G75*
G02*
X0182579Y0267943I0000000J0000335D01*
G01*
X0182579Y0270620D01*
G75*
G02*
X0182913Y0270955I0000335J0000000D01*
G01*
G37*
M02*
