G75*
G70*
%OFA0B0*%
%FSLAX25Y25*%
%IPPOS*%
%LPD*%
%AMOC8*
5,1,8,0,0,1.08239X$1,22.5*
%
%ADD19C,0.00591*%
%ADD20C,0.01000*%
%ADD21C,0.00787*%
%ADD23C,0.00984*%
%ADD36C,0.00800*%
%ADD37C,0.00669*%
X0000000Y0000000D02*
%LPD*%
G01*
D19*
X0146988Y0211163D02*
X0146988Y0207976D01*
X0146988Y0207976D02*
X0147175Y0207601D01*
X0147175Y0207601D02*
X0147363Y0207414D01*
X0147363Y0207414D02*
X0147738Y0207226D01*
X0147738Y0207226D02*
X0148487Y0207226D01*
X0148487Y0207226D02*
X0148862Y0207414D01*
X0148862Y0207414D02*
X0149050Y0207601D01*
X0149050Y0207601D02*
X0149237Y0207976D01*
X0149237Y0207976D02*
X0149237Y0211163D01*
X0153174Y0207226D02*
X0150925Y0207226D01*
X0152050Y0207226D02*
X0152050Y0211163D01*
X0152050Y0211163D02*
X0151675Y0210601D01*
X0151675Y0210601D02*
X0151300Y0210226D01*
X0151300Y0210226D02*
X0150925Y0210039D01*
X0294243Y0074867D02*
X0294243Y0071680D01*
X0294243Y0071680D02*
X0294431Y0071305D01*
X0294431Y0071305D02*
X0294618Y0071117D01*
X0294618Y0071117D02*
X0294993Y0070930D01*
X0294993Y0070930D02*
X0295743Y0070930D01*
X0295743Y0070930D02*
X0296118Y0071117D01*
X0296118Y0071117D02*
X0296305Y0071305D01*
X0296305Y0071305D02*
X0296493Y0071680D01*
X0296493Y0071680D02*
X0296493Y0074867D01*
X0298180Y0074492D02*
X0298368Y0074679D01*
X0298368Y0074679D02*
X0298743Y0074867D01*
X0298743Y0074867D02*
X0299680Y0074867D01*
X0299680Y0074867D02*
X0300055Y0074679D01*
X0300055Y0074679D02*
X0300242Y0074492D01*
X0300242Y0074492D02*
X0300430Y0074117D01*
X0300430Y0074117D02*
X0300430Y0073742D01*
X0300430Y0073742D02*
X0300242Y0073180D01*
X0300242Y0073180D02*
X0297993Y0070930D01*
X0297993Y0070930D02*
X0300430Y0070930D01*
X0361574Y0029060D02*
X0364011Y0029060D01*
X0364011Y0029060D02*
X0362699Y0027560D01*
X0362699Y0027560D02*
X0363261Y0027560D01*
X0363261Y0027560D02*
X0363636Y0027373D01*
X0363636Y0027373D02*
X0363824Y0027185D01*
X0363824Y0027185D02*
X0364011Y0026810D01*
X0364011Y0026810D02*
X0364011Y0025873D01*
X0364011Y0025873D02*
X0363824Y0025498D01*
X0363824Y0025498D02*
X0363636Y0025311D01*
X0363636Y0025311D02*
X0363261Y0025123D01*
X0363261Y0025123D02*
X0362136Y0025123D01*
X0362136Y0025123D02*
X0361761Y0025311D01*
X0361761Y0025311D02*
X0361574Y0025498D01*
X0365323Y0029060D02*
X0367948Y0029060D01*
X0367948Y0029060D02*
X0366261Y0025123D01*
X0220647Y0039018D02*
X0223084Y0039018D01*
X0223084Y0039018D02*
X0221771Y0037518D01*
X0221771Y0037518D02*
X0222334Y0037518D01*
X0222334Y0037518D02*
X0222709Y0037331D01*
X0222709Y0037331D02*
X0222896Y0037143D01*
X0222896Y0037143D02*
X0223084Y0036768D01*
X0223084Y0036768D02*
X0223084Y0035831D01*
X0223084Y0035831D02*
X0222896Y0035456D01*
X0222896Y0035456D02*
X0222709Y0035269D01*
X0222709Y0035269D02*
X0222334Y0035081D01*
X0222334Y0035081D02*
X0221209Y0035081D01*
X0221209Y0035081D02*
X0220834Y0035269D01*
X0220834Y0035269D02*
X0220647Y0035456D01*
X0226458Y0039018D02*
X0225708Y0039018D01*
X0225708Y0039018D02*
X0225333Y0038831D01*
X0225333Y0038831D02*
X0225146Y0038643D01*
X0225146Y0038643D02*
X0224771Y0038081D01*
X0224771Y0038081D02*
X0224584Y0037331D01*
X0224584Y0037331D02*
X0224584Y0035831D01*
X0224584Y0035831D02*
X0224771Y0035456D01*
X0224771Y0035456D02*
X0224959Y0035269D01*
X0224959Y0035269D02*
X0225333Y0035081D01*
X0225333Y0035081D02*
X0226083Y0035081D01*
X0226083Y0035081D02*
X0226458Y0035269D01*
X0226458Y0035269D02*
X0226646Y0035456D01*
X0226646Y0035456D02*
X0226833Y0035831D01*
X0226833Y0035831D02*
X0226833Y0036768D01*
X0226833Y0036768D02*
X0226646Y0037143D01*
X0226646Y0037143D02*
X0226458Y0037331D01*
X0226458Y0037331D02*
X0226083Y0037518D01*
X0226083Y0037518D02*
X0225333Y0037518D01*
X0225333Y0037518D02*
X0224959Y0037331D01*
X0224959Y0037331D02*
X0224771Y0037143D01*
X0224771Y0037143D02*
X0224584Y0036768D01*
X0367465Y0055042D02*
X0365215Y0055042D01*
X0366340Y0055042D02*
X0366340Y0058979D01*
X0366340Y0058979D02*
X0365965Y0058417D01*
X0365965Y0058417D02*
X0365590Y0058042D01*
X0365590Y0058042D02*
X0365215Y0057854D01*
X0222708Y0027475D02*
X0222708Y0024850D01*
X0221770Y0028975D02*
X0220833Y0026162D01*
X0220833Y0026162D02*
X0223270Y0026162D01*
X0225332Y0027100D02*
X0224958Y0027287D01*
X0224958Y0027287D02*
X0224770Y0027475D01*
X0224770Y0027475D02*
X0224583Y0027850D01*
X0224583Y0027850D02*
X0224583Y0028037D01*
X0224583Y0028037D02*
X0224770Y0028412D01*
X0224770Y0028412D02*
X0224958Y0028600D01*
X0224958Y0028600D02*
X0225332Y0028787D01*
X0225332Y0028787D02*
X0226082Y0028787D01*
X0226082Y0028787D02*
X0226457Y0028600D01*
X0226457Y0028600D02*
X0226645Y0028412D01*
X0226645Y0028412D02*
X0226832Y0028037D01*
X0226832Y0028037D02*
X0226832Y0027850D01*
X0226832Y0027850D02*
X0226645Y0027475D01*
X0226645Y0027475D02*
X0226457Y0027287D01*
X0226457Y0027287D02*
X0226082Y0027100D01*
X0226082Y0027100D02*
X0225332Y0027100D01*
X0225332Y0027100D02*
X0224958Y0026912D01*
X0224958Y0026912D02*
X0224770Y0026725D01*
X0224770Y0026725D02*
X0224583Y0026350D01*
X0224583Y0026350D02*
X0224583Y0025600D01*
X0224583Y0025600D02*
X0224770Y0025225D01*
X0224770Y0025225D02*
X0224958Y0025038D01*
X0224958Y0025038D02*
X0225332Y0024850D01*
X0225332Y0024850D02*
X0226082Y0024850D01*
X0226082Y0024850D02*
X0226457Y0025038D01*
X0226457Y0025038D02*
X0226645Y0025225D01*
X0226645Y0025225D02*
X0226832Y0025600D01*
X0226832Y0025600D02*
X0226832Y0026350D01*
X0226832Y0026350D02*
X0226645Y0026725D01*
X0226645Y0026725D02*
X0226457Y0026912D01*
X0226457Y0026912D02*
X0226082Y0027100D01*
X0223857Y0055039D02*
X0221607Y0055039D01*
X0222732Y0055039D02*
X0222732Y0058976D01*
X0222732Y0058976D02*
X0222357Y0058414D01*
X0222357Y0058414D02*
X0221982Y0058039D01*
X0221982Y0058039D02*
X0221607Y0057851D01*
X0225357Y0058601D02*
X0225544Y0058789D01*
X0225544Y0058789D02*
X0225919Y0058976D01*
X0225919Y0058976D02*
X0226856Y0058976D01*
X0226856Y0058976D02*
X0227231Y0058789D01*
X0227231Y0058789D02*
X0227419Y0058601D01*
X0227419Y0058601D02*
X0227606Y0058226D01*
X0227606Y0058226D02*
X0227606Y0057851D01*
X0227606Y0057851D02*
X0227419Y0057289D01*
X0227419Y0057289D02*
X0225169Y0055039D01*
X0225169Y0055039D02*
X0227606Y0055039D01*
X0364411Y0045202D02*
X0362161Y0045202D01*
X0363286Y0045202D02*
X0363286Y0049139D01*
X0363286Y0049139D02*
X0362911Y0048577D01*
X0362911Y0048577D02*
X0362536Y0048202D01*
X0362536Y0048202D02*
X0362161Y0048014D01*
X0365723Y0049139D02*
X0368161Y0049139D01*
X0368161Y0049139D02*
X0366848Y0047639D01*
X0366848Y0047639D02*
X0367411Y0047639D01*
X0367411Y0047639D02*
X0367786Y0047452D01*
X0367786Y0047452D02*
X0367973Y0047264D01*
X0367973Y0047264D02*
X0368161Y0046889D01*
X0368161Y0046889D02*
X0368161Y0045952D01*
X0368161Y0045952D02*
X0367973Y0045577D01*
X0367973Y0045577D02*
X0367786Y0045390D01*
X0367786Y0045390D02*
X0367411Y0045202D01*
X0367411Y0045202D02*
X0366286Y0045202D01*
X0366286Y0045202D02*
X0365911Y0045390D01*
X0365911Y0045390D02*
X0365723Y0045577D01*
X0221233Y0048491D02*
X0221420Y0048679D01*
X0221420Y0048679D02*
X0221795Y0048866D01*
X0221795Y0048866D02*
X0222733Y0048866D01*
X0222733Y0048866D02*
X0223108Y0048679D01*
X0223108Y0048679D02*
X0223295Y0048491D01*
X0223295Y0048491D02*
X0223483Y0048116D01*
X0223483Y0048116D02*
X0223483Y0047741D01*
X0223483Y0047741D02*
X0223295Y0047179D01*
X0223295Y0047179D02*
X0221046Y0044929D01*
X0221046Y0044929D02*
X0223483Y0044929D01*
X0226857Y0047554D02*
X0226857Y0044929D01*
X0225920Y0049054D02*
X0224983Y0046241D01*
X0224983Y0046241D02*
X0227420Y0046241D01*
X0361763Y0038916D02*
X0361951Y0039104D01*
X0361951Y0039104D02*
X0362326Y0039291D01*
X0362326Y0039291D02*
X0363263Y0039291D01*
X0363263Y0039291D02*
X0363638Y0039104D01*
X0363638Y0039104D02*
X0363826Y0038916D01*
X0363826Y0038916D02*
X0364013Y0038541D01*
X0364013Y0038541D02*
X0364013Y0038166D01*
X0364013Y0038166D02*
X0363826Y0037604D01*
X0363826Y0037604D02*
X0361576Y0035354D01*
X0361576Y0035354D02*
X0364013Y0035354D01*
X0367575Y0039291D02*
X0365700Y0039291D01*
X0365700Y0039291D02*
X0365513Y0037416D01*
X0365513Y0037416D02*
X0365700Y0037604D01*
X0365700Y0037604D02*
X0366075Y0037791D01*
X0366075Y0037791D02*
X0367013Y0037791D01*
X0367013Y0037791D02*
X0367388Y0037604D01*
X0367388Y0037604D02*
X0367575Y0037416D01*
X0367575Y0037416D02*
X0367763Y0037041D01*
X0367763Y0037041D02*
X0367763Y0036104D01*
X0367763Y0036104D02*
X0367575Y0035729D01*
X0367575Y0035729D02*
X0367388Y0035542D01*
X0367388Y0035542D02*
X0367013Y0035354D01*
X0367013Y0035354D02*
X0366075Y0035354D01*
X0366075Y0035354D02*
X0365700Y0035542D01*
X0365700Y0035542D02*
X0365513Y0035729D01*
D20*
X0141521Y0201143D02*
X0165921Y0201143D01*
X0141521Y0175343D02*
X0141521Y0201143D01*
X0165921Y0175343D02*
X0141521Y0175343D01*
X0134088Y0202143D02*
G75*
G02*
X0133088Y0202143I-000500J0000000D01*
G01*
X0133088Y0202143D02*
G75*
G02*
X0134088Y0202143I0000500J0000000D01*
G01*
X0159621Y0000000D02*
X0159621Y0034729D01*
X0159622Y0034728D02*
X0188818Y0034728D01*
X0187401Y0050870D02*
X0189901Y0050870D01*
X0187401Y0040634D02*
X0187401Y0050870D01*
X0188818Y0040634D02*
X0187401Y0040634D01*
X0188818Y0034728D02*
X0188818Y0040634D01*
X0204586Y0050870D02*
X0218819Y0050870D01*
X0208267Y0064846D02*
X0209673Y0064846D01*
X0208267Y0062604D02*
X0208267Y0064846D01*
X0208267Y0053035D02*
X0208267Y0059294D01*
X0217098Y0064846D02*
X0377389Y0064846D01*
X0218819Y0053035D02*
X0208267Y0053035D01*
X0218819Y0050870D02*
X0218819Y0053035D01*
X0375609Y0053035D02*
X0386161Y0053035D01*
X0375609Y0050869D02*
X0375609Y0053035D01*
X0384815Y0064846D02*
X0385708Y0064846D01*
X0386161Y0062603D02*
X0386161Y0064846D01*
X0386161Y0053035D02*
X0386161Y0059294D01*
X0389842Y0050869D02*
X0375609Y0050869D01*
X0405670Y0040634D02*
X0407087Y0040634D01*
X0405670Y0034728D02*
X0405670Y0040634D01*
X0407087Y0050869D02*
X0404587Y0050869D01*
X0407087Y0040634D02*
X0407087Y0050869D01*
X0412008Y0056225D02*
X0415945Y0057406D01*
X0412008Y0056225D02*
X0415945Y0055043D01*
X0428543Y0056225D02*
X0412008Y0056225D01*
X0428543Y0056225D02*
X0428543Y0045595D01*
X0428543Y0045595D02*
X0427362Y0049138D01*
X0428543Y0045595D02*
X0429724Y0049138D01*
X0434867Y0000000D02*
X0434867Y0034728D01*
X0434867Y0034728D02*
X0405670Y0034728D01*
D21*
X0094704Y0153938D02*
X0096119Y0155352D01*
X0094704Y0102514D02*
X0094704Y0153938D01*
X0094704Y0102514D02*
X0095689Y0101530D01*
X0095689Y0101530D02*
X0124627Y0101530D01*
X0096119Y0155352D02*
X0118720Y0155352D01*
X0118720Y0153005D02*
X0118720Y0155352D01*
X0118720Y0153005D02*
X0121673Y0150052D01*
X0121673Y0150052D02*
X0125610Y0150052D01*
X0124627Y0101530D02*
X0125610Y0102512D01*
X0125610Y0142670D02*
X0125610Y0150052D01*
X0125610Y0102512D02*
X0125610Y0142670D01*
X0094606Y0101134D02*
G01*
G75*
D21*
X0108418Y0149461D02*
X0108691Y0148444D01*
X0109436Y0147699D01*
X0110452Y0147427D01*
X0111469Y0147699D01*
X0112214Y0148444D01*
X0112487Y0149461D01*
X0121673Y0150051D02*
X0125610Y0150051D01*
X0118720Y0153004D02*
X0118720Y0155352D01*
X0094704Y0153937D02*
X0096119Y0155352D01*
X0094704Y0102513D02*
X0094704Y0153937D01*
X0094704Y0102513D02*
X0095689Y0101529D01*
X0125610Y0102512D02*
X0125610Y0142669D01*
X0124627Y0101529D02*
X0125610Y0102512D01*
X0095689Y0101529D02*
X0124627Y0101529D01*
X0125610Y0142669D02*
X0125610Y0150051D01*
X0118720Y0153004D02*
X0121673Y0150051D01*
X0096119Y0155352D02*
X0118720Y0155352D01*
X0116555Y0118358D02*
X0116555Y0149461D01*
X0104350Y0118358D02*
X0104350Y0149461D01*
X0104350Y0118358D02*
X0116555Y0118358D01*
X0112487Y0149461D02*
X0116555Y0149461D01*
X0104350Y0149461D02*
X0108418Y0149461D01*
X0102086Y0150347D02*
X0102086Y0153299D01*
X0112618Y0150543D02*
X0112618Y0153496D01*
D23*
X0097067Y0150150D02*
X0096575Y0151002D01*
X0095590Y0151002D01*
X0095098Y0150150D01*
X0095590Y0149297D01*
X0096575Y0149297D01*
X0097067Y0150150D01*
X0104449Y0147788D02*
X0105562Y0148249D01*
X0106023Y0149362D01*
D36*
X0120094Y0113257D02*
X0121669Y0113257D01*
X0120098Y0116193D02*
X0121673Y0116193D01*
X0114295Y0106055D02*
X0114295Y0107630D01*
X0111359Y0106059D02*
X0111359Y0107634D01*
X0105036Y0106059D02*
X0105036Y0107634D01*
X0107972Y0106055D02*
X0107972Y0107630D01*
X0103346Y0106055D02*
X0103346Y0107630D01*
X0100410Y0106059D02*
X0100410Y0107634D01*
X0120587Y0105961D02*
X0120587Y0107536D01*
X0123523Y0105957D02*
X0123523Y0107532D01*
X0107102Y0112863D02*
X0108677Y0112863D01*
X0107106Y0115799D02*
X0108681Y0115799D01*
X0095784Y0106059D02*
X0095784Y0107634D01*
X0098720Y0106055D02*
X0098720Y0107630D01*
X0115981Y0106059D02*
X0115981Y0107634D01*
X0118917Y0106055D02*
X0118917Y0107630D01*
D37*
X0108878Y0129121D02*
X0111502Y0129121D01*
X0112027Y0129646D01*
X0112027Y0130696D01*
X0111502Y0131220D01*
X0108878Y0131220D01*
X0112027Y0133844D02*
X0108878Y0133844D01*
X0110452Y0132270D01*
X0110452Y0134369D01*
X0108878Y0137518D02*
X0109403Y0136468D01*
X0110452Y0135419D01*
X0111502Y0135419D01*
X0112027Y0135943D01*
X0112027Y0136993D01*
X0111502Y0137518D01*
X0110977Y0137518D01*
X0110452Y0136993D01*
X0110452Y0135419D01*
X0109403Y0138567D02*
X0108878Y0139092D01*
X0108878Y0140141D01*
X0109403Y0140666D01*
X0111502Y0140666D01*
X0112027Y0140141D01*
X0112027Y0139092D01*
X0111502Y0138567D01*
X0109403Y0138567D01*
M02*
