M48
INCH,TZ
T01C0.011800
T02C0.042600
T03C0.047200
T04C0.092500
T05C0.163400
%
T01
X10120Y15064
X11646Y13814
X11724Y14946
X11730Y13470
X11730Y14198
X11760Y13135
X11937Y12495
X12453Y14031
X12453Y13007
X12453Y12239
X11937Y12495
X12453Y12239
X12453Y13007
X11760Y13135
X11731Y13469
X11646Y13814
X11731Y14198
X11725Y14946
X12453Y14030
X10120Y15064
T02
X28012Y5906
T03
X19153Y5906
X19153Y4921
X19153Y3937
X19153Y2953
X20138Y5906
X20138Y4921
X20138Y3937
X20138Y2953
X21122Y5906
X21122Y4921
X21122Y3937
X21122Y2953
X22106Y5906
X22106Y4921
X22106Y3937
X22106Y2953
X23090Y5906
X23090Y4921
X23090Y3937
X23090Y2953
X24075Y5906
X24075Y4921
X24075Y3937
X24075Y2953
X25059Y5906
X25059Y4921
X25059Y3937
X25059Y2953
X26043Y5906
X26043Y4921
X26043Y3937
X26043Y2953
X27028Y5906
X27028Y4921
X27028Y3937
X27028Y2953
X28012Y4921
X28012Y3937
X28012Y2953
X29390Y5906
X29390Y4921
X29390Y3937
X29390Y2953
X30846Y5906
X30846Y4921
X30846Y3937
X30846Y2953
T04
X16614Y6299
X33386Y6299
T05
X15000Y4784
X35000Y4784
M30
