G75*
G70*
%OFA0B0*%
%FSLAX25Y25*%
%IPPOS*%
%LPD*%
%AMOC8*
5,1,8,0,0,1.08239X$1,22.5*
%
%ADD20C,0.01000*%
%ADD21C,0.00787*%
X0000000Y0000000D02*
%LPD*%
G01*
D21*
X0091536Y0201326D02*
X0092959Y0202749D01*
X0091536Y0149902D02*
X0091536Y0201326D01*
X0091536Y0149902D02*
X0092520Y0148917D01*
X0092520Y0148917D02*
X0121458Y0148917D01*
X0092959Y0202749D02*
X0115551Y0202749D01*
X0115551Y0200392D02*
X0115551Y0202749D01*
X0115551Y0200392D02*
X0118504Y0197439D01*
X0118504Y0197439D02*
X0122441Y0197439D01*
X0121458Y0148917D02*
X0122441Y0149900D01*
X0122441Y0149900D02*
X0122441Y0197439D01*
X0091437Y0148522D02*
G01*
G75*
D21*
X0118504Y0197439D02*
X0122441Y0197439D01*
X0115551Y0200392D02*
X0115551Y0202749D01*
X0091535Y0201325D02*
X0092959Y0202749D01*
X0091535Y0149901D02*
X0091535Y0201325D01*
X0091535Y0149901D02*
X0092520Y0148917D01*
X0121458Y0148917D01*
X0122441Y0149900D01*
X0122441Y0197439D01*
X0115551Y0200392D02*
X0118504Y0197439D01*
X0092959Y0202749D02*
X0115551Y0202749D01*
D20*
X0095389Y0153951D02*
X0095389Y0155525D01*
X0095389Y0154738D01*
X0098538Y0154738D01*
X0098538Y0153951D01*
X0093815Y0159461D02*
X0093815Y0160248D01*
X0094602Y0161036D01*
X0098538Y0161036D01*
X0098538Y0158674D01*
X0097751Y0157887D01*
X0096176Y0157887D01*
X0095389Y0158674D01*
X0095389Y0161036D01*
X0095389Y0162610D02*
X0098538Y0162610D01*
X0098538Y0164971D01*
X0097751Y0165758D01*
X0095389Y0165758D01*
X0099325Y0167333D02*
X0100112Y0168120D01*
X0100112Y0169694D01*
X0099325Y0170481D01*
X0098538Y0170481D01*
X0097751Y0169694D01*
X0096963Y0170481D01*
X0096176Y0170481D01*
X0095389Y0169694D01*
X0095389Y0168120D01*
X0096176Y0167333D01*
X0096963Y0167333D01*
X0097751Y0168120D01*
X0098538Y0167333D01*
X0099325Y0167333D01*
X0097751Y0168120D02*
X0097751Y0169694D01*
X0097751Y0172056D02*
X0097751Y0175204D01*
X0099325Y0176778D02*
X0100112Y0177565D01*
X0100112Y0179140D01*
X0099325Y0179927D01*
X0096176Y0179927D01*
X0095389Y0179140D01*
X0095389Y0177565D01*
X0096176Y0176778D01*
X0099325Y0176778D01*
X0095389Y0181501D02*
X0096176Y0181501D01*
X0096176Y0182288D01*
X0095389Y0182288D01*
X0095389Y0181501D01*
X0095389Y0188586D02*
X0095389Y0185437D01*
X0098538Y0188586D01*
X0099325Y0188586D01*
X0100112Y0187798D01*
X0100112Y0186224D01*
X0099325Y0185437D01*
M02*
