M48
INCH,TZ
T01C0.011800
T02C0.042600
T03C0.047200
T04C0.092500
T05C0.163400
%
T01
X10120Y15064
X11646Y13814
X11724Y14946
X11730Y13470
X11730Y14198
X11760Y13135
X11937Y12495
X12453Y14031
X12453Y13007
X12453Y12239
X11937Y12495
X12453Y12239
X12453Y13007
X11760Y13135
X11731Y13469
X11646Y13814
X11731Y14198
X11725Y14946
X12453Y14030
X10120Y15064
T02
X32736Y5701
T03
X23878Y5701
X23878Y4717
X23878Y3733
X23878Y2748
X24862Y5701
X24862Y4717
X24862Y3733
X24862Y2748
X25846Y5701
X25846Y4717
X25846Y3733
X25846Y2748
X26831Y5701
X26831Y4717
X26831Y3733
X26831Y2748
X27815Y5701
X27815Y4717
X27815Y3733
X27815Y2748
X28799Y5701
X28799Y4717
X28799Y3733
X28799Y2748
X29783Y5701
X29783Y4717
X29783Y3733
X29783Y2748
X30768Y5701
X30768Y4717
X30768Y3733
X30768Y2748
X31752Y5701
X31752Y4717
X31752Y3733
X31752Y2748
X32736Y4717
X32736Y3733
X32736Y2748
X34114Y5701
X34114Y4717
X34114Y3733
X34114Y2748
X35571Y5701
X35571Y4717
X35571Y3733
X35571Y2748
T04
X21339Y6095
X38110Y6095
T05
X19724Y4579
X39724Y4579
M30
