G75*
G70*
%OFA0B0*%
%FSLAX25Y25*%
%IPPOS*%
%LPD*%
%AMOC8*
5,1,8,0,0,1.08239X$1,22.5*
%
%ADD10C,0.02362*%
%ADD11R,0.00984X0.24350*%
%ADD12R,0.00984X0.04390*%
%ADD13R,0.56201X0.00984*%
%ADD14R,0.59449X0.00984*%
%ADD15R,0.00984X0.20374*%
X0152362Y0250738D02*
%LPD*%
G01*
D10*
X0210630Y0277903D03*
X0210630Y0273179D03*
X0210630Y0282628D03*
X0210630Y0287352D03*
D11*
X0152953Y0276850D03*
D12*
X0152953Y0253031D03*
D13*
X0180561Y0288533D03*
D14*
X0182185Y0251329D03*
D15*
X0211417Y0261023D03*
D10*
X0153838Y0261919D03*
X0153838Y0257982D03*
D10*
X0206725Y0278116D03*
X0155118Y0272982D03*
X0185433Y0279281D03*
X0209449Y0269439D03*
X0183071Y0286368D03*
X0179134Y0253297D03*
X0166535Y0253297D03*
X0168897Y0286368D03*
X0200393Y0286368D03*
X0155512Y0286368D03*
X0209449Y0256053D03*
X0172834Y0277313D03*
X0187078Y0272364D03*
X0203543Y0253297D03*
X0165354Y0261565D03*
X0186220Y0253297D03*
X0178740Y0261171D03*
X0196456Y0265502D03*
X0198819Y0256053D03*
X0163779Y0272195D03*
X0155118Y0253297D03*
X0191338Y0256840D03*
X0173228Y0267470D03*
G36*
X0208501Y0288951D02*
G01*
X0208642Y0288756D01*
X0208661Y0288636D01*
X0208661Y0271210D01*
X0208661Y0271210D01*
X0211519Y0271210D01*
X0211749Y0271136D01*
X0211890Y0270941D01*
X0211909Y0270821D01*
X0211909Y0251228D01*
X0211835Y0250999D01*
X0211640Y0250857D01*
X0211519Y0250838D01*
X0152852Y0250838D01*
X0152623Y0250913D01*
X0152481Y0251108D01*
X0152462Y0251228D01*
X0152462Y0254836D01*
X0152537Y0255066D01*
X0152732Y0255207D01*
X0152852Y0255226D01*
X0153475Y0255226D01*
X0153499Y0255225D01*
X0153504Y0255224D01*
X0154173Y0255224D01*
X0154173Y0255224D01*
X0154824Y0255384D01*
X0155417Y0255696D01*
X0155918Y0256140D01*
X0156298Y0256691D01*
X0156536Y0257317D01*
X0156617Y0257982D01*
X0156536Y0258647D01*
X0156298Y0259273D01*
X0155984Y0259729D01*
X0155915Y0259960D01*
X0155984Y0260172D01*
X0156298Y0260628D01*
X0156536Y0261254D01*
X0156617Y0261919D01*
X0156536Y0262584D01*
X0156298Y0263210D01*
X0155918Y0263761D01*
X0155417Y0264205D01*
X0154824Y0264517D01*
X0154824Y0264517D01*
X0154824Y0264517D01*
X0154173Y0264677D01*
X0154173Y0264677D01*
X0153504Y0264677D01*
X0153499Y0264676D01*
X0153475Y0264675D01*
X0152852Y0264675D01*
X0152623Y0264749D01*
X0152481Y0264944D01*
X0152462Y0265065D01*
X0152462Y0288636D01*
X0152537Y0288865D01*
X0152732Y0289006D01*
X0152852Y0289025D01*
X0208271Y0289025D01*
X0208501Y0288951D01*
G37*
M02*
