G75*
G70*
%OFA0B0*%
%FSLAX25Y25*%
%IPPOS*%
%LPD*%
%AMOC8*
5,1,8,0,0,1.08239X$1,22.5*
%
%AMM1*
21,1,0.033470,0.026770,0.000000,0.000000,0.000000*
21,1,0.026770,0.033470,0.000000,0.000000,0.000000*
1,1,0.006690,0.013390,-0.013390*
1,1,0.006690,-0.013390,-0.013390*
1,1,0.006690,-0.013390,0.013390*
1,1,0.006690,0.013390,0.013390*
%
%AMM2*
21,1,0.027560,0.030710,0.000000,0.000000,0.000000*
21,1,0.022050,0.036220,0.000000,0.000000,0.000000*
1,1,0.005510,0.011020,-0.015350*
1,1,0.005510,-0.011020,-0.015350*
1,1,0.005510,-0.011020,0.015350*
1,1,0.005510,0.011020,0.015350*
%
%AMM3*
21,1,0.027560,0.030710,0.000000,0.000000,270.000000*
21,1,0.022050,0.036220,0.000000,0.000000,270.000000*
1,1,0.005510,-0.015350,-0.011020*
1,1,0.005510,-0.015350,0.011020*
1,1,0.005510,0.015350,0.011020*
1,1,0.005510,0.015350,-0.011020*
%
%AMM4*
21,1,0.015750,0.009840,0.000000,0.000000,45.000000*
1,1,0.009840,-0.005570,-0.005570*
1,1,0.009840,0.005570,0.005570*
%
%ADD10R,0.11811X0.06299*%
%ADD11R,0.24409X0.22835*%
%ADD12C,0.07087*%
%ADD13O,0.00984X0.40157*%
%ADD14O,0.22835X0.00984*%
%ADD15O,0.00787X0.01575*%
%ADD16C,0.02362*%
%ADD21C,0.00787*%
%ADD23C,0.00984*%
%ADD24O,0.04961X0.00984*%
%ADD25M1*%
%ADD26M2*%
%ADD27M3*%
%ADD28M4*%
%ADD29O,0.00984X0.40158*%
X0000000Y0000000D02*
%LPD*%
G01*
D10*
X0134054Y0197259D03*
X0134054Y0179227D03*
D11*
X0162321Y0188343D03*
D12*
X0308465Y0059055D03*
X0293898Y0059055D03*
X0280118Y0059055D03*
X0270276Y0059055D03*
X0260433Y0059055D03*
X0250591Y0059055D03*
X0240748Y0059055D03*
X0230905Y0059055D03*
X0221063Y0059055D03*
X0211220Y0059055D03*
X0201378Y0059055D03*
X0191535Y0059055D03*
X0308465Y0049213D03*
X0293898Y0049213D03*
X0280118Y0049213D03*
X0270276Y0049213D03*
X0260433Y0049213D03*
X0250591Y0049213D03*
X0240748Y0049213D03*
X0230905Y0049213D03*
X0221063Y0049213D03*
X0211220Y0049213D03*
X0201378Y0049213D03*
X0191535Y0049213D03*
X0308465Y0039370D03*
X0293898Y0039370D03*
X0280118Y0039370D03*
X0270276Y0039370D03*
X0260433Y0039370D03*
X0250591Y0039370D03*
X0240748Y0039370D03*
X0230905Y0039370D03*
X0221063Y0039370D03*
X0211220Y0039370D03*
X0201378Y0039370D03*
X0191535Y0039370D03*
X0308465Y0029528D03*
X0293898Y0029528D03*
X0280118Y0029528D03*
X0270276Y0029528D03*
X0260433Y0029528D03*
X0250591Y0029528D03*
X0240748Y0029528D03*
X0230905Y0029528D03*
X0221063Y0029528D03*
X0211220Y0029528D03*
X0201378Y0029528D03*
X0191535Y0029528D03*
D13*
X0095196Y0134205D03*
G36*
G01*
X0094882Y0153379D02*
X0094882Y0153379D01*
G75*
G02*
X0094882Y0154075I0000348J0000348D01*
G01*
X0095996Y0155189D01*
G75*
G02*
X0096692Y0155189I0000348J-000348D01*
G01*
X0096692Y0155189D01*
G75*
G02*
X0096692Y0154493I-000348J-000348D01*
G01*
X0095578Y0153379D01*
G75*
G02*
X0094882Y0153379I-000348J0000348D01*
G01*
G37*
D14*
X0107450Y0154875D03*
D15*
X0125216Y0102219D03*
X0122224Y0102219D03*
X0117598Y0102219D03*
X0112972Y0102219D03*
X0109665Y0102219D03*
X0106712Y0102219D03*
X0102086Y0102219D03*
X0097460Y0102219D03*
D16*
X0117303Y0141981D03*
X0124527Y0140308D03*
X0116456Y0138142D03*
X0117303Y0134698D03*
X0117598Y0131351D03*
X0124527Y0130071D03*
X0119370Y0124953D03*
X0124527Y0122394D03*
X0101200Y0150642D03*
X0117244Y0149461D03*
X0094606Y0101134D02*
G01*
G75*
G36*
X0113245Y0153260D02*
X0113245Y0150583D01*
X0113332Y0150145D01*
X0113580Y0149774D01*
X0113952Y0149526D01*
X0114389Y0149439D01*
X0115241Y0149439D01*
X0115390Y0148693D01*
X0115825Y0148042D01*
X0116476Y0147606D01*
X0117244Y0147454D01*
X0117749Y0147554D01*
X0118199Y0147181D01*
X0118203Y0147174D01*
X0118203Y0145878D01*
X0118302Y0145379D01*
X0118585Y0144956D01*
X0118952Y0144589D01*
X0118982Y0144227D01*
X0118931Y0143973D01*
X0118885Y0143942D01*
X0118780Y0143786D01*
X0118290Y0143688D01*
X0118071Y0143835D01*
X0117303Y0143988D01*
X0116535Y0143835D01*
X0115884Y0143400D01*
X0115449Y0142748D01*
X0115296Y0141980D01*
X0115449Y0141212D01*
X0115884Y0140561D01*
X0115903Y0140549D01*
X0115797Y0140018D01*
X0115688Y0139996D01*
X0115037Y0139561D01*
X0114602Y0138910D01*
X0114449Y0138142D01*
X0114602Y0137374D01*
X0115037Y0136723D01*
X0115518Y0136401D01*
X0115687Y0136269D01*
X0115661Y0135783D01*
X0115449Y0135465D01*
X0115296Y0134697D01*
X0115449Y0133929D01*
X0115884Y0133278D01*
X0116179Y0133081D01*
X0116179Y0132770D01*
X0115744Y0132119D01*
X0115591Y0131351D01*
X0115744Y0130583D01*
X0116179Y0129931D01*
X0116695Y0129586D01*
X0116695Y0129573D01*
X0116695Y0129573D01*
X0116787Y0129112D01*
X0117048Y0128721D01*
X0118485Y0127285D01*
X0118501Y0127217D01*
X0118394Y0126668D01*
X0117951Y0126372D01*
X0117515Y0125721D01*
X0117363Y0124953D01*
X0117515Y0124185D01*
X0117951Y0123534D01*
X0118602Y0123099D01*
X0118691Y0122571D01*
X0118656Y0122394D01*
X0118755Y0121895D01*
X0118972Y0121570D01*
X0118994Y0121252D01*
X0118931Y0120941D01*
X0118885Y0120911D01*
X0118659Y0120574D01*
X0118088Y0120438D01*
X0114846Y0123680D01*
X0114846Y0130169D01*
X0114846Y0130169D01*
X0114754Y0130630D01*
X0114493Y0131021D01*
X0114493Y0131021D01*
X0113323Y0132191D01*
X0113323Y0132191D01*
X0102150Y0143364D01*
X0102150Y0143366D01*
X0101933Y0143690D01*
X0101911Y0144009D01*
X0101974Y0144319D01*
X0102020Y0144350D01*
X0102350Y0144843D01*
X0102367Y0144925D01*
X0098956Y0144925D01*
X0098956Y0145925D01*
X0102367Y0145925D01*
X0102350Y0146007D01*
X0102020Y0146501D01*
X0101935Y0146558D01*
X0101935Y0146721D01*
X0101996Y0147118D01*
X0102517Y0147639D01*
X0102800Y0148062D01*
X0102899Y0148561D01*
X0102899Y0149091D01*
X0103204Y0149254D01*
X0103399Y0149313D01*
X0103858Y0149222D01*
X0104697Y0149222D01*
X0104697Y0151921D01*
X0105697Y0151921D01*
X0105697Y0149222D01*
X0106535Y0149222D01*
X0107056Y0149326D01*
X0107352Y0149524D01*
X0107648Y0149326D01*
X0108169Y0149222D01*
X0109007Y0149222D01*
X0109007Y0151921D01*
X0109507Y0151921D01*
X0109507Y0152421D01*
X0112207Y0152421D01*
X0112207Y0153260D01*
X0112283Y0153353D01*
X0113169Y0153353D01*
X0113245Y0153260D01*
D02*
G37*
%LPC*%
G36*
X0112207Y0151421D02*
X0110008Y0151421D01*
X0110008Y0149222D01*
X0110846Y0149222D01*
X0111367Y0149326D01*
X0111808Y0149621D01*
X0112103Y0150062D01*
X0112207Y0150583D01*
X0112207Y0151421D01*
D02*
G37*
%LPD*%
D21*
X0119960Y0127512D02*
X0121949Y0127512D01*
X0117899Y0129573D02*
X0119960Y0127512D01*
X0117899Y0129573D02*
X0117899Y0131049D01*
X0117598Y0131351D02*
X0117899Y0131049D01*
X0121870Y0132630D02*
X0121949Y0132630D01*
X0119960Y0132630D02*
X0121870Y0132630D01*
X0118195Y0134396D02*
X0119960Y0132630D01*
X0117604Y0134396D02*
X0118195Y0134396D01*
X0117303Y0134697D02*
X0117604Y0134396D01*
X0120014Y0135189D02*
X0121949Y0135189D01*
X0119665Y0135538D02*
X0120014Y0135189D01*
X0119665Y0135538D02*
X0119665Y0135675D01*
X0117500Y0137841D02*
X0119665Y0135675D01*
X0116758Y0137841D02*
X0117500Y0137841D01*
X0116456Y0138142D02*
X0116758Y0137841D01*
X0118377Y0139525D02*
X0118921Y0138981D01*
X0117303Y0141554D02*
X0117303Y0141980D01*
X0117303Y0141554D02*
X0118287Y0140570D01*
X0118287Y0139652D02*
X0118287Y0140570D01*
X0118287Y0139652D02*
X0118377Y0139562D01*
X0118377Y0139525D02*
X0118377Y0139562D01*
X0120014Y0137748D02*
X0121949Y0137748D01*
X0118921Y0138841D02*
X0120014Y0137748D01*
X0118921Y0138841D02*
X0118921Y0138981D01*
X0121771Y0132728D02*
X0121870Y0132630D01*
X0102618Y0119142D02*
X0102618Y0123659D01*
X0099330Y0115835D02*
X0102413Y0118917D01*
X0102413Y0118937D01*
X0102618Y0119142D01*
X0101362Y0124915D02*
X0102618Y0123659D01*
X0101871Y0144306D02*
X0115216Y0130961D01*
X0101871Y0144306D02*
X0101871Y0144499D01*
X0115216Y0123973D02*
X0115216Y0130961D01*
X0115216Y0123973D02*
X0118567Y0120622D01*
X0108917Y0121173D02*
X0113602Y0116488D01*
X0108917Y0121173D02*
X0108917Y0127571D01*
X0110492Y0121826D02*
X0110492Y0128223D01*
X0113412Y0118905D02*
X0113412Y0118905D01*
X0110492Y0121826D02*
X0113412Y0118905D01*
X0112067Y0122478D02*
X0112067Y0129185D01*
X0112067Y0122478D02*
X0116993Y0117551D01*
X0100945Y0145425D02*
X0101871Y0144499D01*
X0098994Y0127474D02*
X0101466Y0127474D01*
X0104193Y0118489D02*
X0104193Y0124748D01*
X0101466Y0127474D02*
X0104193Y0124748D01*
X0098956Y0127512D02*
X0098994Y0127474D01*
X0101889Y0109992D02*
X0102086Y0109992D01*
X0098956Y0124953D02*
X0098994Y0124915D01*
X0101362Y0124915D01*
X0121082Y0110484D02*
X0121673Y0109894D01*
X0118989Y0118162D02*
X0121082Y0116068D01*
X0121082Y0110484D02*
X0121082Y0116068D01*
X0118567Y0120622D02*
X0118567Y0120622D01*
X0119354Y0119835D02*
X0121949Y0119835D01*
X0118567Y0120622D02*
X0119354Y0119835D01*
X0118661Y0118162D02*
X0118989Y0118162D01*
X0113642Y0123181D02*
X0118661Y0118162D01*
X0113642Y0123181D02*
X0113642Y0130169D01*
X0112471Y0131339D02*
X0112471Y0131339D01*
X0113642Y0130169D01*
X0100945Y0142866D02*
X0112471Y0131339D01*
X0098956Y0142866D02*
X0100945Y0142866D01*
X0100945Y0140307D02*
X0112067Y0129185D01*
X0098956Y0140307D02*
X0100945Y0140307D01*
X0098956Y0137748D02*
X0100967Y0137748D01*
X0110492Y0128223D01*
X0098956Y0135189D02*
X0098994Y0135151D01*
X0101337Y0135151D01*
X0108917Y0127571D01*
X0098956Y0132630D02*
X0098994Y0132592D01*
X0101398Y0132592D01*
X0107342Y0126649D01*
X0101693Y0130071D02*
X0105768Y0125996D01*
X0098956Y0130071D02*
X0101693Y0130071D01*
X0105768Y0117817D02*
X0105768Y0125996D01*
X0116993Y0115459D02*
X0117736Y0114717D01*
X0116993Y0115459D02*
X0116993Y0117551D01*
X0115177Y0112578D02*
X0115177Y0117141D01*
X0113412Y0118905D02*
X0115177Y0117141D01*
X0115177Y0112578D02*
X0116073Y0111682D01*
X0112421Y0109795D02*
X0113602Y0110977D01*
X0106712Y0109992D02*
X0107097Y0110377D01*
X0107097Y0111979D01*
X0107342Y0112224D02*
X0107342Y0126649D01*
X0107097Y0111979D02*
X0107342Y0112224D01*
X0109665Y0111567D02*
X0110105Y0112007D01*
X0109665Y0102218D02*
X0109665Y0111567D01*
X0123838Y0114717D02*
X0124776Y0113779D01*
X0116073Y0110967D02*
X0117047Y0109992D01*
X0116073Y0110967D02*
X0116073Y0111682D01*
X0110105Y0112007D02*
X0110105Y0113581D01*
X0124776Y0111882D02*
X0125216Y0111442D01*
X0125216Y0102218D02*
X0125216Y0111442D01*
X0113602Y0110977D02*
X0113602Y0116488D01*
X0104744Y0114323D02*
X0104744Y0116794D01*
X0105768Y0117817D01*
X0103988Y0118265D02*
X0103988Y0118285D01*
X0104193Y0118489D01*
X0100905Y0110977D02*
X0100905Y0115182D01*
X0103988Y0118265D01*
X0098248Y0110780D02*
X0098248Y0114752D01*
X0099330Y0115835D01*
X0099330Y0115835D01*
X0110105Y0113581D02*
X0110846Y0114323D01*
X0100905Y0110977D02*
X0101889Y0109992D01*
X0097460Y0109992D02*
X0098248Y0110780D01*
X0124776Y0111882D02*
X0124776Y0113779D01*
D23*
X0119960Y0147984D02*
X0121949Y0147984D01*
X0117617Y0149461D02*
X0118077Y0149000D01*
X0119508Y0145878D02*
X0119508Y0147984D01*
X0119960Y0145425D02*
X0121949Y0145425D01*
X0119508Y0145878D02*
X0119960Y0145425D01*
X0118077Y0149000D02*
X0118492Y0149000D01*
X0119960Y0147984D02*
X0119960Y0147984D01*
X0118492Y0149000D02*
X0119508Y0147984D01*
X0119960Y0147984D01*
X0117244Y0149461D02*
X0117617Y0149461D01*
X0095197Y0122394D02*
X0095197Y0145327D01*
X0095197Y0122394D02*
X0098956Y0122394D01*
X0097067Y0119835D02*
X0098956Y0119835D01*
X0096968Y0119835D02*
X0097067Y0119835D01*
X0097067Y0122295D01*
X0096082Y0118949D02*
X0096968Y0119835D01*
X0095689Y0118949D02*
X0096082Y0118949D01*
X0109507Y0151921D02*
X0109507Y0154874D01*
X0107450Y0154874D02*
X0109507Y0154874D01*
X0105197Y0151921D02*
X0105197Y0154874D01*
X0107450Y0154874D01*
X0116909Y0150168D02*
X0116909Y0150740D01*
X0115728Y0151921D02*
X0116909Y0150740D01*
X0116909Y0150168D02*
X0117244Y0149834D01*
X0117244Y0149461D02*
X0117244Y0149834D01*
X0109507Y0151921D02*
X0116988Y0144441D01*
X0118322Y0144441D01*
X0119897Y0142866D01*
X0121949Y0142866D01*
X0100945Y0145425D02*
X0102086Y0145425D01*
X0104507Y0147846D02*
X0104507Y0151232D01*
X0102086Y0145425D02*
X0104507Y0147846D01*
X0098956Y0145425D02*
X0100945Y0145425D01*
X0105197Y0151921D02*
X0109507Y0151921D01*
X0095492Y0145425D02*
X0098956Y0145425D01*
X0104507Y0151232D02*
X0105197Y0151921D01*
X0098976Y0151921D02*
X0100157Y0150740D01*
X0101200Y0150740D01*
X0101594Y0150347D01*
X0101594Y0148561D02*
X0101594Y0150347D01*
X0098956Y0147984D02*
X0101018Y0147984D01*
X0101594Y0148561D01*
X0101871Y0144499D02*
X0101871Y0144499D01*
D24*
X0121949Y0119835D02*
D03*
X0121949Y0122394D02*
D03*
X0121949Y0124953D02*
D03*
X0121949Y0127512D02*
D03*
X0121949Y0130071D02*
D03*
X0121949Y0132630D02*
D03*
X0121949Y0135189D02*
D03*
X0121949Y0137748D02*
D03*
X0121949Y0140307D02*
D03*
X0121949Y0142866D02*
D03*
X0121949Y0145425D02*
D03*
X0121949Y0147984D02*
D03*
X0098956Y0119835D02*
D03*
X0098956Y0122394D02*
D03*
X0098956Y0124953D02*
D03*
X0098956Y0127512D02*
D03*
X0098956Y0130071D02*
D03*
X0098956Y0132630D02*
D03*
X0098956Y0135189D02*
D03*
X0098956Y0137748D02*
D03*
X0098956Y0140307D02*
D03*
X0098956Y0142866D02*
D03*
X0098956Y0145425D02*
D03*
X0098956Y0147984D02*
D03*
D25*
X0098976Y0151921D02*
D03*
X0105197Y0151921D02*
D03*
X0115728Y0151921D02*
D03*
X0109507Y0151921D02*
D03*
D26*
X0117736Y0114717D02*
D03*
X0124035Y0114717D02*
D03*
X0104744Y0114323D02*
D03*
X0111043Y0114323D02*
D03*
D27*
X0112819Y0103693D02*
D03*
X0112819Y0109992D02*
D03*
X0106496Y0109992D02*
D03*
X0106496Y0103693D02*
D03*
X0101870Y0103693D02*
D03*
X0101870Y0109992D02*
D03*
X0122047Y0109894D02*
D03*
X0122047Y0103595D02*
D03*
X0097244Y0109992D02*
D03*
X0097244Y0103693D02*
D03*
X0117441Y0109992D02*
D03*
X0117441Y0103693D02*
D03*
D28*
X0095787Y0154284D02*
D03*
D14*
X0107450Y0154874D02*
D03*
D29*
X0095197Y0134205D02*
D03*
D15*
X0097460Y0102218D02*
D03*
X0102086Y0102218D02*
D03*
X0125216Y0102218D02*
D03*
X0122224Y0102218D02*
D03*
X0117598Y0102218D02*
D03*
X0106712Y0102218D02*
D03*
X0112972Y0102218D02*
D03*
X0109665Y0102218D02*
D03*
D16*
X0101200Y0150642D02*
D03*
X0117244Y0149461D02*
D03*
X0124527Y0122394D02*
D03*
X0119370Y0124953D02*
D03*
X0117598Y0131351D02*
D03*
X0124527Y0130071D02*
D03*
X0117303Y0134697D02*
D03*
X0116456Y0138142D02*
D03*
X0124527Y0140307D02*
D03*
X0117303Y0141980D02*
D03*
M02*
