G75*
G70*
%OFA0B0*%
%FSLAX25Y25*%
%IPPOS*%
%LPD*%
%AMOC8*
5,1,8,0,0,1.08239X$1,22.5*
%
%ADD20C,0.01000*%
%ADD21C,0.00787*%
X0000000Y0000000D02*
%LPD*%
G01*
D21*
X0094704Y0153938D02*
X0096128Y0155362D01*
X0094704Y0102514D02*
X0094704Y0153938D01*
X0094704Y0102514D02*
X0095689Y0101530D01*
X0095689Y0101530D02*
X0124627Y0101530D01*
X0096128Y0155362D02*
X0118720Y0155362D01*
X0118720Y0153005D02*
X0118720Y0155362D01*
X0118720Y0153005D02*
X0121673Y0150052D01*
X0121673Y0150052D02*
X0125610Y0150052D01*
X0124627Y0101530D02*
X0125610Y0102512D01*
X0125610Y0102512D02*
X0125610Y0150052D01*
X0094606Y0101134D02*
G01*
G75*
D21*
X0121673Y0150051D02*
X0125610Y0150051D01*
X0118720Y0153004D02*
X0118720Y0155361D01*
X0094704Y0153937D02*
X0096128Y0155361D01*
X0094704Y0102513D02*
X0094704Y0153937D01*
X0094704Y0102513D02*
X0095689Y0101529D01*
X0124627Y0101529D01*
X0125610Y0102512D01*
X0125610Y0150051D01*
X0118720Y0153004D02*
X0121673Y0150051D01*
X0096128Y0155361D02*
X0118720Y0155361D01*
D20*
X0098558Y0106563D02*
X0098558Y0108137D01*
X0098558Y0107350D01*
X0101707Y0107350D01*
X0101707Y0106563D01*
X0096984Y0112073D02*
X0096984Y0112860D01*
X0097771Y0113648D01*
X0101707Y0113648D01*
X0101707Y0111286D01*
X0100920Y0110499D01*
X0099345Y0110499D01*
X0098558Y0111286D01*
X0098558Y0113648D01*
X0098558Y0115222D02*
X0101707Y0115222D01*
X0101707Y0117583D01*
X0100920Y0118370D01*
X0098558Y0118370D01*
X0102494Y0119945D02*
X0103281Y0120732D01*
X0103281Y0122306D01*
X0102494Y0123093D01*
X0101707Y0123093D01*
X0100920Y0122306D01*
X0100132Y0123093D01*
X0099345Y0123093D01*
X0098558Y0122306D01*
X0098558Y0120732D01*
X0099345Y0119945D01*
X0100132Y0119945D01*
X0100920Y0120732D01*
X0101707Y0119945D01*
X0102494Y0119945D01*
X0100920Y0120732D02*
X0100920Y0122306D01*
X0100920Y0124668D02*
X0100920Y0127816D01*
X0102494Y0129390D02*
X0103281Y0130177D01*
X0103281Y0131752D01*
X0102494Y0132539D01*
X0099345Y0132539D01*
X0098558Y0131752D01*
X0098558Y0130177D01*
X0099345Y0129390D01*
X0102494Y0129390D01*
X0098558Y0134113D02*
X0099345Y0134113D01*
X0099345Y0134900D01*
X0098558Y0134900D01*
X0098558Y0134113D01*
X0098558Y0141198D02*
X0098558Y0138049D01*
X0101707Y0141198D01*
X0102494Y0141198D01*
X0103281Y0140410D01*
X0103281Y0138836D01*
X0102494Y0138049D01*
M02*
