G75*
G70*
%OFA0B0*%
%FSLAX25Y25*%
%IPPOS*%
%LPD*%
%AMOC8*
5,1,8,0,0,1.08239X$1,22.5*
%
%ADD12C,0.07087*%
%ADD16C,0.02362*%
X0000000Y0000000D02*
%LPD*%
G01*
D12*
X0355709Y0057012D03*
X0341142Y0057012D03*
X0327362Y0057012D03*
X0317520Y0057012D03*
X0307677Y0057012D03*
X0297835Y0057012D03*
X0287992Y0057012D03*
X0278149Y0057012D03*
X0268307Y0057012D03*
X0258464Y0057012D03*
X0248622Y0057012D03*
X0238779Y0057012D03*
X0355709Y0047169D03*
X0341142Y0047169D03*
X0327362Y0047169D03*
X0317520Y0047169D03*
X0307677Y0047169D03*
X0297835Y0047169D03*
X0287992Y0047169D03*
X0278149Y0047169D03*
X0268307Y0047169D03*
X0258464Y0047169D03*
X0248622Y0047169D03*
X0238779Y0047169D03*
X0355709Y0037327D03*
X0341142Y0037327D03*
X0327362Y0037327D03*
X0317520Y0037327D03*
X0307677Y0037327D03*
X0297835Y0037327D03*
X0287992Y0037327D03*
X0278149Y0037327D03*
X0268307Y0037327D03*
X0258464Y0037327D03*
X0248622Y0037327D03*
X0238779Y0037327D03*
X0355709Y0027484D03*
X0341142Y0027484D03*
X0327362Y0027484D03*
X0317520Y0027484D03*
X0307677Y0027484D03*
X0297835Y0027484D03*
X0287992Y0027484D03*
X0278149Y0027484D03*
X0268307Y0027484D03*
X0258464Y0027484D03*
X0248622Y0027484D03*
X0238779Y0027484D03*
D16*
X0117303Y0141981D03*
X0124527Y0140308D03*
X0116456Y0138142D03*
X0117303Y0134698D03*
X0117598Y0131351D03*
X0124527Y0130071D03*
X0119370Y0124953D03*
X0124527Y0122394D03*
X0101200Y0150642D03*
X0117244Y0149461D03*
X0094606Y0101134D02*
G01*
G75*
D16*
X0101200Y0150642D02*
D03*
X0117244Y0149461D02*
D03*
X0124527Y0122394D02*
D03*
X0119370Y0124953D02*
D03*
X0117598Y0131351D02*
D03*
X0124527Y0130071D02*
D03*
X0117303Y0134697D02*
D03*
X0116456Y0138142D02*
D03*
X0124527Y0140307D02*
D03*
X0117303Y0141980D02*
D03*
M02*
