G75*
G70*
%OFA0B0*%
%FSLAX25Y25*%
%IPPOS*%
%LPD*%
%AMOC8*
5,1,8,0,0,1.08239X$1,22.5*
%
%AMM5*
21,1,0.038980,0.026770,0.000000,0.000000,0.000000*
21,1,0.026770,0.038980,0.000000,0.000000,0.000000*
1,1,0.012210,0.013390,-0.013390*
1,1,0.012210,-0.013390,-0.013390*
1,1,0.012210,-0.013390,0.013390*
1,1,0.012210,0.013390,0.013390*
%
%AMM6*
21,1,0.033070,0.030710,0.000000,0.000000,0.000000*
21,1,0.022050,0.041730,0.000000,0.000000,0.000000*
1,1,0.011020,0.011020,-0.015350*
1,1,0.011020,-0.011020,-0.015350*
1,1,0.011020,-0.011020,0.015350*
1,1,0.011020,0.011020,0.015350*
%
%AMM7*
21,1,0.033070,0.030710,0.000000,0.000000,270.000000*
21,1,0.022050,0.041730,0.000000,0.000000,270.000000*
1,1,0.011020,-0.015350,-0.011020*
1,1,0.011020,-0.015350,0.011020*
1,1,0.011020,0.015350,0.011020*
1,1,0.011020,0.015350,-0.011020*
%
%ADD10R,0.11811X0.06299*%
%ADD11R,0.24409X0.22835*%
%ADD14O,0.00787X0.01575*%
%ADD15C,0.02362*%
%ADD27O,0.01339X0.02126*%
%ADD28O,0.05512X0.01535*%
%ADD29M5*%
%ADD30M6*%
%ADD31M7*%
%ADD32C,0.02913*%
X0000000Y0000000D02*
%LPD*%
G01*
D10*
X0134054Y0197259D03*
X0134054Y0179227D03*
D11*
X0162321Y0188343D03*
D14*
X0122047Y0149606D03*
X0119055Y0149606D03*
X0114429Y0149606D03*
X0109803Y0149606D03*
X0106497Y0149606D03*
X0103544Y0149606D03*
X0098918Y0149606D03*
X0094292Y0149606D03*
D15*
X0114134Y0189369D03*
X0121359Y0187695D03*
X0113288Y0185530D03*
X0114134Y0182085D03*
X0114429Y0178739D03*
X0121359Y0177459D03*
X0116201Y0172341D03*
X0121359Y0169782D03*
X0098032Y0198030D03*
X0114075Y0196849D03*
X0091437Y0148522D02*
G01*
G75*
D27*
X0094291Y0149606D02*
D03*
X0098917Y0149606D02*
D03*
X0122047Y0149606D02*
D03*
X0119055Y0149606D02*
D03*
X0114429Y0149606D02*
D03*
X0103543Y0149606D02*
D03*
X0109803Y0149606D02*
D03*
X0106496Y0149606D02*
D03*
D28*
X0118780Y0167223D02*
D03*
X0118780Y0169782D02*
D03*
X0118780Y0172341D02*
D03*
X0118780Y0174900D02*
D03*
X0118780Y0177459D02*
D03*
X0118780Y0180018D02*
D03*
X0118780Y0182577D02*
D03*
X0118780Y0185136D02*
D03*
X0118780Y0187695D02*
D03*
X0118780Y0190254D02*
D03*
X0118780Y0192813D02*
D03*
X0118780Y0195372D02*
D03*
X0095787Y0167223D02*
D03*
X0095787Y0169782D02*
D03*
X0095787Y0172341D02*
D03*
X0095787Y0174900D02*
D03*
X0095787Y0177459D02*
D03*
X0095787Y0180018D02*
D03*
X0095787Y0182577D02*
D03*
X0095787Y0185136D02*
D03*
X0095787Y0187695D02*
D03*
X0095787Y0190254D02*
D03*
X0095787Y0192813D02*
D03*
X0095787Y0195372D02*
D03*
D29*
X0095807Y0199309D02*
D03*
X0102028Y0199309D02*
D03*
X0112559Y0199309D02*
D03*
X0106338Y0199309D02*
D03*
D30*
X0114567Y0162105D02*
D03*
X0120866Y0162105D02*
D03*
X0101575Y0161711D02*
D03*
X0107874Y0161711D02*
D03*
D31*
X0109650Y0151081D02*
D03*
X0109650Y0157380D02*
D03*
X0103327Y0157380D02*
D03*
X0103327Y0151081D02*
D03*
X0098701Y0151081D02*
D03*
X0098701Y0157380D02*
D03*
X0118878Y0157282D02*
D03*
X0118878Y0150983D02*
D03*
X0094075Y0157380D02*
D03*
X0094075Y0151081D02*
D03*
X0114272Y0157380D02*
D03*
X0114272Y0151081D02*
D03*
D32*
X0098031Y0198030D02*
D03*
X0114075Y0196849D02*
D03*
X0121358Y0169782D02*
D03*
X0116201Y0172341D02*
D03*
X0114429Y0178739D02*
D03*
X0121358Y0177459D02*
D03*
X0114134Y0182085D02*
D03*
X0113287Y0185530D02*
D03*
X0121358Y0187695D02*
D03*
X0114134Y0189368D02*
D03*
M02*
